<?xml version="1.0" encoding="utf-8" standalone="no"?>
<!DOCTYPE svg PUBLIC "-//W3C//DTD SVG 1.1//EN"
  "http://www.w3.org/Graphics/SVG/1.1/DTD/svg11.dtd">
<svg xmlns:xlink="http://www.w3.org/1999/xlink" width="419.1192pt" height="190.08pt" viewBox="0 0 419.1192 190.08" xmlns="http://www.w3.org/2000/svg" version="1.1">
 <metadata>
  <rdf:RDF xmlns:dc="http://purl.org/dc/elements/1.1/" xmlns:cc="http://creativecommons.org/ns#" xmlns:rdf="http://www.w3.org/1999/02/22-rdf-syntax-ns#">
   <cc:Work>
    <dc:type rdf:resource="http://purl.org/dc/dcmitype/StillImage"/>
    <dc:date>2025-11-17T12:54:23.655868</dc:date>
    <dc:format>image/svg+xml</dc:format>
    <dc:creator>
     <cc:Agent>
      <dc:title>Matplotlib v3.10.6, https://matplotlib.org/</dc:title>
     </cc:Agent>
    </dc:creator>
   </cc:Work>
  </rdf:RDF>
 </metadata>
 <defs>
  <style type="text/css">*{stroke-linejoin: round; stroke-linecap: butt}</style>
 </defs>
 <g id="figure_1">
  <g id="patch_1">
   <path d="M 0 190.08 
L 419.1192 190.08 
L 419.1192 0 
L 0 0 
z
" style="fill: #ffffff"/>
  </g>
  <g id="axes_1">
   <g id="patch_2">
    <path d="M 31.161149 159.998056 
L 419.1192 159.998056 
L 419.1192 0 
L 31.161149 0 
z
" style="fill: #ffffff"/>
   </g>
   <g id="line2d_1">
    <path d="M 40.183429 159.998058 
L 41.987885 144.571257 
L 43.792341 140.187872 
L 45.596797 133.596918 
L 49.205709 124.104369 
L 51.010165 118.288823 
L 52.814621 113.712882 
L 54.619077 106.089663 
L 56.423533 101.145806 
L 58.227989 94.008541 
L 61.836902 85.035763 
L 63.641358 82.084784 
L 65.445814 76.604194 
L 67.25027 70.536104 
L 69.054726 70.526789 
L 70.859182 64.990286 
L 72.663638 55.927494 
L 74.468094 53.188469 
L 76.27255 50.1606 
L 78.077006 50.342462 
L 79.881462 50.862367 
L 81.685918 49.550442 
L 83.490374 46.447522 
L 85.29483 42.566449 
L 87.099286 41.275078 
L 88.903742 39.316388 
L 90.708198 42.194702 
L 92.512654 41.167339 
L 94.31711 40.706042 
L 96.121567 37.400258 
L 99.730479 35.316048 
L 101.534935 33.910907 
L 103.339391 35.67323 
L 105.143847 33.720219 
L 106.948303 36.233655 
L 108.752759 38.301933 
L 110.557215 37.364976 
L 112.361671 36.857642 
L 114.166127 36.99857 
L 115.970583 36.644576 
L 117.775039 34.386944 
L 119.579495 32.505492 
L 121.383951 34.611837 
L 123.188407 33.659925 
L 124.992863 35.738703 
L 126.797319 35.144767 
L 130.406232 31.633602 
L 132.210688 30.600362 
L 134.015144 29.201673 
L 135.8196 28.977739 
L 137.624056 28.627295 
L 141.232968 33.700749 
L 143.037424 34.013397 
L 144.84188 33.429068 
L 146.646336 32.496469 
L 148.450792 29.012787 
L 150.255248 31.235286 
L 152.059704 27.750894 
L 153.86416 26.61748 
L 155.668616 29.92314 
L 157.473072 30.237617 
L 159.277528 31.101882 
L 161.081984 30.548116 
L 162.88644 28.431865 
L 164.690897 28.5764 
L 166.495353 27.905553 
L 168.299809 26.228377 
L 170.104265 27.070082 
L 171.908721 28.140019 
L 173.713177 27.273709 
L 175.517633 26.717462 
L 177.322089 29.724576 
L 179.126545 29.025019 
L 180.931001 27.012601 
L 182.735457 27.922745 
L 184.539913 27.357117 
L 186.344369 27.720766 
L 188.148825 25.746871 
L 189.953281 24.601107 
L 193.562193 25.287971 
L 195.366649 24.567843 
L 197.171105 23.387399 
L 198.975562 23.254438 
L 200.780018 25.254078 
L 202.584474 23.67402 
L 204.38893 25.203194 
L 206.193386 24.653483 
L 207.997842 23.421601 
L 211.606754 21.575901 
L 213.41121 21.590024 
L 215.215666 22.657997 
L 217.020122 23.004693 
L 218.824578 22.330156 
L 220.629034 24.230503 
L 222.43349 23.725176 
L 224.237946 24.019021 
L 226.042402 24.034444 
L 227.846858 23.323447 
L 229.651314 25.223223 
L 231.45577 24.366244 
L 233.260227 24.023797 
L 235.064683 24.571729 
L 236.869139 24.820098 
L 238.673595 23.560074 
L 240.478051 23.388292 
L 242.282507 25.398939 
L 244.086963 25.731523 
L 245.891419 24.227429 
L 249.500331 27.51205 
L 251.304787 26.384785 
L 253.109243 27.974011 
L 258.522611 24.883269 
L 260.327067 24.35154 
L 262.131523 24.674849 
L 263.935979 24.212943 
L 265.740436 24.044402 
L 267.544892 23.652454 
L 269.349348 21.418389 
L 271.153804 21.578386 
L 272.95826 20.837352 
L 274.762716 21.541583 
L 276.567172 23.107421 
L 278.371628 22.32235 
L 280.176084 21.859949 
L 281.98054 22.260253 
L 283.784996 23.127746 
L 285.589452 22.934382 
L 287.393908 24.642366 
L 289.198364 23.682846 
L 291.00282 19.288445 
L 292.807276 17.814778 
L 294.611732 19.643662 
L 296.416188 18.70617 
L 298.220644 17.617282 
L 300.025101 17.038767 
L 301.829557 15.65709 
L 303.634013 15.987564 
L 307.242925 14.573535 
L 309.047381 13.482349 
L 310.851837 15.765969 
L 312.656293 15.045403 
L 314.460749 13.965113 
L 316.265205 15.656089 
L 318.069661 15.256098 
L 319.874117 14.299462 
L 321.678573 13.829385 
L 323.483029 15.002684 
L 325.287485 15.823411 
L 327.091941 15.864395 
L 328.896397 15.721334 
L 330.700853 14.183738 
L 332.505309 13.009991 
L 334.309766 13.171699 
L 336.114222 14.068228 
L 337.918678 14.837556 
L 339.723134 13.059284 
L 341.52759 13.540135 
L 343.332046 15.43453 
L 345.136502 17.027531 
L 346.940958 16.463818 
L 348.745414 15.171928 
L 350.54987 15.367264 
L 352.354326 15.449934 
L 354.158782 15.033369 
L 355.963238 16.551803 
L 357.767694 16.229903 
L 359.57215 16.584195 
L 361.376606 16.524401 
L 364.985518 15.550192 
L 366.789974 15.475047 
L 368.594431 14.739387 
L 370.398887 13.811622 
L 372.203343 12.723719 
L 374.007799 15.667976 
L 375.812255 19.338558 
L 377.616711 18.181866 
L 381.225623 17.645759 
L 383.030079 13.423509 
L 384.834535 16.090466 
L 386.638991 18.36711 
L 388.443447 17.490403 
L 390.247903 16.884847 
L 392.052359 17.038438 
L 393.856815 18.836996 
L 395.661271 18.538482 
L 397.465727 16.13741 
L 399.270183 15.992068 
L 401.074639 16.161409 
L 401.074639 16.161409 
" clip-path="url(#pa6f72d8840)" style="fill: none; stroke: #730000; stroke-width: 0.8; stroke-linecap: square"/>
   </g>
   <g id="line2d_2">
    <path d="M 40.183429 159.998058 
L 41.987885 147.615236 
L 43.792341 141.241716 
L 45.596797 136.391762 
L 47.401253 129.12271 
L 51.010165 120.191843 
L 52.814621 116.039676 
L 54.619077 113.305059 
L 56.423533 109.333375 
L 58.227989 106.313558 
L 60.032445 102.029471 
L 61.836902 96.928791 
L 63.641358 97.240331 
L 65.445814 96.539453 
L 67.25027 96.770283 
L 69.054726 92.333246 
L 70.859182 89.224504 
L 72.663638 84.619005 
L 74.468094 83.722599 
L 76.27255 83.806843 
L 78.077006 82.180778 
L 79.881462 80.276825 
L 81.685918 79.514233 
L 83.490374 79.168899 
L 85.29483 78.296955 
L 87.099286 76.151936 
L 88.903742 74.739044 
L 90.708198 74.436909 
L 92.512654 74.010026 
L 94.31711 72.376334 
L 96.121567 74.409672 
L 97.926023 72.366812 
L 99.730479 73.148235 
L 101.534935 73.480192 
L 103.339391 71.391063 
L 105.143847 70.476239 
L 106.948303 70.511542 
L 108.752759 68.169773 
L 110.557215 67.851787 
L 112.361671 68.285503 
L 114.166127 68.262104 
L 115.970583 69.013149 
L 117.775039 67.294756 
L 119.579495 63.602948 
L 121.383951 63.501666 
L 123.188407 63.177763 
L 124.992863 65.221939 
L 126.797319 66.757063 
L 128.601775 68.025685 
L 130.406232 66.232698 
L 132.210688 64.201913 
L 134.015144 63.957781 
L 135.8196 62.859261 
L 137.624056 59.501492 
L 139.428512 59.658049 
L 141.232968 62.068829 
L 143.037424 62.262993 
L 144.84188 63.767267 
L 146.646336 64.879583 
L 148.450792 66.723979 
L 150.255248 65.124749 
L 152.059704 64.388436 
L 153.86416 60.991433 
L 155.668616 59.436262 
L 157.473072 59.580405 
L 159.277528 57.389149 
L 161.081984 57.006694 
L 162.88644 57.440135 
L 164.690897 55.47721 
L 166.495353 57.105555 
L 168.299809 59.001792 
L 170.104265 58.371787 
L 171.908721 59.763428 
L 175.517633 58.408386 
L 177.322089 57.357074 
L 179.126545 57.012041 
L 180.931001 56.43502 
L 182.735457 57.381975 
L 184.539913 57.618719 
L 186.344369 56.098714 
L 188.148825 56.337678 
L 191.757737 52.713162 
L 193.562193 51.955535 
L 195.366649 52.406202 
L 197.171105 54.170525 
L 198.975562 54.069692 
L 202.584474 56.120643 
L 204.38893 56.410258 
L 206.193386 55.411421 
L 207.997842 56.697899 
L 209.802298 54.63676 
L 211.606754 53.325134 
L 213.41121 52.613191 
L 215.215666 52.557776 
L 217.020122 51.324188 
L 218.824578 50.762894 
L 220.629034 48.821081 
L 222.43349 47.143504 
L 224.237946 48.751969 
L 226.042402 49.140793 
L 227.846858 45.212225 
L 229.651314 43.105464 
L 231.45577 43.821809 
L 233.260227 40.351928 
L 235.064683 39.461739 
L 236.869139 39.24808 
L 238.673595 38.887389 
L 240.478051 39.283517 
L 242.282507 37.656711 
L 244.086963 39.537279 
L 245.891419 37.879855 
L 247.695875 37.432374 
L 253.109243 33.910395 
L 254.913699 33.668749 
L 256.718155 33.01339 
L 258.522611 33.215548 
L 260.327067 32.700496 
L 262.131523 29.28323 
L 263.935979 29.050827 
L 265.740436 28.478873 
L 267.544892 29.001417 
L 269.349348 29.225183 
L 271.153804 30.615943 
L 272.95826 30.502652 
L 274.762716 28.34949 
L 278.371628 27.755157 
L 280.176084 26.787666 
L 281.98054 28.871554 
L 283.784996 28.124084 
L 285.589452 29.436358 
L 287.393908 29.20345 
L 291.00282 30.389337 
L 292.807276 31.861344 
L 294.611732 32.136577 
L 296.416188 31.825585 
L 298.220644 31.399592 
L 300.025101 32.570689 
L 301.829557 32.152562 
L 303.634013 31.490219 
L 305.438469 35.028898 
L 307.242925 36.722354 
L 309.047381 37.046381 
L 310.851837 39.655332 
L 312.656293 39.742157 
L 314.460749 41.076487 
L 316.265205 40.852424 
L 318.069661 41.377802 
L 319.874117 40.767301 
L 321.678573 37.427792 
L 323.483029 38.418363 
L 325.287485 42.410087 
L 327.091941 41.826255 
L 328.896397 41.537604 
L 330.700853 42.199063 
L 332.505309 40.057856 
L 334.309766 39.880443 
L 336.114222 40.277061 
L 337.918678 37.890387 
L 339.723134 37.887843 
L 341.52759 37.518097 
L 343.332046 38.072 
L 345.136502 37.700009 
L 346.940958 36.490383 
L 348.745414 36.053348 
L 350.54987 37.024452 
L 352.354326 38.466386 
L 354.158782 35.966112 
L 355.963238 34.509213 
L 357.767694 34.782344 
L 359.57215 34.356864 
L 361.376606 33.415342 
L 364.985518 35.934736 
L 366.789974 35.588207 
L 368.594431 38.080895 
L 370.398887 36.21155 
L 372.203343 36.864227 
L 374.007799 36.456663 
L 375.812255 37.521572 
L 377.616711 37.303023 
L 379.421167 36.705941 
L 381.225623 36.586741 
L 383.030079 34.351104 
L 384.834535 33.071821 
L 386.638991 30.072503 
L 388.443447 32.538721 
L 390.247903 31.071366 
L 392.052359 31.128841 
L 393.856815 30.399003 
L 395.661271 28.83571 
L 397.465727 31.553184 
L 399.270183 31.934268 
L 401.074639 32.888281 
L 401.074639 32.888281 
" clip-path="url(#pa6f72d8840)" style="fill: none; stroke: #000000; stroke-width: 0.8; stroke-linecap: square"/>
   </g>
   <g id="line2d_3">
    <path d="M 40.183429 159.998058 
L 41.987885 151.117226 
L 43.792341 145.231953 
L 45.596797 141.932918 
L 47.401253 132.488015 
L 49.205709 130.085659 
L 51.010165 124.75487 
L 52.814621 121.938135 
L 54.619077 115.511011 
L 56.423533 110.616389 
L 58.227989 109.743222 
L 60.032445 107.577945 
L 61.836902 106.346161 
L 63.641358 105.94723 
L 65.445814 103.09753 
L 67.25027 101.194915 
L 69.054726 98.207584 
L 70.859182 92.804403 
L 72.663638 90.708016 
L 74.468094 91.153416 
L 76.27255 90.168855 
L 78.077006 86.912908 
L 81.685918 85.633704 
L 83.490374 86.138302 
L 85.29483 85.486166 
L 87.099286 84.227248 
L 88.903742 84.623732 
L 90.708198 84.003463 
L 92.512654 79.649011 
L 96.121567 77.215347 
L 97.926023 77.447084 
L 99.730479 77.070321 
L 101.534935 75.79444 
L 103.339391 77.151738 
L 105.143847 79.059871 
L 106.948303 78.801264 
L 108.752759 76.182314 
L 112.361671 72.836852 
L 114.166127 74.678268 
L 115.970583 78.567065 
L 117.775039 77.089198 
L 119.579495 76.374742 
L 121.383951 76.141395 
L 123.188407 78.56999 
L 124.992863 81.647669 
L 126.797319 79.641262 
L 128.601775 79.97204 
L 130.406232 77.48789 
L 134.015144 76.780203 
L 135.8196 75.356139 
L 137.624056 75.820246 
L 139.428512 77.004811 
L 143.037424 75.514697 
L 144.84188 72.122118 
L 146.646336 70.612897 
L 148.450792 68.554416 
L 150.255248 69.177156 
L 152.059704 68.23346 
L 153.86416 70.798132 
L 155.668616 71.920291 
L 157.473072 73.590709 
L 159.277528 72.695926 
L 161.081984 72.736072 
L 162.88644 70.89997 
L 164.690897 70.754495 
L 166.495353 68.551021 
L 168.299809 67.751669 
L 170.104265 66.397872 
L 171.908721 67.109285 
L 175.517633 70.459079 
L 177.322089 71.851484 
L 179.126545 69.379029 
L 180.931001 68.757476 
L 182.735457 66.063713 
L 184.539913 64.566321 
L 186.344369 64.21322 
L 188.148825 64.559917 
L 189.953281 66.368919 
L 191.757737 67.122747 
L 193.562193 66.926285 
L 195.366649 64.402765 
L 197.171105 66.193662 
L 200.780018 66.390808 
L 202.584474 63.2822 
L 204.38893 64.422994 
L 206.193386 64.277405 
L 207.997842 64.83326 
L 209.802298 62.900841 
L 211.606754 62.678149 
L 213.41121 62.607518 
L 215.215666 64.608316 
L 217.020122 65.251742 
L 218.824578 65.499176 
L 220.629034 65.324353 
L 222.43349 62.378384 
L 224.237946 64.250847 
L 226.042402 64.314042 
L 227.846858 64.87896 
L 229.651314 63.832743 
L 231.45577 64.857917 
L 233.260227 63.255884 
L 235.064683 62.513134 
L 236.869139 64.303281 
L 238.673595 64.114318 
L 240.478051 62.459769 
L 242.282507 64.122578 
L 245.891419 63.496978 
L 247.695875 66.017406 
L 249.500331 65.670287 
L 251.304787 63.927817 
L 253.109243 64.93498 
L 254.913699 64.00655 
L 256.718155 64.20452 
L 258.522611 66.65651 
L 262.131523 67.144066 
L 263.935979 64.915368 
L 265.740436 66.190848 
L 267.544892 64.403389 
L 269.349348 62.457794 
L 271.153804 61.188926 
L 272.95826 61.538399 
L 274.762716 61.361914 
L 276.567172 61.833364 
L 278.371628 61.640287 
L 280.176084 60.591728 
L 281.98054 57.617139 
L 283.784996 57.393601 
L 285.589452 56.893958 
L 287.393908 57.552503 
L 289.198364 57.008727 
L 291.00282 56.593103 
L 292.807276 54.856751 
L 294.611732 54.044066 
L 296.416188 52.403395 
L 298.220644 50.95997 
L 300.025101 55.063811 
L 301.829557 54.649357 
L 303.634013 54.100635 
L 305.438469 56.786026 
L 307.242925 55.971692 
L 309.047381 54.282537 
L 310.851837 54.51918 
L 312.656293 53.896493 
L 314.460749 54.148211 
L 316.265205 55.69239 
L 318.069661 53.790245 
L 321.678573 52.357854 
L 323.483029 56.059737 
L 325.287485 58.678828 
L 327.091941 59.92936 
L 328.896397 62.779701 
L 330.700853 62.358048 
L 332.505309 62.658021 
L 334.309766 64.415375 
L 336.114222 64.697368 
L 339.723134 62.250734 
L 341.52759 60.477828 
L 343.332046 63.388622 
L 345.136502 64.173702 
L 346.940958 64.20029 
L 348.745414 63.551553 
L 350.54987 61.841471 
L 352.354326 60.332342 
L 354.158782 57.575021 
L 355.963238 55.954962 
L 357.767694 56.320769 
L 359.57215 56.523514 
L 361.376606 56.983334 
L 363.181062 56.850503 
L 364.985518 57.126666 
L 366.789974 57.068304 
L 368.594431 57.27377 
L 370.398887 56.678755 
L 372.203343 60.105055 
L 374.007799 58.516632 
L 375.812255 60.392466 
L 377.616711 59.894112 
L 379.421167 59.877817 
L 381.225623 61.288509 
L 383.030079 59.55352 
L 384.834535 59.14547 
L 386.638991 59.232584 
L 388.443447 57.722072 
L 390.247903 61.385736 
L 392.052359 59.946251 
L 393.856815 61.073853 
L 395.661271 60.692791 
L 397.465727 59.977965 
L 399.270183 60.200662 
L 401.074639 61.984809 
L 401.074639 61.984809 
" clip-path="url(#pa6f72d8840)" style="fill: none; stroke: #e60000; stroke-width: 0.8; stroke-linecap: square"/>
   </g>
   <g id="line2d_4">
    <path d="M 40.183429 159.998058 
L 41.987885 149.441797 
L 43.792341 150.765538 
L 45.596797 141.825143 
L 47.401253 138.076821 
L 49.205709 133.342487 
L 51.010165 131.456478 
L 52.814621 126.555718 
L 54.619077 124.163468 
L 56.423533 122.14987 
L 58.227989 119.185161 
L 63.641358 113.873652 
L 65.445814 110.18982 
L 67.25027 108.71423 
L 69.054726 107.42333 
L 74.468094 103.004063 
L 76.27255 100.695612 
L 78.077006 96.570135 
L 79.881462 95.266336 
L 81.685918 93.276085 
L 83.490374 93.428349 
L 85.29483 90.535 
L 87.099286 89.422409 
L 88.903742 89.912414 
L 90.708198 89.01286 
L 92.512654 88.24003 
L 94.31711 88.528018 
L 96.121567 87.634002 
L 97.926023 87.154008 
L 99.730479 85.459251 
L 101.534935 85.252383 
L 103.339391 83.846333 
L 105.143847 83.086621 
L 106.948303 83.24134 
L 108.752759 82.054946 
L 110.557215 82.064324 
L 112.361671 82.574433 
L 114.166127 81.658069 
L 115.970583 84.767757 
L 117.775039 84.969195 
L 119.579495 84.95251 
L 121.383951 86.594212 
L 123.188407 86.552454 
L 126.797319 84.691936 
L 130.406232 84.829275 
L 132.210688 84.618204 
L 134.015144 84.711105 
L 135.8196 85.414875 
L 139.428512 84.448985 
L 141.232968 85.421783 
L 143.037424 86.175743 
L 144.84188 85.400966 
L 146.646336 85.454922 
L 148.450792 85.095458 
L 150.255248 85.425905 
L 152.059704 84.581158 
L 153.86416 85.107825 
L 155.668616 84.043654 
L 157.473072 84.471587 
L 159.277528 84.534773 
L 161.081984 85.524978 
L 162.88644 86.095655 
L 164.690897 86.46861 
L 166.495353 85.325187 
L 168.299809 83.990847 
L 170.104265 83.541336 
L 171.908721 84.608761 
L 173.713177 84.318991 
L 175.517633 84.68045 
L 179.126545 84.179453 
L 180.931001 84.168926 
L 182.735457 84.43057 
L 186.344369 84.070304 
L 188.148825 83.04903 
L 191.757737 82.680286 
L 193.562193 84.379669 
L 195.366649 85.811096 
L 197.171105 86.628068 
L 200.780018 86.718086 
L 202.584474 85.819034 
L 207.997842 85.776112 
L 209.802298 83.665988 
L 211.606754 83.927225 
L 213.41121 83.468149 
L 215.215666 83.192564 
L 217.020122 83.163942 
L 218.824578 83.439297 
L 220.629034 83.481457 
L 222.43349 82.328491 
L 224.237946 82.810265 
L 226.042402 83.775179 
L 227.846858 83.983871 
L 229.651314 83.38207 
L 231.45577 83.019818 
L 233.260227 81.998711 
L 235.064683 81.544703 
L 236.869139 81.272291 
L 238.673595 81.448245 
L 240.478051 81.876519 
L 242.282507 82.100901 
L 244.086963 82.641211 
L 245.891419 81.254853 
L 247.695875 80.758525 
L 249.500331 80.731035 
L 251.304787 80.185102 
L 253.109243 80.129156 
L 254.913699 77.676573 
L 256.718155 77.917582 
L 258.522611 77.681599 
L 260.327067 77.71602 
L 262.131523 77.560492 
L 263.935979 76.769193 
L 267.544892 76.009473 
L 269.349348 75.352596 
L 271.153804 74.401164 
L 272.95826 74.876745 
L 274.762716 74.337637 
L 276.567172 72.670056 
L 280.176084 70.870156 
L 281.98054 70.212243 
L 283.784996 70.65336 
L 285.589452 69.539404 
L 287.393908 69.690047 
L 289.198364 68.220583 
L 292.807276 67.171765 
L 294.611732 68.303609 
L 296.416188 68.872004 
L 298.220644 67.932947 
L 300.025101 69.46977 
L 303.634013 68.442667 
L 305.438469 66.392935 
L 307.242925 66.26134 
L 309.047381 65.453099 
L 310.851837 66.703344 
L 312.656293 66.645857 
L 314.460749 67.476736 
L 316.265205 66.941595 
L 318.069661 66.115797 
L 321.678573 67.754218 
L 323.483029 67.445499 
L 325.287485 67.523973 
L 327.091941 67.224238 
L 328.896397 67.841681 
L 330.700853 66.612872 
L 332.505309 66.877268 
L 334.309766 67.707713 
L 336.114222 68.786236 
L 337.918678 68.634673 
L 339.723134 67.861102 
L 341.52759 67.690588 
L 343.332046 67.806352 
L 345.136502 67.479804 
L 346.940958 67.947796 
L 348.745414 67.158558 
L 350.54987 66.892571 
L 352.354326 67.693001 
L 354.158782 67.591634 
L 355.963238 67.643346 
L 357.767694 67.035406 
L 359.57215 66.846042 
L 361.376606 67.265846 
L 363.181062 67.068124 
L 364.985518 68.129008 
L 368.594431 68.075596 
L 370.398887 67.069718 
L 372.203343 67.598951 
L 374.007799 66.944251 
L 375.812255 66.796383 
L 377.616711 66.430541 
L 379.421167 66.992984 
L 381.225623 66.849377 
L 383.030079 66.400669 
L 384.834535 67.145677 
L 386.638991 66.51864 
L 388.443447 66.542372 
L 390.247903 65.876972 
L 393.856815 65.528998 
L 395.661271 65.486438 
L 397.465727 65.78173 
L 399.270183 65.943548 
L 401.074639 65.844917 
L 401.074639 65.844917 
" clip-path="url(#pa6f72d8840)" style="fill: none; stroke: #390000; stroke-width: 0.8; stroke-linecap: square"/>
   </g>
   <g id="line2d_5">
    <path d="M 40.183429 159.998058 
L 41.987885 147.481531 
L 43.792341 142.445909 
L 45.596797 135.811204 
L 47.401253 132.248131 
L 49.205709 127.80426 
L 51.010165 125.100929 
L 52.814621 121.313247 
L 54.619077 116.932844 
L 56.423533 114.236983 
L 60.032445 107.330382 
L 61.836902 104.334945 
L 63.641358 100.625675 
L 65.445814 97.366531 
L 67.25027 94.662198 
L 70.859182 91.271976 
L 72.663638 87.764228 
L 74.468094 85.914291 
L 76.27255 85.803054 
L 78.077006 82.946297 
L 79.881462 82.1484 
L 81.685918 80.315034 
L 83.490374 77.88058 
L 85.29483 72.9635 
L 87.099286 72.307304 
L 88.903742 71.307081 
L 90.708198 69.978353 
L 92.512654 71.031895 
L 96.121567 66.780506 
L 97.926023 65.308292 
L 99.730479 65.79238 
L 101.534935 64.946368 
L 103.339391 63.077244 
L 105.143847 63.466776 
L 106.948303 64.61774 
L 108.752759 64.019201 
L 110.557215 62.403947 
L 112.361671 61.895253 
L 114.166127 62.025514 
L 115.970583 61.219934 
L 117.775039 59.961038 
L 119.579495 60.990619 
L 121.383951 60.943173 
L 123.188407 59.590017 
L 124.992863 61.522983 
L 126.797319 61.051992 
L 128.601775 61.998473 
L 130.406232 61.624882 
L 132.210688 62.462778 
L 135.8196 60.336265 
L 137.624056 60.656179 
L 139.428512 59.230053 
L 141.232968 58.492477 
L 143.037424 57.327995 
L 144.84188 56.881708 
L 146.646336 55.462527 
L 148.450792 56.673116 
L 150.255248 55.452936 
L 152.059704 55.254277 
L 153.86416 53.744659 
L 155.668616 54.828833 
L 157.473072 54.167213 
L 159.277528 52.89093 
L 161.081984 52.311163 
L 162.88644 52.728168 
L 164.690897 51.039918 
L 166.495353 51.146002 
L 168.299809 50.774765 
L 170.104265 50.106509 
L 171.908721 49.850591 
L 173.713177 49.475104 
L 175.517633 47.974224 
L 177.322089 47.95344 
L 179.126545 49.849738 
L 180.931001 49.197027 
L 182.735457 48.813793 
L 184.539913 48.662002 
L 186.344369 48.107563 
L 188.148825 47.109322 
L 189.953281 46.978287 
L 191.757737 47.7936 
L 193.562193 49.643587 
L 195.366649 50.390748 
L 197.171105 49.88853 
L 198.975562 48.741786 
L 200.780018 48.372249 
L 202.584474 48.540163 
L 204.38893 48.31541 
L 206.193386 46.797613 
L 207.997842 45.93636 
L 209.802298 45.867465 
L 211.606754 45.102506 
L 213.41121 44.537923 
L 215.215666 44.624435 
L 217.020122 44.825176 
L 220.629034 44.062523 
L 222.43349 45.831035 
L 224.237946 44.967068 
L 226.042402 44.6548 
L 227.846858 43.961805 
L 229.651314 44.456677 
L 231.45577 43.518981 
L 233.260227 43.066343 
L 235.064683 44.62522 
L 236.869139 45.514807 
L 238.673595 44.873138 
L 242.282507 44.757089 
L 244.086963 46.45963 
L 245.891419 45.558326 
L 247.695875 45.064439 
L 249.500331 44.347123 
L 251.304787 44.187565 
L 253.109243 44.611072 
L 254.913699 44.876326 
L 256.718155 43.905463 
L 258.522611 43.150741 
L 260.327067 44.542188 
L 262.131523 44.251477 
L 263.935979 43.429269 
L 265.740436 44.392711 
L 267.544892 44.228717 
L 269.349348 43.540731 
L 271.153804 42.696271 
L 272.95826 42.587832 
L 274.762716 42.279822 
L 276.567172 41.447306 
L 278.371628 41.26815 
L 280.176084 40.869232 
L 281.98054 41.852425 
L 283.784996 40.945656 
L 285.589452 40.631761 
L 287.393908 40.076514 
L 289.198364 41.253345 
L 291.00282 41.221707 
L 292.807276 40.740561 
L 294.611732 39.868311 
L 296.416188 39.144096 
L 298.220644 39.410171 
L 300.025101 38.80905 
L 301.829557 37.965731 
L 303.634013 37.637228 
L 307.242925 36.538635 
L 309.047381 36.602616 
L 310.851837 36.338033 
L 312.656293 36.786654 
L 314.460749 37.608677 
L 318.069661 36.260194 
L 321.678573 35.697716 
L 323.483029 35.078688 
L 325.287485 34.707206 
L 327.091941 34.040022 
L 328.896397 33.813298 
L 330.700853 33.939101 
L 332.505309 33.152242 
L 334.309766 32.659043 
L 337.918678 32.130696 
L 339.723134 32.163441 
L 343.332046 31.81316 
L 345.136502 33.394887 
L 346.940958 32.667749 
L 348.745414 33.906125 
L 350.54987 33.352418 
L 352.354326 33.669159 
L 354.158782 33.66939 
L 355.963238 33.346566 
L 357.767694 32.870814 
L 359.57215 33.591972 
L 363.181062 32.691636 
L 364.985518 33.908945 
L 366.789974 33.359969 
L 368.594431 34.179772 
L 370.398887 33.390114 
L 372.203343 33.020573 
L 374.007799 32.984347 
L 375.812255 33.828204 
L 377.616711 33.281889 
L 379.421167 33.778642 
L 381.225623 33.831314 
L 384.834535 32.874666 
L 386.638991 33.750892 
L 388.443447 33.463113 
L 390.247903 34.758864 
L 392.052359 34.185042 
L 393.856815 34.264891 
L 395.661271 33.875646 
L 399.270183 33.523764 
L 401.074639 33.047946 
L 401.074639 33.047946 
" clip-path="url(#pa6f72d8840)" style="fill: none; stroke: #ac0000; stroke-width: 0.8; stroke-linecap: square"/>
   </g>
   <g id="line2d_6">
    <path d="M 40.183429 159.998058 
L 41.987885 138.683036 
L 43.792341 120.192865 
L 45.596797 104.157452 
L 47.401253 90.256086 
L 49.205709 78.210682 
L 51.010165 67.779974 
L 52.814621 58.754514 
L 54.619077 50.952372 
L 56.423533 44.215425 
L 58.227989 38.406165 
L 60.032445 33.404941 
L 61.836902 29.107586 
L 63.641358 25.423361 
L 65.445814 22.273183 
L 67.25027 19.588096 
L 69.054726 17.307943 
L 70.859182 15.380221 
L 72.663638 13.759087 
L 74.468094 12.4045 
L 76.27255 11.281471 
L 78.077006 10.359421 
L 79.881462 9.611616 
L 81.685918 9.014678 
L 85.29483 8.194191 
L 88.903742 7.763283 
L 92.512654 7.618955 
L 96.121567 7.682498 
L 101.534935 8.040233 
L 108.752759 8.795694 
L 139.428512 12.35275 
L 150.255248 13.284476 
L 162.88644 14.124868 
L 175.517633 14.74361 
L 191.757737 15.292971 
L 211.606754 15.706915 
L 236.869139 15.989719 
L 274.762716 16.166225 
L 350.54987 16.244134 
L 401.074639 16.251384 
L 401.074639 16.251384 
" clip-path="url(#pa6f72d8840)" style="fill: none; stroke: #ffffff; stroke-width: 4; stroke-linecap: square"/>
    <path d="M 40.183429 159.998058 
L 41.987885 138.683036 
L 43.792341 120.192865 
L 45.596797 104.157452 
L 47.401253 90.256086 
L 49.205709 78.210682 
L 51.010165 67.779974 
L 52.814621 58.754514 
L 54.619077 50.952372 
L 56.423533 44.215425 
L 58.227989 38.406165 
L 60.032445 33.404941 
L 61.836902 29.107586 
L 63.641358 25.423361 
L 65.445814 22.273183 
L 67.25027 19.588096 
L 69.054726 17.307943 
L 70.859182 15.380221 
L 72.663638 13.759087 
L 74.468094 12.4045 
L 76.27255 11.281471 
L 78.077006 10.359421 
L 79.881462 9.611616 
L 81.685918 9.014678 
L 85.29483 8.194191 
L 88.903742 7.763283 
L 92.512654 7.618955 
L 96.121567 7.682498 
L 101.534935 8.040233 
L 108.752759 8.795694 
L 139.428512 12.35275 
L 150.255248 13.284476 
L 162.88644 14.124868 
L 175.517633 14.74361 
L 191.757737 15.292971 
L 211.606754 15.706915 
L 236.869139 15.989719 
L 274.762716 16.166225 
L 350.54987 16.244134 
L 401.074639 16.251384 
L 401.074639 16.251384 
" clip-path="url(#pa6f72d8840)" style="fill: none; stroke: #2ca02c; stroke-width: 0.8; stroke-linecap: square"/>
   </g>
   <g id="line2d_7">
    <path d="M 40.183429 159.998058 
L 41.987885 151.988372 
L 43.792341 141.87438 
L 45.596797 138.296316 
L 47.401253 129.355374 
L 49.205709 125.967711 
L 51.010165 120.900081 
L 52.814621 117.47767 
L 54.619077 113.599728 
L 56.423533 110.889433 
L 58.227989 109.043156 
L 60.032445 105.835851 
L 61.836902 103.919238 
L 63.641358 100.606289 
L 65.445814 98.903626 
L 67.25027 96.326393 
L 69.054726 94.823267 
L 70.859182 92.847195 
L 72.663638 91.59826 
L 74.468094 89.555722 
L 78.077006 87.97786 
L 79.881462 85.902898 
L 81.685918 85.035463 
L 83.490374 84.510829 
L 85.29483 84.407538 
L 87.099286 82.954057 
L 88.903742 82.072358 
L 90.708198 80.479515 
L 92.512654 79.36234 
L 94.31711 78.655291 
L 97.926023 76.819852 
L 101.534935 74.121014 
L 103.339391 73.86991 
L 105.143847 73.32955 
L 106.948303 71.973912 
L 110.557215 71.559278 
L 112.361671 70.654807 
L 114.166127 69.069566 
L 115.970583 70.168529 
L 117.775039 68.713508 
L 121.383951 66.159381 
L 123.188407 65.262438 
L 124.992863 65.114355 
L 128.601775 62.419162 
L 130.406232 62.112887 
L 134.015144 61.161035 
L 135.8196 61.192443 
L 137.624056 60.417137 
L 139.428512 60.261555 
L 141.232968 61.399082 
L 143.037424 60.590323 
L 144.84188 60.719416 
L 146.646336 60.022729 
L 150.255248 59.298432 
L 152.059704 60.149473 
L 155.668616 58.999834 
L 159.277528 55.30354 
L 161.081984 54.779894 
L 162.88644 54.997486 
L 164.690897 56.275022 
L 170.104265 54.929352 
L 171.908721 54.912571 
L 173.713177 54.359482 
L 175.517633 54.130134 
L 179.126545 53.290961 
L 180.931001 52.387432 
L 184.539913 51.13719 
L 186.344369 50.653568 
L 188.148825 51.102024 
L 189.953281 50.552652 
L 191.757737 49.739088 
L 193.562193 48.676938 
L 195.366649 48.721733 
L 197.171105 48.940971 
L 200.780018 47.801063 
L 202.584474 47.590305 
L 204.38893 48.201463 
L 206.193386 49.949749 
L 207.997842 50.53956 
L 209.802298 50.20406 
L 211.606754 49.688735 
L 213.41121 48.389986 
L 215.215666 48.547847 
L 217.020122 48.229505 
L 218.824578 48.956448 
L 220.629034 48.498607 
L 222.43349 48.257161 
L 226.042402 47.307436 
L 227.846858 46.998937 
L 229.651314 46.470164 
L 231.45577 46.648539 
L 233.260227 47.015478 
L 235.064683 46.539049 
L 236.869139 46.456274 
L 240.478051 45.447276 
L 242.282507 45.857511 
L 244.086963 45.491009 
L 245.891419 44.690708 
L 247.695875 45.898802 
L 249.500331 45.251969 
L 251.304787 45.663954 
L 253.109243 45.285834 
L 254.913699 45.37207 
L 256.718155 45.177888 
L 258.522611 45.87826 
L 260.327067 45.603781 
L 262.131523 46.436662 
L 265.740436 45.396918 
L 267.544892 45.075205 
L 271.153804 43.790653 
L 272.95826 45.331366 
L 274.762716 45.305527 
L 276.567172 46.363006 
L 278.371628 47.960736 
L 280.176084 47.705503 
L 281.98054 48.343747 
L 287.393908 47.314255 
L 289.198364 46.856747 
L 291.00282 46.843062 
L 292.807276 47.428597 
L 294.611732 47.156919 
L 298.220644 47.359484 
L 300.025101 47.481175 
L 301.829557 47.250515 
L 303.634013 46.842319 
L 305.438469 46.948481 
L 307.242925 46.565102 
L 310.851837 46.676367 
L 312.656293 46.279243 
L 314.460749 45.236639 
L 316.265205 44.811819 
L 318.069661 44.788083 
L 319.874117 44.235938 
L 321.678573 43.84277 
L 327.091941 43.02702 
L 328.896397 43.503518 
L 330.700853 42.757888 
L 332.505309 42.493616 
L 334.309766 43.402244 
L 336.114222 43.132434 
L 337.918678 43.750265 
L 339.723134 43.581153 
L 346.940958 41.964155 
L 348.745414 42.446851 
L 352.354326 41.529661 
L 354.158782 41.592008 
L 355.963238 41.118042 
L 357.767694 40.205115 
L 359.57215 39.1628 
L 363.181062 38.314135 
L 364.985518 37.699989 
L 366.789974 38.024538 
L 368.594431 37.738298 
L 370.398887 37.868469 
L 372.203343 38.361057 
L 374.007799 38.611082 
L 375.812255 38.324132 
L 377.616711 37.846244 
L 379.421167 38.95343 
L 381.225623 38.709048 
L 384.834535 39.799556 
L 386.638991 40.124217 
L 388.443447 39.759764 
L 390.247903 40.011735 
L 392.052359 41.636785 
L 397.465727 40.644347 
L 399.270183 40.587719 
L 401.074639 40.033019 
L 401.074639 40.033019 
" clip-path="url(#pa6f72d8840)" style="fill: none; stroke: #ffffff; stroke-width: 4; stroke-linecap: square"/>
    <path d="M 40.183429 159.998058 
L 41.987885 151.988372 
L 43.792341 141.87438 
L 45.596797 138.296316 
L 47.401253 129.355374 
L 49.205709 125.967711 
L 51.010165 120.900081 
L 52.814621 117.47767 
L 54.619077 113.599728 
L 56.423533 110.889433 
L 58.227989 109.043156 
L 60.032445 105.835851 
L 61.836902 103.919238 
L 63.641358 100.606289 
L 65.445814 98.903626 
L 67.25027 96.326393 
L 69.054726 94.823267 
L 70.859182 92.847195 
L 72.663638 91.59826 
L 74.468094 89.555722 
L 78.077006 87.97786 
L 79.881462 85.902898 
L 81.685918 85.035463 
L 83.490374 84.510829 
L 85.29483 84.407538 
L 87.099286 82.954057 
L 88.903742 82.072358 
L 90.708198 80.479515 
L 92.512654 79.36234 
L 94.31711 78.655291 
L 97.926023 76.819852 
L 101.534935 74.121014 
L 103.339391 73.86991 
L 105.143847 73.32955 
L 106.948303 71.973912 
L 110.557215 71.559278 
L 112.361671 70.654807 
L 114.166127 69.069566 
L 115.970583 70.168529 
L 117.775039 68.713508 
L 121.383951 66.159381 
L 123.188407 65.262438 
L 124.992863 65.114355 
L 128.601775 62.419162 
L 130.406232 62.112887 
L 134.015144 61.161035 
L 135.8196 61.192443 
L 137.624056 60.417137 
L 139.428512 60.261555 
L 141.232968 61.399082 
L 143.037424 60.590323 
L 144.84188 60.719416 
L 146.646336 60.022729 
L 150.255248 59.298432 
L 152.059704 60.149473 
L 155.668616 58.999834 
L 159.277528 55.30354 
L 161.081984 54.779894 
L 162.88644 54.997486 
L 164.690897 56.275022 
L 170.104265 54.929352 
L 171.908721 54.912571 
L 173.713177 54.359482 
L 175.517633 54.130134 
L 179.126545 53.290961 
L 180.931001 52.387432 
L 184.539913 51.13719 
L 186.344369 50.653568 
L 188.148825 51.102024 
L 189.953281 50.552652 
L 191.757737 49.739088 
L 193.562193 48.676938 
L 195.366649 48.721733 
L 197.171105 48.940971 
L 200.780018 47.801063 
L 202.584474 47.590305 
L 204.38893 48.201463 
L 206.193386 49.949749 
L 207.997842 50.53956 
L 209.802298 50.20406 
L 211.606754 49.688735 
L 213.41121 48.389986 
L 215.215666 48.547847 
L 217.020122 48.229505 
L 218.824578 48.956448 
L 220.629034 48.498607 
L 222.43349 48.257161 
L 226.042402 47.307436 
L 227.846858 46.998937 
L 229.651314 46.470164 
L 231.45577 46.648539 
L 233.260227 47.015478 
L 235.064683 46.539049 
L 236.869139 46.456274 
L 240.478051 45.447276 
L 242.282507 45.857511 
L 244.086963 45.491009 
L 245.891419 44.690708 
L 247.695875 45.898802 
L 249.500331 45.251969 
L 251.304787 45.663954 
L 253.109243 45.285834 
L 254.913699 45.37207 
L 256.718155 45.177888 
L 258.522611 45.87826 
L 260.327067 45.603781 
L 262.131523 46.436662 
L 265.740436 45.396918 
L 267.544892 45.075205 
L 271.153804 43.790653 
L 272.95826 45.331366 
L 274.762716 45.305527 
L 276.567172 46.363006 
L 278.371628 47.960736 
L 280.176084 47.705503 
L 281.98054 48.343747 
L 287.393908 47.314255 
L 289.198364 46.856747 
L 291.00282 46.843062 
L 292.807276 47.428597 
L 294.611732 47.156919 
L 298.220644 47.359484 
L 300.025101 47.481175 
L 301.829557 47.250515 
L 303.634013 46.842319 
L 305.438469 46.948481 
L 307.242925 46.565102 
L 310.851837 46.676367 
L 312.656293 46.279243 
L 314.460749 45.236639 
L 316.265205 44.811819 
L 318.069661 44.788083 
L 319.874117 44.235938 
L 321.678573 43.84277 
L 327.091941 43.02702 
L 328.896397 43.503518 
L 330.700853 42.757888 
L 332.505309 42.493616 
L 334.309766 43.402244 
L 336.114222 43.132434 
L 337.918678 43.750265 
L 339.723134 43.581153 
L 346.940958 41.964155 
L 348.745414 42.446851 
L 352.354326 41.529661 
L 354.158782 41.592008 
L 355.963238 41.118042 
L 357.767694 40.205115 
L 359.57215 39.1628 
L 363.181062 38.314135 
L 364.985518 37.699989 
L 366.789974 38.024538 
L 368.594431 37.738298 
L 370.398887 37.868469 
L 372.203343 38.361057 
L 374.007799 38.611082 
L 375.812255 38.324132 
L 377.616711 37.846244 
L 379.421167 38.95343 
L 381.225623 38.709048 
L 384.834535 39.799556 
L 386.638991 40.124217 
L 388.443447 39.759764 
L 390.247903 40.011735 
L 392.052359 41.636785 
L 397.465727 40.644347 
L 399.270183 40.587719 
L 401.074639 40.033019 
L 401.074639 40.033019 
" clip-path="url(#pa6f72d8840)" style="fill: none; stroke: #ff7f0e; stroke-width: 0.8; stroke-linecap: square"/>
   </g>
   <g id="matplotlib.axis_1">
    <g id="xtick_1">
     <g id="line2d_8">
      <defs>
       <path id="m797a0fd8ca" d="M 0 0 
L 0 -2.551 
" style="stroke: #000000; stroke-width: 0.8"/>
      </defs>
      <g>
       <use xlink:href="#m797a0fd8ca" x="40.183429" y="159.998056" style="stroke: #000000; stroke-width: 0.8"/>
      </g>
     </g>
     <g id="text_1">
      <!-- $\mathdefault{0}$ -->
      <g transform="translate(37.256934 171.800236) scale(0.12 -0.12)">
       <defs>
        <path id="CMR17-30" d="M 2688 2025 
C 2688 2416 2682 3080 2413 3591 
C 2176 4039 1798 4198 1466 4198 
C 1158 4198 768 4058 525 3597 
C 269 3118 243 2524 243 2025 
C 243 1661 250 1106 448 619 
C 723 -39 1216 -128 1466 -128 
C 1760 -128 2208 -7 2470 600 
C 2662 1042 2688 1559 2688 2025 
z
M 1466 -26 
C 1056 -26 813 325 723 812 
C 653 1188 653 1738 653 2096 
C 653 2588 653 2997 736 3387 
C 858 3929 1216 4096 1466 4096 
C 1728 4096 2067 3923 2189 3400 
C 2272 3036 2278 2607 2278 2096 
C 2278 1680 2278 1169 2202 792 
C 2067 95 1690 -26 1466 -26 
z
" transform="scale(0.015625)"/>
       </defs>
       <use xlink:href="#CMR17-30" transform="scale(0.996264)"/>
      </g>
     </g>
    </g>
    <g id="xtick_2">
     <g id="line2d_9">
      <g>
       <use xlink:href="#m797a0fd8ca" x="85.29483" y="159.998056" style="stroke: #000000; stroke-width: 0.8"/>
      </g>
     </g>
     <g id="text_2">
      <!-- $\mathdefault{25}$ -->
      <g transform="translate(79.44184 171.800236) scale(0.12 -0.12)">
       <defs>
        <path id="CMR17-32" d="M 2669 989 
L 2554 989 
C 2490 536 2438 459 2413 420 
C 2381 369 1920 369 1830 369 
L 602 369 
C 832 619 1280 1072 1824 1597 
C 2214 1967 2669 2402 2669 3035 
C 2669 3790 2067 4224 1395 4224 
C 691 4224 262 3604 262 3030 
C 262 2780 448 2748 525 2748 
C 589 2748 781 2787 781 3010 
C 781 3207 614 3264 525 3264 
C 486 3264 448 3258 422 3245 
C 544 3790 915 4058 1306 4058 
C 1862 4058 2227 3617 2227 3035 
C 2227 2479 1901 2000 1536 1584 
L 262 146 
L 262 0 
L 2515 0 
L 2669 989 
z
" transform="scale(0.015625)"/>
        <path id="CMR17-35" d="M 730 3692 
C 794 3666 1056 3584 1325 3584 
C 1920 3584 2246 3911 2432 4100 
C 2432 4157 2432 4192 2394 4192 
C 2387 4192 2374 4192 2323 4163 
C 2099 4058 1837 3973 1517 3973 
C 1325 3973 1037 3999 723 4139 
C 653 4171 640 4171 634 4171 
C 602 4171 595 4164 595 4037 
L 595 2203 
C 595 2089 595 2057 659 2057 
C 691 2057 704 2070 736 2114 
C 941 2401 1222 2522 1542 2522 
C 1766 2522 2246 2382 2246 1289 
C 2246 1085 2246 715 2054 421 
C 1894 159 1645 25 1370 25 
C 947 25 518 320 403 814 
C 429 807 480 795 506 795 
C 589 795 749 840 749 1038 
C 749 1210 627 1280 506 1280 
C 358 1280 262 1190 262 1011 
C 262 454 704 -128 1382 -128 
C 2042 -128 2669 440 2669 1264 
C 2669 2030 2170 2624 1549 2624 
C 1222 2624 947 2503 730 2274 
L 730 3692 
z
" transform="scale(0.015625)"/>
       </defs>
       <use xlink:href="#CMR17-32" transform="scale(0.996264)"/>
       <use xlink:href="#CMR17-35" transform="translate(45.690477 0) scale(0.996264)"/>
      </g>
     </g>
    </g>
    <g id="xtick_3">
     <g id="line2d_10">
      <g>
       <use xlink:href="#m797a0fd8ca" x="130.406232" y="159.998056" style="stroke: #000000; stroke-width: 0.8"/>
      </g>
     </g>
     <g id="text_3">
      <!-- $\mathdefault{50}$ -->
      <g transform="translate(124.553241 171.800236) scale(0.12 -0.12)">
       <use xlink:href="#CMR17-35" transform="scale(0.996264)"/>
       <use xlink:href="#CMR17-30" transform="translate(45.690477 0) scale(0.996264)"/>
      </g>
     </g>
    </g>
    <g id="xtick_4">
     <g id="line2d_11">
      <g>
       <use xlink:href="#m797a0fd8ca" x="175.517633" y="159.998056" style="stroke: #000000; stroke-width: 0.8"/>
      </g>
     </g>
     <g id="text_4">
      <!-- $\mathdefault{75}$ -->
      <g transform="translate(169.664643 171.800236) scale(0.12 -0.12)">
       <defs>
        <path id="CMR17-37" d="M 2886 3941 
L 2886 4081 
L 1382 4081 
C 634 4081 621 4165 595 4288 
L 480 4288 
L 294 3094 
L 410 3094 
C 429 3215 474 3540 550 3661 
C 589 3712 1062 3712 1171 3712 
L 2579 3712 
L 1869 2661 
C 1395 1954 1069 999 1069 165 
C 1069 89 1069 -128 1299 -128 
C 1530 -128 1530 89 1530 171 
L 1530 465 
C 1530 1508 1709 2196 2003 2636 
L 2886 3941 
z
" transform="scale(0.015625)"/>
       </defs>
       <use xlink:href="#CMR17-37" transform="scale(0.996264)"/>
       <use xlink:href="#CMR17-35" transform="translate(45.690477 0) scale(0.996264)"/>
      </g>
     </g>
    </g>
    <g id="xtick_5">
     <g id="line2d_12">
      <g>
       <use xlink:href="#m797a0fd8ca" x="220.629034" y="159.998056" style="stroke: #000000; stroke-width: 0.8"/>
      </g>
     </g>
     <g id="text_5">
      <!-- $\mathdefault{100}$ -->
      <g transform="translate(211.849549 171.800236) scale(0.12 -0.12)">
       <defs>
        <path id="CMR17-31" d="M 1702 4058 
C 1702 4192 1696 4192 1606 4192 
C 1357 3916 979 3827 621 3827 
C 602 3827 570 3827 563 3808 
C 557 3795 557 3782 557 3648 
C 755 3648 1088 3686 1344 3839 
L 1344 461 
C 1344 236 1331 160 781 160 
L 589 160 
L 589 0 
C 896 0 1216 0 1523 0 
C 1830 0 2150 0 2458 0 
L 2458 160 
L 2266 160 
C 1715 160 1702 230 1702 458 
L 1702 4058 
z
" transform="scale(0.015625)"/>
       </defs>
       <use xlink:href="#CMR17-31" transform="scale(0.996264)"/>
       <use xlink:href="#CMR17-30" transform="translate(45.690477 0) scale(0.996264)"/>
       <use xlink:href="#CMR17-30" transform="translate(91.380954 0) scale(0.996264)"/>
      </g>
     </g>
    </g>
    <g id="xtick_6">
     <g id="line2d_13">
      <g>
       <use xlink:href="#m797a0fd8ca" x="265.740436" y="159.998056" style="stroke: #000000; stroke-width: 0.8"/>
      </g>
     </g>
     <g id="text_6">
      <!-- $\mathdefault{125}$ -->
      <g transform="translate(256.96095 171.800236) scale(0.12 -0.12)">
       <use xlink:href="#CMR17-31" transform="scale(0.996264)"/>
       <use xlink:href="#CMR17-32" transform="translate(45.690477 0) scale(0.996264)"/>
       <use xlink:href="#CMR17-35" transform="translate(91.380954 0) scale(0.996264)"/>
      </g>
     </g>
    </g>
    <g id="xtick_7">
     <g id="line2d_14">
      <g>
       <use xlink:href="#m797a0fd8ca" x="310.851837" y="159.998056" style="stroke: #000000; stroke-width: 0.8"/>
      </g>
     </g>
     <g id="text_7">
      <!-- $\mathdefault{150}$ -->
      <g transform="translate(302.072351 171.800236) scale(0.12 -0.12)">
       <use xlink:href="#CMR17-31" transform="scale(0.996264)"/>
       <use xlink:href="#CMR17-35" transform="translate(45.690477 0) scale(0.996264)"/>
       <use xlink:href="#CMR17-30" transform="translate(91.380954 0) scale(0.996264)"/>
      </g>
     </g>
    </g>
    <g id="xtick_8">
     <g id="line2d_15">
      <g>
       <use xlink:href="#m797a0fd8ca" x="355.963238" y="159.998056" style="stroke: #000000; stroke-width: 0.8"/>
      </g>
     </g>
     <g id="text_8">
      <!-- $\mathdefault{175}$ -->
      <g transform="translate(347.183753 171.800236) scale(0.12 -0.12)">
       <use xlink:href="#CMR17-31" transform="scale(0.996264)"/>
       <use xlink:href="#CMR17-37" transform="translate(45.690477 0) scale(0.996264)"/>
       <use xlink:href="#CMR17-35" transform="translate(91.380954 0) scale(0.996264)"/>
      </g>
     </g>
    </g>
    <g id="xtick_9">
     <g id="line2d_16">
      <g>
       <use xlink:href="#m797a0fd8ca" x="401.074639" y="159.998056" style="stroke: #000000; stroke-width: 0.8"/>
      </g>
     </g>
     <g id="text_9">
      <!-- $\mathdefault{200}$ -->
      <g transform="translate(392.295154 171.800236) scale(0.12 -0.12)">
       <use xlink:href="#CMR17-32" transform="scale(0.996264)"/>
       <use xlink:href="#CMR17-30" transform="translate(45.690477 0) scale(0.996264)"/>
       <use xlink:href="#CMR17-30" transform="translate(91.380954 0) scale(0.996264)"/>
      </g>
     </g>
    </g>
    <g id="xtick_10">
     <g id="line2d_17">
      <defs>
       <path id="mf489a9b95e" d="M 0 0 
L 0 -1.417 
" style="stroke: #000000; stroke-width: 0.8"/>
      </defs>
      <g>
       <use xlink:href="#mf489a9b95e" x="31.161149" y="159.998056" style="stroke: #000000; stroke-width: 0.8"/>
      </g>
     </g>
    </g>
    <g id="xtick_11">
     <g id="line2d_18">
      <g>
       <use xlink:href="#mf489a9b95e" x="49.205709" y="159.998056" style="stroke: #000000; stroke-width: 0.8"/>
      </g>
     </g>
    </g>
    <g id="xtick_12">
     <g id="line2d_19">
      <g>
       <use xlink:href="#mf489a9b95e" x="58.227989" y="159.998056" style="stroke: #000000; stroke-width: 0.8"/>
      </g>
     </g>
    </g>
    <g id="xtick_13">
     <g id="line2d_20">
      <g>
       <use xlink:href="#mf489a9b95e" x="67.25027" y="159.998056" style="stroke: #000000; stroke-width: 0.8"/>
      </g>
     </g>
    </g>
    <g id="xtick_14">
     <g id="line2d_21">
      <g>
       <use xlink:href="#mf489a9b95e" x="76.27255" y="159.998056" style="stroke: #000000; stroke-width: 0.8"/>
      </g>
     </g>
    </g>
    <g id="xtick_15">
     <g id="line2d_22">
      <g>
       <use xlink:href="#mf489a9b95e" x="94.31711" y="159.998056" style="stroke: #000000; stroke-width: 0.8"/>
      </g>
     </g>
    </g>
    <g id="xtick_16">
     <g id="line2d_23">
      <g>
       <use xlink:href="#mf489a9b95e" x="103.339391" y="159.998056" style="stroke: #000000; stroke-width: 0.8"/>
      </g>
     </g>
    </g>
    <g id="xtick_17">
     <g id="line2d_24">
      <g>
       <use xlink:href="#mf489a9b95e" x="112.361671" y="159.998056" style="stroke: #000000; stroke-width: 0.8"/>
      </g>
     </g>
    </g>
    <g id="xtick_18">
     <g id="line2d_25">
      <g>
       <use xlink:href="#mf489a9b95e" x="121.383951" y="159.998056" style="stroke: #000000; stroke-width: 0.8"/>
      </g>
     </g>
    </g>
    <g id="xtick_19">
     <g id="line2d_26">
      <g>
       <use xlink:href="#mf489a9b95e" x="139.428512" y="159.998056" style="stroke: #000000; stroke-width: 0.8"/>
      </g>
     </g>
    </g>
    <g id="xtick_20">
     <g id="line2d_27">
      <g>
       <use xlink:href="#mf489a9b95e" x="148.450792" y="159.998056" style="stroke: #000000; stroke-width: 0.8"/>
      </g>
     </g>
    </g>
    <g id="xtick_21">
     <g id="line2d_28">
      <g>
       <use xlink:href="#mf489a9b95e" x="157.473072" y="159.998056" style="stroke: #000000; stroke-width: 0.8"/>
      </g>
     </g>
    </g>
    <g id="xtick_22">
     <g id="line2d_29">
      <g>
       <use xlink:href="#mf489a9b95e" x="166.495353" y="159.998056" style="stroke: #000000; stroke-width: 0.8"/>
      </g>
     </g>
    </g>
    <g id="xtick_23">
     <g id="line2d_30">
      <g>
       <use xlink:href="#mf489a9b95e" x="184.539913" y="159.998056" style="stroke: #000000; stroke-width: 0.8"/>
      </g>
     </g>
    </g>
    <g id="xtick_24">
     <g id="line2d_31">
      <g>
       <use xlink:href="#mf489a9b95e" x="193.562193" y="159.998056" style="stroke: #000000; stroke-width: 0.8"/>
      </g>
     </g>
    </g>
    <g id="xtick_25">
     <g id="line2d_32">
      <g>
       <use xlink:href="#mf489a9b95e" x="202.584474" y="159.998056" style="stroke: #000000; stroke-width: 0.8"/>
      </g>
     </g>
    </g>
    <g id="xtick_26">
     <g id="line2d_33">
      <g>
       <use xlink:href="#mf489a9b95e" x="211.606754" y="159.998056" style="stroke: #000000; stroke-width: 0.8"/>
      </g>
     </g>
    </g>
    <g id="xtick_27">
     <g id="line2d_34">
      <g>
       <use xlink:href="#mf489a9b95e" x="229.651314" y="159.998056" style="stroke: #000000; stroke-width: 0.8"/>
      </g>
     </g>
    </g>
    <g id="xtick_28">
     <g id="line2d_35">
      <g>
       <use xlink:href="#mf489a9b95e" x="238.673595" y="159.998056" style="stroke: #000000; stroke-width: 0.8"/>
      </g>
     </g>
    </g>
    <g id="xtick_29">
     <g id="line2d_36">
      <g>
       <use xlink:href="#mf489a9b95e" x="247.695875" y="159.998056" style="stroke: #000000; stroke-width: 0.8"/>
      </g>
     </g>
    </g>
    <g id="xtick_30">
     <g id="line2d_37">
      <g>
       <use xlink:href="#mf489a9b95e" x="256.718155" y="159.998056" style="stroke: #000000; stroke-width: 0.8"/>
      </g>
     </g>
    </g>
    <g id="xtick_31">
     <g id="line2d_38">
      <g>
       <use xlink:href="#mf489a9b95e" x="274.762716" y="159.998056" style="stroke: #000000; stroke-width: 0.8"/>
      </g>
     </g>
    </g>
    <g id="xtick_32">
     <g id="line2d_39">
      <g>
       <use xlink:href="#mf489a9b95e" x="283.784996" y="159.998056" style="stroke: #000000; stroke-width: 0.8"/>
      </g>
     </g>
    </g>
    <g id="xtick_33">
     <g id="line2d_40">
      <g>
       <use xlink:href="#mf489a9b95e" x="292.807276" y="159.998056" style="stroke: #000000; stroke-width: 0.8"/>
      </g>
     </g>
    </g>
    <g id="xtick_34">
     <g id="line2d_41">
      <g>
       <use xlink:href="#mf489a9b95e" x="301.829557" y="159.998056" style="stroke: #000000; stroke-width: 0.8"/>
      </g>
     </g>
    </g>
    <g id="xtick_35">
     <g id="line2d_42">
      <g>
       <use xlink:href="#mf489a9b95e" x="319.874117" y="159.998056" style="stroke: #000000; stroke-width: 0.8"/>
      </g>
     </g>
    </g>
    <g id="xtick_36">
     <g id="line2d_43">
      <g>
       <use xlink:href="#mf489a9b95e" x="328.896397" y="159.998056" style="stroke: #000000; stroke-width: 0.8"/>
      </g>
     </g>
    </g>
    <g id="xtick_37">
     <g id="line2d_44">
      <g>
       <use xlink:href="#mf489a9b95e" x="337.918678" y="159.998056" style="stroke: #000000; stroke-width: 0.8"/>
      </g>
     </g>
    </g>
    <g id="xtick_38">
     <g id="line2d_45">
      <g>
       <use xlink:href="#mf489a9b95e" x="346.940958" y="159.998056" style="stroke: #000000; stroke-width: 0.8"/>
      </g>
     </g>
    </g>
    <g id="xtick_39">
     <g id="line2d_46">
      <g>
       <use xlink:href="#mf489a9b95e" x="364.985518" y="159.998056" style="stroke: #000000; stroke-width: 0.8"/>
      </g>
     </g>
    </g>
    <g id="xtick_40">
     <g id="line2d_47">
      <g>
       <use xlink:href="#mf489a9b95e" x="374.007799" y="159.998056" style="stroke: #000000; stroke-width: 0.8"/>
      </g>
     </g>
    </g>
    <g id="xtick_41">
     <g id="line2d_48">
      <g>
       <use xlink:href="#mf489a9b95e" x="383.030079" y="159.998056" style="stroke: #000000; stroke-width: 0.8"/>
      </g>
     </g>
    </g>
    <g id="xtick_42">
     <g id="line2d_49">
      <g>
       <use xlink:href="#mf489a9b95e" x="392.052359" y="159.998056" style="stroke: #000000; stroke-width: 0.8"/>
      </g>
     </g>
    </g>
    <g id="xtick_43">
     <g id="line2d_50">
      <g>
       <use xlink:href="#mf489a9b95e" x="410.09692" y="159.998056" style="stroke: #000000; stroke-width: 0.8"/>
      </g>
     </g>
    </g>
    <g id="xtick_44">
     <g id="line2d_51">
      <g>
       <use xlink:href="#mf489a9b95e" x="419.1192" y="159.998056" style="stroke: #000000; stroke-width: 0.8"/>
      </g>
     </g>
    </g>
    <g id="text_10">
     <!-- $\textrm{evaluation timestep }t\textrm{ (arb.)}$ -->
     <g transform="translate(154.546609 187.091208) scale(0.12 -0.12)">
      <defs>
       <path id="CMR17-65" d="M 2438 1472 
C 2464 1498 2464 1511 2464 1576 
C 2464 2238 2118 2816 1389 2816 
C 710 2816 173 2169 173 1383 
C 173 551 781 -64 1459 -64 
C 2176 -64 2458 607 2458 740 
C 2458 784 2419 784 2406 784 
C 2362 784 2355 771 2330 696 
C 2189 265 1837 51 1504 51 
C 1229 51 954 203 781 480 
C 582 803 582 1176 582 1472 
L 2438 1472 
z
M 589 1568 
C 634 2505 1126 2714 1382 2714 
C 1818 2714 2112 2297 2118 1568 
L 589 1568 
z
" transform="scale(0.015625)"/>
       <path id="CMR17-76" d="M 2502 2163 
C 2560 2304 2662 2560 3034 2560 
L 3034 2726 
C 2912 2726 2752 2726 2630 2726 
C 2496 2726 2285 2726 2157 2732 
L 2157 2566 
C 2317 2553 2406 2477 2406 2311 
C 2406 2253 2406 2240 2368 2151 
L 1664 377 
L 902 2286 
C 864 2369 864 2381 864 2407 
C 864 2560 1075 2560 1171 2560 
L 1171 2732 
C 1018 2726 736 2726 576 2726 
C 403 2726 205 2726 64 2732 
L 64 2560 
C 307 2560 442 2560 518 2362 
L 1446 44 
C 1485 -51 1491 -64 1549 -64 
C 1606 -64 1613 -51 1651 44 
L 2502 2163 
z
" transform="scale(0.015625)"/>
       <path id="CMR17-61" d="M 2304 1653 
C 2304 2072 2304 2294 2035 2543 
C 1798 2752 1523 2816 1306 2816 
C 800 2816 435 2407 435 1971 
C 435 1728 627 1728 666 1728 
C 749 1728 896 1778 896 1954 
C 896 2112 774 2181 666 2181 
C 640 2181 608 2174 589 2168 
C 723 2592 1069 2714 1293 2714 
C 1613 2714 1965 2429 1965 1885 
L 1965 1600 
C 1587 1600 1133 1549 774 1357 
C 371 1133 256 813 256 570 
C 256 77 832 -64 1171 -64 
C 1523 -64 1850 139 1990 511 
C 2003 233 2182 -18 2464 -18 
C 2598 -18 2938 70 2938 567 
L 2938 920 
L 2822 920 
L 2822 562 
C 2822 178 2650 128 2566 128 
C 2304 128 2304 458 2304 738 
L 2304 1653 
z
M 1965 870 
C 1965 317 1568 38 1216 38 
C 896 38 646 275 646 570 
C 646 761 730 1100 1101 1305 
C 1408 1478 1760 1504 1965 1504 
L 1965 870 
z
" transform="scale(0.015625)"/>
       <path id="CMR17-6c" d="M 979 4396 
L 218 4326 
L 218 4160 
C 595 4160 653 4122 653 3817 
L 653 426 
C 653 184 627 153 218 153 
L 218 -13 
C 371 0 653 0 813 0 
C 979 0 1261 0 1414 -13 
L 1414 153 
C 1005 153 979 178 979 426 
L 979 4396 
z
" transform="scale(0.015625)"/>
       <path id="CMR17-75" d="M 1882 2693 
L 1882 2528 
C 2259 2528 2317 2489 2317 2186 
L 2317 1032 
C 2317 500 2029 38 1555 38 
C 1030 38 986 348 986 678 
L 986 2763 
L 211 2693 
L 211 2528 
C 467 2528 640 2528 646 2274 
L 646 1058 
C 646 633 646 361 813 183 
C 896 101 1056 -64 1517 -64 
C 2061 -64 2272 377 2323 506 
L 2330 506 
L 2330 -63 
L 3091 -63 
L 3091 128 
C 2714 128 2656 166 2656 473 
L 2656 2763 
L 1882 2693 
z
" transform="scale(0.015625)"/>
       <path id="CMR17-74" d="M 966 2560 
L 1862 2560 
L 1862 2725 
L 966 2725 
L 966 3904 
L 851 3904 
C 838 3245 614 2668 70 2668 
L 70 2560 
L 627 2560 
L 627 771 
C 627 650 627 -64 1370 -64 
C 1747 -64 1965 306 1965 777 
L 1965 1140 
L 1850 1140 
L 1850 783 
C 1850 344 1677 51 1408 51 
C 1222 51 966 178 966 758 
L 966 2560 
z
" transform="scale(0.015625)"/>
       <path id="CMR17-69" d="M 992 3909 
C 992 4049 877 4170 730 4170 
C 589 4170 467 4056 467 3909 
C 467 3769 582 3648 730 3648 
C 870 3648 992 3763 992 3909 
z
M 243 2706 
L 243 2541 
C 602 2541 653 2502 653 2197 
L 653 427 
C 653 184 627 153 218 153 
L 218 -13 
C 371 0 646 0 806 0 
C 960 0 1222 0 1370 -13 
L 1370 153 
C 992 153 979 191 979 420 
L 979 2776 
L 243 2706 
z
" transform="scale(0.015625)"/>
       <path id="CMR17-6f" d="M 2758 1356 
C 2758 2176 2163 2816 1466 2816 
C 768 2816 173 2176 173 1356 
C 173 551 768 -64 1466 -64 
C 2163 -64 2758 551 2758 1356 
z
M 1466 51 
C 1165 51 909 230 762 480 
C 602 767 582 1126 582 1408 
C 582 1677 595 2010 762 2298 
C 890 2509 1139 2714 1466 2714 
C 1754 2714 1997 2554 2150 2330 
C 2349 2029 2349 1607 2349 1408 
C 2349 1158 2336 775 2163 467 
C 1984 173 1709 51 1466 51 
z
" transform="scale(0.015625)"/>
       <path id="CMR17-6e" d="M 2656 1933 
C 2656 2259 2592 2790 1837 2790 
C 1331 2790 1069 2400 973 2144 
L 966 2144 
L 966 2790 
L 211 2720 
L 211 2554 
C 589 2554 646 2515 646 2208 
L 646 428 
C 646 184 621 153 211 153 
L 211 -13 
C 365 0 646 0 813 0 
C 979 0 1267 0 1421 -13 
L 1421 153 
C 1011 153 986 178 986 428 
L 986 1658 
C 986 2247 1344 2688 1792 2688 
C 2266 2688 2317 2266 2317 1958 
L 2317 428 
C 2317 184 2291 153 1882 153 
L 1882 -13 
C 2035 0 2317 0 2483 0 
C 2650 0 2938 0 3091 -13 
L 3091 153 
C 2682 153 2656 178 2656 428 
L 2656 1933 
z
" transform="scale(0.015625)"/>
       <path id="CMR17-6d" d="M 4326 1933 
C 4326 2252 4269 2790 3507 2790 
C 3072 2790 2771 2496 2656 2151 
L 2650 2151 
C 2573 2676 2195 2790 1837 2790 
C 1331 2790 1069 2400 973 2144 
L 966 2144 
L 966 2790 
L 211 2720 
L 211 2554 
C 589 2554 646 2515 646 2208 
L 646 428 
C 646 184 621 153 211 153 
L 211 -13 
C 365 0 646 0 813 0 
C 979 0 1267 0 1421 -13 
L 1421 153 
C 1011 153 986 178 986 428 
L 986 1658 
C 986 2247 1344 2688 1792 2688 
C 2266 2688 2317 2266 2317 1958 
L 2317 428 
C 2317 184 2291 153 1882 153 
L 1882 -13 
C 2035 0 2317 0 2483 0 
C 2650 0 2938 0 3091 -13 
L 3091 153 
C 2682 153 2656 178 2656 428 
L 2656 1658 
C 2656 2247 3014 2688 3462 2688 
C 3936 2688 3987 2266 3987 1958 
L 3987 428 
C 3987 184 3962 153 3552 153 
L 3552 -13 
C 3706 0 3987 0 4154 0 
C 4320 0 4608 0 4762 -13 
L 4762 153 
C 4352 153 4326 178 4326 428 
L 4326 1933 
z
" transform="scale(0.015625)"/>
       <path id="CMR17-73" d="M 1978 2697 
C 1978 2813 1971 2819 1933 2819 
C 1907 2819 1901 2813 1824 2717 
C 1805 2691 1747 2626 1728 2601 
C 1523 2819 1235 2819 1126 2819 
C 416 2819 160 2447 160 2076 
C 160 1498 813 1365 998 1325 
C 1402 1243 1542 1217 1677 1101 
C 1760 1025 1901 884 1901 654 
C 1901 384 1747 38 1158 38 
C 602 38 403 460 288 1021 
C 269 1110 269 1117 218 1117 
C 166 1117 160 1110 160 983 
L 160 63 
C 160 -51 166 -58 205 -58 
C 237 -58 243 -51 275 0 
C 314 57 410 211 448 276 
C 576 103 800 -64 1158 -64 
C 1792 -64 2131 283 2131 784 
C 2131 1112 1958 1285 1875 1362 
C 1683 1561 1459 1606 1190 1657 
C 838 1735 390 1825 390 2217 
C 390 2383 480 2737 1126 2737 
C 1811 2737 1850 2094 1862 1888 
C 1869 1856 1901 1849 1920 1849 
C 1978 1849 1978 1869 1978 1978 
L 1978 2697 
z
" transform="scale(0.015625)"/>
       <path id="CMR17-70" d="M 1408 -1063 
C 998 -1063 973 -1037 973 -789 
L 973 402 
C 1158 134 1427 -38 1766 -38 
C 2406 -38 3053 523 3053 1388 
C 3053 2191 2496 2802 1837 2802 
C 1453 2802 1139 2592 960 2338 
L 960 2802 
L 198 2732 
L 198 2567 
C 576 2567 634 2528 634 2223 
L 634 -789 
C 634 -1031 608 -1063 198 -1063 
L 198 -1228 
C 352 -1216 634 -1216 800 -1216 
C 966 -1216 1254 -1216 1408 -1228 
L 1408 -1063 
z
M 973 2012 
C 973 2102 973 2235 1222 2471 
C 1254 2497 1472 2688 1792 2688 
C 2259 2688 2643 2108 2643 1382 
C 2643 656 2234 64 1728 64 
C 1498 64 1248 172 1056 472 
C 973 612 973 650 973 752 
L 973 2012 
z
" transform="scale(0.015625)"/>
       <path id="CMMI12-74" d="M 1286 2566 
L 1875 2566 
C 1997 2566 2061 2566 2061 2681 
C 2061 2752 2022 2752 1894 2752 
L 1331 2752 
L 1568 3692 
C 1594 3781 1594 3794 1594 3840 
C 1594 3943 1510 4000 1427 4000 
C 1376 4000 1229 3981 1178 3775 
L 928 2752 
L 326 2752 
C 198 2752 141 2752 141 2630 
C 141 2566 186 2566 307 2566 
L 877 2566 
L 454 881 
C 403 658 384 594 384 511 
C 384 211 595 -64 954 -64 
C 1600 -64 1946 868 1946 912 
C 1946 951 1920 970 1882 970 
C 1869 970 1843 970 1830 944 
C 1824 938 1818 931 1773 829 
C 1638 511 1344 64 973 64 
C 781 64 768 224 768 364 
C 768 370 768 492 787 568 
L 1286 2566 
z
" transform="scale(0.015625)"/>
       <path id="CMR17-28" d="M 1958 -1561 
C 1958 -1555 1958 -1542 1939 -1523 
C 1645 -1224 858 -407 858 1581 
C 858 3569 1632 4379 1946 4697 
C 1946 4704 1958 4717 1958 4736 
C 1958 4755 1939 4768 1914 4768 
C 1843 4768 1299 4296 986 3594 
C 666 2887 576 2199 576 1588 
C 576 1128 621 351 1005 -471 
C 1312 -1135 1837 -1600 1914 -1600 
C 1946 -1600 1958 -1587 1958 -1561 
z
" transform="scale(0.015625)"/>
       <path id="CMR17-72" d="M 960 1497 
C 960 2112 1222 2688 1702 2688 
C 1747 2688 1792 2682 1837 2662 
C 1837 2662 1696 2617 1696 2452 
C 1696 2298 1818 2234 1914 2234 
C 1990 2234 2131 2279 2131 2458 
C 2131 2663 1926 2790 1709 2790 
C 1222 2790 1011 2317 947 2093 
L 941 2093 
L 941 2790 
L 198 2720 
L 198 2554 
C 576 2554 634 2515 634 2208 
L 634 428 
C 634 184 608 153 198 153 
L 198 -13 
C 352 0 646 0 813 0 
C 998 0 1325 0 1498 -13 
L 1498 153 
C 1037 153 960 153 960 440 
L 960 1497 
z
" transform="scale(0.015625)"/>
       <path id="CMR17-62" d="M 960 4396 
L 198 4326 
L 198 4160 
C 576 4160 634 4122 634 3817 
L 634 -13 
L 749 -13 
L 934 441 
C 1120 141 1395 -64 1766 -64 
C 2406 -64 3053 500 3053 1370 
C 3053 2188 2477 2790 1830 2790 
C 1434 2790 1152 2579 960 2330 
L 960 4396 
z
M 973 2004 
C 973 2118 973 2138 1062 2272 
C 1312 2657 1670 2688 1792 2688 
C 1984 2688 2643 2585 2643 1376 
C 2643 108 1888 38 1734 38 
C 1536 38 1248 114 1043 486 
C 973 608 973 621 973 735 
L 973 2004 
z
" transform="scale(0.015625)"/>
       <path id="CMR17-2e" d="M 1062 261 
C 1062 420 934 522 800 522 
C 672 522 538 420 538 261 
C 538 102 666 0 800 0 
C 928 0 1062 102 1062 261 
z
" transform="scale(0.015625)"/>
       <path id="CMR17-29" d="M 1683 1581 
C 1683 2040 1638 2817 1254 3639 
C 947 4303 422 4768 346 4768 
C 326 4768 301 4761 301 4729 
C 301 4717 307 4710 314 4697 
C 621 4378 1402 3568 1402 1584 
C 1402 -407 627 -1217 314 -1537 
C 307 -1549 301 -1556 301 -1568 
C 301 -1600 326 -1600 346 -1600 
C 416 -1600 960 -1128 1274 -426 
C 1594 281 1683 969 1683 1581 
z
" transform="scale(0.015625)"/>
      </defs>
      <use xlink:href="#CMR17-65" transform="scale(0.996264)"/>
      <use xlink:href="#CMR17-76" transform="translate(40.48566 0) scale(0.996264)"/>
      <use xlink:href="#CMR17-61" transform="translate(83.57376 0) scale(0.996264)"/>
      <use xlink:href="#CMR17-6c" transform="translate(129.264237 0) scale(0.996264)"/>
      <use xlink:href="#CMR17-75" transform="translate(154.135295 0) scale(0.996264)"/>
      <use xlink:href="#CMR17-61" transform="translate(205.030665 0) scale(0.996264)"/>
      <use xlink:href="#CMR17-74" transform="translate(250.721142 0) scale(0.996264)"/>
      <use xlink:href="#CMR17-69" transform="translate(286.00191 0) scale(0.996264)"/>
      <use xlink:href="#CMR17-6f" transform="translate(310.872968 0) scale(0.996264)"/>
      <use xlink:href="#CMR17-6e" transform="translate(356.563446 0) scale(0.996264)"/>
      <use xlink:href="#CMR17-74" transform="translate(437.534782 0) scale(0.996264)"/>
      <use xlink:href="#CMR17-69" transform="translate(472.815549 0) scale(0.996264)"/>
      <use xlink:href="#CMR17-6d" transform="translate(497.686608 0) scale(0.996264)"/>
      <use xlink:href="#CMR17-65" transform="translate(574.606198 0) scale(0.996264)"/>
      <use xlink:href="#CMR17-73" transform="translate(615.091858 0) scale(0.996264)"/>
      <use xlink:href="#CMR17-74" transform="translate(650.893196 0) scale(0.996264)"/>
      <use xlink:href="#CMR17-65" transform="translate(686.173964 0) scale(0.996264)"/>
      <use xlink:href="#CMR17-70" transform="translate(726.659624 0) scale(0.996264)"/>
      <use xlink:href="#CMMI12-74" transform="translate(807.63096 0) scale(0.996264)"/>
      <use xlink:href="#CMR17-28" transform="translate(872.933257 0) scale(0.996264)"/>
      <use xlink:href="#CMR17-61" transform="translate(908.214025 0) scale(0.996264)"/>
      <use xlink:href="#CMR17-72" transform="translate(953.904502 0) scale(0.996264)"/>
      <use xlink:href="#CMR17-62" transform="translate(989.18527 0) scale(0.996264)"/>
      <use xlink:href="#CMR17-2e" transform="translate(1040.080639 0) scale(0.996264)"/>
      <use xlink:href="#CMR17-29" transform="translate(1064.951698 0) scale(0.996264)"/>
     </g>
    </g>
   </g>
   <g id="matplotlib.axis_2">
    <g id="ytick_1">
     <g id="line2d_52">
      <defs>
       <path id="mab2beed42e" d="M 0 0 
L 2.551 0 
" style="stroke: #000000; stroke-width: 0.8"/>
      </defs>
      <g>
       <use xlink:href="#mab2beed42e" x="31.161149" y="159.998056" style="stroke: #000000; stroke-width: 0.8"/>
      </g>
     </g>
     <g id="text_11">
      <!-- $\mathdefault{0}$ -->
      <g transform="translate(21.808158 164.149146) scale(0.12 -0.12)">
       <use xlink:href="#CMR17-30" transform="scale(0.996264)"/>
      </g>
     </g>
    </g>
    <g id="ytick_2">
     <g id="line2d_53">
      <g>
       <use xlink:href="#mab2beed42e" x="31.161149" y="132.37388" style="stroke: #000000; stroke-width: 0.8"/>
      </g>
     </g>
     <g id="text_12">
      <!-- $\mathdefault{10}$ -->
      <g transform="translate(15.955168 136.52497) scale(0.12 -0.12)">
       <use xlink:href="#CMR17-31" transform="scale(0.996264)"/>
       <use xlink:href="#CMR17-30" transform="translate(45.690477 0) scale(0.996264)"/>
      </g>
     </g>
    </g>
    <g id="ytick_3">
     <g id="line2d_54">
      <g>
       <use xlink:href="#mab2beed42e" x="31.161149" y="104.749703" style="stroke: #000000; stroke-width: 0.8"/>
      </g>
     </g>
     <g id="text_13">
      <!-- $\mathdefault{20}$ -->
      <g transform="translate(15.955168 108.900793) scale(0.12 -0.12)">
       <use xlink:href="#CMR17-32" transform="scale(0.996264)"/>
       <use xlink:href="#CMR17-30" transform="translate(45.690477 0) scale(0.996264)"/>
      </g>
     </g>
    </g>
    <g id="ytick_4">
     <g id="line2d_55">
      <g>
       <use xlink:href="#mab2beed42e" x="31.161149" y="77.125527" style="stroke: #000000; stroke-width: 0.8"/>
      </g>
     </g>
     <g id="text_14">
      <!-- $\mathdefault{30}$ -->
      <g transform="translate(15.955168 81.276617) scale(0.12 -0.12)">
       <defs>
        <path id="CMR17-33" d="M 1414 2157 
C 1984 2157 2234 1662 2234 1090 
C 2234 320 1824 25 1453 25 
C 1114 25 563 194 390 693 
C 422 680 454 680 486 680 
C 640 680 755 782 755 948 
C 755 1133 614 1216 486 1216 
C 378 1216 211 1165 211 926 
C 211 335 787 -128 1466 -128 
C 2176 -128 2720 430 2720 1085 
C 2720 1707 2208 2157 1600 2227 
C 2086 2328 2554 2756 2554 3329 
C 2554 3820 2048 4179 1472 4179 
C 890 4179 378 3829 378 3329 
C 378 3110 544 3072 627 3072 
C 762 3072 877 3155 877 3321 
C 877 3486 762 3569 627 3569 
C 602 3569 570 3569 544 3557 
C 730 3959 1235 4032 1459 4032 
C 1683 4032 2106 3925 2106 3320 
C 2106 3143 2080 2828 1862 2550 
C 1670 2304 1453 2304 1242 2284 
C 1210 2284 1062 2269 1037 2269 
C 992 2263 966 2257 966 2208 
C 966 2163 973 2157 1101 2157 
L 1414 2157 
z
" transform="scale(0.015625)"/>
       </defs>
       <use xlink:href="#CMR17-33" transform="scale(0.996264)"/>
       <use xlink:href="#CMR17-30" transform="translate(45.690477 0) scale(0.996264)"/>
      </g>
     </g>
    </g>
    <g id="ytick_5">
     <g id="line2d_56">
      <g>
       <use xlink:href="#mab2beed42e" x="31.161149" y="49.501351" style="stroke: #000000; stroke-width: 0.8"/>
      </g>
     </g>
     <g id="text_15">
      <!-- $\mathdefault{40}$ -->
      <g transform="translate(15.955168 53.65244) scale(0.12 -0.12)">
       <defs>
        <path id="CMR17-34" d="M 2150 4122 
C 2150 4256 2144 4256 2029 4256 
L 128 1254 
L 128 1088 
L 1779 1088 
L 1779 457 
C 1779 224 1766 160 1318 160 
L 1197 160 
L 1197 0 
C 1402 0 1747 0 1965 0 
C 2182 0 2528 0 2733 0 
L 2733 160 
L 2611 160 
C 2163 160 2150 224 2150 457 
L 2150 1088 
L 2803 1088 
L 2803 1254 
L 2150 1254 
L 2150 4122 
z
M 1798 3703 
L 1798 1254 
L 256 1254 
L 1798 3703 
z
" transform="scale(0.015625)"/>
       </defs>
       <use xlink:href="#CMR17-34" transform="scale(0.996264)"/>
       <use xlink:href="#CMR17-30" transform="translate(45.690477 0) scale(0.996264)"/>
      </g>
     </g>
    </g>
    <g id="ytick_6">
     <g id="line2d_57">
      <g>
       <use xlink:href="#mab2beed42e" x="31.161149" y="21.877174" style="stroke: #000000; stroke-width: 0.8"/>
      </g>
     </g>
     <g id="text_16">
      <!-- $\mathdefault{50}$ -->
      <g transform="translate(15.955168 26.028264) scale(0.12 -0.12)">
       <use xlink:href="#CMR17-35" transform="scale(0.996264)"/>
       <use xlink:href="#CMR17-30" transform="translate(45.690477 0) scale(0.996264)"/>
      </g>
     </g>
    </g>
    <g id="ytick_7">
     <g id="line2d_58">
      <defs>
       <path id="mccb69690ce" d="M 0 0 
L 1.417 0 
" style="stroke: #000000; stroke-width: 0.8"/>
      </defs>
      <g>
       <use xlink:href="#mccb69690ce" x="31.161149" y="154.473221" style="stroke: #000000; stroke-width: 0.8"/>
      </g>
     </g>
    </g>
    <g id="ytick_8">
     <g id="line2d_59">
      <g>
       <use xlink:href="#mccb69690ce" x="31.161149" y="148.948386" style="stroke: #000000; stroke-width: 0.8"/>
      </g>
     </g>
    </g>
    <g id="ytick_9">
     <g id="line2d_60">
      <g>
       <use xlink:href="#mccb69690ce" x="31.161149" y="143.42355" style="stroke: #000000; stroke-width: 0.8"/>
      </g>
     </g>
    </g>
    <g id="ytick_10">
     <g id="line2d_61">
      <g>
       <use xlink:href="#mccb69690ce" x="31.161149" y="137.898715" style="stroke: #000000; stroke-width: 0.8"/>
      </g>
     </g>
    </g>
    <g id="ytick_11">
     <g id="line2d_62">
      <g>
       <use xlink:href="#mccb69690ce" x="31.161149" y="126.849045" style="stroke: #000000; stroke-width: 0.8"/>
      </g>
     </g>
    </g>
    <g id="ytick_12">
     <g id="line2d_63">
      <g>
       <use xlink:href="#mccb69690ce" x="31.161149" y="121.324209" style="stroke: #000000; stroke-width: 0.8"/>
      </g>
     </g>
    </g>
    <g id="ytick_13">
     <g id="line2d_64">
      <g>
       <use xlink:href="#mccb69690ce" x="31.161149" y="115.799374" style="stroke: #000000; stroke-width: 0.8"/>
      </g>
     </g>
    </g>
    <g id="ytick_14">
     <g id="line2d_65">
      <g>
       <use xlink:href="#mccb69690ce" x="31.161149" y="110.274539" style="stroke: #000000; stroke-width: 0.8"/>
      </g>
     </g>
    </g>
    <g id="ytick_15">
     <g id="line2d_66">
      <g>
       <use xlink:href="#mccb69690ce" x="31.161149" y="99.224868" style="stroke: #000000; stroke-width: 0.8"/>
      </g>
     </g>
    </g>
    <g id="ytick_16">
     <g id="line2d_67">
      <g>
       <use xlink:href="#mccb69690ce" x="31.161149" y="93.700033" style="stroke: #000000; stroke-width: 0.8"/>
      </g>
     </g>
    </g>
    <g id="ytick_17">
     <g id="line2d_68">
      <g>
       <use xlink:href="#mccb69690ce" x="31.161149" y="88.175198" style="stroke: #000000; stroke-width: 0.8"/>
      </g>
     </g>
    </g>
    <g id="ytick_18">
     <g id="line2d_69">
      <g>
       <use xlink:href="#mccb69690ce" x="31.161149" y="82.650362" style="stroke: #000000; stroke-width: 0.8"/>
      </g>
     </g>
    </g>
    <g id="ytick_19">
     <g id="line2d_70">
      <g>
       <use xlink:href="#mccb69690ce" x="31.161149" y="71.600692" style="stroke: #000000; stroke-width: 0.8"/>
      </g>
     </g>
    </g>
    <g id="ytick_20">
     <g id="line2d_71">
      <g>
       <use xlink:href="#mccb69690ce" x="31.161149" y="66.075856" style="stroke: #000000; stroke-width: 0.8"/>
      </g>
     </g>
    </g>
    <g id="ytick_21">
     <g id="line2d_72">
      <g>
       <use xlink:href="#mccb69690ce" x="31.161149" y="60.551021" style="stroke: #000000; stroke-width: 0.8"/>
      </g>
     </g>
    </g>
    <g id="ytick_22">
     <g id="line2d_73">
      <g>
       <use xlink:href="#mccb69690ce" x="31.161149" y="55.026186" style="stroke: #000000; stroke-width: 0.8"/>
      </g>
     </g>
    </g>
    <g id="ytick_23">
     <g id="line2d_74">
      <g>
       <use xlink:href="#mccb69690ce" x="31.161149" y="43.976515" style="stroke: #000000; stroke-width: 0.8"/>
      </g>
     </g>
    </g>
    <g id="ytick_24">
     <g id="line2d_75">
      <g>
       <use xlink:href="#mccb69690ce" x="31.161149" y="38.45168" style="stroke: #000000; stroke-width: 0.8"/>
      </g>
     </g>
    </g>
    <g id="ytick_25">
     <g id="line2d_76">
      <g>
       <use xlink:href="#mccb69690ce" x="31.161149" y="32.926845" style="stroke: #000000; stroke-width: 0.8"/>
      </g>
     </g>
    </g>
    <g id="ytick_26">
     <g id="line2d_77">
      <g>
       <use xlink:href="#mccb69690ce" x="31.161149" y="27.402009" style="stroke: #000000; stroke-width: 0.8"/>
      </g>
     </g>
    </g>
    <g id="ytick_27">
     <g id="line2d_78">
      <g>
       <use xlink:href="#mccb69690ce" x="31.161149" y="16.352339" style="stroke: #000000; stroke-width: 0.8"/>
      </g>
     </g>
    </g>
    <g id="ytick_28">
     <g id="line2d_79">
      <g>
       <use xlink:href="#mccb69690ce" x="31.161149" y="10.827504" style="stroke: #000000; stroke-width: 0.8"/>
      </g>
     </g>
    </g>
    <g id="ytick_29">
     <g id="line2d_80">
      <g>
       <use xlink:href="#mccb69690ce" x="31.161149" y="5.302668" style="stroke: #000000; stroke-width: 0.8"/>
      </g>
     </g>
    </g>
    <g id="text_17">
     <!-- $\textrm{Infidelity (\%)}$ -->
     <g transform="translate(8.966376 114.301979) rotate(-90) scale(0.12 -0.12)">
      <defs>
       <path id="CMR17-49" d="M 1261 3905 
C 1261 4192 1338 4192 1798 4192 
L 1798 4352 
C 1594 4352 1267 4352 1050 4352 
C 832 4352 506 4352 301 4352 
L 301 4192 
C 762 4192 838 4192 838 3905 
L 838 447 
C 838 160 762 160 301 160 
L 301 0 
C 506 0 832 0 1050 0 
C 1267 0 1594 0 1798 0 
L 1798 160 
C 1338 160 1261 160 1261 447 
L 1261 3905 
z
" transform="scale(0.015625)"/>
       <path id="CMR17-c" d="M 2554 2764 
C 2400 2764 1926 2764 1805 2739 
C 1766 2725 1754 2725 1677 2725 
L 947 2725 
L 947 3469 
C 947 4073 1434 4352 1818 4352 
C 1939 4352 2214 4320 2355 4101 
C 2291 4101 2086 4101 2086 3878 
C 2086 3725 2189 3648 2317 3648 
C 2432 3648 2547 3712 2547 3885 
C 2547 4205 2240 4454 1843 4454 
C 1338 4454 634 4168 634 3469 
L 634 2725 
L 122 2725 
L 122 2560 
L 634 2560 
L 634 427 
C 634 184 608 153 198 153 
L 198 -13 
C 352 0 634 0 794 0 
C 960 0 1242 0 1395 -13 
L 1395 153 
C 986 153 960 178 960 427 
L 960 2560 
L 1901 2560 
C 2176 2560 2227 2502 2227 2222 
L 2227 427 
C 2227 184 2202 153 1792 153 
L 1792 -13 
C 1946 0 2227 0 2387 0 
C 2554 0 2835 0 2989 -13 
L 2989 153 
C 2579 153 2554 178 2554 427 
L 2554 2764 
z
" transform="scale(0.015625)"/>
       <path id="CMR17-64" d="M 1869 4326 
L 1869 4160 
C 2246 4160 2304 4122 2304 3820 
L 2304 2345 
C 2278 2377 2016 2790 1498 2790 
C 845 2790 211 2208 211 1364 
C 211 525 806 -64 1434 -64 
C 1978 -64 2259 337 2291 380 
L 2291 -63 
L 3066 -63 
L 3066 128 
C 2688 128 2630 166 2630 473 
L 2630 4396 
L 1869 4326 
z
M 2291 755 
C 2291 563 2176 390 2029 262 
C 1811 70 1594 38 1472 38 
C 1286 38 621 134 621 1356 
C 621 2612 1363 2688 1530 2688 
C 1824 2688 2061 2522 2208 2291 
C 2291 2157 2291 2138 2291 2023 
L 2291 755 
z
" transform="scale(0.015625)"/>
       <path id="CMR17-79" d="M 2496 2197 
C 2656 2586 2944 2586 3034 2586 
L 3034 2752 
C 2912 2752 2752 2752 2630 2752 
C 2496 2752 2285 2752 2157 2758 
L 2157 2592 
C 2400 2573 2406 2394 2406 2343 
C 2406 2280 2394 2248 2362 2171 
L 1664 449 
L 902 2306 
C 870 2382 870 2426 870 2433 
C 870 2573 1018 2586 1171 2586 
L 1171 2758 
C 1018 2752 742 2752 582 2752 
C 410 2752 205 2752 64 2758 
L 64 2586 
C 410 2586 448 2554 531 2350 
L 1485 15 
C 1197 -738 1030 -1178 627 -1178 
C 557 -1178 397 -1159 282 -1044 
C 429 -1031 493 -942 493 -833 
C 493 -725 416 -629 288 -629 
C 147 -629 77 -725 77 -840 
C 77 -1095 339 -1280 627 -1280 
C 998 -1280 1229 -922 1357 -604 
L 2496 2197 
z
" transform="scale(0.015625)"/>
       <path id="CMR17-25" d="M 4640 959 
C 4640 1698 4275 2240 3846 2240 
C 3411 2240 2970 1736 2970 959 
C 2970 183 3405 -320 3846 -320 
C 4275 -320 4640 215 4640 959 
z
M 3853 -218 
C 3686 -218 3270 -66 3270 959 
C 3270 1991 3686 2138 3853 2138 
C 4205 2138 4525 1634 4525 959 
C 4525 285 4205 -218 3853 -218 
z
M 4083 4577 
C 4128 4647 4134 4653 4134 4685 
C 4134 4761 4077 4800 4026 4800 
C 3962 4800 3936 4756 3891 4706 
C 3520 4190 3008 4134 2746 4134 
C 2106 4134 1715 4494 1594 4607 
C 1510 4682 1389 4800 1171 4800 
C 736 4800 294 4296 294 3519 
C 294 2743 730 2240 1171 2240 
C 1600 2240 1965 2778 1965 3527 
C 1965 3969 1830 4270 1811 4308 
C 2202 4064 2586 4032 2752 4032 
C 3162 4032 3456 4183 3616 4289 
L 3622 4283 
L 858 -84 
C 800 -174 800 -187 800 -206 
C 800 -276 858 -320 915 -320 
C 973 -320 992 -289 1037 -218 
L 4083 4577 
z
M 1178 2342 
C 1011 2342 595 2494 595 3519 
C 595 4551 1011 4698 1178 4698 
C 1530 4698 1850 4194 1850 3519 
C 1850 2845 1530 2342 1178 2342 
z
" transform="scale(0.015625)"/>
      </defs>
      <use xlink:href="#CMR17-49" transform="scale(0.996264)"/>
      <use xlink:href="#CMR17-6e" transform="translate(32.638409 0) scale(0.996264)"/>
      <use xlink:href="#CMR17-c" transform="translate(83.533779 0) scale(0.996264)"/>
      <use xlink:href="#CMR17-64" transform="translate(133.276002 0) scale(0.996264)"/>
      <use xlink:href="#CMR17-65" transform="translate(184.171372 0) scale(0.996264)"/>
      <use xlink:href="#CMR17-6c" transform="translate(224.657033 0) scale(0.996264)"/>
      <use xlink:href="#CMR17-69" transform="translate(249.528091 0) scale(0.996264)"/>
      <use xlink:href="#CMR17-74" transform="translate(274.39915 0) scale(0.996264)"/>
      <use xlink:href="#CMR17-79" transform="translate(307.077463 0) scale(0.996264)"/>
      <use xlink:href="#CMR17-28" transform="translate(385.446346 0) scale(0.996264)"/>
      <use xlink:href="#CMR17-25" transform="translate(420.727113 0) scale(0.996264)"/>
      <use xlink:href="#CMR17-29" transform="translate(497.646703 0) scale(0.996264)"/>
     </g>
    </g>
   </g>
   <g id="patch_3">
    <path d="M 31.161149 159.998056 
L 31.161149 0 
" style="fill: none; stroke: #000000; stroke-width: 0.8; stroke-linejoin: miter; stroke-linecap: square"/>
   </g>
   <g id="patch_4">
    <path d="M 419.1192 159.998056 
L 419.1192 0 
" style="fill: none; stroke: #000000; stroke-width: 0.8; stroke-linejoin: miter; stroke-linecap: square"/>
   </g>
   <g id="patch_5">
    <path d="M 31.161149 159.998056 
L 419.1192 159.998056 
" style="fill: none; stroke: #000000; stroke-width: 0.8; stroke-linejoin: miter; stroke-linecap: square"/>
   </g>
   <g id="patch_6">
    <path d="M 31.161149 0 
L 419.1192 0 
" style="fill: none; stroke: #000000; stroke-width: 0.8; stroke-linejoin: miter; stroke-linecap: square"/>
   </g>
   <g id="legend_1">
    <g id="patch_7">
     <path d="M 130.879626 153.998056 
L 410.7192 153.998056 
Q 413.1192 153.998056 413.1192 151.598056 
L 413.1192 102.624269 
Q 413.1192 100.224269 410.7192 100.224269 
L 130.879626 100.224269 
Q 128.479626 100.224269 128.479626 102.624269 
L 128.479626 151.598056 
Q 128.479626 153.998056 130.879626 153.998056 
z
" style="fill: #ffffff; opacity: 0.8; stroke: #cccccc; stroke-linejoin: miter"/>
    </g>
    <g id="line2d_81">
     <path d="M 133.279626 109.224269 
L 139.279626 109.224269 
L 145.279626 109.224269 
" style="fill: none; stroke: #ffffff; stroke-width: 4; stroke-linecap: square"/>
     <path d="M 133.279626 109.224269 
L 139.279626 109.224269 
L 145.279626 109.224269 
" style="fill: none; stroke: #2ca02c; stroke-width: 0.8; stroke-linecap: square"/>
    </g>
    <g id="text_18">
     <!-- $\textrm{baseline}$ -->
     <g transform="translate(151.279626 113.424269) scale(0.12 -0.12)">
      <use xlink:href="#CMR17-62" transform="scale(0.996264)"/>
      <use xlink:href="#CMR17-61" transform="translate(50.89537 0) scale(0.996264)"/>
      <use xlink:href="#CMR17-73" transform="translate(96.585847 0) scale(0.996264)"/>
      <use xlink:href="#CMR17-65" transform="translate(132.387185 0) scale(0.996264)"/>
      <use xlink:href="#CMR17-6c" transform="translate(172.872845 0) scale(0.996264)"/>
      <use xlink:href="#CMR17-69" transform="translate(197.743903 0) scale(0.996264)"/>
      <use xlink:href="#CMR17-6e" transform="translate(222.614962 0) scale(0.996264)"/>
      <use xlink:href="#CMR17-65" transform="translate(273.510332 0) scale(0.996264)"/>
     </g>
    </g>
    <g id="line2d_82">
     <path d="M 133.279626 125.948865 
L 139.279626 125.948865 
L 145.279626 125.948865 
" style="fill: none; stroke: #ffffff; stroke-width: 4; stroke-linecap: square"/>
     <path d="M 133.279626 125.948865 
L 139.279626 125.948865 
L 145.279626 125.948865 
" style="fill: none; stroke: #ff7f0e; stroke-width: 0.8; stroke-linecap: square"/>
    </g>
    <g id="text_19">
     <!-- $\textrm{stabilizer code}$ -->
     <g transform="translate(151.279626 130.148865) scale(0.12 -0.12)">
      <defs>
       <path id="CMR17-7a" d="M 2310 2605 
C 2362 2670 2362 2682 2362 2695 
C 2362 2752 2336 2752 2221 2752 
L 275 2752 
L 211 1760 
L 326 1760 
C 371 2381 442 2650 1178 2650 
L 1958 2650 
L 128 96 
C 128 0 134 0 269 0 
L 2291 0 
L 2381 1152 
L 2266 1152 
C 2214 442 2131 115 1350 115 
L 531 115 
L 2310 2605 
z
" transform="scale(0.015625)"/>
       <path id="CMR17-63" d="M 2234 2240 
C 2112 2240 1933 2240 1933 2017 
C 1933 1838 2080 1787 2163 1787 
C 2208 1787 2394 1807 2394 2024 
C 2394 2467 1958 2803 1466 2803 
C 787 2803 211 2178 211 1363 
C 211 516 813 -64 1466 -64 
C 2259 -64 2458 677 2458 748 
C 2458 774 2451 793 2406 793 
C 2362 793 2355 787 2330 703 
C 2163 180 1798 51 1523 51 
C 1114 51 621 427 621 1369 
C 621 2338 1094 2688 1472 2688 
C 1722 2688 2093 2573 2234 2240 
z
" transform="scale(0.015625)"/>
      </defs>
      <use xlink:href="#CMR17-73" transform="scale(0.996264)"/>
      <use xlink:href="#CMR17-74" transform="translate(35.801338 0) scale(0.996264)"/>
      <use xlink:href="#CMR17-61" transform="translate(71.082105 0) scale(0.996264)"/>
      <use xlink:href="#CMR17-62" transform="translate(116.772583 0) scale(0.996264)"/>
      <use xlink:href="#CMR17-69" transform="translate(167.667952 0) scale(0.996264)"/>
      <use xlink:href="#CMR17-6c" transform="translate(192.539011 0) scale(0.996264)"/>
      <use xlink:href="#CMR17-69" transform="translate(217.410069 0) scale(0.996264)"/>
      <use xlink:href="#CMR17-7a" transform="translate(242.281128 0) scale(0.996264)"/>
      <use xlink:href="#CMR17-65" transform="translate(282.766788 0) scale(0.996264)"/>
      <use xlink:href="#CMR17-72" transform="translate(323.252449 0) scale(0.996264)"/>
      <use xlink:href="#CMR17-63" transform="translate(388.609183 0) scale(0.996264)"/>
      <use xlink:href="#CMR17-6f" transform="translate(429.094843 0) scale(0.996264)"/>
      <use xlink:href="#CMR17-64" transform="translate(477.387759 0) scale(0.996264)"/>
      <use xlink:href="#CMR17-65" transform="translate(528.283129 0) scale(0.996264)"/>
     </g>
    </g>
    <g id="line2d_83">
     <path d="M 133.279626 142.673461 
L 139.279626 142.673461 
L 145.279626 142.673461 
" style="fill: none; stroke: #730000; stroke-width: 0.8; stroke-linecap: square"/>
    </g>
    <g id="text_20">
     <!-- $\textrm{model } s=2$ -->
     <g transform="translate(151.279626 146.873461) scale(0.12 -0.12)">
      <defs>
       <path id="CMMI12-73" d="M 1459 1280 
C 1568 1261 1741 1223 1779 1216 
C 1862 1192 2150 1090 2150 783 
C 2150 586 1971 70 1229 70 
C 1094 70 614 70 486 436 
C 742 404 870 603 870 745 
C 870 880 781 950 653 950 
C 512 950 326 841 326 552 
C 326 173 710 -64 1222 -64 
C 2195 -64 2483 651 2483 984 
C 2483 1079 2483 1258 2278 1462 
C 2118 1616 1965 1648 1619 1718 
C 1446 1756 1171 1814 1171 2101 
C 1171 2229 1286 2689 1894 2689 
C 2163 2689 2426 2589 2490 2368 
C 2208 2368 2195 2125 2195 2119 
C 2195 1984 2317 1946 2374 1946 
C 2464 1946 2643 2015 2643 2281 
C 2643 2545 2400 2816 1901 2816 
C 1062 2816 838 2160 838 1899 
C 838 1414 1312 1312 1459 1280 
z
" transform="scale(0.015625)"/>
       <path id="CMR17-3d" d="M 4115 2017 
C 4211 2017 4307 2017 4307 2125 
C 4307 2240 4198 2240 4090 2240 
L 512 2240 
C 403 2240 294 2240 294 2125 
C 294 2017 390 2017 486 2017 
L 4115 2017 
z
M 4090 896 
C 4198 896 4307 896 4307 1011 
C 4307 1119 4211 1119 4115 1119 
L 486 1119 
C 390 1119 294 1119 294 1011 
C 294 896 403 896 512 896 
L 4090 896 
z
" transform="scale(0.015625)"/>
      </defs>
      <use xlink:href="#CMR17-6d" transform="scale(0.996264)"/>
      <use xlink:href="#CMR17-6f" transform="translate(76.91959 0) scale(0.996264)"/>
      <use xlink:href="#CMR17-64" transform="translate(125.212506 0) scale(0.996264)"/>
      <use xlink:href="#CMR17-65" transform="translate(176.107875 0) scale(0.996264)"/>
      <use xlink:href="#CMR17-6c" transform="translate(216.593536 0) scale(0.996264)"/>
      <use xlink:href="#CMMI12-73" transform="translate(271.540561 0) scale(0.996264)"/>
      <use xlink:href="#CMR17-3d" transform="translate(345.164617 0) scale(0.996264)"/>
      <use xlink:href="#CMR17-32" transform="translate(444.553414 0) scale(0.996264)"/>
     </g>
    </g>
    <g id="line2d_84">
     <path d="M 236.507037 109.224269 
L 242.507037 109.224269 
L 248.507037 109.224269 
" style="fill: none; stroke: #000000; stroke-width: 0.8; stroke-linecap: square"/>
    </g>
    <g id="text_21">
     <!-- $\textrm{model } s=0$ -->
     <g transform="translate(254.507037 113.424269) scale(0.12 -0.12)">
      <use xlink:href="#CMR17-6d" transform="scale(0.996264)"/>
      <use xlink:href="#CMR17-6f" transform="translate(76.91959 0) scale(0.996264)"/>
      <use xlink:href="#CMR17-64" transform="translate(125.212506 0) scale(0.996264)"/>
      <use xlink:href="#CMR17-65" transform="translate(176.107875 0) scale(0.996264)"/>
      <use xlink:href="#CMR17-6c" transform="translate(216.593536 0) scale(0.996264)"/>
      <use xlink:href="#CMMI12-73" transform="translate(271.540561 0) scale(0.996264)"/>
      <use xlink:href="#CMR17-3d" transform="translate(345.164617 0) scale(0.996264)"/>
      <use xlink:href="#CMR17-30" transform="translate(444.553414 0) scale(0.996264)"/>
     </g>
    </g>
    <g id="line2d_85">
     <path d="M 236.507037 125.948865 
L 242.507037 125.948865 
L 248.507037 125.948865 
" style="fill: none; stroke: #e60000; stroke-width: 0.8; stroke-linecap: square"/>
    </g>
    <g id="text_22">
     <!-- $\textrm{model } s=4$ -->
     <g transform="translate(254.507037 130.148865) scale(0.12 -0.12)">
      <use xlink:href="#CMR17-6d" transform="scale(0.996264)"/>
      <use xlink:href="#CMR17-6f" transform="translate(76.91959 0) scale(0.996264)"/>
      <use xlink:href="#CMR17-64" transform="translate(125.212506 0) scale(0.996264)"/>
      <use xlink:href="#CMR17-65" transform="translate(176.107875 0) scale(0.996264)"/>
      <use xlink:href="#CMR17-6c" transform="translate(216.593536 0) scale(0.996264)"/>
      <use xlink:href="#CMMI12-73" transform="translate(271.540561 0) scale(0.996264)"/>
      <use xlink:href="#CMR17-3d" transform="translate(345.164617 0) scale(0.996264)"/>
      <use xlink:href="#CMR17-34" transform="translate(444.553414 0) scale(0.996264)"/>
     </g>
    </g>
    <g id="line2d_86">
     <path d="M 328.413118 109.224269 
L 334.413118 109.224269 
L 340.413118 109.224269 
" style="fill: none; stroke: #390000; stroke-width: 0.8; stroke-linecap: square"/>
    </g>
    <g id="text_23">
     <!-- $\textrm{model } s=1$ -->
     <g transform="translate(346.413118 113.424269) scale(0.12 -0.12)">
      <use xlink:href="#CMR17-6d" transform="scale(0.996264)"/>
      <use xlink:href="#CMR17-6f" transform="translate(76.91959 0) scale(0.996264)"/>
      <use xlink:href="#CMR17-64" transform="translate(125.212506 0) scale(0.996264)"/>
      <use xlink:href="#CMR17-65" transform="translate(176.107875 0) scale(0.996264)"/>
      <use xlink:href="#CMR17-6c" transform="translate(216.593536 0) scale(0.996264)"/>
      <use xlink:href="#CMMI12-73" transform="translate(271.540561 0) scale(0.996264)"/>
      <use xlink:href="#CMR17-3d" transform="translate(345.164617 0) scale(0.996264)"/>
      <use xlink:href="#CMR17-31" transform="translate(444.553414 0) scale(0.996264)"/>
     </g>
    </g>
    <g id="line2d_87">
     <path d="M 328.413118 125.948865 
L 334.413118 125.948865 
L 340.413118 125.948865 
" style="fill: none; stroke: #ac0000; stroke-width: 0.8; stroke-linecap: square"/>
    </g>
    <g id="text_24">
     <!-- $\textrm{model } s=3$ -->
     <g transform="translate(346.413118 130.148865) scale(0.12 -0.12)">
      <use xlink:href="#CMR17-6d" transform="scale(0.996264)"/>
      <use xlink:href="#CMR17-6f" transform="translate(76.91959 0) scale(0.996264)"/>
      <use xlink:href="#CMR17-64" transform="translate(125.212506 0) scale(0.996264)"/>
      <use xlink:href="#CMR17-65" transform="translate(176.107875 0) scale(0.996264)"/>
      <use xlink:href="#CMR17-6c" transform="translate(216.593536 0) scale(0.996264)"/>
      <use xlink:href="#CMMI12-73" transform="translate(271.540561 0) scale(0.996264)"/>
      <use xlink:href="#CMR17-3d" transform="translate(345.164617 0) scale(0.996264)"/>
      <use xlink:href="#CMR17-33" transform="translate(444.553414 0) scale(0.996264)"/>
     </g>
    </g>
   </g>
  </g>
 </g>
 <defs>
  <clipPath id="pa6f72d8840">
   <rect x="31.161149" y="0" width="387.958051" height="159.998056"/>
  </clipPath>
 </defs>
</svg>
