<?xml version="1.0" encoding="utf-8" standalone="no"?>
<!DOCTYPE svg PUBLIC "-//W3C//DTD SVG 1.1//EN"
  "http://www.w3.org/Graphics/SVG/1.1/DTD/svg11.dtd">
<svg xmlns:xlink="http://www.w3.org/1999/xlink" width="419.1192pt" height="190.08pt" viewBox="0 0 419.1192 190.08" xmlns="http://www.w3.org/2000/svg" version="1.1">
 <metadata>
  <rdf:RDF xmlns:dc="http://purl.org/dc/elements/1.1/" xmlns:cc="http://creativecommons.org/ns#" xmlns:rdf="http://www.w3.org/1999/02/22-rdf-syntax-ns#">
   <cc:Work>
    <dc:type rdf:resource="http://purl.org/dc/dcmitype/StillImage"/>
    <dc:date>2025-11-17T12:54:34.761915</dc:date>
    <dc:format>image/svg+xml</dc:format>
    <dc:creator>
     <cc:Agent>
      <dc:title>Matplotlib v3.10.6, https://matplotlib.org/</dc:title>
     </cc:Agent>
    </dc:creator>
   </cc:Work>
  </rdf:RDF>
 </metadata>
 <defs>
  <style type="text/css">*{stroke-linejoin: round; stroke-linecap: butt}</style>
 </defs>
 <g id="figure_1">
  <g id="patch_1">
   <path d="M 0 190.08 
L 419.1192 190.08 
L 419.1192 0 
L 0 0 
z
" style="fill: #ffffff"/>
  </g>
  <g id="axes_1">
   <g id="patch_2">
    <path d="M 31.161149 159.998056 
L 419.1192 159.998056 
L 419.1192 0 
L 31.161149 0 
z
" style="fill: #ffffff"/>
   </g>
   <g id="line2d_1">
    <path d="M 40.183429 159.998058 
L 41.987885 47.193548 
L 43.792341 70.869904 
L 45.596797 133.014767 
L 47.401253 44.06787 
L 49.205709 89.925032 
L 51.010165 111.458875 
L 52.814621 51.178935 
L 54.619077 102.02496 
L 56.423533 96.469446 
L 58.227989 63.679041 
L 60.032445 108.755875 
L 61.836902 82.788687 
L 63.641358 70.267965 
L 65.445814 105.150039 
L 67.25027 76.286982 
L 69.054726 76.758599 
L 70.859182 100.422789 
L 72.663638 72.99667 
L 76.27255 92.150778 
L 78.077006 68.293246 
L 79.881462 81.018344 
L 81.685918 82.137151 
L 83.490374 71.172328 
L 85.29483 81.100592 
L 87.099286 76.990578 
L 88.903742 67.176546 
L 90.708198 78.990635 
L 92.512654 71.907273 
L 94.31711 68.786543 
L 96.121567 79.748562 
L 97.926023 69.917745 
L 99.730479 70.695555 
L 101.534935 77.098128 
L 103.339391 66.449862 
L 105.143847 70.828284 
L 106.948303 73.8475 
L 108.752759 68.138599 
L 110.557215 71.47094 
L 112.361671 72.51653 
L 114.166127 70.232008 
L 115.970583 74.582957 
L 117.775039 74.554727 
L 119.579495 73.118416 
L 121.383951 73.638451 
L 124.992863 69.525455 
L 126.797319 71.741151 
L 128.601775 69.16638 
L 130.406232 68.823195 
L 132.210688 68.103021 
L 134.015144 64.48808 
L 135.8196 66.737735 
L 137.624056 67.527188 
L 139.428512 65.69788 
L 141.232968 68.824816 
L 143.037424 67.980156 
L 144.84188 66.410005 
L 146.646336 67.147131 
L 148.450792 65.490577 
L 150.255248 62.249356 
L 152.059704 65.880181 
L 153.86416 61.535764 
L 155.668616 64.673044 
L 157.473072 64.281534 
L 159.277528 62.390932 
L 161.081984 63.169581 
L 162.88644 62.040587 
L 164.690897 64.161601 
L 166.495353 62.114148 
L 168.299809 61.268733 
L 170.104265 62.459655 
L 171.908721 61.069749 
L 173.713177 60.165521 
L 175.517633 62.952291 
L 177.322089 62.231884 
L 179.126545 59.874814 
L 180.931001 61.957504 
L 182.735457 61.19427 
L 184.539913 58.00039 
L 186.344369 59.417978 
L 188.148825 57.933048 
L 189.953281 58.715087 
L 191.757737 57.796247 
L 193.562193 60.597686 
L 195.366649 58.96848 
L 197.171105 58.015172 
L 198.975562 59.713113 
L 200.780018 58.308603 
L 202.584474 57.797578 
L 204.38893 58.85668 
L 206.193386 56.396676 
L 207.997842 56.370444 
L 209.802298 56.784774 
L 211.606754 53.508992 
L 213.41121 55.389444 
L 215.215666 55.647558 
L 217.020122 55.207229 
L 218.824578 55.267911 
L 220.629034 54.8941 
L 222.43349 53.349707 
L 224.237946 53.999796 
L 226.042402 52.559439 
L 227.846858 52.202471 
L 229.651314 54.204772 
L 231.45577 54.900329 
L 233.260227 54.56341 
L 235.064683 54.358409 
L 236.869139 54.671769 
L 238.673595 54.010242 
L 240.478051 54.787446 
L 242.282507 58.08312 
L 244.086963 55.335659 
L 245.891419 58.710229 
L 247.695875 56.458384 
L 249.500331 55.923375 
L 251.304787 56.42755 
L 253.109243 56.268672 
L 254.913699 54.250173 
L 256.718155 54.74841 
L 258.522611 55.709696 
L 260.327067 56.285053 
L 262.131523 53.961193 
L 263.935979 53.592096 
L 265.740436 54.291699 
L 267.544892 56.825089 
L 269.349348 53.161051 
L 271.153804 55.786444 
L 272.95826 54.65732 
L 274.762716 54.31883 
L 276.567172 54.129725 
L 278.371628 53.133843 
L 280.176084 51.730229 
L 281.98054 53.551864 
L 283.784996 50.618754 
L 285.589452 50.623139 
L 287.393908 52.219437 
L 289.198364 48.868583 
L 291.00282 49.595528 
L 292.807276 53.080977 
L 294.611732 48.23095 
L 296.416188 51.163984 
L 298.220644 51.330432 
L 300.025101 48.960298 
L 301.829557 52.799771 
L 303.634013 51.954205 
L 305.438469 50.64414 
L 307.242925 53.21986 
L 309.047381 50.182534 
L 310.851837 50.323281 
L 312.656293 52.395191 
L 314.460749 48.121659 
L 316.265205 49.882493 
L 318.069661 48.670656 
L 319.874117 50.731197 
L 321.678573 49.711283 
L 323.483029 49.415022 
L 325.287485 48.513361 
L 327.091941 51.194111 
L 328.896397 50.659618 
L 330.700853 48.58073 
L 332.505309 49.795045 
L 334.309766 50.004479 
L 336.114222 48.308992 
L 337.918678 50.873835 
L 339.723134 50.095363 
L 341.52759 49.546934 
L 345.136502 49.044874 
L 346.940958 45.798779 
L 348.745414 48.848741 
L 350.54987 50.286837 
L 352.354326 48.448918 
L 354.158782 49.193076 
L 355.963238 47.878361 
L 357.767694 47.499169 
L 361.376606 47.962852 
L 363.181062 47.115356 
L 364.985518 49.753631 
L 366.789974 50.096553 
L 368.594431 47.247292 
L 370.398887 48.692103 
L 372.203343 45.035656 
L 374.007799 48.1939 
L 375.812255 47.53672 
L 377.616711 44.447115 
L 379.421167 46.376265 
L 381.225623 46.662733 
L 383.030079 46.243331 
L 384.834535 46.596132 
L 386.638991 44.882858 
L 388.443447 45.837477 
L 390.247903 45.640786 
L 392.052359 45.832755 
L 393.856815 47.026767 
L 395.661271 46.106044 
L 397.465727 44.464132 
L 399.270183 46.525548 
L 401.074639 44.156205 
L 401.074639 44.156205 
" clip-path="url(#pf33f36b1bd)" style="fill: none; stroke: #e60000; stroke-width: 0.8; stroke-linecap: square"/>
   </g>
   <g id="line2d_2">
    <path d="M 40.183429 159.998058 
L 43.792341 140.951616 
L 45.596797 134.70084 
L 49.205709 129.091263 
L 52.814621 124.39142 
L 54.619077 120.811492 
L 56.423533 117.85407 
L 58.227989 109.981418 
L 60.032445 108.334548 
L 61.836902 106.333971 
L 63.641358 104.506049 
L 65.445814 101.591326 
L 67.25027 99.111867 
L 69.054726 99.880878 
L 70.859182 97.872546 
L 72.663638 93.089914 
L 74.468094 91.463304 
L 76.27255 92.246153 
L 78.077006 91.081098 
L 79.881462 91.23237 
L 81.685918 90.259396 
L 83.490374 88.664946 
L 85.29483 84.733378 
L 88.903742 82.607811 
L 90.708198 82.775627 
L 92.512654 81.457314 
L 94.31711 80.908529 
L 96.121567 79.966558 
L 97.926023 80.420198 
L 99.730479 78.126542 
L 101.534935 78.650154 
L 103.339391 75.175561 
L 105.143847 74.70333 
L 106.948303 73.222558 
L 108.752759 73.364064 
L 110.557215 73.86496 
L 112.361671 72.847617 
L 114.166127 73.126973 
L 115.970583 72.213099 
L 117.775039 72.008956 
L 119.579495 72.066121 
L 121.383951 71.508792 
L 123.188407 71.140406 
L 126.797319 72.560616 
L 128.601775 70.713968 
L 130.406232 68.665183 
L 132.210688 69.258798 
L 134.015144 69.094846 
L 135.8196 69.461119 
L 139.428512 68.872775 
L 141.232968 68.660902 
L 143.037424 68.01165 
L 144.84188 67.673717 
L 146.646336 67.753035 
L 148.450792 65.734214 
L 150.255248 66.752988 
L 152.059704 66.206772 
L 153.86416 64.967958 
L 155.668616 65.796931 
L 157.473072 65.257204 
L 159.277528 65.898521 
L 161.081984 66.281706 
L 162.88644 65.04144 
L 164.690897 64.773106 
L 166.495353 66.847025 
L 168.299809 66.839836 
L 170.104265 66.440398 
L 171.908721 67.512329 
L 173.713177 66.921241 
L 175.517633 65.647203 
L 177.322089 66.294269 
L 179.126545 66.432307 
L 180.931001 67.509629 
L 186.344369 68.617748 
L 188.148825 68.184016 
L 189.953281 68.015737 
L 191.757737 67.520062 
L 193.562193 67.493817 
L 195.366649 67.134314 
L 198.975562 67.067781 
L 200.780018 68.745657 
L 202.584474 67.854171 
L 204.38893 68.618792 
L 207.997842 69.195702 
L 209.802298 69.143741 
L 211.606754 70.133077 
L 213.41121 69.202263 
L 215.215666 69.198608 
L 218.824578 69.832064 
L 220.629034 68.944113 
L 222.43349 69.176936 
L 224.237946 68.518785 
L 227.846858 67.551684 
L 229.651314 69.1542 
L 231.45577 69.47919 
L 233.260227 70.384699 
L 235.064683 70.748036 
L 240.478051 69.49081 
L 242.282507 69.39796 
L 244.086963 68.582886 
L 245.891419 68.129484 
L 247.695875 69.827804 
L 249.500331 68.891701 
L 251.304787 67.645694 
L 253.109243 68.66384 
L 254.913699 67.164767 
L 256.718155 67.156134 
L 258.522611 66.811726 
L 262.131523 66.919637 
L 265.740436 64.962276 
L 267.544892 64.393472 
L 269.349348 61.231621 
L 271.153804 61.618917 
L 272.95826 60.773747 
L 274.762716 60.335892 
L 276.567172 58.647272 
L 278.371628 59.406959 
L 280.176084 59.880876 
L 281.98054 61.696909 
L 283.784996 62.708213 
L 285.589452 62.735573 
L 287.393908 62.294652 
L 289.198364 61.999237 
L 291.00282 60.095923 
L 292.807276 61.650511 
L 294.611732 62.37932 
L 296.416188 62.224986 
L 298.220644 61.280345 
L 300.025101 60.001267 
L 301.829557 57.793814 
L 303.634013 58.618962 
L 305.438469 57.63114 
L 307.242925 58.66948 
L 309.047381 57.510703 
L 310.851837 58.799181 
L 312.656293 60.802661 
L 318.069661 60.991777 
L 319.874117 60.045601 
L 321.678573 60.271144 
L 323.483029 61.916848 
L 325.287485 60.463241 
L 327.091941 59.198582 
L 328.896397 58.235538 
L 330.700853 56.569067 
L 332.505309 56.342875 
L 336.114222 55.013255 
L 337.918678 55.420812 
L 339.723134 54.394599 
L 341.52759 54.8229 
L 343.332046 55.374455 
L 345.136502 56.096728 
L 346.940958 55.306692 
L 348.745414 54.71867 
L 350.54987 55.364788 
L 352.354326 56.371525 
L 354.158782 57.113404 
L 355.963238 57.032556 
L 357.767694 55.990461 
L 359.57215 56.368808 
L 361.376606 56.119759 
L 363.181062 55.699965 
L 364.985518 58.28444 
L 366.789974 56.832019 
L 368.594431 56.590255 
L 370.398887 56.899696 
L 372.203343 56.573825 
L 374.007799 57.389535 
L 375.812255 55.851732 
L 377.616711 55.396082 
L 379.421167 55.659382 
L 381.225623 55.001987 
L 383.030079 52.107233 
L 384.834535 52.685389 
L 386.638991 52.983924 
L 388.443447 51.554681 
L 390.247903 51.84918 
L 392.052359 52.475547 
L 393.856815 52.102741 
L 395.661271 51.556418 
L 397.465727 52.197161 
L 399.270183 51.754187 
L 401.074639 50.656518 
L 401.074639 50.656518 
" clip-path="url(#pf33f36b1bd)" style="fill: none; stroke: #730000; stroke-width: 0.8; stroke-linecap: square"/>
   </g>
   <g id="line2d_3">
    <path d="M 40.183429 159.998058 
L 41.987885 150.239007 
L 43.792341 145.162536 
L 45.596797 136.678538 
L 47.401253 128.740745 
L 49.205709 124.043245 
L 51.010165 121.207328 
L 52.814621 116.010582 
L 54.619077 113.524641 
L 56.423533 112.357248 
L 58.227989 109.769462 
L 60.032445 107.576399 
L 63.641358 103.652303 
L 65.445814 99.936448 
L 67.25027 97.09337 
L 69.054726 95.421114 
L 70.859182 91.74563 
L 74.468094 87.24775 
L 78.077006 83.498685 
L 79.881462 82.606673 
L 81.685918 82.44986 
L 83.490374 80.953146 
L 85.29483 75.842698 
L 87.099286 74.352963 
L 88.903742 73.10661 
L 90.708198 73.051255 
L 92.512654 72.073137 
L 94.31711 71.732399 
L 96.121567 70.702356 
L 97.926023 71.434758 
L 99.730479 70.402209 
L 101.534935 69.611529 
L 103.339391 69.756863 
L 105.143847 68.958318 
L 106.948303 67.637384 
L 110.557215 67.160483 
L 112.361671 68.228842 
L 114.166127 66.599381 
L 115.970583 68.437731 
L 117.775039 68.799042 
L 121.383951 68.504762 
L 124.992863 68.19959 
L 126.797319 67.318476 
L 128.601775 65.155623 
L 130.406232 65.725379 
L 132.210688 66.125567 
L 134.015144 66.012821 
L 135.8196 66.264271 
L 137.624056 66.067384 
L 141.232968 66.349434 
L 143.037424 66.063101 
L 144.84188 64.96841 
L 146.646336 64.099541 
L 148.450792 62.599331 
L 152.059704 61.846034 
L 153.86416 62.510744 
L 155.668616 64.391724 
L 157.473072 63.600042 
L 159.277528 63.348319 
L 161.081984 63.742573 
L 162.88644 63.233649 
L 164.690897 61.885138 
L 166.495353 60.872321 
L 168.299809 60.863398 
L 170.104265 60.11702 
L 175.517633 61.118007 
L 177.322089 61.187492 
L 179.126545 60.427566 
L 180.931001 60.344883 
L 182.735457 59.919404 
L 184.539913 58.795924 
L 186.344369 58.497738 
L 188.148825 57.356799 
L 189.953281 57.416023 
L 191.757737 57.735581 
L 193.562193 58.579617 
L 195.366649 58.556146 
L 197.171105 58.226434 
L 198.975562 57.780796 
L 200.780018 58.313386 
L 202.584474 57.980921 
L 204.38893 55.872347 
L 206.193386 55.882047 
L 207.997842 55.475019 
L 209.802298 54.211503 
L 211.606754 53.278403 
L 213.41121 52.575999 
L 217.020122 53.812269 
L 218.824578 53.208794 
L 220.629034 51.949313 
L 222.43349 51.707088 
L 224.237946 51.071215 
L 226.042402 50.044964 
L 227.846858 49.752432 
L 229.651314 50.248723 
L 231.45577 51.059523 
L 233.260227 50.679518 
L 236.869139 51.028795 
L 238.673595 47.979036 
L 240.478051 49.935338 
L 242.282507 52.21261 
L 244.086963 52.342634 
L 245.891419 51.943566 
L 247.695875 51.701753 
L 249.500331 52.493582 
L 251.304787 52.649888 
L 253.109243 52.434642 
L 254.913699 49.807576 
L 256.718155 51.336631 
L 258.522611 49.826917 
L 263.935979 48.666276 
L 265.740436 49.274326 
L 267.544892 47.46209 
L 269.349348 47.043701 
L 271.153804 46.784162 
L 272.95826 47.667826 
L 274.762716 47.281 
L 276.567172 46.620752 
L 278.371628 46.356436 
L 280.176084 45.88926 
L 281.98054 45.768546 
L 283.784996 44.456828 
L 285.589452 47.080504 
L 287.393908 48.074226 
L 289.198364 47.503924 
L 291.00282 47.399002 
L 292.807276 48.326414 
L 294.611732 48.502076 
L 296.416188 48.227839 
L 298.220644 46.163701 
L 300.025101 47.122774 
L 301.829557 47.438724 
L 303.634013 47.187425 
L 305.438469 45.257775 
L 307.242925 47.620245 
L 309.047381 46.732994 
L 310.851837 45.718014 
L 312.656293 46.39196 
L 314.460749 46.201395 
L 316.265205 47.363026 
L 318.069661 47.623481 
L 319.874117 45.86846 
L 321.678573 45.858155 
L 323.483029 46.331563 
L 325.287485 46.087509 
L 327.091941 45.63803 
L 328.896397 45.855236 
L 332.505309 44.555053 
L 334.309766 44.342848 
L 337.918678 45.663265 
L 339.723134 45.116432 
L 341.52759 44.862628 
L 343.332046 44.836355 
L 345.136502 46.61623 
L 346.940958 46.69242 
L 348.745414 47.016782 
L 350.54987 47.464091 
L 352.354326 47.418201 
L 355.963238 46.712051 
L 357.767694 46.57728 
L 359.57215 46.8212 
L 361.376606 46.716155 
L 363.181062 47.035695 
L 364.985518 48.826578 
L 366.789974 48.702623 
L 368.594431 48.740325 
L 370.398887 47.448053 
L 372.203343 46.981273 
L 375.812255 47.320255 
L 377.616711 46.759667 
L 379.421167 47.171812 
L 381.225623 47.39701 
L 384.834535 46.900439 
L 388.443447 45.923016 
L 390.247903 45.953438 
L 392.052359 45.863679 
L 395.661271 45.175672 
L 397.465727 45.099846 
L 399.270183 44.501495 
L 401.074639 45.185628 
L 401.074639 45.185628 
" clip-path="url(#pf33f36b1bd)" style="fill: none; stroke: #ac0000; stroke-width: 0.8; stroke-linecap: square"/>
   </g>
   <g id="line2d_4">
    <path d="M 40.183429 159.998058 
L 41.987885 149.909125 
L 43.792341 144.053162 
L 47.401253 133.947988 
L 49.205709 130.131122 
L 51.010165 128.874708 
L 52.814621 125.162359 
L 54.619077 123.080412 
L 56.423533 120.725576 
L 58.227989 119.605676 
L 60.032445 117.511001 
L 61.836902 115.02535 
L 63.641358 114.804634 
L 65.445814 110.983682 
L 67.25027 108.484522 
L 70.859182 106.945585 
L 72.663638 103.46889 
L 74.468094 102.836336 
L 76.27255 101.397586 
L 78.077006 98.245224 
L 79.881462 94.231828 
L 81.685918 94.89612 
L 83.490374 95.745463 
L 85.29483 91.971431 
L 87.099286 92.017414 
L 88.903742 90.841263 
L 90.708198 91.282045 
L 92.512654 91.237802 
L 94.31711 89.714979 
L 96.121567 90.642975 
L 97.926023 89.778723 
L 99.730479 89.707663 
L 101.534935 88.991656 
L 103.339391 87.9258 
L 105.143847 88.539225 
L 106.948303 88.538007 
L 110.557215 86.934358 
L 112.361671 87.1276 
L 114.166127 87.72835 
L 115.970583 88.481073 
L 117.775039 88.752352 
L 119.579495 87.640931 
L 121.383951 87.335529 
L 123.188407 87.599717 
L 124.992863 87.04289 
L 126.797319 88.067894 
L 128.601775 87.986733 
L 130.406232 87.216522 
L 132.210688 87.69639 
L 134.015144 85.729747 
L 135.8196 85.669032 
L 137.624056 85.254594 
L 139.428512 86.031026 
L 141.232968 86.171479 
L 143.037424 86.430284 
L 144.84188 86.376799 
L 146.646336 85.955329 
L 152.059704 86.455886 
L 153.86416 84.152717 
L 155.668616 86.559329 
L 157.473072 86.995384 
L 159.277528 86.144724 
L 161.081984 86.344018 
L 162.88644 85.88849 
L 164.690897 86.238833 
L 166.495353 86.262739 
L 168.299809 87.038262 
L 170.104265 86.666804 
L 171.908721 85.748729 
L 173.713177 86.205847 
L 175.517633 86.191085 
L 177.322089 87.316384 
L 179.126545 86.461651 
L 180.931001 87.190243 
L 182.735457 87.108627 
L 184.539913 86.122618 
L 188.148825 86.127909 
L 189.953281 87.280997 
L 191.757737 86.662225 
L 193.562193 87.214405 
L 195.366649 87.457132 
L 197.171105 87.026152 
L 198.975562 87.476037 
L 200.780018 86.803022 
L 202.584474 87.879128 
L 204.38893 86.152915 
L 206.193386 86.836302 
L 207.997842 86.775779 
L 209.802298 85.443879 
L 211.606754 85.833334 
L 213.41121 86.57857 
L 215.215666 85.956371 
L 217.020122 87.13284 
L 218.824578 87.004004 
L 220.629034 86.401944 
L 222.43349 86.760833 
L 224.237946 86.822993 
L 226.042402 85.877984 
L 227.846858 85.523174 
L 231.45577 86.921423 
L 233.260227 86.215181 
L 235.064683 86.823662 
L 236.869139 85.694756 
L 238.673595 86.695183 
L 240.478051 85.141143 
L 242.282507 85.171663 
L 244.086963 85.946431 
L 245.891419 86.922849 
L 247.695875 86.291317 
L 251.304787 86.463316 
L 253.109243 86.141827 
L 254.913699 83.424378 
L 256.718155 83.664278 
L 258.522611 84.634426 
L 260.327067 85.00725 
L 262.131523 83.997373 
L 263.935979 84.913247 
L 265.740436 84.759825 
L 267.544892 85.006575 
L 269.349348 85.370162 
L 271.153804 84.291835 
L 272.95826 83.966756 
L 274.762716 84.743805 
L 276.567172 83.979669 
L 278.371628 83.646972 
L 280.176084 83.450784 
L 281.98054 81.948329 
L 283.784996 83.056708 
L 287.393908 81.935754 
L 289.198364 82.340523 
L 292.807276 82.523724 
L 294.611732 81.542324 
L 296.416188 81.970464 
L 298.220644 82.107794 
L 300.025101 80.093735 
L 301.829557 82.401645 
L 303.634013 82.22168 
L 305.438469 81.155962 
L 307.242925 81.623173 
L 309.047381 80.831635 
L 310.851837 80.225382 
L 312.656293 80.461258 
L 314.460749 80.489625 
L 316.265205 80.266431 
L 318.069661 77.781097 
L 319.874117 78.822888 
L 321.678573 79.168027 
L 323.483029 78.216779 
L 325.287485 78.538744 
L 327.091941 78.687736 
L 328.896397 77.472468 
L 330.700853 76.451075 
L 332.505309 76.205561 
L 334.309766 76.201153 
L 336.114222 75.341642 
L 337.918678 77.051756 
L 339.723134 77.451763 
L 341.52759 76.289504 
L 343.332046 76.990766 
L 345.136502 77.078951 
L 346.940958 76.831532 
L 348.745414 74.882148 
L 350.54987 76.616322 
L 352.354326 76.965865 
L 354.158782 76.844233 
L 355.963238 76.56408 
L 357.767694 76.888246 
L 359.57215 76.622805 
L 361.376606 74.859673 
L 363.181062 75.554322 
L 364.985518 76.60584 
L 366.789974 77.127836 
L 368.594431 75.886421 
L 370.398887 76.271959 
L 372.203343 74.563447 
L 374.007799 75.901218 
L 375.812255 76.653059 
L 377.616711 77.152915 
L 379.421167 76.346825 
L 381.225623 76.847875 
L 383.030079 77.865257 
L 384.834535 77.276616 
L 386.638991 77.21085 
L 388.443447 77.853408 
L 390.247903 75.451091 
L 392.052359 77.604014 
L 393.856815 76.279709 
L 395.661271 76.945344 
L 397.465727 76.386054 
L 399.270183 76.673625 
L 401.074639 76.251996 
L 401.074639 76.251996 
" clip-path="url(#pf33f36b1bd)" style="fill: none; stroke: #000000; stroke-width: 0.8; stroke-linecap: square"/>
   </g>
   <g id="line2d_5">
    <path d="M 40.183429 159.998058 
L 41.987885 155.012749 
L 43.792341 146.543348 
L 45.596797 141.417999 
L 47.401253 137.87142 
L 49.205709 132.740684 
L 51.010165 130.277908 
L 52.814621 126.814287 
L 54.619077 125.150632 
L 56.423533 121.958486 
L 58.227989 120.644237 
L 60.032445 118.746 
L 63.641358 115.822784 
L 65.445814 112.078925 
L 67.25027 108.919097 
L 69.054726 108.232103 
L 74.468094 103.845114 
L 76.27255 102.384145 
L 78.077006 100.209906 
L 79.881462 99.425717 
L 83.490374 98.83374 
L 85.29483 95.496831 
L 87.099286 94.201943 
L 88.903742 93.428906 
L 90.708198 93.27473 
L 92.512654 93.245528 
L 94.31711 94.120955 
L 96.121567 93.563389 
L 97.926023 93.338365 
L 99.730479 93.227454 
L 101.534935 92.232033 
L 103.339391 91.437445 
L 105.143847 90.300039 
L 106.948303 90.505321 
L 108.752759 90.542054 
L 110.557215 89.228831 
L 112.361671 88.782127 
L 114.166127 88.863828 
L 117.775039 90.190807 
L 119.579495 89.410662 
L 123.188407 88.331922 
L 124.992863 89.052589 
L 128.601775 88.592292 
L 130.406232 88.56178 
L 132.210688 90.111333 
L 134.015144 89.40331 
L 135.8196 88.932741 
L 137.624056 88.632082 
L 139.428512 88.981244 
L 143.037424 87.544205 
L 144.84188 87.442577 
L 146.646336 87.600061 
L 148.450792 85.841844 
L 150.255248 86.8606 
L 153.86416 84.918833 
L 155.668616 86.282288 
L 157.473072 85.996421 
L 159.277528 86.336399 
L 161.081984 87.070599 
L 162.88644 86.553148 
L 164.690897 85.372114 
L 166.495353 85.149568 
L 168.299809 86.03946 
L 170.104265 85.800705 
L 171.908721 85.047713 
L 173.713177 85.422805 
L 175.517633 84.278685 
L 177.322089 84.264968 
L 179.126545 83.575198 
L 180.931001 84.071319 
L 184.539913 83.851295 
L 186.344369 84.27907 
L 188.148825 84.012043 
L 189.953281 85.785121 
L 191.757737 86.842244 
L 193.562193 87.724615 
L 195.366649 88.087014 
L 198.975562 86.915652 
L 200.780018 87.332591 
L 202.584474 87.419732 
L 204.38893 86.947805 
L 206.193386 86.148239 
L 207.997842 85.7681 
L 209.802298 84.526539 
L 211.606754 85.034928 
L 213.41121 83.910046 
L 215.215666 84.550254 
L 217.020122 84.949226 
L 218.824578 84.288495 
L 220.629034 84.860399 
L 222.43349 85.235758 
L 224.237946 85.110597 
L 226.042402 85.620926 
L 227.846858 84.900483 
L 229.651314 85.567592 
L 231.45577 84.321791 
L 233.260227 83.971498 
L 235.064683 84.228683 
L 238.673595 83.094091 
L 240.478051 82.058548 
L 247.695875 81.656353 
L 249.500331 82.550199 
L 251.304787 81.925872 
L 253.109243 82.374323 
L 254.913699 81.11988 
L 256.718155 81.41691 
L 258.522611 81.011486 
L 260.327067 80.865119 
L 262.131523 80.971837 
L 263.935979 81.221345 
L 265.740436 82.18525 
L 267.544892 81.241053 
L 269.349348 81.396321 
L 271.153804 80.810038 
L 274.762716 80.451419 
L 276.567172 79.584024 
L 278.371628 78.435273 
L 280.176084 77.620613 
L 281.98054 77.721638 
L 283.784996 77.038264 
L 285.589452 75.977179 
L 287.393908 76.256394 
L 291.00282 74.237279 
L 292.807276 74.53882 
L 294.611732 75.07851 
L 296.416188 75.917691 
L 298.220644 74.982778 
L 300.025101 75.289837 
L 301.829557 74.603971 
L 303.634013 75.326184 
L 305.438469 74.82849 
L 307.242925 74.62453 
L 309.047381 73.723457 
L 310.851837 74.144095 
L 312.656293 73.722228 
L 314.460749 72.30086 
L 316.265205 71.571123 
L 318.069661 71.123591 
L 321.678573 69.406369 
L 323.483029 68.824788 
L 325.287485 68.773243 
L 327.091941 68.324766 
L 328.896397 68.066875 
L 330.700853 67.973855 
L 336.114222 65.998306 
L 337.918678 67.540842 
L 339.723134 66.937979 
L 341.52759 67.285119 
L 343.332046 67.510167 
L 345.136502 67.152916 
L 348.745414 65.17139 
L 350.54987 67.558486 
L 352.354326 66.829535 
L 354.158782 66.936854 
L 355.963238 66.876322 
L 357.767694 66.369275 
L 359.57215 66.772258 
L 361.376606 65.674299 
L 363.181062 65.075497 
L 364.985518 68.074511 
L 366.789974 67.572622 
L 368.594431 68.901997 
L 370.398887 68.507131 
L 372.203343 68.860646 
L 374.007799 68.573872 
L 375.812255 68.093189 
L 377.616711 68.215441 
L 379.421167 69.466946 
L 381.225623 69.276787 
L 383.030079 69.477895 
L 384.834535 69.956057 
L 386.638991 69.604368 
L 388.443447 68.907977 
L 390.247903 69.194858 
L 392.052359 70.26053 
L 393.856815 69.718352 
L 395.661271 68.893631 
L 397.465727 68.257163 
L 399.270183 67.352206 
L 401.074639 67.782136 
L 401.074639 67.782136 
" clip-path="url(#pf33f36b1bd)" style="fill: none; stroke: #390000; stroke-width: 0.8; stroke-linecap: square"/>
   </g>
   <g id="line2d_6">
    <path d="M 40.183429 159.998058 
L 41.987885 138.653388 
L 43.792341 120.138338 
L 45.596797 104.082382 
L 47.401253 90.164387 
L 49.205709 78.105869 
L 51.010165 67.665184 
L 52.814621 58.632536 
L 54.619077 50.825669 
L 56.423533 44.086163 
L 58.227989 38.276238 
L 60.032445 33.275996 
L 61.836902 28.981046 
L 63.641358 25.300447 
L 65.445814 22.154937 
L 67.25027 19.475396 
L 69.054726 17.201524 
L 70.859182 15.280689 
L 72.663638 13.666934 
L 74.468094 12.320118 
L 76.27255 11.205164 
L 78.077006 10.291415 
L 79.881462 9.552069 
L 81.685918 8.963689 
L 85.29483 8.160415 
L 88.903742 7.746585 
L 92.512654 7.618955 
L 96.121567 7.698644 
L 101.534935 8.079311 
L 108.752759 8.862625 
L 137.624056 12.324298 
L 148.450792 13.30998 
L 159.277528 14.091101 
L 171.908721 14.781153 
L 186.344369 15.340899 
L 204.38893 15.796177 
L 227.846858 16.132137 
L 260.327067 16.346053 
L 316.265205 16.456019 
L 401.074639 16.480279 
L 401.074639 16.480279 
" clip-path="url(#pf33f36b1bd)" style="fill: none; stroke: #ffffff; stroke-width: 4; stroke-linecap: square"/>
    <path d="M 40.183429 159.998058 
L 41.987885 138.653388 
L 43.792341 120.138338 
L 45.596797 104.082382 
L 47.401253 90.164387 
L 49.205709 78.105869 
L 51.010165 67.665184 
L 52.814621 58.632536 
L 54.619077 50.825669 
L 56.423533 44.086163 
L 58.227989 38.276238 
L 60.032445 33.275996 
L 61.836902 28.981046 
L 63.641358 25.300447 
L 65.445814 22.154937 
L 67.25027 19.475396 
L 69.054726 17.201524 
L 70.859182 15.280689 
L 72.663638 13.666934 
L 74.468094 12.320118 
L 76.27255 11.205164 
L 78.077006 10.291415 
L 79.881462 9.552069 
L 81.685918 8.963689 
L 85.29483 8.160415 
L 88.903742 7.746585 
L 92.512654 7.618955 
L 96.121567 7.698644 
L 101.534935 8.079311 
L 108.752759 8.862625 
L 137.624056 12.324298 
L 148.450792 13.30998 
L 159.277528 14.091101 
L 171.908721 14.781153 
L 186.344369 15.340899 
L 204.38893 15.796177 
L 227.846858 16.132137 
L 260.327067 16.346053 
L 316.265205 16.456019 
L 401.074639 16.480279 
L 401.074639 16.480279 
" clip-path="url(#pf33f36b1bd)" style="fill: none; stroke: #2ca02c; stroke-width: 0.8; stroke-linecap: square"/>
   </g>
   <g id="line2d_7">
    <path d="M 40.183429 159.998058 
L 41.987885 151.960546 
L 43.792341 141.796118 
L 45.596797 138.187004 
L 47.401253 129.179164 
L 49.205709 125.763705 
L 51.010165 120.721978 
L 52.814621 117.2849 
L 54.619077 113.358512 
L 56.423533 110.661576 
L 58.227989 108.835681 
L 60.032445 105.606724 
L 61.836902 103.713852 
L 63.641358 100.389032 
L 65.445814 98.682171 
L 67.25027 96.110387 
L 69.054726 94.630244 
L 70.859182 92.61652 
L 72.663638 91.354394 
L 74.468094 89.301811 
L 78.077006 87.745934 
L 79.881462 85.664164 
L 81.685918 84.794371 
L 83.490374 84.258397 
L 85.29483 84.174245 
L 87.099286 82.719426 
L 88.903742 81.837386 
L 90.708198 80.248046 
L 92.512654 79.118826 
L 94.31711 78.491994 
L 97.926023 76.648179 
L 101.534935 73.954 
L 105.143847 73.567558 
L 106.948303 72.25069 
L 110.557215 71.980392 
L 112.361671 71.096719 
L 114.166127 69.559708 
L 115.970583 69.975225 
L 117.775039 68.520437 
L 121.383951 65.960379 
L 123.188407 65.049846 
L 124.992863 64.882561 
L 128.601775 62.188541 
L 130.406232 61.889592 
L 134.015144 60.963848 
L 135.8196 60.94502 
L 137.624056 60.173264 
L 139.428512 60.012073 
L 141.232968 61.170746 
L 143.037424 60.362755 
L 144.84188 60.514029 
L 146.646336 59.82248 
L 150.255248 59.080025 
L 152.059704 59.93788 
L 155.668616 58.788972 
L 159.277528 55.070503 
L 161.081984 54.489278 
L 162.88644 54.7076 
L 164.690897 55.98389 
L 170.104265 54.6541 
L 171.908721 54.640704 
L 173.713177 54.086783 
L 175.517633 53.860271 
L 179.126545 53.023148 
L 180.931001 52.121221 
L 182.735457 51.384244 
L 186.344369 50.322046 
L 188.148825 50.767684 
L 189.953281 50.20626 
L 191.757737 49.384877 
L 193.562193 48.312558 
L 195.366649 48.353438 
L 197.171105 48.568334 
L 200.780018 47.409413 
L 202.584474 47.192111 
L 204.38893 47.96125 
L 206.193386 49.667225 
L 207.997842 50.25146 
L 209.802298 49.905036 
L 211.606754 49.375077 
L 213.41121 48.166995 
L 215.215666 48.312535 
L 217.020122 47.973479 
L 218.824578 48.698073 
L 220.629034 48.229227 
L 222.43349 47.989679 
L 226.042402 47.015869 
L 227.846858 46.700754 
L 229.651314 46.167713 
L 231.45577 46.336463 
L 233.260227 46.703534 
L 235.064683 46.220672 
L 236.869139 46.135855 
L 240.478051 45.121537 
L 242.282507 45.537662 
L 244.086963 45.170389 
L 245.891419 44.367976 
L 247.695875 45.626349 
L 249.500331 45.072391 
L 251.304787 45.509031 
L 253.109243 45.148994 
L 254.913699 45.262901 
L 256.718155 45.08564 
L 258.522611 46.029117 
L 260.327067 45.759312 
L 262.131523 46.61049 
L 265.740436 45.566766 
L 267.544892 45.244529 
L 271.153804 43.951426 
L 272.95826 45.493567 
L 274.762716 45.459657 
L 276.567172 46.51356 
L 278.371628 47.781225 
L 285.589452 46.704347 
L 289.198364 45.92041 
L 292.807276 46.006901 
L 294.611732 45.728445 
L 298.220644 45.907674 
L 300.025101 46.040825 
L 301.829557 45.820951 
L 303.634013 45.427477 
L 305.438469 45.551719 
L 307.242925 45.187186 
L 310.851837 45.346809 
L 312.656293 44.978767 
L 314.460749 43.963443 
L 316.265205 43.573904 
L 318.069661 43.593322 
L 319.874117 43.081926 
L 321.678573 42.732542 
L 327.091941 42.059132 
L 328.896397 41.990113 
L 330.700853 41.260185 
L 332.505309 41.00882 
L 334.309766 41.907254 
L 336.114222 41.656775 
L 337.918678 42.272397 
L 339.723134 42.098066 
L 346.940958 40.439318 
L 348.745414 40.928343 
L 352.354326 40.032332 
L 354.158782 40.106003 
L 355.963238 39.647124 
L 357.767694 38.751128 
L 359.57215 37.725197 
L 364.985518 36.189675 
L 366.789974 36.534476 
L 368.594431 36.26417 
L 370.398887 36.416866 
L 372.203343 36.937817 
L 374.007799 37.217648 
L 375.812255 36.956639 
L 377.616711 36.333623 
L 379.421167 37.468435 
L 381.225623 37.23849 
L 384.834535 38.593006 
L 386.638991 38.942201 
L 388.443447 38.595942 
L 390.247903 38.856212 
L 392.052359 40.532574 
L 397.465727 39.616003 
L 399.270183 39.536739 
L 401.074639 39.001234 
L 401.074639 39.001234 
" clip-path="url(#pf33f36b1bd)" style="fill: none; stroke: #ffffff; stroke-width: 4; stroke-linecap: square"/>
    <path d="M 40.183429 159.998058 
L 41.987885 151.960546 
L 43.792341 141.796118 
L 45.596797 138.187004 
L 47.401253 129.179164 
L 49.205709 125.763705 
L 51.010165 120.721978 
L 52.814621 117.2849 
L 54.619077 113.358512 
L 56.423533 110.661576 
L 58.227989 108.835681 
L 60.032445 105.606724 
L 61.836902 103.713852 
L 63.641358 100.389032 
L 65.445814 98.682171 
L 67.25027 96.110387 
L 69.054726 94.630244 
L 70.859182 92.61652 
L 72.663638 91.354394 
L 74.468094 89.301811 
L 78.077006 87.745934 
L 79.881462 85.664164 
L 81.685918 84.794371 
L 83.490374 84.258397 
L 85.29483 84.174245 
L 87.099286 82.719426 
L 88.903742 81.837386 
L 90.708198 80.248046 
L 92.512654 79.118826 
L 94.31711 78.491994 
L 97.926023 76.648179 
L 101.534935 73.954 
L 105.143847 73.567558 
L 106.948303 72.25069 
L 110.557215 71.980392 
L 112.361671 71.096719 
L 114.166127 69.559708 
L 115.970583 69.975225 
L 117.775039 68.520437 
L 121.383951 65.960379 
L 123.188407 65.049846 
L 124.992863 64.882561 
L 128.601775 62.188541 
L 130.406232 61.889592 
L 134.015144 60.963848 
L 135.8196 60.94502 
L 137.624056 60.173264 
L 139.428512 60.012073 
L 141.232968 61.170746 
L 143.037424 60.362755 
L 144.84188 60.514029 
L 146.646336 59.82248 
L 150.255248 59.080025 
L 152.059704 59.93788 
L 155.668616 58.788972 
L 159.277528 55.070503 
L 161.081984 54.489278 
L 162.88644 54.7076 
L 164.690897 55.98389 
L 170.104265 54.6541 
L 171.908721 54.640704 
L 173.713177 54.086783 
L 175.517633 53.860271 
L 179.126545 53.023148 
L 180.931001 52.121221 
L 182.735457 51.384244 
L 186.344369 50.322046 
L 188.148825 50.767684 
L 189.953281 50.20626 
L 191.757737 49.384877 
L 193.562193 48.312558 
L 195.366649 48.353438 
L 197.171105 48.568334 
L 200.780018 47.409413 
L 202.584474 47.192111 
L 204.38893 47.96125 
L 206.193386 49.667225 
L 207.997842 50.25146 
L 209.802298 49.905036 
L 211.606754 49.375077 
L 213.41121 48.166995 
L 215.215666 48.312535 
L 217.020122 47.973479 
L 218.824578 48.698073 
L 220.629034 48.229227 
L 222.43349 47.989679 
L 226.042402 47.015869 
L 227.846858 46.700754 
L 229.651314 46.167713 
L 231.45577 46.336463 
L 233.260227 46.703534 
L 235.064683 46.220672 
L 236.869139 46.135855 
L 240.478051 45.121537 
L 242.282507 45.537662 
L 244.086963 45.170389 
L 245.891419 44.367976 
L 247.695875 45.626349 
L 249.500331 45.072391 
L 251.304787 45.509031 
L 253.109243 45.148994 
L 254.913699 45.262901 
L 256.718155 45.08564 
L 258.522611 46.029117 
L 260.327067 45.759312 
L 262.131523 46.61049 
L 265.740436 45.566766 
L 267.544892 45.244529 
L 271.153804 43.951426 
L 272.95826 45.493567 
L 274.762716 45.459657 
L 276.567172 46.51356 
L 278.371628 47.781225 
L 285.589452 46.704347 
L 289.198364 45.92041 
L 292.807276 46.006901 
L 294.611732 45.728445 
L 298.220644 45.907674 
L 300.025101 46.040825 
L 301.829557 45.820951 
L 303.634013 45.427477 
L 305.438469 45.551719 
L 307.242925 45.187186 
L 310.851837 45.346809 
L 312.656293 44.978767 
L 314.460749 43.963443 
L 316.265205 43.573904 
L 318.069661 43.593322 
L 319.874117 43.081926 
L 321.678573 42.732542 
L 327.091941 42.059132 
L 328.896397 41.990113 
L 330.700853 41.260185 
L 332.505309 41.00882 
L 334.309766 41.907254 
L 336.114222 41.656775 
L 337.918678 42.272397 
L 339.723134 42.098066 
L 346.940958 40.439318 
L 348.745414 40.928343 
L 352.354326 40.032332 
L 354.158782 40.106003 
L 355.963238 39.647124 
L 357.767694 38.751128 
L 359.57215 37.725197 
L 364.985518 36.189675 
L 366.789974 36.534476 
L 368.594431 36.26417 
L 370.398887 36.416866 
L 372.203343 36.937817 
L 374.007799 37.217648 
L 375.812255 36.956639 
L 377.616711 36.333623 
L 379.421167 37.468435 
L 381.225623 37.23849 
L 384.834535 38.593006 
L 386.638991 38.942201 
L 388.443447 38.595942 
L 390.247903 38.856212 
L 392.052359 40.532574 
L 397.465727 39.616003 
L 399.270183 39.536739 
L 401.074639 39.001234 
L 401.074639 39.001234 
" clip-path="url(#pf33f36b1bd)" style="fill: none; stroke: #ff7f0e; stroke-width: 0.8; stroke-linecap: square"/>
   </g>
   <g id="matplotlib.axis_1">
    <g id="xtick_1">
     <g id="line2d_8">
      <defs>
       <path id="m89c2e8f71a" d="M 0 0 
L 0 -2.551 
" style="stroke: #000000; stroke-width: 0.8"/>
      </defs>
      <g>
       <use xlink:href="#m89c2e8f71a" x="40.183429" y="159.998056" style="stroke: #000000; stroke-width: 0.8"/>
      </g>
     </g>
     <g id="text_1">
      <!-- $\mathdefault{0}$ -->
      <g transform="translate(37.256934 171.800236) scale(0.12 -0.12)">
       <defs>
        <path id="CMR17-30" d="M 2688 2025 
C 2688 2416 2682 3080 2413 3591 
C 2176 4039 1798 4198 1466 4198 
C 1158 4198 768 4058 525 3597 
C 269 3118 243 2524 243 2025 
C 243 1661 250 1106 448 619 
C 723 -39 1216 -128 1466 -128 
C 1760 -128 2208 -7 2470 600 
C 2662 1042 2688 1559 2688 2025 
z
M 1466 -26 
C 1056 -26 813 325 723 812 
C 653 1188 653 1738 653 2096 
C 653 2588 653 2997 736 3387 
C 858 3929 1216 4096 1466 4096 
C 1728 4096 2067 3923 2189 3400 
C 2272 3036 2278 2607 2278 2096 
C 2278 1680 2278 1169 2202 792 
C 2067 95 1690 -26 1466 -26 
z
" transform="scale(0.015625)"/>
       </defs>
       <use xlink:href="#CMR17-30" transform="scale(0.996264)"/>
      </g>
     </g>
    </g>
    <g id="xtick_2">
     <g id="line2d_9">
      <g>
       <use xlink:href="#m89c2e8f71a" x="85.29483" y="159.998056" style="stroke: #000000; stroke-width: 0.8"/>
      </g>
     </g>
     <g id="text_2">
      <!-- $\mathdefault{25}$ -->
      <g transform="translate(79.44184 171.800236) scale(0.12 -0.12)">
       <defs>
        <path id="CMR17-32" d="M 2669 989 
L 2554 989 
C 2490 536 2438 459 2413 420 
C 2381 369 1920 369 1830 369 
L 602 369 
C 832 619 1280 1072 1824 1597 
C 2214 1967 2669 2402 2669 3035 
C 2669 3790 2067 4224 1395 4224 
C 691 4224 262 3604 262 3030 
C 262 2780 448 2748 525 2748 
C 589 2748 781 2787 781 3010 
C 781 3207 614 3264 525 3264 
C 486 3264 448 3258 422 3245 
C 544 3790 915 4058 1306 4058 
C 1862 4058 2227 3617 2227 3035 
C 2227 2479 1901 2000 1536 1584 
L 262 146 
L 262 0 
L 2515 0 
L 2669 989 
z
" transform="scale(0.015625)"/>
        <path id="CMR17-35" d="M 730 3692 
C 794 3666 1056 3584 1325 3584 
C 1920 3584 2246 3911 2432 4100 
C 2432 4157 2432 4192 2394 4192 
C 2387 4192 2374 4192 2323 4163 
C 2099 4058 1837 3973 1517 3973 
C 1325 3973 1037 3999 723 4139 
C 653 4171 640 4171 634 4171 
C 602 4171 595 4164 595 4037 
L 595 2203 
C 595 2089 595 2057 659 2057 
C 691 2057 704 2070 736 2114 
C 941 2401 1222 2522 1542 2522 
C 1766 2522 2246 2382 2246 1289 
C 2246 1085 2246 715 2054 421 
C 1894 159 1645 25 1370 25 
C 947 25 518 320 403 814 
C 429 807 480 795 506 795 
C 589 795 749 840 749 1038 
C 749 1210 627 1280 506 1280 
C 358 1280 262 1190 262 1011 
C 262 454 704 -128 1382 -128 
C 2042 -128 2669 440 2669 1264 
C 2669 2030 2170 2624 1549 2624 
C 1222 2624 947 2503 730 2274 
L 730 3692 
z
" transform="scale(0.015625)"/>
       </defs>
       <use xlink:href="#CMR17-32" transform="scale(0.996264)"/>
       <use xlink:href="#CMR17-35" transform="translate(45.690477 0) scale(0.996264)"/>
      </g>
     </g>
    </g>
    <g id="xtick_3">
     <g id="line2d_10">
      <g>
       <use xlink:href="#m89c2e8f71a" x="130.406232" y="159.998056" style="stroke: #000000; stroke-width: 0.8"/>
      </g>
     </g>
     <g id="text_3">
      <!-- $\mathdefault{50}$ -->
      <g transform="translate(124.553241 171.800236) scale(0.12 -0.12)">
       <use xlink:href="#CMR17-35" transform="scale(0.996264)"/>
       <use xlink:href="#CMR17-30" transform="translate(45.690477 0) scale(0.996264)"/>
      </g>
     </g>
    </g>
    <g id="xtick_4">
     <g id="line2d_11">
      <g>
       <use xlink:href="#m89c2e8f71a" x="175.517633" y="159.998056" style="stroke: #000000; stroke-width: 0.8"/>
      </g>
     </g>
     <g id="text_4">
      <!-- $\mathdefault{75}$ -->
      <g transform="translate(169.664643 171.800236) scale(0.12 -0.12)">
       <defs>
        <path id="CMR17-37" d="M 2886 3941 
L 2886 4081 
L 1382 4081 
C 634 4081 621 4165 595 4288 
L 480 4288 
L 294 3094 
L 410 3094 
C 429 3215 474 3540 550 3661 
C 589 3712 1062 3712 1171 3712 
L 2579 3712 
L 1869 2661 
C 1395 1954 1069 999 1069 165 
C 1069 89 1069 -128 1299 -128 
C 1530 -128 1530 89 1530 171 
L 1530 465 
C 1530 1508 1709 2196 2003 2636 
L 2886 3941 
z
" transform="scale(0.015625)"/>
       </defs>
       <use xlink:href="#CMR17-37" transform="scale(0.996264)"/>
       <use xlink:href="#CMR17-35" transform="translate(45.690477 0) scale(0.996264)"/>
      </g>
     </g>
    </g>
    <g id="xtick_5">
     <g id="line2d_12">
      <g>
       <use xlink:href="#m89c2e8f71a" x="220.629034" y="159.998056" style="stroke: #000000; stroke-width: 0.8"/>
      </g>
     </g>
     <g id="text_5">
      <!-- $\mathdefault{100}$ -->
      <g transform="translate(211.849549 171.800236) scale(0.12 -0.12)">
       <defs>
        <path id="CMR17-31" d="M 1702 4058 
C 1702 4192 1696 4192 1606 4192 
C 1357 3916 979 3827 621 3827 
C 602 3827 570 3827 563 3808 
C 557 3795 557 3782 557 3648 
C 755 3648 1088 3686 1344 3839 
L 1344 461 
C 1344 236 1331 160 781 160 
L 589 160 
L 589 0 
C 896 0 1216 0 1523 0 
C 1830 0 2150 0 2458 0 
L 2458 160 
L 2266 160 
C 1715 160 1702 230 1702 458 
L 1702 4058 
z
" transform="scale(0.015625)"/>
       </defs>
       <use xlink:href="#CMR17-31" transform="scale(0.996264)"/>
       <use xlink:href="#CMR17-30" transform="translate(45.690477 0) scale(0.996264)"/>
       <use xlink:href="#CMR17-30" transform="translate(91.380954 0) scale(0.996264)"/>
      </g>
     </g>
    </g>
    <g id="xtick_6">
     <g id="line2d_13">
      <g>
       <use xlink:href="#m89c2e8f71a" x="265.740436" y="159.998056" style="stroke: #000000; stroke-width: 0.8"/>
      </g>
     </g>
     <g id="text_6">
      <!-- $\mathdefault{125}$ -->
      <g transform="translate(256.96095 171.800236) scale(0.12 -0.12)">
       <use xlink:href="#CMR17-31" transform="scale(0.996264)"/>
       <use xlink:href="#CMR17-32" transform="translate(45.690477 0) scale(0.996264)"/>
       <use xlink:href="#CMR17-35" transform="translate(91.380954 0) scale(0.996264)"/>
      </g>
     </g>
    </g>
    <g id="xtick_7">
     <g id="line2d_14">
      <g>
       <use xlink:href="#m89c2e8f71a" x="310.851837" y="159.998056" style="stroke: #000000; stroke-width: 0.8"/>
      </g>
     </g>
     <g id="text_7">
      <!-- $\mathdefault{150}$ -->
      <g transform="translate(302.072351 171.800236) scale(0.12 -0.12)">
       <use xlink:href="#CMR17-31" transform="scale(0.996264)"/>
       <use xlink:href="#CMR17-35" transform="translate(45.690477 0) scale(0.996264)"/>
       <use xlink:href="#CMR17-30" transform="translate(91.380954 0) scale(0.996264)"/>
      </g>
     </g>
    </g>
    <g id="xtick_8">
     <g id="line2d_15">
      <g>
       <use xlink:href="#m89c2e8f71a" x="355.963238" y="159.998056" style="stroke: #000000; stroke-width: 0.8"/>
      </g>
     </g>
     <g id="text_8">
      <!-- $\mathdefault{175}$ -->
      <g transform="translate(347.183753 171.800236) scale(0.12 -0.12)">
       <use xlink:href="#CMR17-31" transform="scale(0.996264)"/>
       <use xlink:href="#CMR17-37" transform="translate(45.690477 0) scale(0.996264)"/>
       <use xlink:href="#CMR17-35" transform="translate(91.380954 0) scale(0.996264)"/>
      </g>
     </g>
    </g>
    <g id="xtick_9">
     <g id="line2d_16">
      <g>
       <use xlink:href="#m89c2e8f71a" x="401.074639" y="159.998056" style="stroke: #000000; stroke-width: 0.8"/>
      </g>
     </g>
     <g id="text_9">
      <!-- $\mathdefault{200}$ -->
      <g transform="translate(392.295154 171.800236) scale(0.12 -0.12)">
       <use xlink:href="#CMR17-32" transform="scale(0.996264)"/>
       <use xlink:href="#CMR17-30" transform="translate(45.690477 0) scale(0.996264)"/>
       <use xlink:href="#CMR17-30" transform="translate(91.380954 0) scale(0.996264)"/>
      </g>
     </g>
    </g>
    <g id="xtick_10">
     <g id="line2d_17">
      <defs>
       <path id="m11e32cbb8f" d="M 0 0 
L 0 -1.417 
" style="stroke: #000000; stroke-width: 0.8"/>
      </defs>
      <g>
       <use xlink:href="#m11e32cbb8f" x="31.161149" y="159.998056" style="stroke: #000000; stroke-width: 0.8"/>
      </g>
     </g>
    </g>
    <g id="xtick_11">
     <g id="line2d_18">
      <g>
       <use xlink:href="#m11e32cbb8f" x="49.205709" y="159.998056" style="stroke: #000000; stroke-width: 0.8"/>
      </g>
     </g>
    </g>
    <g id="xtick_12">
     <g id="line2d_19">
      <g>
       <use xlink:href="#m11e32cbb8f" x="58.227989" y="159.998056" style="stroke: #000000; stroke-width: 0.8"/>
      </g>
     </g>
    </g>
    <g id="xtick_13">
     <g id="line2d_20">
      <g>
       <use xlink:href="#m11e32cbb8f" x="67.25027" y="159.998056" style="stroke: #000000; stroke-width: 0.8"/>
      </g>
     </g>
    </g>
    <g id="xtick_14">
     <g id="line2d_21">
      <g>
       <use xlink:href="#m11e32cbb8f" x="76.27255" y="159.998056" style="stroke: #000000; stroke-width: 0.8"/>
      </g>
     </g>
    </g>
    <g id="xtick_15">
     <g id="line2d_22">
      <g>
       <use xlink:href="#m11e32cbb8f" x="94.31711" y="159.998056" style="stroke: #000000; stroke-width: 0.8"/>
      </g>
     </g>
    </g>
    <g id="xtick_16">
     <g id="line2d_23">
      <g>
       <use xlink:href="#m11e32cbb8f" x="103.339391" y="159.998056" style="stroke: #000000; stroke-width: 0.8"/>
      </g>
     </g>
    </g>
    <g id="xtick_17">
     <g id="line2d_24">
      <g>
       <use xlink:href="#m11e32cbb8f" x="112.361671" y="159.998056" style="stroke: #000000; stroke-width: 0.8"/>
      </g>
     </g>
    </g>
    <g id="xtick_18">
     <g id="line2d_25">
      <g>
       <use xlink:href="#m11e32cbb8f" x="121.383951" y="159.998056" style="stroke: #000000; stroke-width: 0.8"/>
      </g>
     </g>
    </g>
    <g id="xtick_19">
     <g id="line2d_26">
      <g>
       <use xlink:href="#m11e32cbb8f" x="139.428512" y="159.998056" style="stroke: #000000; stroke-width: 0.8"/>
      </g>
     </g>
    </g>
    <g id="xtick_20">
     <g id="line2d_27">
      <g>
       <use xlink:href="#m11e32cbb8f" x="148.450792" y="159.998056" style="stroke: #000000; stroke-width: 0.8"/>
      </g>
     </g>
    </g>
    <g id="xtick_21">
     <g id="line2d_28">
      <g>
       <use xlink:href="#m11e32cbb8f" x="157.473072" y="159.998056" style="stroke: #000000; stroke-width: 0.8"/>
      </g>
     </g>
    </g>
    <g id="xtick_22">
     <g id="line2d_29">
      <g>
       <use xlink:href="#m11e32cbb8f" x="166.495353" y="159.998056" style="stroke: #000000; stroke-width: 0.8"/>
      </g>
     </g>
    </g>
    <g id="xtick_23">
     <g id="line2d_30">
      <g>
       <use xlink:href="#m11e32cbb8f" x="184.539913" y="159.998056" style="stroke: #000000; stroke-width: 0.8"/>
      </g>
     </g>
    </g>
    <g id="xtick_24">
     <g id="line2d_31">
      <g>
       <use xlink:href="#m11e32cbb8f" x="193.562193" y="159.998056" style="stroke: #000000; stroke-width: 0.8"/>
      </g>
     </g>
    </g>
    <g id="xtick_25">
     <g id="line2d_32">
      <g>
       <use xlink:href="#m11e32cbb8f" x="202.584474" y="159.998056" style="stroke: #000000; stroke-width: 0.8"/>
      </g>
     </g>
    </g>
    <g id="xtick_26">
     <g id="line2d_33">
      <g>
       <use xlink:href="#m11e32cbb8f" x="211.606754" y="159.998056" style="stroke: #000000; stroke-width: 0.8"/>
      </g>
     </g>
    </g>
    <g id="xtick_27">
     <g id="line2d_34">
      <g>
       <use xlink:href="#m11e32cbb8f" x="229.651314" y="159.998056" style="stroke: #000000; stroke-width: 0.8"/>
      </g>
     </g>
    </g>
    <g id="xtick_28">
     <g id="line2d_35">
      <g>
       <use xlink:href="#m11e32cbb8f" x="238.673595" y="159.998056" style="stroke: #000000; stroke-width: 0.8"/>
      </g>
     </g>
    </g>
    <g id="xtick_29">
     <g id="line2d_36">
      <g>
       <use xlink:href="#m11e32cbb8f" x="247.695875" y="159.998056" style="stroke: #000000; stroke-width: 0.8"/>
      </g>
     </g>
    </g>
    <g id="xtick_30">
     <g id="line2d_37">
      <g>
       <use xlink:href="#m11e32cbb8f" x="256.718155" y="159.998056" style="stroke: #000000; stroke-width: 0.8"/>
      </g>
     </g>
    </g>
    <g id="xtick_31">
     <g id="line2d_38">
      <g>
       <use xlink:href="#m11e32cbb8f" x="274.762716" y="159.998056" style="stroke: #000000; stroke-width: 0.8"/>
      </g>
     </g>
    </g>
    <g id="xtick_32">
     <g id="line2d_39">
      <g>
       <use xlink:href="#m11e32cbb8f" x="283.784996" y="159.998056" style="stroke: #000000; stroke-width: 0.8"/>
      </g>
     </g>
    </g>
    <g id="xtick_33">
     <g id="line2d_40">
      <g>
       <use xlink:href="#m11e32cbb8f" x="292.807276" y="159.998056" style="stroke: #000000; stroke-width: 0.8"/>
      </g>
     </g>
    </g>
    <g id="xtick_34">
     <g id="line2d_41">
      <g>
       <use xlink:href="#m11e32cbb8f" x="301.829557" y="159.998056" style="stroke: #000000; stroke-width: 0.8"/>
      </g>
     </g>
    </g>
    <g id="xtick_35">
     <g id="line2d_42">
      <g>
       <use xlink:href="#m11e32cbb8f" x="319.874117" y="159.998056" style="stroke: #000000; stroke-width: 0.8"/>
      </g>
     </g>
    </g>
    <g id="xtick_36">
     <g id="line2d_43">
      <g>
       <use xlink:href="#m11e32cbb8f" x="328.896397" y="159.998056" style="stroke: #000000; stroke-width: 0.8"/>
      </g>
     </g>
    </g>
    <g id="xtick_37">
     <g id="line2d_44">
      <g>
       <use xlink:href="#m11e32cbb8f" x="337.918678" y="159.998056" style="stroke: #000000; stroke-width: 0.8"/>
      </g>
     </g>
    </g>
    <g id="xtick_38">
     <g id="line2d_45">
      <g>
       <use xlink:href="#m11e32cbb8f" x="346.940958" y="159.998056" style="stroke: #000000; stroke-width: 0.8"/>
      </g>
     </g>
    </g>
    <g id="xtick_39">
     <g id="line2d_46">
      <g>
       <use xlink:href="#m11e32cbb8f" x="364.985518" y="159.998056" style="stroke: #000000; stroke-width: 0.8"/>
      </g>
     </g>
    </g>
    <g id="xtick_40">
     <g id="line2d_47">
      <g>
       <use xlink:href="#m11e32cbb8f" x="374.007799" y="159.998056" style="stroke: #000000; stroke-width: 0.8"/>
      </g>
     </g>
    </g>
    <g id="xtick_41">
     <g id="line2d_48">
      <g>
       <use xlink:href="#m11e32cbb8f" x="383.030079" y="159.998056" style="stroke: #000000; stroke-width: 0.8"/>
      </g>
     </g>
    </g>
    <g id="xtick_42">
     <g id="line2d_49">
      <g>
       <use xlink:href="#m11e32cbb8f" x="392.052359" y="159.998056" style="stroke: #000000; stroke-width: 0.8"/>
      </g>
     </g>
    </g>
    <g id="xtick_43">
     <g id="line2d_50">
      <g>
       <use xlink:href="#m11e32cbb8f" x="410.09692" y="159.998056" style="stroke: #000000; stroke-width: 0.8"/>
      </g>
     </g>
    </g>
    <g id="xtick_44">
     <g id="line2d_51">
      <g>
       <use xlink:href="#m11e32cbb8f" x="419.1192" y="159.998056" style="stroke: #000000; stroke-width: 0.8"/>
      </g>
     </g>
    </g>
    <g id="text_10">
     <!-- $\textrm{evaluation timestep }t\textrm{ (arb.)}$ -->
     <g transform="translate(154.546609 187.091208) scale(0.12 -0.12)">
      <defs>
       <path id="CMR17-65" d="M 2438 1472 
C 2464 1498 2464 1511 2464 1576 
C 2464 2238 2118 2816 1389 2816 
C 710 2816 173 2169 173 1383 
C 173 551 781 -64 1459 -64 
C 2176 -64 2458 607 2458 740 
C 2458 784 2419 784 2406 784 
C 2362 784 2355 771 2330 696 
C 2189 265 1837 51 1504 51 
C 1229 51 954 203 781 480 
C 582 803 582 1176 582 1472 
L 2438 1472 
z
M 589 1568 
C 634 2505 1126 2714 1382 2714 
C 1818 2714 2112 2297 2118 1568 
L 589 1568 
z
" transform="scale(0.015625)"/>
       <path id="CMR17-76" d="M 2502 2163 
C 2560 2304 2662 2560 3034 2560 
L 3034 2726 
C 2912 2726 2752 2726 2630 2726 
C 2496 2726 2285 2726 2157 2732 
L 2157 2566 
C 2317 2553 2406 2477 2406 2311 
C 2406 2253 2406 2240 2368 2151 
L 1664 377 
L 902 2286 
C 864 2369 864 2381 864 2407 
C 864 2560 1075 2560 1171 2560 
L 1171 2732 
C 1018 2726 736 2726 576 2726 
C 403 2726 205 2726 64 2732 
L 64 2560 
C 307 2560 442 2560 518 2362 
L 1446 44 
C 1485 -51 1491 -64 1549 -64 
C 1606 -64 1613 -51 1651 44 
L 2502 2163 
z
" transform="scale(0.015625)"/>
       <path id="CMR17-61" d="M 2304 1653 
C 2304 2072 2304 2294 2035 2543 
C 1798 2752 1523 2816 1306 2816 
C 800 2816 435 2407 435 1971 
C 435 1728 627 1728 666 1728 
C 749 1728 896 1778 896 1954 
C 896 2112 774 2181 666 2181 
C 640 2181 608 2174 589 2168 
C 723 2592 1069 2714 1293 2714 
C 1613 2714 1965 2429 1965 1885 
L 1965 1600 
C 1587 1600 1133 1549 774 1357 
C 371 1133 256 813 256 570 
C 256 77 832 -64 1171 -64 
C 1523 -64 1850 139 1990 511 
C 2003 233 2182 -18 2464 -18 
C 2598 -18 2938 70 2938 567 
L 2938 920 
L 2822 920 
L 2822 562 
C 2822 178 2650 128 2566 128 
C 2304 128 2304 458 2304 738 
L 2304 1653 
z
M 1965 870 
C 1965 317 1568 38 1216 38 
C 896 38 646 275 646 570 
C 646 761 730 1100 1101 1305 
C 1408 1478 1760 1504 1965 1504 
L 1965 870 
z
" transform="scale(0.015625)"/>
       <path id="CMR17-6c" d="M 979 4396 
L 218 4326 
L 218 4160 
C 595 4160 653 4122 653 3817 
L 653 426 
C 653 184 627 153 218 153 
L 218 -13 
C 371 0 653 0 813 0 
C 979 0 1261 0 1414 -13 
L 1414 153 
C 1005 153 979 178 979 426 
L 979 4396 
z
" transform="scale(0.015625)"/>
       <path id="CMR17-75" d="M 1882 2693 
L 1882 2528 
C 2259 2528 2317 2489 2317 2186 
L 2317 1032 
C 2317 500 2029 38 1555 38 
C 1030 38 986 348 986 678 
L 986 2763 
L 211 2693 
L 211 2528 
C 467 2528 640 2528 646 2274 
L 646 1058 
C 646 633 646 361 813 183 
C 896 101 1056 -64 1517 -64 
C 2061 -64 2272 377 2323 506 
L 2330 506 
L 2330 -63 
L 3091 -63 
L 3091 128 
C 2714 128 2656 166 2656 473 
L 2656 2763 
L 1882 2693 
z
" transform="scale(0.015625)"/>
       <path id="CMR17-74" d="M 966 2560 
L 1862 2560 
L 1862 2725 
L 966 2725 
L 966 3904 
L 851 3904 
C 838 3245 614 2668 70 2668 
L 70 2560 
L 627 2560 
L 627 771 
C 627 650 627 -64 1370 -64 
C 1747 -64 1965 306 1965 777 
L 1965 1140 
L 1850 1140 
L 1850 783 
C 1850 344 1677 51 1408 51 
C 1222 51 966 178 966 758 
L 966 2560 
z
" transform="scale(0.015625)"/>
       <path id="CMR17-69" d="M 992 3909 
C 992 4049 877 4170 730 4170 
C 589 4170 467 4056 467 3909 
C 467 3769 582 3648 730 3648 
C 870 3648 992 3763 992 3909 
z
M 243 2706 
L 243 2541 
C 602 2541 653 2502 653 2197 
L 653 427 
C 653 184 627 153 218 153 
L 218 -13 
C 371 0 646 0 806 0 
C 960 0 1222 0 1370 -13 
L 1370 153 
C 992 153 979 191 979 420 
L 979 2776 
L 243 2706 
z
" transform="scale(0.015625)"/>
       <path id="CMR17-6f" d="M 2758 1356 
C 2758 2176 2163 2816 1466 2816 
C 768 2816 173 2176 173 1356 
C 173 551 768 -64 1466 -64 
C 2163 -64 2758 551 2758 1356 
z
M 1466 51 
C 1165 51 909 230 762 480 
C 602 767 582 1126 582 1408 
C 582 1677 595 2010 762 2298 
C 890 2509 1139 2714 1466 2714 
C 1754 2714 1997 2554 2150 2330 
C 2349 2029 2349 1607 2349 1408 
C 2349 1158 2336 775 2163 467 
C 1984 173 1709 51 1466 51 
z
" transform="scale(0.015625)"/>
       <path id="CMR17-6e" d="M 2656 1933 
C 2656 2259 2592 2790 1837 2790 
C 1331 2790 1069 2400 973 2144 
L 966 2144 
L 966 2790 
L 211 2720 
L 211 2554 
C 589 2554 646 2515 646 2208 
L 646 428 
C 646 184 621 153 211 153 
L 211 -13 
C 365 0 646 0 813 0 
C 979 0 1267 0 1421 -13 
L 1421 153 
C 1011 153 986 178 986 428 
L 986 1658 
C 986 2247 1344 2688 1792 2688 
C 2266 2688 2317 2266 2317 1958 
L 2317 428 
C 2317 184 2291 153 1882 153 
L 1882 -13 
C 2035 0 2317 0 2483 0 
C 2650 0 2938 0 3091 -13 
L 3091 153 
C 2682 153 2656 178 2656 428 
L 2656 1933 
z
" transform="scale(0.015625)"/>
       <path id="CMR17-6d" d="M 4326 1933 
C 4326 2252 4269 2790 3507 2790 
C 3072 2790 2771 2496 2656 2151 
L 2650 2151 
C 2573 2676 2195 2790 1837 2790 
C 1331 2790 1069 2400 973 2144 
L 966 2144 
L 966 2790 
L 211 2720 
L 211 2554 
C 589 2554 646 2515 646 2208 
L 646 428 
C 646 184 621 153 211 153 
L 211 -13 
C 365 0 646 0 813 0 
C 979 0 1267 0 1421 -13 
L 1421 153 
C 1011 153 986 178 986 428 
L 986 1658 
C 986 2247 1344 2688 1792 2688 
C 2266 2688 2317 2266 2317 1958 
L 2317 428 
C 2317 184 2291 153 1882 153 
L 1882 -13 
C 2035 0 2317 0 2483 0 
C 2650 0 2938 0 3091 -13 
L 3091 153 
C 2682 153 2656 178 2656 428 
L 2656 1658 
C 2656 2247 3014 2688 3462 2688 
C 3936 2688 3987 2266 3987 1958 
L 3987 428 
C 3987 184 3962 153 3552 153 
L 3552 -13 
C 3706 0 3987 0 4154 0 
C 4320 0 4608 0 4762 -13 
L 4762 153 
C 4352 153 4326 178 4326 428 
L 4326 1933 
z
" transform="scale(0.015625)"/>
       <path id="CMR17-73" d="M 1978 2697 
C 1978 2813 1971 2819 1933 2819 
C 1907 2819 1901 2813 1824 2717 
C 1805 2691 1747 2626 1728 2601 
C 1523 2819 1235 2819 1126 2819 
C 416 2819 160 2447 160 2076 
C 160 1498 813 1365 998 1325 
C 1402 1243 1542 1217 1677 1101 
C 1760 1025 1901 884 1901 654 
C 1901 384 1747 38 1158 38 
C 602 38 403 460 288 1021 
C 269 1110 269 1117 218 1117 
C 166 1117 160 1110 160 983 
L 160 63 
C 160 -51 166 -58 205 -58 
C 237 -58 243 -51 275 0 
C 314 57 410 211 448 276 
C 576 103 800 -64 1158 -64 
C 1792 -64 2131 283 2131 784 
C 2131 1112 1958 1285 1875 1362 
C 1683 1561 1459 1606 1190 1657 
C 838 1735 390 1825 390 2217 
C 390 2383 480 2737 1126 2737 
C 1811 2737 1850 2094 1862 1888 
C 1869 1856 1901 1849 1920 1849 
C 1978 1849 1978 1869 1978 1978 
L 1978 2697 
z
" transform="scale(0.015625)"/>
       <path id="CMR17-70" d="M 1408 -1063 
C 998 -1063 973 -1037 973 -789 
L 973 402 
C 1158 134 1427 -38 1766 -38 
C 2406 -38 3053 523 3053 1388 
C 3053 2191 2496 2802 1837 2802 
C 1453 2802 1139 2592 960 2338 
L 960 2802 
L 198 2732 
L 198 2567 
C 576 2567 634 2528 634 2223 
L 634 -789 
C 634 -1031 608 -1063 198 -1063 
L 198 -1228 
C 352 -1216 634 -1216 800 -1216 
C 966 -1216 1254 -1216 1408 -1228 
L 1408 -1063 
z
M 973 2012 
C 973 2102 973 2235 1222 2471 
C 1254 2497 1472 2688 1792 2688 
C 2259 2688 2643 2108 2643 1382 
C 2643 656 2234 64 1728 64 
C 1498 64 1248 172 1056 472 
C 973 612 973 650 973 752 
L 973 2012 
z
" transform="scale(0.015625)"/>
       <path id="CMMI12-74" d="M 1286 2566 
L 1875 2566 
C 1997 2566 2061 2566 2061 2681 
C 2061 2752 2022 2752 1894 2752 
L 1331 2752 
L 1568 3692 
C 1594 3781 1594 3794 1594 3840 
C 1594 3943 1510 4000 1427 4000 
C 1376 4000 1229 3981 1178 3775 
L 928 2752 
L 326 2752 
C 198 2752 141 2752 141 2630 
C 141 2566 186 2566 307 2566 
L 877 2566 
L 454 881 
C 403 658 384 594 384 511 
C 384 211 595 -64 954 -64 
C 1600 -64 1946 868 1946 912 
C 1946 951 1920 970 1882 970 
C 1869 970 1843 970 1830 944 
C 1824 938 1818 931 1773 829 
C 1638 511 1344 64 973 64 
C 781 64 768 224 768 364 
C 768 370 768 492 787 568 
L 1286 2566 
z
" transform="scale(0.015625)"/>
       <path id="CMR17-28" d="M 1958 -1561 
C 1958 -1555 1958 -1542 1939 -1523 
C 1645 -1224 858 -407 858 1581 
C 858 3569 1632 4379 1946 4697 
C 1946 4704 1958 4717 1958 4736 
C 1958 4755 1939 4768 1914 4768 
C 1843 4768 1299 4296 986 3594 
C 666 2887 576 2199 576 1588 
C 576 1128 621 351 1005 -471 
C 1312 -1135 1837 -1600 1914 -1600 
C 1946 -1600 1958 -1587 1958 -1561 
z
" transform="scale(0.015625)"/>
       <path id="CMR17-72" d="M 960 1497 
C 960 2112 1222 2688 1702 2688 
C 1747 2688 1792 2682 1837 2662 
C 1837 2662 1696 2617 1696 2452 
C 1696 2298 1818 2234 1914 2234 
C 1990 2234 2131 2279 2131 2458 
C 2131 2663 1926 2790 1709 2790 
C 1222 2790 1011 2317 947 2093 
L 941 2093 
L 941 2790 
L 198 2720 
L 198 2554 
C 576 2554 634 2515 634 2208 
L 634 428 
C 634 184 608 153 198 153 
L 198 -13 
C 352 0 646 0 813 0 
C 998 0 1325 0 1498 -13 
L 1498 153 
C 1037 153 960 153 960 440 
L 960 1497 
z
" transform="scale(0.015625)"/>
       <path id="CMR17-62" d="M 960 4396 
L 198 4326 
L 198 4160 
C 576 4160 634 4122 634 3817 
L 634 -13 
L 749 -13 
L 934 441 
C 1120 141 1395 -64 1766 -64 
C 2406 -64 3053 500 3053 1370 
C 3053 2188 2477 2790 1830 2790 
C 1434 2790 1152 2579 960 2330 
L 960 4396 
z
M 973 2004 
C 973 2118 973 2138 1062 2272 
C 1312 2657 1670 2688 1792 2688 
C 1984 2688 2643 2585 2643 1376 
C 2643 108 1888 38 1734 38 
C 1536 38 1248 114 1043 486 
C 973 608 973 621 973 735 
L 973 2004 
z
" transform="scale(0.015625)"/>
       <path id="CMR17-2e" d="M 1062 261 
C 1062 420 934 522 800 522 
C 672 522 538 420 538 261 
C 538 102 666 0 800 0 
C 928 0 1062 102 1062 261 
z
" transform="scale(0.015625)"/>
       <path id="CMR17-29" d="M 1683 1581 
C 1683 2040 1638 2817 1254 3639 
C 947 4303 422 4768 346 4768 
C 326 4768 301 4761 301 4729 
C 301 4717 307 4710 314 4697 
C 621 4378 1402 3568 1402 1584 
C 1402 -407 627 -1217 314 -1537 
C 307 -1549 301 -1556 301 -1568 
C 301 -1600 326 -1600 346 -1600 
C 416 -1600 960 -1128 1274 -426 
C 1594 281 1683 969 1683 1581 
z
" transform="scale(0.015625)"/>
      </defs>
      <use xlink:href="#CMR17-65" transform="scale(0.996264)"/>
      <use xlink:href="#CMR17-76" transform="translate(40.48566 0) scale(0.996264)"/>
      <use xlink:href="#CMR17-61" transform="translate(83.57376 0) scale(0.996264)"/>
      <use xlink:href="#CMR17-6c" transform="translate(129.264237 0) scale(0.996264)"/>
      <use xlink:href="#CMR17-75" transform="translate(154.135295 0) scale(0.996264)"/>
      <use xlink:href="#CMR17-61" transform="translate(205.030665 0) scale(0.996264)"/>
      <use xlink:href="#CMR17-74" transform="translate(250.721142 0) scale(0.996264)"/>
      <use xlink:href="#CMR17-69" transform="translate(286.00191 0) scale(0.996264)"/>
      <use xlink:href="#CMR17-6f" transform="translate(310.872968 0) scale(0.996264)"/>
      <use xlink:href="#CMR17-6e" transform="translate(356.563446 0) scale(0.996264)"/>
      <use xlink:href="#CMR17-74" transform="translate(437.534782 0) scale(0.996264)"/>
      <use xlink:href="#CMR17-69" transform="translate(472.815549 0) scale(0.996264)"/>
      <use xlink:href="#CMR17-6d" transform="translate(497.686608 0) scale(0.996264)"/>
      <use xlink:href="#CMR17-65" transform="translate(574.606198 0) scale(0.996264)"/>
      <use xlink:href="#CMR17-73" transform="translate(615.091858 0) scale(0.996264)"/>
      <use xlink:href="#CMR17-74" transform="translate(650.893196 0) scale(0.996264)"/>
      <use xlink:href="#CMR17-65" transform="translate(686.173964 0) scale(0.996264)"/>
      <use xlink:href="#CMR17-70" transform="translate(726.659624 0) scale(0.996264)"/>
      <use xlink:href="#CMMI12-74" transform="translate(807.63096 0) scale(0.996264)"/>
      <use xlink:href="#CMR17-28" transform="translate(872.933257 0) scale(0.996264)"/>
      <use xlink:href="#CMR17-61" transform="translate(908.214025 0) scale(0.996264)"/>
      <use xlink:href="#CMR17-72" transform="translate(953.904502 0) scale(0.996264)"/>
      <use xlink:href="#CMR17-62" transform="translate(989.18527 0) scale(0.996264)"/>
      <use xlink:href="#CMR17-2e" transform="translate(1040.080639 0) scale(0.996264)"/>
      <use xlink:href="#CMR17-29" transform="translate(1064.951698 0) scale(0.996264)"/>
     </g>
    </g>
   </g>
   <g id="matplotlib.axis_2">
    <g id="ytick_1">
     <g id="line2d_52">
      <defs>
       <path id="m585666e127" d="M 0 0 
L 2.551 0 
" style="stroke: #000000; stroke-width: 0.8"/>
      </defs>
      <g>
       <use xlink:href="#m585666e127" x="31.161149" y="159.998056" style="stroke: #000000; stroke-width: 0.8"/>
      </g>
     </g>
     <g id="text_11">
      <!-- $\mathdefault{0}$ -->
      <g transform="translate(21.808158 164.149146) scale(0.12 -0.12)">
       <use xlink:href="#CMR17-30" transform="scale(0.996264)"/>
      </g>
     </g>
    </g>
    <g id="ytick_2">
     <g id="line2d_53">
      <g>
       <use xlink:href="#m585666e127" x="31.161149" y="132.292467" style="stroke: #000000; stroke-width: 0.8"/>
      </g>
     </g>
     <g id="text_12">
      <!-- $\mathdefault{10}$ -->
      <g transform="translate(15.955168 136.443556) scale(0.12 -0.12)">
       <use xlink:href="#CMR17-31" transform="scale(0.996264)"/>
       <use xlink:href="#CMR17-30" transform="translate(45.690477 0) scale(0.996264)"/>
      </g>
     </g>
    </g>
    <g id="ytick_3">
     <g id="line2d_54">
      <g>
       <use xlink:href="#m585666e127" x="31.161149" y="104.586877" style="stroke: #000000; stroke-width: 0.8"/>
      </g>
     </g>
     <g id="text_13">
      <!-- $\mathdefault{20}$ -->
      <g transform="translate(15.955168 108.737967) scale(0.12 -0.12)">
       <use xlink:href="#CMR17-32" transform="scale(0.996264)"/>
       <use xlink:href="#CMR17-30" transform="translate(45.690477 0) scale(0.996264)"/>
      </g>
     </g>
    </g>
    <g id="ytick_4">
     <g id="line2d_55">
      <g>
       <use xlink:href="#m585666e127" x="31.161149" y="76.881287" style="stroke: #000000; stroke-width: 0.8"/>
      </g>
     </g>
     <g id="text_14">
      <!-- $\mathdefault{30}$ -->
      <g transform="translate(15.955168 81.032377) scale(0.12 -0.12)">
       <defs>
        <path id="CMR17-33" d="M 1414 2157 
C 1984 2157 2234 1662 2234 1090 
C 2234 320 1824 25 1453 25 
C 1114 25 563 194 390 693 
C 422 680 454 680 486 680 
C 640 680 755 782 755 948 
C 755 1133 614 1216 486 1216 
C 378 1216 211 1165 211 926 
C 211 335 787 -128 1466 -128 
C 2176 -128 2720 430 2720 1085 
C 2720 1707 2208 2157 1600 2227 
C 2086 2328 2554 2756 2554 3329 
C 2554 3820 2048 4179 1472 4179 
C 890 4179 378 3829 378 3329 
C 378 3110 544 3072 627 3072 
C 762 3072 877 3155 877 3321 
C 877 3486 762 3569 627 3569 
C 602 3569 570 3569 544 3557 
C 730 3959 1235 4032 1459 4032 
C 1683 4032 2106 3925 2106 3320 
C 2106 3143 2080 2828 1862 2550 
C 1670 2304 1453 2304 1242 2284 
C 1210 2284 1062 2269 1037 2269 
C 992 2263 966 2257 966 2208 
C 966 2163 973 2157 1101 2157 
L 1414 2157 
z
" transform="scale(0.015625)"/>
       </defs>
       <use xlink:href="#CMR17-33" transform="scale(0.996264)"/>
       <use xlink:href="#CMR17-30" transform="translate(45.690477 0) scale(0.996264)"/>
      </g>
     </g>
    </g>
    <g id="ytick_5">
     <g id="line2d_56">
      <g>
       <use xlink:href="#m585666e127" x="31.161149" y="49.175697" style="stroke: #000000; stroke-width: 0.8"/>
      </g>
     </g>
     <g id="text_15">
      <!-- $\mathdefault{40}$ -->
      <g transform="translate(15.955168 53.326787) scale(0.12 -0.12)">
       <defs>
        <path id="CMR17-34" d="M 2150 4122 
C 2150 4256 2144 4256 2029 4256 
L 128 1254 
L 128 1088 
L 1779 1088 
L 1779 457 
C 1779 224 1766 160 1318 160 
L 1197 160 
L 1197 0 
C 1402 0 1747 0 1965 0 
C 2182 0 2528 0 2733 0 
L 2733 160 
L 2611 160 
C 2163 160 2150 224 2150 457 
L 2150 1088 
L 2803 1088 
L 2803 1254 
L 2150 1254 
L 2150 4122 
z
M 1798 3703 
L 1798 1254 
L 256 1254 
L 1798 3703 
z
" transform="scale(0.015625)"/>
       </defs>
       <use xlink:href="#CMR17-34" transform="scale(0.996264)"/>
       <use xlink:href="#CMR17-30" transform="translate(45.690477 0) scale(0.996264)"/>
      </g>
     </g>
    </g>
    <g id="ytick_6">
     <g id="line2d_57">
      <g>
       <use xlink:href="#m585666e127" x="31.161149" y="21.470108" style="stroke: #000000; stroke-width: 0.8"/>
      </g>
     </g>
     <g id="text_16">
      <!-- $\mathdefault{50}$ -->
      <g transform="translate(15.955168 25.621198) scale(0.12 -0.12)">
       <use xlink:href="#CMR17-35" transform="scale(0.996264)"/>
       <use xlink:href="#CMR17-30" transform="translate(45.690477 0) scale(0.996264)"/>
      </g>
     </g>
    </g>
    <g id="ytick_7">
     <g id="line2d_58">
      <defs>
       <path id="m1d6e5313bb" d="M 0 0 
L 1.417 0 
" style="stroke: #000000; stroke-width: 0.8"/>
      </defs>
      <g>
       <use xlink:href="#m1d6e5313bb" x="31.161149" y="154.456938" style="stroke: #000000; stroke-width: 0.8"/>
      </g>
     </g>
    </g>
    <g id="ytick_8">
     <g id="line2d_59">
      <g>
       <use xlink:href="#m1d6e5313bb" x="31.161149" y="148.91582" style="stroke: #000000; stroke-width: 0.8"/>
      </g>
     </g>
    </g>
    <g id="ytick_9">
     <g id="line2d_60">
      <g>
       <use xlink:href="#m1d6e5313bb" x="31.161149" y="143.374702" style="stroke: #000000; stroke-width: 0.8"/>
      </g>
     </g>
    </g>
    <g id="ytick_10">
     <g id="line2d_61">
      <g>
       <use xlink:href="#m1d6e5313bb" x="31.161149" y="137.833585" style="stroke: #000000; stroke-width: 0.8"/>
      </g>
     </g>
    </g>
    <g id="ytick_11">
     <g id="line2d_62">
      <g>
       <use xlink:href="#m1d6e5313bb" x="31.161149" y="126.751349" style="stroke: #000000; stroke-width: 0.8"/>
      </g>
     </g>
    </g>
    <g id="ytick_12">
     <g id="line2d_63">
      <g>
       <use xlink:href="#m1d6e5313bb" x="31.161149" y="121.210231" style="stroke: #000000; stroke-width: 0.8"/>
      </g>
     </g>
    </g>
    <g id="ytick_13">
     <g id="line2d_64">
      <g>
       <use xlink:href="#m1d6e5313bb" x="31.161149" y="115.669113" style="stroke: #000000; stroke-width: 0.8"/>
      </g>
     </g>
    </g>
    <g id="ytick_14">
     <g id="line2d_65">
      <g>
       <use xlink:href="#m1d6e5313bb" x="31.161149" y="110.127995" style="stroke: #000000; stroke-width: 0.8"/>
      </g>
     </g>
    </g>
    <g id="ytick_15">
     <g id="line2d_66">
      <g>
       <use xlink:href="#m1d6e5313bb" x="31.161149" y="99.045759" style="stroke: #000000; stroke-width: 0.8"/>
      </g>
     </g>
    </g>
    <g id="ytick_16">
     <g id="line2d_67">
      <g>
       <use xlink:href="#m1d6e5313bb" x="31.161149" y="93.504641" style="stroke: #000000; stroke-width: 0.8"/>
      </g>
     </g>
    </g>
    <g id="ytick_17">
     <g id="line2d_68">
      <g>
       <use xlink:href="#m1d6e5313bb" x="31.161149" y="87.963523" style="stroke: #000000; stroke-width: 0.8"/>
      </g>
     </g>
    </g>
    <g id="ytick_18">
     <g id="line2d_69">
      <g>
       <use xlink:href="#m1d6e5313bb" x="31.161149" y="82.422405" style="stroke: #000000; stroke-width: 0.8"/>
      </g>
     </g>
    </g>
    <g id="ytick_19">
     <g id="line2d_70">
      <g>
       <use xlink:href="#m1d6e5313bb" x="31.161149" y="71.340169" style="stroke: #000000; stroke-width: 0.8"/>
      </g>
     </g>
    </g>
    <g id="ytick_20">
     <g id="line2d_71">
      <g>
       <use xlink:href="#m1d6e5313bb" x="31.161149" y="65.799051" style="stroke: #000000; stroke-width: 0.8"/>
      </g>
     </g>
    </g>
    <g id="ytick_21">
     <g id="line2d_72">
      <g>
       <use xlink:href="#m1d6e5313bb" x="31.161149" y="60.257933" style="stroke: #000000; stroke-width: 0.8"/>
      </g>
     </g>
    </g>
    <g id="ytick_22">
     <g id="line2d_73">
      <g>
       <use xlink:href="#m1d6e5313bb" x="31.161149" y="54.716815" style="stroke: #000000; stroke-width: 0.8"/>
      </g>
     </g>
    </g>
    <g id="ytick_23">
     <g id="line2d_74">
      <g>
       <use xlink:href="#m1d6e5313bb" x="31.161149" y="43.634579" style="stroke: #000000; stroke-width: 0.8"/>
      </g>
     </g>
    </g>
    <g id="ytick_24">
     <g id="line2d_75">
      <g>
       <use xlink:href="#m1d6e5313bb" x="31.161149" y="38.093461" style="stroke: #000000; stroke-width: 0.8"/>
      </g>
     </g>
    </g>
    <g id="ytick_25">
     <g id="line2d_76">
      <g>
       <use xlink:href="#m1d6e5313bb" x="31.161149" y="32.552344" style="stroke: #000000; stroke-width: 0.8"/>
      </g>
     </g>
    </g>
    <g id="ytick_26">
     <g id="line2d_77">
      <g>
       <use xlink:href="#m1d6e5313bb" x="31.161149" y="27.011226" style="stroke: #000000; stroke-width: 0.8"/>
      </g>
     </g>
    </g>
    <g id="ytick_27">
     <g id="line2d_78">
      <g>
       <use xlink:href="#m1d6e5313bb" x="31.161149" y="15.92899" style="stroke: #000000; stroke-width: 0.8"/>
      </g>
     </g>
    </g>
    <g id="ytick_28">
     <g id="line2d_79">
      <g>
       <use xlink:href="#m1d6e5313bb" x="31.161149" y="10.387872" style="stroke: #000000; stroke-width: 0.8"/>
      </g>
     </g>
    </g>
    <g id="ytick_29">
     <g id="line2d_80">
      <g>
       <use xlink:href="#m1d6e5313bb" x="31.161149" y="4.846754" style="stroke: #000000; stroke-width: 0.8"/>
      </g>
     </g>
    </g>
    <g id="text_17">
     <!-- $\textrm{Infidelity (\%)}$ -->
     <g transform="translate(8.966376 114.301979) rotate(-90) scale(0.12 -0.12)">
      <defs>
       <path id="CMR17-49" d="M 1261 3905 
C 1261 4192 1338 4192 1798 4192 
L 1798 4352 
C 1594 4352 1267 4352 1050 4352 
C 832 4352 506 4352 301 4352 
L 301 4192 
C 762 4192 838 4192 838 3905 
L 838 447 
C 838 160 762 160 301 160 
L 301 0 
C 506 0 832 0 1050 0 
C 1267 0 1594 0 1798 0 
L 1798 160 
C 1338 160 1261 160 1261 447 
L 1261 3905 
z
" transform="scale(0.015625)"/>
       <path id="CMR17-c" d="M 2554 2764 
C 2400 2764 1926 2764 1805 2739 
C 1766 2725 1754 2725 1677 2725 
L 947 2725 
L 947 3469 
C 947 4073 1434 4352 1818 4352 
C 1939 4352 2214 4320 2355 4101 
C 2291 4101 2086 4101 2086 3878 
C 2086 3725 2189 3648 2317 3648 
C 2432 3648 2547 3712 2547 3885 
C 2547 4205 2240 4454 1843 4454 
C 1338 4454 634 4168 634 3469 
L 634 2725 
L 122 2725 
L 122 2560 
L 634 2560 
L 634 427 
C 634 184 608 153 198 153 
L 198 -13 
C 352 0 634 0 794 0 
C 960 0 1242 0 1395 -13 
L 1395 153 
C 986 153 960 178 960 427 
L 960 2560 
L 1901 2560 
C 2176 2560 2227 2502 2227 2222 
L 2227 427 
C 2227 184 2202 153 1792 153 
L 1792 -13 
C 1946 0 2227 0 2387 0 
C 2554 0 2835 0 2989 -13 
L 2989 153 
C 2579 153 2554 178 2554 427 
L 2554 2764 
z
" transform="scale(0.015625)"/>
       <path id="CMR17-64" d="M 1869 4326 
L 1869 4160 
C 2246 4160 2304 4122 2304 3820 
L 2304 2345 
C 2278 2377 2016 2790 1498 2790 
C 845 2790 211 2208 211 1364 
C 211 525 806 -64 1434 -64 
C 1978 -64 2259 337 2291 380 
L 2291 -63 
L 3066 -63 
L 3066 128 
C 2688 128 2630 166 2630 473 
L 2630 4396 
L 1869 4326 
z
M 2291 755 
C 2291 563 2176 390 2029 262 
C 1811 70 1594 38 1472 38 
C 1286 38 621 134 621 1356 
C 621 2612 1363 2688 1530 2688 
C 1824 2688 2061 2522 2208 2291 
C 2291 2157 2291 2138 2291 2023 
L 2291 755 
z
" transform="scale(0.015625)"/>
       <path id="CMR17-79" d="M 2496 2197 
C 2656 2586 2944 2586 3034 2586 
L 3034 2752 
C 2912 2752 2752 2752 2630 2752 
C 2496 2752 2285 2752 2157 2758 
L 2157 2592 
C 2400 2573 2406 2394 2406 2343 
C 2406 2280 2394 2248 2362 2171 
L 1664 449 
L 902 2306 
C 870 2382 870 2426 870 2433 
C 870 2573 1018 2586 1171 2586 
L 1171 2758 
C 1018 2752 742 2752 582 2752 
C 410 2752 205 2752 64 2758 
L 64 2586 
C 410 2586 448 2554 531 2350 
L 1485 15 
C 1197 -738 1030 -1178 627 -1178 
C 557 -1178 397 -1159 282 -1044 
C 429 -1031 493 -942 493 -833 
C 493 -725 416 -629 288 -629 
C 147 -629 77 -725 77 -840 
C 77 -1095 339 -1280 627 -1280 
C 998 -1280 1229 -922 1357 -604 
L 2496 2197 
z
" transform="scale(0.015625)"/>
       <path id="CMR17-25" d="M 4640 959 
C 4640 1698 4275 2240 3846 2240 
C 3411 2240 2970 1736 2970 959 
C 2970 183 3405 -320 3846 -320 
C 4275 -320 4640 215 4640 959 
z
M 3853 -218 
C 3686 -218 3270 -66 3270 959 
C 3270 1991 3686 2138 3853 2138 
C 4205 2138 4525 1634 4525 959 
C 4525 285 4205 -218 3853 -218 
z
M 4083 4577 
C 4128 4647 4134 4653 4134 4685 
C 4134 4761 4077 4800 4026 4800 
C 3962 4800 3936 4756 3891 4706 
C 3520 4190 3008 4134 2746 4134 
C 2106 4134 1715 4494 1594 4607 
C 1510 4682 1389 4800 1171 4800 
C 736 4800 294 4296 294 3519 
C 294 2743 730 2240 1171 2240 
C 1600 2240 1965 2778 1965 3527 
C 1965 3969 1830 4270 1811 4308 
C 2202 4064 2586 4032 2752 4032 
C 3162 4032 3456 4183 3616 4289 
L 3622 4283 
L 858 -84 
C 800 -174 800 -187 800 -206 
C 800 -276 858 -320 915 -320 
C 973 -320 992 -289 1037 -218 
L 4083 4577 
z
M 1178 2342 
C 1011 2342 595 2494 595 3519 
C 595 4551 1011 4698 1178 4698 
C 1530 4698 1850 4194 1850 3519 
C 1850 2845 1530 2342 1178 2342 
z
" transform="scale(0.015625)"/>
      </defs>
      <use xlink:href="#CMR17-49" transform="scale(0.996264)"/>
      <use xlink:href="#CMR17-6e" transform="translate(32.638409 0) scale(0.996264)"/>
      <use xlink:href="#CMR17-c" transform="translate(83.533779 0) scale(0.996264)"/>
      <use xlink:href="#CMR17-64" transform="translate(133.276002 0) scale(0.996264)"/>
      <use xlink:href="#CMR17-65" transform="translate(184.171372 0) scale(0.996264)"/>
      <use xlink:href="#CMR17-6c" transform="translate(224.657033 0) scale(0.996264)"/>
      <use xlink:href="#CMR17-69" transform="translate(249.528091 0) scale(0.996264)"/>
      <use xlink:href="#CMR17-74" transform="translate(274.39915 0) scale(0.996264)"/>
      <use xlink:href="#CMR17-79" transform="translate(307.077463 0) scale(0.996264)"/>
      <use xlink:href="#CMR17-28" transform="translate(385.446346 0) scale(0.996264)"/>
      <use xlink:href="#CMR17-25" transform="translate(420.727113 0) scale(0.996264)"/>
      <use xlink:href="#CMR17-29" transform="translate(497.646703 0) scale(0.996264)"/>
     </g>
    </g>
   </g>
   <g id="patch_3">
    <path d="M 31.161149 159.998056 
L 31.161149 0 
" style="fill: none; stroke: #000000; stroke-width: 0.8; stroke-linejoin: miter; stroke-linecap: square"/>
   </g>
   <g id="patch_4">
    <path d="M 419.1192 159.998056 
L 419.1192 0 
" style="fill: none; stroke: #000000; stroke-width: 0.8; stroke-linejoin: miter; stroke-linecap: square"/>
   </g>
   <g id="patch_5">
    <path d="M 31.161149 159.998056 
L 419.1192 159.998056 
" style="fill: none; stroke: #000000; stroke-width: 0.8; stroke-linejoin: miter; stroke-linecap: square"/>
   </g>
   <g id="patch_6">
    <path d="M 31.161149 0 
L 419.1192 0 
" style="fill: none; stroke: #000000; stroke-width: 0.8; stroke-linejoin: miter; stroke-linecap: square"/>
   </g>
   <g id="legend_1">
    <g id="patch_7">
     <path d="M 130.879626 153.998056 
L 410.7192 153.998056 
Q 413.1192 153.998056 413.1192 151.598056 
L 413.1192 102.624269 
Q 413.1192 100.224269 410.7192 100.224269 
L 130.879626 100.224269 
Q 128.479626 100.224269 128.479626 102.624269 
L 128.479626 151.598056 
Q 128.479626 153.998056 130.879626 153.998056 
z
" style="fill: #ffffff; opacity: 0.8; stroke: #cccccc; stroke-linejoin: miter"/>
    </g>
    <g id="line2d_81">
     <path d="M 133.279626 109.224269 
L 139.279626 109.224269 
L 145.279626 109.224269 
" style="fill: none; stroke: #ffffff; stroke-width: 4; stroke-linecap: square"/>
     <path d="M 133.279626 109.224269 
L 139.279626 109.224269 
L 145.279626 109.224269 
" style="fill: none; stroke: #2ca02c; stroke-width: 0.8; stroke-linecap: square"/>
    </g>
    <g id="text_18">
     <!-- $\textrm{baseline}$ -->
     <g transform="translate(151.279626 113.424269) scale(0.12 -0.12)">
      <use xlink:href="#CMR17-62" transform="scale(0.996264)"/>
      <use xlink:href="#CMR17-61" transform="translate(50.89537 0) scale(0.996264)"/>
      <use xlink:href="#CMR17-73" transform="translate(96.585847 0) scale(0.996264)"/>
      <use xlink:href="#CMR17-65" transform="translate(132.387185 0) scale(0.996264)"/>
      <use xlink:href="#CMR17-6c" transform="translate(172.872845 0) scale(0.996264)"/>
      <use xlink:href="#CMR17-69" transform="translate(197.743903 0) scale(0.996264)"/>
      <use xlink:href="#CMR17-6e" transform="translate(222.614962 0) scale(0.996264)"/>
      <use xlink:href="#CMR17-65" transform="translate(273.510332 0) scale(0.996264)"/>
     </g>
    </g>
    <g id="line2d_82">
     <path d="M 133.279626 125.948865 
L 139.279626 125.948865 
L 145.279626 125.948865 
" style="fill: none; stroke: #ffffff; stroke-width: 4; stroke-linecap: square"/>
     <path d="M 133.279626 125.948865 
L 139.279626 125.948865 
L 145.279626 125.948865 
" style="fill: none; stroke: #ff7f0e; stroke-width: 0.8; stroke-linecap: square"/>
    </g>
    <g id="text_19">
     <!-- $\textrm{stabilizer code}$ -->
     <g transform="translate(151.279626 130.148865) scale(0.12 -0.12)">
      <defs>
       <path id="CMR17-7a" d="M 2310 2605 
C 2362 2670 2362 2682 2362 2695 
C 2362 2752 2336 2752 2221 2752 
L 275 2752 
L 211 1760 
L 326 1760 
C 371 2381 442 2650 1178 2650 
L 1958 2650 
L 128 96 
C 128 0 134 0 269 0 
L 2291 0 
L 2381 1152 
L 2266 1152 
C 2214 442 2131 115 1350 115 
L 531 115 
L 2310 2605 
z
" transform="scale(0.015625)"/>
       <path id="CMR17-63" d="M 2234 2240 
C 2112 2240 1933 2240 1933 2017 
C 1933 1838 2080 1787 2163 1787 
C 2208 1787 2394 1807 2394 2024 
C 2394 2467 1958 2803 1466 2803 
C 787 2803 211 2178 211 1363 
C 211 516 813 -64 1466 -64 
C 2259 -64 2458 677 2458 748 
C 2458 774 2451 793 2406 793 
C 2362 793 2355 787 2330 703 
C 2163 180 1798 51 1523 51 
C 1114 51 621 427 621 1369 
C 621 2338 1094 2688 1472 2688 
C 1722 2688 2093 2573 2234 2240 
z
" transform="scale(0.015625)"/>
      </defs>
      <use xlink:href="#CMR17-73" transform="scale(0.996264)"/>
      <use xlink:href="#CMR17-74" transform="translate(35.801338 0) scale(0.996264)"/>
      <use xlink:href="#CMR17-61" transform="translate(71.082105 0) scale(0.996264)"/>
      <use xlink:href="#CMR17-62" transform="translate(116.772583 0) scale(0.996264)"/>
      <use xlink:href="#CMR17-69" transform="translate(167.667952 0) scale(0.996264)"/>
      <use xlink:href="#CMR17-6c" transform="translate(192.539011 0) scale(0.996264)"/>
      <use xlink:href="#CMR17-69" transform="translate(217.410069 0) scale(0.996264)"/>
      <use xlink:href="#CMR17-7a" transform="translate(242.281128 0) scale(0.996264)"/>
      <use xlink:href="#CMR17-65" transform="translate(282.766788 0) scale(0.996264)"/>
      <use xlink:href="#CMR17-72" transform="translate(323.252449 0) scale(0.996264)"/>
      <use xlink:href="#CMR17-63" transform="translate(388.609183 0) scale(0.996264)"/>
      <use xlink:href="#CMR17-6f" transform="translate(429.094843 0) scale(0.996264)"/>
      <use xlink:href="#CMR17-64" transform="translate(477.387759 0) scale(0.996264)"/>
      <use xlink:href="#CMR17-65" transform="translate(528.283129 0) scale(0.996264)"/>
     </g>
    </g>
    <g id="line2d_83">
     <path d="M 133.279626 142.673461 
L 139.279626 142.673461 
L 145.279626 142.673461 
" style="fill: none; stroke: #e60000; stroke-width: 0.8; stroke-linecap: square"/>
    </g>
    <g id="text_20">
     <!-- $\textrm{model } s=4$ -->
     <g transform="translate(151.279626 146.873461) scale(0.12 -0.12)">
      <defs>
       <path id="CMMI12-73" d="M 1459 1280 
C 1568 1261 1741 1223 1779 1216 
C 1862 1192 2150 1090 2150 783 
C 2150 586 1971 70 1229 70 
C 1094 70 614 70 486 436 
C 742 404 870 603 870 745 
C 870 880 781 950 653 950 
C 512 950 326 841 326 552 
C 326 173 710 -64 1222 -64 
C 2195 -64 2483 651 2483 984 
C 2483 1079 2483 1258 2278 1462 
C 2118 1616 1965 1648 1619 1718 
C 1446 1756 1171 1814 1171 2101 
C 1171 2229 1286 2689 1894 2689 
C 2163 2689 2426 2589 2490 2368 
C 2208 2368 2195 2125 2195 2119 
C 2195 1984 2317 1946 2374 1946 
C 2464 1946 2643 2015 2643 2281 
C 2643 2545 2400 2816 1901 2816 
C 1062 2816 838 2160 838 1899 
C 838 1414 1312 1312 1459 1280 
z
" transform="scale(0.015625)"/>
       <path id="CMR17-3d" d="M 4115 2017 
C 4211 2017 4307 2017 4307 2125 
C 4307 2240 4198 2240 4090 2240 
L 512 2240 
C 403 2240 294 2240 294 2125 
C 294 2017 390 2017 486 2017 
L 4115 2017 
z
M 4090 896 
C 4198 896 4307 896 4307 1011 
C 4307 1119 4211 1119 4115 1119 
L 486 1119 
C 390 1119 294 1119 294 1011 
C 294 896 403 896 512 896 
L 4090 896 
z
" transform="scale(0.015625)"/>
      </defs>
      <use xlink:href="#CMR17-6d" transform="scale(0.996264)"/>
      <use xlink:href="#CMR17-6f" transform="translate(76.91959 0) scale(0.996264)"/>
      <use xlink:href="#CMR17-64" transform="translate(125.212506 0) scale(0.996264)"/>
      <use xlink:href="#CMR17-65" transform="translate(176.107875 0) scale(0.996264)"/>
      <use xlink:href="#CMR17-6c" transform="translate(216.593536 0) scale(0.996264)"/>
      <use xlink:href="#CMMI12-73" transform="translate(271.540561 0) scale(0.996264)"/>
      <use xlink:href="#CMR17-3d" transform="translate(345.164617 0) scale(0.996264)"/>
      <use xlink:href="#CMR17-34" transform="translate(444.553414 0) scale(0.996264)"/>
     </g>
    </g>
    <g id="line2d_84">
     <path d="M 236.507037 109.224269 
L 242.507037 109.224269 
L 248.507037 109.224269 
" style="fill: none; stroke: #730000; stroke-width: 0.8; stroke-linecap: square"/>
    </g>
    <g id="text_21">
     <!-- $\textrm{model } s=2$ -->
     <g transform="translate(254.507037 113.424269) scale(0.12 -0.12)">
      <use xlink:href="#CMR17-6d" transform="scale(0.996264)"/>
      <use xlink:href="#CMR17-6f" transform="translate(76.91959 0) scale(0.996264)"/>
      <use xlink:href="#CMR17-64" transform="translate(125.212506 0) scale(0.996264)"/>
      <use xlink:href="#CMR17-65" transform="translate(176.107875 0) scale(0.996264)"/>
      <use xlink:href="#CMR17-6c" transform="translate(216.593536 0) scale(0.996264)"/>
      <use xlink:href="#CMMI12-73" transform="translate(271.540561 0) scale(0.996264)"/>
      <use xlink:href="#CMR17-3d" transform="translate(345.164617 0) scale(0.996264)"/>
      <use xlink:href="#CMR17-32" transform="translate(444.553414 0) scale(0.996264)"/>
     </g>
    </g>
    <g id="line2d_85">
     <path d="M 236.507037 125.948865 
L 242.507037 125.948865 
L 248.507037 125.948865 
" style="fill: none; stroke: #ac0000; stroke-width: 0.8; stroke-linecap: square"/>
    </g>
    <g id="text_22">
     <!-- $\textrm{model } s=3$ -->
     <g transform="translate(254.507037 130.148865) scale(0.12 -0.12)">
      <use xlink:href="#CMR17-6d" transform="scale(0.996264)"/>
      <use xlink:href="#CMR17-6f" transform="translate(76.91959 0) scale(0.996264)"/>
      <use xlink:href="#CMR17-64" transform="translate(125.212506 0) scale(0.996264)"/>
      <use xlink:href="#CMR17-65" transform="translate(176.107875 0) scale(0.996264)"/>
      <use xlink:href="#CMR17-6c" transform="translate(216.593536 0) scale(0.996264)"/>
      <use xlink:href="#CMMI12-73" transform="translate(271.540561 0) scale(0.996264)"/>
      <use xlink:href="#CMR17-3d" transform="translate(345.164617 0) scale(0.996264)"/>
      <use xlink:href="#CMR17-33" transform="translate(444.553414 0) scale(0.996264)"/>
     </g>
    </g>
    <g id="line2d_86">
     <path d="M 328.413118 109.224269 
L 334.413118 109.224269 
L 340.413118 109.224269 
" style="fill: none; stroke: #000000; stroke-width: 0.8; stroke-linecap: square"/>
    </g>
    <g id="text_23">
     <!-- $\textrm{model } s=0$ -->
     <g transform="translate(346.413118 113.424269) scale(0.12 -0.12)">
      <use xlink:href="#CMR17-6d" transform="scale(0.996264)"/>
      <use xlink:href="#CMR17-6f" transform="translate(76.91959 0) scale(0.996264)"/>
      <use xlink:href="#CMR17-64" transform="translate(125.212506 0) scale(0.996264)"/>
      <use xlink:href="#CMR17-65" transform="translate(176.107875 0) scale(0.996264)"/>
      <use xlink:href="#CMR17-6c" transform="translate(216.593536 0) scale(0.996264)"/>
      <use xlink:href="#CMMI12-73" transform="translate(271.540561 0) scale(0.996264)"/>
      <use xlink:href="#CMR17-3d" transform="translate(345.164617 0) scale(0.996264)"/>
      <use xlink:href="#CMR17-30" transform="translate(444.553414 0) scale(0.996264)"/>
     </g>
    </g>
    <g id="line2d_87">
     <path d="M 328.413118 125.948865 
L 334.413118 125.948865 
L 340.413118 125.948865 
" style="fill: none; stroke: #390000; stroke-width: 0.8; stroke-linecap: square"/>
    </g>
    <g id="text_24">
     <!-- $\textrm{model } s=1$ -->
     <g transform="translate(346.413118 130.148865) scale(0.12 -0.12)">
      <use xlink:href="#CMR17-6d" transform="scale(0.996264)"/>
      <use xlink:href="#CMR17-6f" transform="translate(76.91959 0) scale(0.996264)"/>
      <use xlink:href="#CMR17-64" transform="translate(125.212506 0) scale(0.996264)"/>
      <use xlink:href="#CMR17-65" transform="translate(176.107875 0) scale(0.996264)"/>
      <use xlink:href="#CMR17-6c" transform="translate(216.593536 0) scale(0.996264)"/>
      <use xlink:href="#CMMI12-73" transform="translate(271.540561 0) scale(0.996264)"/>
      <use xlink:href="#CMR17-3d" transform="translate(345.164617 0) scale(0.996264)"/>
      <use xlink:href="#CMR17-31" transform="translate(444.553414 0) scale(0.996264)"/>
     </g>
    </g>
   </g>
  </g>
 </g>
 <defs>
  <clipPath id="pf33f36b1bd">
   <rect x="31.161149" y="0" width="387.958051" height="159.998056"/>
  </clipPath>
 </defs>
</svg>
