<?xml version="1.0" encoding="utf-8" standalone="no"?>
<!DOCTYPE svg PUBLIC "-//W3C//DTD SVG 1.1//EN"
  "http://www.w3.org/Graphics/SVG/1.1/DTD/svg11.dtd">
<svg xmlns:xlink="http://www.w3.org/1999/xlink" width="419.1192pt" height="190.08pt" viewBox="0 0 419.1192 190.08" xmlns="http://www.w3.org/2000/svg" version="1.1">
 <metadata>
  <rdf:RDF xmlns:dc="http://purl.org/dc/elements/1.1/" xmlns:cc="http://creativecommons.org/ns#" xmlns:rdf="http://www.w3.org/1999/02/22-rdf-syntax-ns#">
   <cc:Work>
    <dc:type rdf:resource="http://purl.org/dc/dcmitype/StillImage"/>
    <dc:date>2025-11-26T22:33:21.614659</dc:date>
    <dc:format>image/svg+xml</dc:format>
    <dc:creator>
     <cc:Agent>
      <dc:title>Matplotlib v3.10.6, https://matplotlib.org/</dc:title>
     </cc:Agent>
    </dc:creator>
   </cc:Work>
  </rdf:RDF>
 </metadata>
 <defs>
  <style type="text/css">*{stroke-linejoin: round; stroke-linecap: butt}</style>
 </defs>
 <g id="figure_1">
  <g id="patch_1">
   <path d="M 0 190.08 
L 419.1192 190.08 
L 419.1192 0 
L 0 0 
z
" style="fill: #ffffff"/>
  </g>
  <g id="axes_1">
   <g id="patch_2">
    <path d="M 31.161149 159.998056 
L 419.1192 159.998056 
L 419.1192 0 
L 31.161149 0 
z
" style="fill: #ffffff"/>
   </g>
   <g id="line2d_1">
    <path d="M 48.795606 159.998058 
L 50.559051 150.102622 
L 52.322497 145.876647 
L 54.085943 138.714735 
L 55.849388 133.841447 
L 57.612834 129.970976 
L 59.37628 127.991714 
L 61.139725 123.867925 
L 62.903171 122.51434 
L 64.666617 119.981988 
L 66.430062 116.936754 
L 68.193508 116.036204 
L 69.956954 113.058602 
L 71.720399 111.924774 
L 75.247291 105.609305 
L 77.010737 105.384996 
L 78.774182 103.574284 
L 80.537628 97.263505 
L 82.301074 96.338771 
L 84.064519 94.572949 
L 85.827965 92.576073 
L 87.591411 92.027937 
L 89.354856 91.050221 
L 91.118302 90.236529 
L 92.881748 86.141237 
L 94.645193 83.953157 
L 96.408639 82.247557 
L 98.172085 82.932254 
L 103.462422 82.166891 
L 105.225868 79.656982 
L 106.989313 79.524146 
L 108.752759 78.946943 
L 110.516205 76.821165 
L 114.043096 75.50013 
L 115.806542 75.357179 
L 117.569987 74.463995 
L 119.333433 73.329379 
L 121.096879 72.755255 
L 122.860324 72.692373 
L 124.62377 73.477545 
L 126.387216 73.259942 
L 128.150661 72.729424 
L 129.914107 74.533312 
L 131.677553 74.721498 
L 133.440999 75.381419 
L 135.204444 74.611026 
L 136.96789 72.599571 
L 138.731336 72.492617 
L 140.494781 71.268032 
L 142.258227 71.834527 
L 144.021673 73.29992 
L 145.785118 72.965664 
L 147.548564 73.270506 
L 149.31201 73.093457 
L 151.075455 73.909971 
L 152.838901 72.868376 
L 154.602347 70.099538 
L 156.365792 70.295505 
L 159.892684 69.444112 
L 161.65613 71.124611 
L 165.183021 70.654582 
L 166.946467 70.822265 
L 168.709912 68.184909 
L 170.473358 67.325057 
L 172.236804 66.966559 
L 174.000249 68.283582 
L 175.763695 67.950107 
L 177.527141 65.968283 
L 181.054032 64.027533 
L 182.817478 64.83476 
L 184.580923 63.890185 
L 186.344369 62.086865 
L 188.107815 62.438034 
L 189.871261 61.819534 
L 191.634706 61.520075 
L 193.398152 61.791347 
L 196.925043 64.771338 
L 198.688489 64.298366 
L 200.451935 64.948832 
L 202.21538 64.900415 
L 203.978826 63.352145 
L 205.742272 63.448676 
L 207.505717 63.277824 
L 209.269163 62.091688 
L 211.032609 61.786393 
L 212.796054 61.599767 
L 214.5595 60.324018 
L 216.322946 60.873666 
L 218.086392 61.208053 
L 219.849837 61.835901 
L 221.613283 62.721042 
L 223.376729 62.236016 
L 225.140174 62.397492 
L 226.90362 63.345368 
L 228.667066 63.815689 
L 230.430511 63.102868 
L 232.193957 60.669858 
L 233.957403 61.920322 
L 235.720848 61.765632 
L 237.484294 61.875126 
L 239.24774 62.252776 
L 241.011186 61.958163 
L 242.774631 61.238664 
L 244.538077 59.528951 
L 246.301523 60.626336 
L 248.064968 60.574504 
L 249.828414 61.079376 
L 251.59186 61.748957 
L 253.355305 63.409926 
L 255.118751 64.529498 
L 256.882197 64.602603 
L 258.645642 62.274161 
L 262.172534 62.925291 
L 263.935979 62.862617 
L 265.699425 64.094201 
L 267.462871 63.628718 
L 269.226317 65.230154 
L 270.989762 64.901917 
L 276.280099 65.260561 
L 278.043545 65.999803 
L 279.806991 65.478707 
L 281.570436 63.603513 
L 283.333882 63.292192 
L 285.097328 64.213316 
L 286.860773 64.516229 
L 288.624219 63.419239 
L 290.387665 63.480972 
L 292.15111 63.047309 
L 293.914556 61.763849 
L 295.678002 62.706131 
L 297.441448 62.223849 
L 299.204893 63.43698 
L 300.968339 62.988657 
L 304.49523 62.612042 
L 306.258676 63.018379 
L 308.022122 62.211536 
L 309.785567 62.446453 
L 311.549013 60.639673 
L 313.312459 61.108114 
L 315.075904 60.001051 
L 316.83935 59.968037 
L 318.602796 59.314359 
L 320.366241 58.437776 
L 322.129687 58.516512 
L 323.893133 57.54459 
L 325.656579 56.731512 
L 327.420024 57.042864 
L 329.18347 55.604571 
L 330.946916 55.251744 
L 332.710361 55.122093 
L 334.473807 56.324554 
L 336.237253 56.167303 
L 338.000698 55.027297 
L 339.764144 57.449432 
L 341.52759 55.689919 
L 343.291035 57.440325 
L 345.054481 57.613595 
L 346.817927 57.636405 
L 348.581372 56.397582 
L 350.344818 56.191324 
L 352.108264 58.189556 
L 353.87171 57.791065 
L 359.162047 57.214598 
L 360.925492 59.12518 
L 362.688938 57.614663 
L 364.452384 57.207215 
L 366.215829 60.279732 
L 367.979275 60.003585 
L 373.269612 61.6699 
L 375.033058 62.117965 
L 376.796503 62.960845 
L 378.559949 62.100026 
L 380.323395 62.126536 
L 382.086841 62.390801 
L 383.850286 57.942943 
L 385.613732 55.885559 
L 387.377178 58.309481 
L 389.140623 57.671775 
L 390.904069 57.788103 
L 392.667515 60.73581 
L 394.43096 59.192603 
L 396.194406 59.14258 
L 397.957852 58.364833 
L 399.721297 57.732901 
L 401.484743 58.086571 
L 401.484743 58.086571 
" clip-path="url(#pcc8bc4381b)" style="fill: none; stroke: #390000; stroke-width: 0.8; stroke-linecap: square"/>
   </g>
   <g id="line2d_2">
    <path d="M 48.795606 159.998058 
L 50.559051 149.984743 
L 52.322497 145.191299 
L 54.085943 138.367306 
L 55.849388 132.542619 
L 57.612834 129.309185 
L 59.37628 127.096865 
L 61.139725 122.903193 
L 62.903171 120.920554 
L 64.666617 116.944685 
L 66.430062 111.848499 
L 68.193508 111.845224 
L 69.956954 109.142484 
L 71.720399 107.884176 
L 73.483845 104.137252 
L 75.247291 102.133595 
L 77.010737 101.234851 
L 78.774182 99.554808 
L 80.537628 96.589632 
L 82.301074 96.140611 
L 84.064519 94.455907 
L 85.827965 90.990637 
L 87.591411 90.275192 
L 89.354856 89.331796 
L 91.118302 88.741007 
L 92.881748 85.437724 
L 94.645193 83.956549 
L 96.408639 83.039208 
L 98.172085 81.91853 
L 99.93553 81.783696 
L 101.698976 82.980935 
L 103.462422 82.693228 
L 105.225868 82.062933 
L 106.989313 79.870183 
L 108.752759 79.591304 
L 110.516205 78.318574 
L 112.27965 78.385273 
L 114.043096 76.158256 
L 117.569987 76.336794 
L 119.333433 75.707832 
L 121.096879 75.687563 
L 124.62377 76.186115 
L 126.387216 76.224249 
L 128.150661 75.455467 
L 129.914107 75.306001 
L 133.440999 76.46315 
L 135.204444 75.321627 
L 136.96789 75.655819 
L 138.731336 77.510859 
L 140.494781 75.830399 
L 142.258227 76.810813 
L 144.021673 77.017734 
L 145.785118 76.521348 
L 147.548564 76.445946 
L 149.31201 75.962781 
L 151.075455 75.837966 
L 152.838901 74.574803 
L 154.602347 72.269156 
L 156.365792 72.237487 
L 159.892684 71.364686 
L 161.65613 71.963933 
L 163.419575 71.964043 
L 165.183021 72.279736 
L 166.946467 71.632287 
L 168.709912 69.923156 
L 170.473358 67.77186 
L 172.236804 67.954923 
L 174.000249 68.251779 
L 175.763695 66.650813 
L 177.527141 64.696468 
L 179.290586 63.914498 
L 182.817478 64.500125 
L 184.580923 62.610958 
L 186.344369 63.640226 
L 188.107815 63.468082 
L 189.871261 62.800907 
L 191.634706 61.610283 
L 193.398152 61.186658 
L 195.161598 61.338379 
L 196.925043 62.681297 
L 198.688489 63.467924 
L 200.451935 65.322003 
L 202.21538 64.627497 
L 203.978826 63.42792 
L 205.742272 62.70249 
L 207.505717 63.361895 
L 209.269163 65.089742 
L 211.032609 65.002388 
L 212.796054 64.468092 
L 214.5595 62.530221 
L 218.086392 60.835964 
L 219.849837 60.38034 
L 223.376729 58.511819 
L 225.140174 58.31955 
L 226.90362 59.367821 
L 228.667066 59.472331 
L 230.430511 60.578111 
L 232.193957 59.773344 
L 233.957403 62.058477 
L 235.720848 61.348381 
L 237.484294 61.41527 
L 239.24774 60.565612 
L 241.011186 59.978727 
L 242.774631 59.550343 
L 244.538077 59.501928 
L 246.301523 59.887495 
L 248.064968 59.907167 
L 249.828414 59.390578 
L 251.59186 59.370514 
L 253.355305 61.01067 
L 255.118751 60.103726 
L 256.882197 59.679737 
L 258.645642 56.300717 
L 260.409088 57.012971 
L 262.172534 57.001518 
L 263.935979 54.139122 
L 265.699425 53.474865 
L 267.462871 53.337231 
L 269.226317 53.38549 
L 270.989762 53.085218 
L 272.753208 51.012067 
L 274.516654 51.056719 
L 276.280099 51.362283 
L 279.806991 51.429 
L 281.570436 49.599126 
L 283.333882 48.650247 
L 285.097328 51.595639 
L 286.860773 52.024667 
L 288.624219 52.108215 
L 290.387665 52.390711 
L 292.15111 52.223879 
L 293.914556 49.540619 
L 297.441448 49.580045 
L 299.204893 49.723342 
L 300.968339 49.999921 
L 302.731785 50.574519 
L 304.49523 52.075988 
L 306.258676 50.608665 
L 308.022122 49.758245 
L 309.785567 49.156162 
L 311.549013 47.743197 
L 313.312459 47.84885 
L 315.075904 47.655296 
L 316.83935 48.417407 
L 318.602796 48.474037 
L 320.366241 48.415899 
L 322.129687 48.516151 
L 323.893133 49.209132 
L 327.420024 49.021772 
L 329.18347 47.99456 
L 330.946916 48.914164 
L 332.710361 50.753391 
L 334.473807 50.794138 
L 336.237253 50.68958 
L 338.000698 50.997701 
L 339.764144 52.178867 
L 341.52759 51.605035 
L 343.291035 51.677653 
L 345.054481 51.954763 
L 346.817927 52.481984 
L 348.581372 51.290436 
L 350.344818 51.291706 
L 352.108264 50.592282 
L 353.87171 50.292419 
L 355.635155 50.16936 
L 357.398601 49.263228 
L 359.162047 48.81121 
L 360.925492 51.200327 
L 362.688938 48.831355 
L 364.452384 48.996524 
L 366.215829 49.422928 
L 367.979275 48.613185 
L 369.742721 48.90859 
L 371.506166 48.744975 
L 373.269612 49.853201 
L 375.033058 49.199873 
L 376.796503 50.056119 
L 378.559949 49.701138 
L 380.323395 49.967961 
L 382.086841 50.910232 
L 385.613732 46.175357 
L 387.377178 45.706567 
L 389.140623 45.615778 
L 390.904069 46.464892 
L 392.667515 46.403063 
L 394.43096 44.885351 
L 396.194406 45.229115 
L 399.721297 44.497395 
L 401.484743 45.066191 
L 401.484743 45.066191 
" clip-path="url(#pcc8bc4381b)" style="fill: none; stroke: #000000; stroke-width: 0.8; stroke-linecap: square"/>
   </g>
   <g id="line2d_3">
    <path d="M 48.795606 159.998058 
L 50.559051 53.711256 
L 52.322497 76.576753 
L 54.085943 131.103451 
L 55.849388 50.356732 
L 57.612834 94.524073 
L 59.37628 109.683582 
L 61.139725 56.505314 
L 62.903171 101.089525 
L 64.666617 94.859363 
L 66.430062 66.101181 
L 68.193508 106.056855 
L 69.956954 82.773504 
L 71.720399 73.741043 
L 73.483845 101.265254 
L 75.247291 78.298938 
L 77.010737 78.784467 
L 78.774182 96.92337 
L 80.537628 70.358489 
L 82.301074 76.903108 
L 84.064519 86.69619 
L 85.827965 67.127655 
L 87.591411 76.98324 
L 89.354856 78.218369 
L 91.118302 67.637123 
L 92.881748 74.141293 
L 94.645193 70.001504 
L 96.408639 60.251163 
L 98.172085 69.953144 
L 99.93553 61.503063 
L 101.698976 61.856908 
L 103.462422 70.417894 
L 105.225868 60.461334 
L 106.989313 64.286956 
L 108.752759 66.105798 
L 110.516205 60.015769 
L 112.27965 66.77479 
L 114.043096 63.046729 
L 115.806542 62.233158 
L 117.569987 66.453301 
L 119.333433 57.581247 
L 121.096879 60.395624 
L 122.860324 60.97163 
L 124.62377 56.954478 
L 126.387216 62.671404 
L 128.150661 59.177819 
L 129.914107 57.906725 
L 131.677553 60.628122 
L 133.440999 55.128962 
L 135.204444 56.884014 
L 138.731336 53.534316 
L 140.494781 54.789152 
L 142.258227 54.374946 
L 144.021673 54.975023 
L 145.785118 58.044939 
L 147.548564 56.395795 
L 151.075455 56.715181 
L 152.838901 56.409456 
L 156.365792 53.422531 
L 158.129238 56.294789 
L 159.892684 57.505517 
L 161.65613 56.381696 
L 163.419575 56.173884 
L 165.183021 58.072875 
L 166.946467 52.481754 
L 168.709912 54.667102 
L 170.473358 56.318634 
L 172.236804 51.817466 
L 174.000249 56.18684 
L 175.763695 57.451281 
L 177.527141 54.235932 
L 179.290586 56.781174 
L 181.054032 58.668027 
L 182.817478 55.549209 
L 184.580923 55.721252 
L 186.344369 57.034408 
L 188.107815 55.376586 
L 189.871261 52.898021 
L 191.634706 55.409307 
L 193.398152 52.916369 
L 195.161598 54.691271 
L 196.925043 53.691358 
L 198.688489 51.65456 
L 200.451935 54.35968 
L 202.21538 55.025621 
L 203.978826 53.280184 
L 205.742272 52.719913 
L 207.505717 52.922394 
L 209.269163 53.849608 
L 211.032609 54.396385 
L 212.796054 54.521165 
L 214.5595 51.598403 
L 216.322946 50.536903 
L 218.086392 50.785446 
L 219.849837 49.526934 
L 221.613283 54.312734 
L 223.376729 47.033443 
L 225.140174 49.408771 
L 226.90362 49.549643 
L 228.667066 49.832844 
L 230.430511 51.888279 
L 232.193957 47.409651 
L 233.957403 48.359979 
L 235.720848 50.958294 
L 237.484294 48.947871 
L 239.24774 47.994312 
L 242.774631 48.304189 
L 244.538077 47.347845 
L 246.301523 51.062169 
L 248.064968 49.671416 
L 249.828414 50.476588 
L 251.59186 47.264648 
L 253.355305 46.428568 
L 255.118751 48.206317 
L 256.882197 46.458292 
L 258.645642 43.310671 
L 260.409088 46.962006 
L 263.935979 47.803467 
L 265.699425 46.82694 
L 267.462871 45.363338 
L 269.226317 47.60685 
L 270.989762 47.80563 
L 272.753208 47.460528 
L 274.516654 48.001389 
L 276.280099 46.292266 
L 278.043545 48.726515 
L 279.806991 45.184717 
L 281.570436 43.723372 
L 283.333882 46.005409 
L 285.097328 40.952555 
L 286.860773 42.461964 
L 288.624219 42.596432 
L 290.387665 39.430901 
L 292.15111 41.402895 
L 293.914556 40.939316 
L 295.678002 42.00862 
L 297.441448 39.251481 
L 299.204893 42.885317 
L 300.968339 41.067379 
L 302.731785 41.130592 
L 304.49523 43.442231 
L 306.258676 39.973469 
L 308.022122 40.72422 
L 309.785567 42.962589 
L 311.549013 38.429786 
L 313.312459 36.950466 
L 315.075904 38.511553 
L 316.83935 37.661888 
L 318.602796 37.966487 
L 320.366241 38.388317 
L 322.129687 38.625037 
L 323.893133 37.31757 
L 325.656579 37.80905 
L 327.420024 35.288211 
L 329.18347 38.113753 
L 330.946916 37.440323 
L 332.710361 35.426259 
L 334.473807 40.595423 
L 336.237253 37.396659 
L 338.000698 35.758875 
L 339.764144 38.174613 
L 341.52759 35.066066 
L 343.291035 34.207327 
L 345.054481 36.131654 
L 346.817927 34.675001 
L 348.581372 34.497288 
L 350.344818 35.203496 
L 352.108264 37.176662 
L 353.87171 37.866722 
L 355.635155 38.03395 
L 357.398601 34.552726 
L 359.162047 36.647027 
L 360.925492 36.929658 
L 362.688938 33.320921 
L 364.452384 35.284562 
L 366.215829 38.625214 
L 367.979275 37.105371 
L 369.742721 39.763496 
L 371.506166 38.195959 
L 373.269612 39.383316 
L 375.033058 41.206638 
L 376.796503 39.642179 
L 378.559949 40.670576 
L 380.323395 42.182413 
L 382.086841 42.547696 
L 383.850286 43.343888 
L 385.613732 39.177605 
L 387.377178 38.467119 
L 389.140623 39.910558 
L 390.904069 37.39062 
L 392.667515 39.689485 
L 394.43096 38.981283 
L 396.194406 37.064241 
L 397.957852 37.152885 
L 399.721297 39.148733 
L 401.484743 35.538204 
L 401.484743 35.538204 
" clip-path="url(#pcc8bc4381b)" style="fill: none; stroke: #e60000; stroke-width: 0.8; stroke-linecap: square"/>
   </g>
   <g id="line2d_4">
    <path d="M 48.795606 159.998058 
L 50.559051 149.302054 
L 52.322497 133.050178 
L 54.085943 129.621518 
L 55.849388 113.619925 
L 57.612834 117.174918 
L 59.37628 110.183293 
L 61.139725 110.442936 
L 62.903171 105.569302 
L 68.193508 102.278686 
L 69.956954 98.741616 
L 71.720399 99.505522 
L 73.483845 96.112477 
L 75.247291 96.451806 
L 77.010737 92.826501 
L 78.774182 91.27644 
L 80.537628 90.05345 
L 82.301074 90.467586 
L 84.064519 89.445362 
L 85.827965 81.631059 
L 87.591411 83.875548 
L 89.354856 81.89404 
L 91.118302 80.526114 
L 92.881748 75.939488 
L 96.408639 71.69897 
L 98.172085 72.64282 
L 99.93553 67.811282 
L 101.698976 71.551708 
L 103.462422 71.077215 
L 105.225868 66.918704 
L 106.989313 70.363427 
L 108.752759 70.02295 
L 110.516205 70.42727 
L 112.27965 66.482383 
L 114.043096 66.03554 
L 115.806542 64.990503 
L 117.569987 62.16801 
L 119.333433 62.251139 
L 121.096879 63.13876 
L 122.860324 63.05081 
L 124.62377 61.263299 
L 126.387216 65.179231 
L 128.150661 67.873712 
L 129.914107 65.272854 
L 131.677553 65.52579 
L 133.440999 66.617878 
L 135.204444 66.0631 
L 136.96789 63.149621 
L 138.731336 64.201643 
L 140.494781 63.429659 
L 142.258227 58.509166 
L 144.021673 65.50776 
L 145.785118 63.577913 
L 147.548564 64.150563 
L 149.31201 62.742432 
L 151.075455 62.074652 
L 152.838901 60.31676 
L 154.602347 59.27928 
L 156.365792 59.09398 
L 158.129238 58.221212 
L 159.892684 55.309917 
L 161.65613 58.031086 
L 163.419575 56.154779 
L 165.183021 55.452251 
L 166.946467 56.084853 
L 168.709912 53.485113 
L 170.473358 50.667479 
L 172.236804 50.644358 
L 174.000249 53.717998 
L 175.763695 51.942815 
L 177.527141 53.607952 
L 179.290586 52.911095 
L 181.054032 53.039434 
L 182.817478 52.69772 
L 184.580923 48.574135 
L 186.344369 51.155821 
L 188.107815 50.338787 
L 189.871261 51.875433 
L 191.634706 50.853595 
L 193.398152 49.610606 
L 195.161598 49.963641 
L 196.925043 47.861855 
L 198.688489 48.44692 
L 200.451935 47.774201 
L 202.21538 45.216091 
L 203.978826 49.351243 
L 205.742272 49.865728 
L 207.505717 47.530932 
L 209.269163 48.848624 
L 211.032609 49.620121 
L 212.796054 49.50917 
L 214.5595 46.871532 
L 216.322946 49.013397 
L 218.086392 47.773318 
L 219.849837 47.101951 
L 221.613283 48.060259 
L 223.376729 42.176171 
L 225.140174 44.220715 
L 226.90362 42.065854 
L 228.667066 41.904495 
L 230.430511 42.886578 
L 232.193957 42.413797 
L 233.957403 39.320429 
L 235.720848 39.972529 
L 237.484294 37.48145 
L 239.24774 41.50847 
L 241.011186 41.296112 
L 242.774631 41.511642 
L 244.538077 40.292167 
L 246.301523 38.665672 
L 248.064968 41.489407 
L 249.828414 41.535851 
L 251.59186 41.055251 
L 253.355305 40.447761 
L 255.118751 42.267724 
L 256.882197 43.3974 
L 258.645642 42.486899 
L 260.409088 41.72575 
L 262.172534 40.42487 
L 263.935979 41.627755 
L 265.699425 41.002516 
L 267.462871 39.161739 
L 269.226317 42.998354 
L 270.989762 40.894279 
L 272.753208 42.657905 
L 274.516654 40.175044 
L 276.280099 42.736652 
L 278.043545 40.706466 
L 279.806991 41.642867 
L 281.570436 43.043501 
L 283.333882 40.40849 
L 285.097328 39.48465 
L 286.860773 40.462417 
L 288.624219 42.376272 
L 290.387665 42.171014 
L 292.15111 42.322299 
L 293.914556 42.189438 
L 295.678002 41.685795 
L 297.441448 39.513825 
L 299.204893 39.355492 
L 300.968339 35.774758 
L 302.731785 39.794335 
L 304.49523 40.822921 
L 306.258676 39.796315 
L 308.022122 38.619814 
L 309.785567 40.667025 
L 311.549013 37.469359 
L 313.312459 31.943138 
L 315.075904 35.437844 
L 316.83935 37.946852 
L 318.602796 33.757007 
L 320.366241 35.869181 
L 322.129687 35.818899 
L 323.893133 36.051553 
L 325.656579 34.784525 
L 327.420024 34.924805 
L 329.18347 35.316548 
L 330.946916 35.551021 
L 332.710361 36.054241 
L 334.473807 34.792802 
L 336.237253 35.118648 
L 338.000698 32.603779 
L 339.764144 33.805734 
L 341.52759 33.994918 
L 343.291035 31.444918 
L 345.054481 30.628896 
L 346.817927 30.146568 
L 348.581372 35.093842 
L 350.344818 34.285977 
L 352.108264 30.211372 
L 353.87171 31.608513 
L 355.635155 32.849371 
L 357.398601 32.422577 
L 359.162047 33.652116 
L 360.925492 33.157157 
L 362.688938 34.869394 
L 364.452384 33.007209 
L 366.215829 32.777181 
L 367.979275 34.12499 
L 369.742721 32.262472 
L 371.506166 33.61505 
L 373.269612 32.195321 
L 375.033058 35.22532 
L 376.796503 29.989308 
L 378.559949 28.632551 
L 380.323395 29.878686 
L 382.086841 31.685362 
L 383.850286 30.718564 
L 385.613732 30.078818 
L 387.377178 29.563857 
L 389.140623 26.704353 
L 390.904069 25.507314 
L 392.667515 27.328184 
L 394.43096 29.398801 
L 396.194406 30.172571 
L 397.957852 29.894964 
L 399.721297 30.362582 
L 401.484743 28.959043 
L 401.484743 28.959043 
" clip-path="url(#pcc8bc4381b)" style="fill: none; stroke: #ac0000; stroke-width: 0.8; stroke-linecap: square"/>
   </g>
   <g id="line2d_5">
    <path d="M 48.795606 159.998058 
L 50.559051 150.229344 
L 52.322497 141.139642 
L 54.085943 135.381668 
L 55.849388 131.681206 
L 57.612834 127.334992 
L 59.37628 125.205871 
L 61.139725 123.66607 
L 62.903171 119.145949 
L 64.666617 115.680976 
L 66.430062 109.618089 
L 68.193508 107.762279 
L 69.956954 103.428737 
L 71.720399 102.890987 
L 73.483845 100.577215 
L 75.247291 97.073231 
L 77.010737 96.95694 
L 78.774182 94.603245 
L 80.537628 89.520563 
L 82.301074 87.989453 
L 84.064519 88.06103 
L 85.827965 86.958718 
L 87.591411 86.690733 
L 89.354856 85.766739 
L 91.118302 85.058964 
L 92.881748 81.679892 
L 94.645193 77.897744 
L 96.408639 76.988972 
L 98.172085 78.344705 
L 99.93553 77.965436 
L 101.698976 77.226013 
L 103.462422 74.844847 
L 105.225868 70.249159 
L 106.989313 69.440463 
L 108.752759 69.742063 
L 110.516205 66.740828 
L 112.27965 66.663053 
L 114.043096 66.077491 
L 115.806542 65.831351 
L 117.569987 65.065022 
L 119.333433 64.727292 
L 121.096879 64.613699 
L 122.860324 62.680473 
L 124.62377 62.487855 
L 126.387216 61.941152 
L 128.150661 62.347798 
L 129.914107 61.749004 
L 131.677553 61.874004 
L 133.440999 62.371911 
L 135.204444 61.165755 
L 136.96789 58.443707 
L 138.731336 59.309812 
L 140.494781 58.530261 
L 144.021673 59.709647 
L 147.548564 58.974198 
L 149.31201 59.294113 
L 151.075455 59.974262 
L 152.838901 59.544526 
L 154.602347 57.675499 
L 156.365792 58.809176 
L 158.129238 57.876639 
L 159.892684 57.20725 
L 161.65613 58.008084 
L 163.419575 57.999652 
L 165.183021 58.70344 
L 166.946467 58.82985 
L 168.709912 56.9355 
L 170.473358 56.730946 
L 172.236804 59.00642 
L 174.000249 58.285681 
L 175.763695 58.306553 
L 177.527141 57.382137 
L 179.290586 56.278935 
L 181.054032 56.035893 
L 182.817478 56.749699 
L 184.580923 56.074957 
L 188.107815 56.910119 
L 189.871261 55.137541 
L 191.634706 54.449913 
L 193.398152 53.33277 
L 195.161598 53.215971 
L 196.925043 53.377506 
L 198.688489 55.018206 
L 200.451935 56.214867 
L 202.21538 56.362816 
L 203.978826 55.609583 
L 205.742272 56.710747 
L 207.505717 54.400171 
L 209.269163 53.777352 
L 211.032609 52.805747 
L 212.796054 53.264592 
L 214.5595 53.146555 
L 216.322946 53.177402 
L 218.086392 52.6728 
L 219.849837 53.111059 
L 221.613283 52.830102 
L 223.376729 52.093745 
L 225.140174 52.851104 
L 226.90362 52.92086 
L 228.667066 53.454667 
L 230.430511 53.027658 
L 232.193957 51.825077 
L 233.957403 53.456014 
L 235.720848 51.783762 
L 237.484294 51.960697 
L 239.24774 51.720801 
L 241.011186 51.738097 
L 242.774631 50.404991 
L 244.538077 50.75722 
L 246.301523 52.274285 
L 248.064968 51.581131 
L 249.828414 51.900105 
L 251.59186 53.323848 
L 253.355305 53.301665 
L 255.118751 52.376711 
L 256.882197 53.217524 
L 258.645642 52.436307 
L 260.409088 51.984431 
L 262.172534 50.426598 
L 263.935979 50.269912 
L 265.699425 50.56881 
L 267.462871 50.080698 
L 269.226317 50.320096 
L 270.989762 49.515413 
L 272.753208 48.094295 
L 274.516654 47.978506 
L 276.280099 48.520726 
L 278.043545 49.54368 
L 279.806991 50.747508 
L 281.570436 48.905021 
L 283.333882 48.564784 
L 285.097328 51.186903 
L 286.860773 51.251998 
L 288.624219 50.705639 
L 290.387665 49.636542 
L 292.15111 49.94272 
L 293.914556 50.029057 
L 295.678002 49.360501 
L 297.441448 49.097737 
L 299.204893 49.329181 
L 300.968339 48.384717 
L 302.731785 47.854025 
L 304.49523 48.763164 
L 306.258676 51.123585 
L 308.022122 49.047364 
L 309.785567 48.180823 
L 311.549013 47.459944 
L 313.312459 48.958817 
L 315.075904 47.782534 
L 316.83935 48.47444 
L 318.602796 48.456832 
L 320.366241 48.253255 
L 322.129687 47.036101 
L 323.893133 46.848035 
L 325.656579 48.460792 
L 330.946916 47.581436 
L 332.710361 49.371277 
L 334.473807 48.149241 
L 336.237253 47.850829 
L 338.000698 47.673233 
L 339.764144 46.166479 
L 341.52759 44.846386 
L 343.291035 44.634962 
L 345.054481 44.758696 
L 346.817927 45.296977 
L 348.581372 44.06208 
L 350.344818 43.391663 
L 352.108264 44.59932 
L 353.87171 43.922387 
L 355.635155 42.409008 
L 357.398601 42.416915 
L 359.162047 41.539418 
L 360.925492 41.417117 
L 362.688938 40.52012 
L 364.452384 40.194385 
L 366.215829 42.293524 
L 367.979275 41.865119 
L 369.742721 42.49536 
L 371.506166 41.689541 
L 373.269612 41.774725 
L 375.033058 42.119046 
L 376.796503 42.076922 
L 378.559949 40.838703 
L 380.323395 40.746628 
L 382.086841 40.426698 
L 383.850286 39.164327 
L 385.613732 39.178362 
L 387.377178 41.045269 
L 389.140623 40.984474 
L 390.904069 41.838987 
L 392.667515 41.856801 
L 394.43096 41.580446 
L 396.194406 40.224828 
L 397.957852 41.785503 
L 399.721297 39.471966 
L 401.484743 38.823497 
L 401.484743 38.823497 
" clip-path="url(#pcc8bc4381b)" style="fill: none; stroke: #730000; stroke-width: 0.8; stroke-linecap: square"/>
   </g>
   <g id="line2d_6">
    <path d="M 48.795606 159.998057 
L 50.559051 139.328661 
L 52.322497 121.383696 
L 54.085943 105.801838 
L 55.849388 92.270958 
L 57.612834 80.521227 
L 59.37628 70.319205 
L 61.139725 61.462789 
L 62.903171 53.776874 
L 64.666617 47.109632 
L 66.430062 41.329325 
L 68.193508 36.321559 
L 69.956954 31.986933 
L 71.720399 28.239009 
L 73.483845 25.002574 
L 75.247291 22.212131 
L 77.010737 19.810617 
L 78.774182 17.748275 
L 80.537628 15.981701 
L 82.301074 14.473004 
L 84.064519 13.189096 
L 85.827965 12.101062 
L 87.591411 11.183624 
L 89.354856 10.414677 
L 92.881748 9.247307 
L 96.408639 8.471415 
L 99.93553 7.989242 
L 103.462422 7.72583 
L 108.752759 7.618955 
L 114.043096 7.737707 
L 122.860324 8.197272 
L 156.365792 10.235998 
L 172.236804 10.870483 
L 189.871261 11.334367 
L 211.032609 11.662037 
L 241.011186 11.885829 
L 292.15111 12.005018 
L 401.484743 12.034652 
L 401.484743 12.034652 
" clip-path="url(#pcc8bc4381b)" style="fill: none; stroke: #ffffff; stroke-width: 4; stroke-linecap: square"/>
    <path d="M 48.795606 159.998057 
L 50.559051 139.328661 
L 52.322497 121.383696 
L 54.085943 105.801838 
L 55.849388 92.270958 
L 57.612834 80.521227 
L 59.37628 70.319205 
L 61.139725 61.462789 
L 62.903171 53.776874 
L 64.666617 47.109632 
L 66.430062 41.329325 
L 68.193508 36.321559 
L 69.956954 31.986933 
L 71.720399 28.239009 
L 73.483845 25.002574 
L 75.247291 22.212131 
L 77.010737 19.810617 
L 78.774182 17.748275 
L 80.537628 15.981701 
L 82.301074 14.473004 
L 84.064519 13.189096 
L 85.827965 12.101062 
L 87.591411 11.183624 
L 89.354856 10.414677 
L 92.881748 9.247307 
L 96.408639 8.471415 
L 99.93553 7.989242 
L 103.462422 7.72583 
L 108.752759 7.618955 
L 114.043096 7.737707 
L 122.860324 8.197272 
L 156.365792 10.235998 
L 172.236804 10.870483 
L 189.871261 11.334367 
L 211.032609 11.662037 
L 241.011186 11.885829 
L 292.15111 12.005018 
L 401.484743 12.034652 
L 401.484743 12.034652 
" clip-path="url(#pcc8bc4381b)" style="fill: none; stroke: #2ca02c; stroke-width: 0.8; stroke-linecap: square"/>
   </g>
   <g id="line2d_7">
    <path d="M 48.795606 159.998058 
L 50.559051 152.597337 
L 52.322497 142.179455 
L 54.085943 137.9296 
L 55.849388 129.511964 
L 57.612834 126.724031 
L 59.37628 122.266172 
L 61.139725 118.21537 
L 64.666617 113.517606 
L 66.430062 112.073198 
L 68.193508 109.716585 
L 69.956954 108.583737 
L 71.720399 105.66804 
L 73.483845 104.178113 
L 78.774182 97.190377 
L 80.537628 96.308764 
L 82.301074 94.570864 
L 85.827965 92.769447 
L 87.591411 90.776098 
L 89.354856 90.006027 
L 92.881748 89.362455 
L 94.645193 87.839754 
L 96.408639 87.059786 
L 99.93553 84.026878 
L 103.462422 83.203673 
L 105.225868 82.248459 
L 106.989313 80.760945 
L 108.752759 79.042901 
L 112.27965 78.049073 
L 114.043096 77.02262 
L 115.806542 76.417358 
L 117.569987 77.075576 
L 119.333433 75.979169 
L 121.096879 74.461446 
L 122.860324 75.361199 
L 126.387216 72.495235 
L 128.150661 71.505284 
L 129.914107 70.761788 
L 131.677553 70.75183 
L 133.440999 69.315742 
L 135.204444 68.060561 
L 136.96789 67.510975 
L 138.731336 66.639405 
L 140.494781 66.185875 
L 142.258227 66.737974 
L 144.021673 66.055381 
L 145.785118 65.830399 
L 147.548564 67.470384 
L 149.31201 67.359933 
L 151.075455 67.122985 
L 152.838901 66.572963 
L 154.602347 66.524155 
L 156.365792 66.054936 
L 158.129238 66.921497 
L 159.892684 66.268161 
L 161.65613 65.737087 
L 163.419575 64.970019 
L 165.183021 63.671821 
L 166.946467 63.035125 
L 168.709912 63.136662 
L 170.473358 64.007116 
L 172.236804 63.568401 
L 174.000249 62.938109 
L 175.763695 62.108467 
L 177.527141 61.960917 
L 179.290586 61.376313 
L 181.054032 61.093005 
L 184.580923 60.179859 
L 186.344369 59.413901 
L 188.107815 58.456053 
L 189.871261 57.791813 
L 191.634706 57.263267 
L 193.398152 58.494834 
L 195.161598 58.956467 
L 196.925043 58.154227 
L 198.688489 57.903409 
L 200.451935 57.90863 
L 202.21538 58.360634 
L 205.742272 57.286457 
L 207.505717 56.958028 
L 209.269163 57.172764 
L 211.032609 57.59602 
L 212.796054 57.769682 
L 214.5595 57.756956 
L 216.322946 57.150593 
L 218.086392 56.693523 
L 219.849837 56.693734 
L 221.613283 56.45128 
L 223.376729 56.993946 
L 225.140174 56.547422 
L 226.90362 56.302964 
L 228.667066 55.75797 
L 230.430511 55.501784 
L 232.193957 55.083285 
L 233.957403 55.030157 
L 235.720848 55.435202 
L 237.484294 55.337622 
L 239.24774 54.855718 
L 241.011186 54.867992 
L 242.774631 54.314066 
L 244.538077 54.166386 
L 248.064968 53.196304 
L 249.828414 52.396075 
L 251.59186 53.603403 
L 253.355305 52.948492 
L 255.118751 53.287999 
L 256.882197 52.96194 
L 258.645642 53.129637 
L 260.409088 51.996203 
L 262.172534 53.597523 
L 263.935979 53.315318 
L 265.699425 53.872938 
L 270.989762 52.451531 
L 272.753208 51.79503 
L 274.516654 51.01708 
L 276.280099 52.331898 
L 278.043545 52.084167 
L 279.806991 54.158092 
L 281.570436 54.545847 
L 283.333882 54.162052 
L 285.097328 53.894088 
L 286.860773 53.488258 
L 290.387665 52.956087 
L 292.15111 52.450141 
L 293.914556 52.4729 
L 295.678002 53.156246 
L 297.441448 53.077319 
L 300.968339 52.075038 
L 302.731785 51.927429 
L 304.49523 51.597202 
L 306.258676 51.068444 
L 308.022122 52.390382 
L 309.785567 52.11576 
L 311.549013 52.034127 
L 313.312459 52.945175 
L 315.075904 52.518879 
L 316.83935 51.497912 
L 323.893133 49.780415 
L 327.420024 49.167107 
L 329.18347 48.87429 
L 330.946916 49.310612 
L 332.710361 48.525964 
L 334.473807 49.17959 
L 336.237253 49.689894 
L 341.52759 50.084342 
L 345.054481 49.269176 
L 346.817927 48.620512 
L 348.581372 48.144354 
L 350.344818 48.829453 
L 353.87171 47.985093 
L 355.635155 48.077257 
L 359.162047 47.105647 
L 360.925492 46.199555 
L 362.688938 46.215106 
L 364.452384 45.889106 
L 366.215829 45.278358 
L 367.979275 45.549329 
L 369.742721 45.356465 
L 371.506166 46.579489 
L 373.269612 46.945929 
L 375.033058 47.101483 
L 376.796503 46.778205 
L 378.559949 47.372349 
L 380.323395 48.409023 
L 382.086841 48.057408 
L 385.613732 48.197049 
L 387.377178 48.424287 
L 389.140623 47.860508 
L 392.667515 49.919191 
L 396.194406 49.179765 
L 397.957852 49.07434 
L 399.721297 49.588739 
L 401.484743 49.423516 
L 401.484743 49.423516 
" clip-path="url(#pcc8bc4381b)" style="fill: none; stroke: #ffffff; stroke-width: 4; stroke-linecap: square"/>
    <path d="M 48.795606 159.998058 
L 50.559051 152.597337 
L 52.322497 142.179455 
L 54.085943 137.9296 
L 55.849388 129.511964 
L 57.612834 126.724031 
L 59.37628 122.266172 
L 61.139725 118.21537 
L 64.666617 113.517606 
L 66.430062 112.073198 
L 68.193508 109.716585 
L 69.956954 108.583737 
L 71.720399 105.66804 
L 73.483845 104.178113 
L 78.774182 97.190377 
L 80.537628 96.308764 
L 82.301074 94.570864 
L 85.827965 92.769447 
L 87.591411 90.776098 
L 89.354856 90.006027 
L 92.881748 89.362455 
L 94.645193 87.839754 
L 96.408639 87.059786 
L 99.93553 84.026878 
L 103.462422 83.203673 
L 105.225868 82.248459 
L 106.989313 80.760945 
L 108.752759 79.042901 
L 112.27965 78.049073 
L 114.043096 77.02262 
L 115.806542 76.417358 
L 117.569987 77.075576 
L 119.333433 75.979169 
L 121.096879 74.461446 
L 122.860324 75.361199 
L 126.387216 72.495235 
L 128.150661 71.505284 
L 129.914107 70.761788 
L 131.677553 70.75183 
L 133.440999 69.315742 
L 135.204444 68.060561 
L 136.96789 67.510975 
L 138.731336 66.639405 
L 140.494781 66.185875 
L 142.258227 66.737974 
L 144.021673 66.055381 
L 145.785118 65.830399 
L 147.548564 67.470384 
L 149.31201 67.359933 
L 151.075455 67.122985 
L 152.838901 66.572963 
L 154.602347 66.524155 
L 156.365792 66.054936 
L 158.129238 66.921497 
L 159.892684 66.268161 
L 161.65613 65.737087 
L 163.419575 64.970019 
L 165.183021 63.671821 
L 166.946467 63.035125 
L 168.709912 63.136662 
L 170.473358 64.007116 
L 172.236804 63.568401 
L 174.000249 62.938109 
L 175.763695 62.108467 
L 177.527141 61.960917 
L 179.290586 61.376313 
L 181.054032 61.093005 
L 184.580923 60.179859 
L 186.344369 59.413901 
L 188.107815 58.456053 
L 189.871261 57.791813 
L 191.634706 57.263267 
L 193.398152 58.494834 
L 195.161598 58.956467 
L 196.925043 58.154227 
L 198.688489 57.903409 
L 200.451935 57.90863 
L 202.21538 58.360634 
L 205.742272 57.286457 
L 207.505717 56.958028 
L 209.269163 57.172764 
L 211.032609 57.59602 
L 212.796054 57.769682 
L 214.5595 57.756956 
L 216.322946 57.150593 
L 218.086392 56.693523 
L 219.849837 56.693734 
L 221.613283 56.45128 
L 223.376729 56.993946 
L 225.140174 56.547422 
L 226.90362 56.302964 
L 228.667066 55.75797 
L 230.430511 55.501784 
L 232.193957 55.083285 
L 233.957403 55.030157 
L 235.720848 55.435202 
L 237.484294 55.337622 
L 239.24774 54.855718 
L 241.011186 54.867992 
L 242.774631 54.314066 
L 244.538077 54.166386 
L 248.064968 53.196304 
L 249.828414 52.396075 
L 251.59186 53.603403 
L 253.355305 52.948492 
L 255.118751 53.287999 
L 256.882197 52.96194 
L 258.645642 53.129637 
L 260.409088 51.996203 
L 262.172534 53.597523 
L 263.935979 53.315318 
L 265.699425 53.872938 
L 270.989762 52.451531 
L 272.753208 51.79503 
L 274.516654 51.01708 
L 276.280099 52.331898 
L 278.043545 52.084167 
L 279.806991 54.158092 
L 281.570436 54.545847 
L 283.333882 54.162052 
L 285.097328 53.894088 
L 286.860773 53.488258 
L 290.387665 52.956087 
L 292.15111 52.450141 
L 293.914556 52.4729 
L 295.678002 53.156246 
L 297.441448 53.077319 
L 300.968339 52.075038 
L 302.731785 51.927429 
L 304.49523 51.597202 
L 306.258676 51.068444 
L 308.022122 52.390382 
L 309.785567 52.11576 
L 311.549013 52.034127 
L 313.312459 52.945175 
L 315.075904 52.518879 
L 316.83935 51.497912 
L 323.893133 49.780415 
L 327.420024 49.167107 
L 329.18347 48.87429 
L 330.946916 49.310612 
L 332.710361 48.525964 
L 334.473807 49.17959 
L 336.237253 49.689894 
L 341.52759 50.084342 
L 345.054481 49.269176 
L 346.817927 48.620512 
L 348.581372 48.144354 
L 350.344818 48.829453 
L 353.87171 47.985093 
L 355.635155 48.077257 
L 359.162047 47.105647 
L 360.925492 46.199555 
L 362.688938 46.215106 
L 364.452384 45.889106 
L 366.215829 45.278358 
L 367.979275 45.549329 
L 369.742721 45.356465 
L 371.506166 46.579489 
L 373.269612 46.945929 
L 375.033058 47.101483 
L 376.796503 46.778205 
L 378.559949 47.372349 
L 380.323395 48.409023 
L 382.086841 48.057408 
L 385.613732 48.197049 
L 387.377178 48.424287 
L 389.140623 47.860508 
L 392.667515 49.919191 
L 396.194406 49.179765 
L 397.957852 49.07434 
L 399.721297 49.588739 
L 401.484743 49.423516 
L 401.484743 49.423516 
" clip-path="url(#pcc8bc4381b)" style="fill: none; stroke: #ff7f0e; stroke-width: 0.8; stroke-linecap: square"/>
   </g>
   <g id="matplotlib.axis_1">
    <g id="xtick_1">
     <g id="line2d_8">
      <defs>
       <path id="m2fd06e8321" d="M 0 0 
L 0 -2.551 
" style="stroke: #000000; stroke-width: 0.8"/>
      </defs>
      <g>
       <use xlink:href="#m2fd06e8321" x="48.795606" y="159.998056" style="stroke: #000000; stroke-width: 0.8"/>
      </g>
     </g>
     <g id="text_1">
      <!-- $\mathdefault{0}$ -->
      <g transform="translate(45.86911 171.800236) scale(0.12 -0.12)">
       <defs>
        <path id="CMR17-30" d="M 2688 2025 
C 2688 2416 2682 3080 2413 3591 
C 2176 4039 1798 4198 1466 4198 
C 1158 4198 768 4058 525 3597 
C 269 3118 243 2524 243 2025 
C 243 1661 250 1106 448 619 
C 723 -39 1216 -128 1466 -128 
C 1760 -128 2208 -7 2470 600 
C 2662 1042 2688 1559 2688 2025 
z
M 1466 -26 
C 1056 -26 813 325 723 812 
C 653 1188 653 1738 653 2096 
C 653 2588 653 2997 736 3387 
C 858 3929 1216 4096 1466 4096 
C 1728 4096 2067 3923 2189 3400 
C 2272 3036 2278 2607 2278 2096 
C 2278 1680 2278 1169 2202 792 
C 2067 95 1690 -26 1466 -26 
z
" transform="scale(0.015625)"/>
       </defs>
       <use xlink:href="#CMR17-30" transform="scale(0.996264)"/>
      </g>
     </g>
    </g>
    <g id="xtick_2">
     <g id="line2d_9">
      <g>
       <use xlink:href="#m2fd06e8321" x="92.881748" y="159.998056" style="stroke: #000000; stroke-width: 0.8"/>
      </g>
     </g>
     <g id="text_2">
      <!-- $\mathdefault{25}$ -->
      <g transform="translate(87.028757 171.800236) scale(0.12 -0.12)">
       <defs>
        <path id="CMR17-32" d="M 2669 989 
L 2554 989 
C 2490 536 2438 459 2413 420 
C 2381 369 1920 369 1830 369 
L 602 369 
C 832 619 1280 1072 1824 1597 
C 2214 1967 2669 2402 2669 3035 
C 2669 3790 2067 4224 1395 4224 
C 691 4224 262 3604 262 3030 
C 262 2780 448 2748 525 2748 
C 589 2748 781 2787 781 3010 
C 781 3207 614 3264 525 3264 
C 486 3264 448 3258 422 3245 
C 544 3790 915 4058 1306 4058 
C 1862 4058 2227 3617 2227 3035 
C 2227 2479 1901 2000 1536 1584 
L 262 146 
L 262 0 
L 2515 0 
L 2669 989 
z
" transform="scale(0.015625)"/>
        <path id="CMR17-35" d="M 730 3692 
C 794 3666 1056 3584 1325 3584 
C 1920 3584 2246 3911 2432 4100 
C 2432 4157 2432 4192 2394 4192 
C 2387 4192 2374 4192 2323 4163 
C 2099 4058 1837 3973 1517 3973 
C 1325 3973 1037 3999 723 4139 
C 653 4171 640 4171 634 4171 
C 602 4171 595 4164 595 4037 
L 595 2203 
C 595 2089 595 2057 659 2057 
C 691 2057 704 2070 736 2114 
C 941 2401 1222 2522 1542 2522 
C 1766 2522 2246 2382 2246 1289 
C 2246 1085 2246 715 2054 421 
C 1894 159 1645 25 1370 25 
C 947 25 518 320 403 814 
C 429 807 480 795 506 795 
C 589 795 749 840 749 1038 
C 749 1210 627 1280 506 1280 
C 358 1280 262 1190 262 1011 
C 262 454 704 -128 1382 -128 
C 2042 -128 2669 440 2669 1264 
C 2669 2030 2170 2624 1549 2624 
C 1222 2624 947 2503 730 2274 
L 730 3692 
z
" transform="scale(0.015625)"/>
       </defs>
       <use xlink:href="#CMR17-32" transform="scale(0.996264)"/>
       <use xlink:href="#CMR17-35" transform="translate(45.690477 0) scale(0.996264)"/>
      </g>
     </g>
    </g>
    <g id="xtick_3">
     <g id="line2d_10">
      <g>
       <use xlink:href="#m2fd06e8321" x="136.96789" y="159.998056" style="stroke: #000000; stroke-width: 0.8"/>
      </g>
     </g>
     <g id="text_3">
      <!-- $\mathdefault{50}$ -->
      <g transform="translate(131.1149 171.800236) scale(0.12 -0.12)">
       <use xlink:href="#CMR17-35" transform="scale(0.996264)"/>
       <use xlink:href="#CMR17-30" transform="translate(45.690477 0) scale(0.996264)"/>
      </g>
     </g>
    </g>
    <g id="xtick_4">
     <g id="line2d_11">
      <g>
       <use xlink:href="#m2fd06e8321" x="181.054032" y="159.998056" style="stroke: #000000; stroke-width: 0.8"/>
      </g>
     </g>
     <g id="text_4">
      <!-- $\mathdefault{75}$ -->
      <g transform="translate(175.201042 171.800236) scale(0.12 -0.12)">
       <defs>
        <path id="CMR17-37" d="M 2886 3941 
L 2886 4081 
L 1382 4081 
C 634 4081 621 4165 595 4288 
L 480 4288 
L 294 3094 
L 410 3094 
C 429 3215 474 3540 550 3661 
C 589 3712 1062 3712 1171 3712 
L 2579 3712 
L 1869 2661 
C 1395 1954 1069 999 1069 165 
C 1069 89 1069 -128 1299 -128 
C 1530 -128 1530 89 1530 171 
L 1530 465 
C 1530 1508 1709 2196 2003 2636 
L 2886 3941 
z
" transform="scale(0.015625)"/>
       </defs>
       <use xlink:href="#CMR17-37" transform="scale(0.996264)"/>
       <use xlink:href="#CMR17-35" transform="translate(45.690477 0) scale(0.996264)"/>
      </g>
     </g>
    </g>
    <g id="xtick_5">
     <g id="line2d_12">
      <g>
       <use xlink:href="#m2fd06e8321" x="225.140174" y="159.998056" style="stroke: #000000; stroke-width: 0.8"/>
      </g>
     </g>
     <g id="text_5">
      <!-- $\mathdefault{100}$ -->
      <g transform="translate(216.360689 171.800236) scale(0.12 -0.12)">
       <defs>
        <path id="CMR17-31" d="M 1702 4058 
C 1702 4192 1696 4192 1606 4192 
C 1357 3916 979 3827 621 3827 
C 602 3827 570 3827 563 3808 
C 557 3795 557 3782 557 3648 
C 755 3648 1088 3686 1344 3839 
L 1344 461 
C 1344 236 1331 160 781 160 
L 589 160 
L 589 0 
C 896 0 1216 0 1523 0 
C 1830 0 2150 0 2458 0 
L 2458 160 
L 2266 160 
C 1715 160 1702 230 1702 458 
L 1702 4058 
z
" transform="scale(0.015625)"/>
       </defs>
       <use xlink:href="#CMR17-31" transform="scale(0.996264)"/>
       <use xlink:href="#CMR17-30" transform="translate(45.690477 0) scale(0.996264)"/>
       <use xlink:href="#CMR17-30" transform="translate(91.380954 0) scale(0.996264)"/>
      </g>
     </g>
    </g>
    <g id="xtick_6">
     <g id="line2d_13">
      <g>
       <use xlink:href="#m2fd06e8321" x="269.226317" y="159.998056" style="stroke: #000000; stroke-width: 0.8"/>
      </g>
     </g>
     <g id="text_6">
      <!-- $\mathdefault{125}$ -->
      <g transform="translate(260.446831 171.800236) scale(0.12 -0.12)">
       <use xlink:href="#CMR17-31" transform="scale(0.996264)"/>
       <use xlink:href="#CMR17-32" transform="translate(45.690477 0) scale(0.996264)"/>
       <use xlink:href="#CMR17-35" transform="translate(91.380954 0) scale(0.996264)"/>
      </g>
     </g>
    </g>
    <g id="xtick_7">
     <g id="line2d_14">
      <g>
       <use xlink:href="#m2fd06e8321" x="313.312459" y="159.998056" style="stroke: #000000; stroke-width: 0.8"/>
      </g>
     </g>
     <g id="text_7">
      <!-- $\mathdefault{150}$ -->
      <g transform="translate(304.532973 171.800236) scale(0.12 -0.12)">
       <use xlink:href="#CMR17-31" transform="scale(0.996264)"/>
       <use xlink:href="#CMR17-35" transform="translate(45.690477 0) scale(0.996264)"/>
       <use xlink:href="#CMR17-30" transform="translate(91.380954 0) scale(0.996264)"/>
      </g>
     </g>
    </g>
    <g id="xtick_8">
     <g id="line2d_15">
      <g>
       <use xlink:href="#m2fd06e8321" x="357.398601" y="159.998056" style="stroke: #000000; stroke-width: 0.8"/>
      </g>
     </g>
     <g id="text_8">
      <!-- $\mathdefault{175}$ -->
      <g transform="translate(348.619116 171.800236) scale(0.12 -0.12)">
       <use xlink:href="#CMR17-31" transform="scale(0.996264)"/>
       <use xlink:href="#CMR17-37" transform="translate(45.690477 0) scale(0.996264)"/>
       <use xlink:href="#CMR17-35" transform="translate(91.380954 0) scale(0.996264)"/>
      </g>
     </g>
    </g>
    <g id="xtick_9">
     <g id="line2d_16">
      <g>
       <use xlink:href="#m2fd06e8321" x="401.484743" y="159.998056" style="stroke: #000000; stroke-width: 0.8"/>
      </g>
     </g>
     <g id="text_9">
      <!-- $\mathdefault{200}$ -->
      <g transform="translate(392.705258 171.800236) scale(0.12 -0.12)">
       <use xlink:href="#CMR17-32" transform="scale(0.996264)"/>
       <use xlink:href="#CMR17-30" transform="translate(45.690477 0) scale(0.996264)"/>
       <use xlink:href="#CMR17-30" transform="translate(91.380954 0) scale(0.996264)"/>
      </g>
     </g>
    </g>
    <g id="xtick_10">
     <g id="line2d_17">
      <defs>
       <path id="m2943b13c44" d="M 0 0 
L 0 -1.417 
" style="stroke: #000000; stroke-width: 0.8"/>
      </defs>
      <g>
       <use xlink:href="#m2943b13c44" x="31.161149" y="159.998056" style="stroke: #000000; stroke-width: 0.8"/>
      </g>
     </g>
    </g>
    <g id="xtick_11">
     <g id="line2d_18">
      <g>
       <use xlink:href="#m2943b13c44" x="39.978377" y="159.998056" style="stroke: #000000; stroke-width: 0.8"/>
      </g>
     </g>
    </g>
    <g id="xtick_12">
     <g id="line2d_19">
      <g>
       <use xlink:href="#m2943b13c44" x="57.612834" y="159.998056" style="stroke: #000000; stroke-width: 0.8"/>
      </g>
     </g>
    </g>
    <g id="xtick_13">
     <g id="line2d_20">
      <g>
       <use xlink:href="#m2943b13c44" x="66.430062" y="159.998056" style="stroke: #000000; stroke-width: 0.8"/>
      </g>
     </g>
    </g>
    <g id="xtick_14">
     <g id="line2d_21">
      <g>
       <use xlink:href="#m2943b13c44" x="75.247291" y="159.998056" style="stroke: #000000; stroke-width: 0.8"/>
      </g>
     </g>
    </g>
    <g id="xtick_15">
     <g id="line2d_22">
      <g>
       <use xlink:href="#m2943b13c44" x="84.064519" y="159.998056" style="stroke: #000000; stroke-width: 0.8"/>
      </g>
     </g>
    </g>
    <g id="xtick_16">
     <g id="line2d_23">
      <g>
       <use xlink:href="#m2943b13c44" x="101.698976" y="159.998056" style="stroke: #000000; stroke-width: 0.8"/>
      </g>
     </g>
    </g>
    <g id="xtick_17">
     <g id="line2d_24">
      <g>
       <use xlink:href="#m2943b13c44" x="110.516205" y="159.998056" style="stroke: #000000; stroke-width: 0.8"/>
      </g>
     </g>
    </g>
    <g id="xtick_18">
     <g id="line2d_25">
      <g>
       <use xlink:href="#m2943b13c44" x="119.333433" y="159.998056" style="stroke: #000000; stroke-width: 0.8"/>
      </g>
     </g>
    </g>
    <g id="xtick_19">
     <g id="line2d_26">
      <g>
       <use xlink:href="#m2943b13c44" x="128.150661" y="159.998056" style="stroke: #000000; stroke-width: 0.8"/>
      </g>
     </g>
    </g>
    <g id="xtick_20">
     <g id="line2d_27">
      <g>
       <use xlink:href="#m2943b13c44" x="145.785118" y="159.998056" style="stroke: #000000; stroke-width: 0.8"/>
      </g>
     </g>
    </g>
    <g id="xtick_21">
     <g id="line2d_28">
      <g>
       <use xlink:href="#m2943b13c44" x="154.602347" y="159.998056" style="stroke: #000000; stroke-width: 0.8"/>
      </g>
     </g>
    </g>
    <g id="xtick_22">
     <g id="line2d_29">
      <g>
       <use xlink:href="#m2943b13c44" x="163.419575" y="159.998056" style="stroke: #000000; stroke-width: 0.8"/>
      </g>
     </g>
    </g>
    <g id="xtick_23">
     <g id="line2d_30">
      <g>
       <use xlink:href="#m2943b13c44" x="172.236804" y="159.998056" style="stroke: #000000; stroke-width: 0.8"/>
      </g>
     </g>
    </g>
    <g id="xtick_24">
     <g id="line2d_31">
      <g>
       <use xlink:href="#m2943b13c44" x="189.871261" y="159.998056" style="stroke: #000000; stroke-width: 0.8"/>
      </g>
     </g>
    </g>
    <g id="xtick_25">
     <g id="line2d_32">
      <g>
       <use xlink:href="#m2943b13c44" x="198.688489" y="159.998056" style="stroke: #000000; stroke-width: 0.8"/>
      </g>
     </g>
    </g>
    <g id="xtick_26">
     <g id="line2d_33">
      <g>
       <use xlink:href="#m2943b13c44" x="207.505717" y="159.998056" style="stroke: #000000; stroke-width: 0.8"/>
      </g>
     </g>
    </g>
    <g id="xtick_27">
     <g id="line2d_34">
      <g>
       <use xlink:href="#m2943b13c44" x="216.322946" y="159.998056" style="stroke: #000000; stroke-width: 0.8"/>
      </g>
     </g>
    </g>
    <g id="xtick_28">
     <g id="line2d_35">
      <g>
       <use xlink:href="#m2943b13c44" x="233.957403" y="159.998056" style="stroke: #000000; stroke-width: 0.8"/>
      </g>
     </g>
    </g>
    <g id="xtick_29">
     <g id="line2d_36">
      <g>
       <use xlink:href="#m2943b13c44" x="242.774631" y="159.998056" style="stroke: #000000; stroke-width: 0.8"/>
      </g>
     </g>
    </g>
    <g id="xtick_30">
     <g id="line2d_37">
      <g>
       <use xlink:href="#m2943b13c44" x="251.59186" y="159.998056" style="stroke: #000000; stroke-width: 0.8"/>
      </g>
     </g>
    </g>
    <g id="xtick_31">
     <g id="line2d_38">
      <g>
       <use xlink:href="#m2943b13c44" x="260.409088" y="159.998056" style="stroke: #000000; stroke-width: 0.8"/>
      </g>
     </g>
    </g>
    <g id="xtick_32">
     <g id="line2d_39">
      <g>
       <use xlink:href="#m2943b13c44" x="278.043545" y="159.998056" style="stroke: #000000; stroke-width: 0.8"/>
      </g>
     </g>
    </g>
    <g id="xtick_33">
     <g id="line2d_40">
      <g>
       <use xlink:href="#m2943b13c44" x="286.860773" y="159.998056" style="stroke: #000000; stroke-width: 0.8"/>
      </g>
     </g>
    </g>
    <g id="xtick_34">
     <g id="line2d_41">
      <g>
       <use xlink:href="#m2943b13c44" x="295.678002" y="159.998056" style="stroke: #000000; stroke-width: 0.8"/>
      </g>
     </g>
    </g>
    <g id="xtick_35">
     <g id="line2d_42">
      <g>
       <use xlink:href="#m2943b13c44" x="304.49523" y="159.998056" style="stroke: #000000; stroke-width: 0.8"/>
      </g>
     </g>
    </g>
    <g id="xtick_36">
     <g id="line2d_43">
      <g>
       <use xlink:href="#m2943b13c44" x="322.129687" y="159.998056" style="stroke: #000000; stroke-width: 0.8"/>
      </g>
     </g>
    </g>
    <g id="xtick_37">
     <g id="line2d_44">
      <g>
       <use xlink:href="#m2943b13c44" x="330.946916" y="159.998056" style="stroke: #000000; stroke-width: 0.8"/>
      </g>
     </g>
    </g>
    <g id="xtick_38">
     <g id="line2d_45">
      <g>
       <use xlink:href="#m2943b13c44" x="339.764144" y="159.998056" style="stroke: #000000; stroke-width: 0.8"/>
      </g>
     </g>
    </g>
    <g id="xtick_39">
     <g id="line2d_46">
      <g>
       <use xlink:href="#m2943b13c44" x="348.581372" y="159.998056" style="stroke: #000000; stroke-width: 0.8"/>
      </g>
     </g>
    </g>
    <g id="xtick_40">
     <g id="line2d_47">
      <g>
       <use xlink:href="#m2943b13c44" x="366.215829" y="159.998056" style="stroke: #000000; stroke-width: 0.8"/>
      </g>
     </g>
    </g>
    <g id="xtick_41">
     <g id="line2d_48">
      <g>
       <use xlink:href="#m2943b13c44" x="375.033058" y="159.998056" style="stroke: #000000; stroke-width: 0.8"/>
      </g>
     </g>
    </g>
    <g id="xtick_42">
     <g id="line2d_49">
      <g>
       <use xlink:href="#m2943b13c44" x="383.850286" y="159.998056" style="stroke: #000000; stroke-width: 0.8"/>
      </g>
     </g>
    </g>
    <g id="xtick_43">
     <g id="line2d_50">
      <g>
       <use xlink:href="#m2943b13c44" x="392.667515" y="159.998056" style="stroke: #000000; stroke-width: 0.8"/>
      </g>
     </g>
    </g>
    <g id="xtick_44">
     <g id="line2d_51">
      <g>
       <use xlink:href="#m2943b13c44" x="410.301972" y="159.998056" style="stroke: #000000; stroke-width: 0.8"/>
      </g>
     </g>
    </g>
    <g id="xtick_45">
     <g id="line2d_52">
      <g>
       <use xlink:href="#m2943b13c44" x="419.1192" y="159.998056" style="stroke: #000000; stroke-width: 0.8"/>
      </g>
     </g>
    </g>
    <g id="text_10">
     <!-- $\textrm{evaluation timestep }t\textrm{ (arb.)}$ -->
     <g transform="translate(154.546609 187.091208) scale(0.12 -0.12)">
      <defs>
       <path id="CMR17-65" d="M 2438 1472 
C 2464 1498 2464 1511 2464 1576 
C 2464 2238 2118 2816 1389 2816 
C 710 2816 173 2169 173 1383 
C 173 551 781 -64 1459 -64 
C 2176 -64 2458 607 2458 740 
C 2458 784 2419 784 2406 784 
C 2362 784 2355 771 2330 696 
C 2189 265 1837 51 1504 51 
C 1229 51 954 203 781 480 
C 582 803 582 1176 582 1472 
L 2438 1472 
z
M 589 1568 
C 634 2505 1126 2714 1382 2714 
C 1818 2714 2112 2297 2118 1568 
L 589 1568 
z
" transform="scale(0.015625)"/>
       <path id="CMR17-76" d="M 2502 2163 
C 2560 2304 2662 2560 3034 2560 
L 3034 2726 
C 2912 2726 2752 2726 2630 2726 
C 2496 2726 2285 2726 2157 2732 
L 2157 2566 
C 2317 2553 2406 2477 2406 2311 
C 2406 2253 2406 2240 2368 2151 
L 1664 377 
L 902 2286 
C 864 2369 864 2381 864 2407 
C 864 2560 1075 2560 1171 2560 
L 1171 2732 
C 1018 2726 736 2726 576 2726 
C 403 2726 205 2726 64 2732 
L 64 2560 
C 307 2560 442 2560 518 2362 
L 1446 44 
C 1485 -51 1491 -64 1549 -64 
C 1606 -64 1613 -51 1651 44 
L 2502 2163 
z
" transform="scale(0.015625)"/>
       <path id="CMR17-61" d="M 2304 1653 
C 2304 2072 2304 2294 2035 2543 
C 1798 2752 1523 2816 1306 2816 
C 800 2816 435 2407 435 1971 
C 435 1728 627 1728 666 1728 
C 749 1728 896 1778 896 1954 
C 896 2112 774 2181 666 2181 
C 640 2181 608 2174 589 2168 
C 723 2592 1069 2714 1293 2714 
C 1613 2714 1965 2429 1965 1885 
L 1965 1600 
C 1587 1600 1133 1549 774 1357 
C 371 1133 256 813 256 570 
C 256 77 832 -64 1171 -64 
C 1523 -64 1850 139 1990 511 
C 2003 233 2182 -18 2464 -18 
C 2598 -18 2938 70 2938 567 
L 2938 920 
L 2822 920 
L 2822 562 
C 2822 178 2650 128 2566 128 
C 2304 128 2304 458 2304 738 
L 2304 1653 
z
M 1965 870 
C 1965 317 1568 38 1216 38 
C 896 38 646 275 646 570 
C 646 761 730 1100 1101 1305 
C 1408 1478 1760 1504 1965 1504 
L 1965 870 
z
" transform="scale(0.015625)"/>
       <path id="CMR17-6c" d="M 979 4396 
L 218 4326 
L 218 4160 
C 595 4160 653 4122 653 3817 
L 653 426 
C 653 184 627 153 218 153 
L 218 -13 
C 371 0 653 0 813 0 
C 979 0 1261 0 1414 -13 
L 1414 153 
C 1005 153 979 178 979 426 
L 979 4396 
z
" transform="scale(0.015625)"/>
       <path id="CMR17-75" d="M 1882 2693 
L 1882 2528 
C 2259 2528 2317 2489 2317 2186 
L 2317 1032 
C 2317 500 2029 38 1555 38 
C 1030 38 986 348 986 678 
L 986 2763 
L 211 2693 
L 211 2528 
C 467 2528 640 2528 646 2274 
L 646 1058 
C 646 633 646 361 813 183 
C 896 101 1056 -64 1517 -64 
C 2061 -64 2272 377 2323 506 
L 2330 506 
L 2330 -63 
L 3091 -63 
L 3091 128 
C 2714 128 2656 166 2656 473 
L 2656 2763 
L 1882 2693 
z
" transform="scale(0.015625)"/>
       <path id="CMR17-74" d="M 966 2560 
L 1862 2560 
L 1862 2725 
L 966 2725 
L 966 3904 
L 851 3904 
C 838 3245 614 2668 70 2668 
L 70 2560 
L 627 2560 
L 627 771 
C 627 650 627 -64 1370 -64 
C 1747 -64 1965 306 1965 777 
L 1965 1140 
L 1850 1140 
L 1850 783 
C 1850 344 1677 51 1408 51 
C 1222 51 966 178 966 758 
L 966 2560 
z
" transform="scale(0.015625)"/>
       <path id="CMR17-69" d="M 992 3909 
C 992 4049 877 4170 730 4170 
C 589 4170 467 4056 467 3909 
C 467 3769 582 3648 730 3648 
C 870 3648 992 3763 992 3909 
z
M 243 2706 
L 243 2541 
C 602 2541 653 2502 653 2197 
L 653 427 
C 653 184 627 153 218 153 
L 218 -13 
C 371 0 646 0 806 0 
C 960 0 1222 0 1370 -13 
L 1370 153 
C 992 153 979 191 979 420 
L 979 2776 
L 243 2706 
z
" transform="scale(0.015625)"/>
       <path id="CMR17-6f" d="M 2758 1356 
C 2758 2176 2163 2816 1466 2816 
C 768 2816 173 2176 173 1356 
C 173 551 768 -64 1466 -64 
C 2163 -64 2758 551 2758 1356 
z
M 1466 51 
C 1165 51 909 230 762 480 
C 602 767 582 1126 582 1408 
C 582 1677 595 2010 762 2298 
C 890 2509 1139 2714 1466 2714 
C 1754 2714 1997 2554 2150 2330 
C 2349 2029 2349 1607 2349 1408 
C 2349 1158 2336 775 2163 467 
C 1984 173 1709 51 1466 51 
z
" transform="scale(0.015625)"/>
       <path id="CMR17-6e" d="M 2656 1933 
C 2656 2259 2592 2790 1837 2790 
C 1331 2790 1069 2400 973 2144 
L 966 2144 
L 966 2790 
L 211 2720 
L 211 2554 
C 589 2554 646 2515 646 2208 
L 646 428 
C 646 184 621 153 211 153 
L 211 -13 
C 365 0 646 0 813 0 
C 979 0 1267 0 1421 -13 
L 1421 153 
C 1011 153 986 178 986 428 
L 986 1658 
C 986 2247 1344 2688 1792 2688 
C 2266 2688 2317 2266 2317 1958 
L 2317 428 
C 2317 184 2291 153 1882 153 
L 1882 -13 
C 2035 0 2317 0 2483 0 
C 2650 0 2938 0 3091 -13 
L 3091 153 
C 2682 153 2656 178 2656 428 
L 2656 1933 
z
" transform="scale(0.015625)"/>
       <path id="CMR17-6d" d="M 4326 1933 
C 4326 2252 4269 2790 3507 2790 
C 3072 2790 2771 2496 2656 2151 
L 2650 2151 
C 2573 2676 2195 2790 1837 2790 
C 1331 2790 1069 2400 973 2144 
L 966 2144 
L 966 2790 
L 211 2720 
L 211 2554 
C 589 2554 646 2515 646 2208 
L 646 428 
C 646 184 621 153 211 153 
L 211 -13 
C 365 0 646 0 813 0 
C 979 0 1267 0 1421 -13 
L 1421 153 
C 1011 153 986 178 986 428 
L 986 1658 
C 986 2247 1344 2688 1792 2688 
C 2266 2688 2317 2266 2317 1958 
L 2317 428 
C 2317 184 2291 153 1882 153 
L 1882 -13 
C 2035 0 2317 0 2483 0 
C 2650 0 2938 0 3091 -13 
L 3091 153 
C 2682 153 2656 178 2656 428 
L 2656 1658 
C 2656 2247 3014 2688 3462 2688 
C 3936 2688 3987 2266 3987 1958 
L 3987 428 
C 3987 184 3962 153 3552 153 
L 3552 -13 
C 3706 0 3987 0 4154 0 
C 4320 0 4608 0 4762 -13 
L 4762 153 
C 4352 153 4326 178 4326 428 
L 4326 1933 
z
" transform="scale(0.015625)"/>
       <path id="CMR17-73" d="M 1978 2697 
C 1978 2813 1971 2819 1933 2819 
C 1907 2819 1901 2813 1824 2717 
C 1805 2691 1747 2626 1728 2601 
C 1523 2819 1235 2819 1126 2819 
C 416 2819 160 2447 160 2076 
C 160 1498 813 1365 998 1325 
C 1402 1243 1542 1217 1677 1101 
C 1760 1025 1901 884 1901 654 
C 1901 384 1747 38 1158 38 
C 602 38 403 460 288 1021 
C 269 1110 269 1117 218 1117 
C 166 1117 160 1110 160 983 
L 160 63 
C 160 -51 166 -58 205 -58 
C 237 -58 243 -51 275 0 
C 314 57 410 211 448 276 
C 576 103 800 -64 1158 -64 
C 1792 -64 2131 283 2131 784 
C 2131 1112 1958 1285 1875 1362 
C 1683 1561 1459 1606 1190 1657 
C 838 1735 390 1825 390 2217 
C 390 2383 480 2737 1126 2737 
C 1811 2737 1850 2094 1862 1888 
C 1869 1856 1901 1849 1920 1849 
C 1978 1849 1978 1869 1978 1978 
L 1978 2697 
z
" transform="scale(0.015625)"/>
       <path id="CMR17-70" d="M 1408 -1063 
C 998 -1063 973 -1037 973 -789 
L 973 402 
C 1158 134 1427 -38 1766 -38 
C 2406 -38 3053 523 3053 1388 
C 3053 2191 2496 2802 1837 2802 
C 1453 2802 1139 2592 960 2338 
L 960 2802 
L 198 2732 
L 198 2567 
C 576 2567 634 2528 634 2223 
L 634 -789 
C 634 -1031 608 -1063 198 -1063 
L 198 -1228 
C 352 -1216 634 -1216 800 -1216 
C 966 -1216 1254 -1216 1408 -1228 
L 1408 -1063 
z
M 973 2012 
C 973 2102 973 2235 1222 2471 
C 1254 2497 1472 2688 1792 2688 
C 2259 2688 2643 2108 2643 1382 
C 2643 656 2234 64 1728 64 
C 1498 64 1248 172 1056 472 
C 973 612 973 650 973 752 
L 973 2012 
z
" transform="scale(0.015625)"/>
       <path id="CMMI12-74" d="M 1286 2566 
L 1875 2566 
C 1997 2566 2061 2566 2061 2681 
C 2061 2752 2022 2752 1894 2752 
L 1331 2752 
L 1568 3692 
C 1594 3781 1594 3794 1594 3840 
C 1594 3943 1510 4000 1427 4000 
C 1376 4000 1229 3981 1178 3775 
L 928 2752 
L 326 2752 
C 198 2752 141 2752 141 2630 
C 141 2566 186 2566 307 2566 
L 877 2566 
L 454 881 
C 403 658 384 594 384 511 
C 384 211 595 -64 954 -64 
C 1600 -64 1946 868 1946 912 
C 1946 951 1920 970 1882 970 
C 1869 970 1843 970 1830 944 
C 1824 938 1818 931 1773 829 
C 1638 511 1344 64 973 64 
C 781 64 768 224 768 364 
C 768 370 768 492 787 568 
L 1286 2566 
z
" transform="scale(0.015625)"/>
       <path id="CMR17-28" d="M 1958 -1561 
C 1958 -1555 1958 -1542 1939 -1523 
C 1645 -1224 858 -407 858 1581 
C 858 3569 1632 4379 1946 4697 
C 1946 4704 1958 4717 1958 4736 
C 1958 4755 1939 4768 1914 4768 
C 1843 4768 1299 4296 986 3594 
C 666 2887 576 2199 576 1588 
C 576 1128 621 351 1005 -471 
C 1312 -1135 1837 -1600 1914 -1600 
C 1946 -1600 1958 -1587 1958 -1561 
z
" transform="scale(0.015625)"/>
       <path id="CMR17-72" d="M 960 1497 
C 960 2112 1222 2688 1702 2688 
C 1747 2688 1792 2682 1837 2662 
C 1837 2662 1696 2617 1696 2452 
C 1696 2298 1818 2234 1914 2234 
C 1990 2234 2131 2279 2131 2458 
C 2131 2663 1926 2790 1709 2790 
C 1222 2790 1011 2317 947 2093 
L 941 2093 
L 941 2790 
L 198 2720 
L 198 2554 
C 576 2554 634 2515 634 2208 
L 634 428 
C 634 184 608 153 198 153 
L 198 -13 
C 352 0 646 0 813 0 
C 998 0 1325 0 1498 -13 
L 1498 153 
C 1037 153 960 153 960 440 
L 960 1497 
z
" transform="scale(0.015625)"/>
       <path id="CMR17-62" d="M 960 4396 
L 198 4326 
L 198 4160 
C 576 4160 634 4122 634 3817 
L 634 -13 
L 749 -13 
L 934 441 
C 1120 141 1395 -64 1766 -64 
C 2406 -64 3053 500 3053 1370 
C 3053 2188 2477 2790 1830 2790 
C 1434 2790 1152 2579 960 2330 
L 960 4396 
z
M 973 2004 
C 973 2118 973 2138 1062 2272 
C 1312 2657 1670 2688 1792 2688 
C 1984 2688 2643 2585 2643 1376 
C 2643 108 1888 38 1734 38 
C 1536 38 1248 114 1043 486 
C 973 608 973 621 973 735 
L 973 2004 
z
" transform="scale(0.015625)"/>
       <path id="CMR17-2e" d="M 1062 261 
C 1062 420 934 522 800 522 
C 672 522 538 420 538 261 
C 538 102 666 0 800 0 
C 928 0 1062 102 1062 261 
z
" transform="scale(0.015625)"/>
       <path id="CMR17-29" d="M 1683 1581 
C 1683 2040 1638 2817 1254 3639 
C 947 4303 422 4768 346 4768 
C 326 4768 301 4761 301 4729 
C 301 4717 307 4710 314 4697 
C 621 4378 1402 3568 1402 1584 
C 1402 -407 627 -1217 314 -1537 
C 307 -1549 301 -1556 301 -1568 
C 301 -1600 326 -1600 346 -1600 
C 416 -1600 960 -1128 1274 -426 
C 1594 281 1683 969 1683 1581 
z
" transform="scale(0.015625)"/>
      </defs>
      <use xlink:href="#CMR17-65" transform="scale(0.996264)"/>
      <use xlink:href="#CMR17-76" transform="translate(40.48566 0) scale(0.996264)"/>
      <use xlink:href="#CMR17-61" transform="translate(83.57376 0) scale(0.996264)"/>
      <use xlink:href="#CMR17-6c" transform="translate(129.264237 0) scale(0.996264)"/>
      <use xlink:href="#CMR17-75" transform="translate(154.135295 0) scale(0.996264)"/>
      <use xlink:href="#CMR17-61" transform="translate(205.030665 0) scale(0.996264)"/>
      <use xlink:href="#CMR17-74" transform="translate(250.721142 0) scale(0.996264)"/>
      <use xlink:href="#CMR17-69" transform="translate(286.00191 0) scale(0.996264)"/>
      <use xlink:href="#CMR17-6f" transform="translate(310.872968 0) scale(0.996264)"/>
      <use xlink:href="#CMR17-6e" transform="translate(356.563446 0) scale(0.996264)"/>
      <use xlink:href="#CMR17-74" transform="translate(437.534782 0) scale(0.996264)"/>
      <use xlink:href="#CMR17-69" transform="translate(472.815549 0) scale(0.996264)"/>
      <use xlink:href="#CMR17-6d" transform="translate(497.686608 0) scale(0.996264)"/>
      <use xlink:href="#CMR17-65" transform="translate(574.606198 0) scale(0.996264)"/>
      <use xlink:href="#CMR17-73" transform="translate(615.091858 0) scale(0.996264)"/>
      <use xlink:href="#CMR17-74" transform="translate(650.893196 0) scale(0.996264)"/>
      <use xlink:href="#CMR17-65" transform="translate(686.173964 0) scale(0.996264)"/>
      <use xlink:href="#CMR17-70" transform="translate(726.659624 0) scale(0.996264)"/>
      <use xlink:href="#CMMI12-74" transform="translate(807.63096 0) scale(0.996264)"/>
      <use xlink:href="#CMR17-28" transform="translate(872.933257 0) scale(0.996264)"/>
      <use xlink:href="#CMR17-61" transform="translate(908.214025 0) scale(0.996264)"/>
      <use xlink:href="#CMR17-72" transform="translate(953.904502 0) scale(0.996264)"/>
      <use xlink:href="#CMR17-62" transform="translate(989.18527 0) scale(0.996264)"/>
      <use xlink:href="#CMR17-2e" transform="translate(1040.080639 0) scale(0.996264)"/>
      <use xlink:href="#CMR17-29" transform="translate(1064.951698 0) scale(0.996264)"/>
     </g>
    </g>
   </g>
   <g id="matplotlib.axis_2">
    <g id="ytick_1">
     <g id="line2d_53">
      <defs>
       <path id="mf96cceabbd" d="M 0 0 
L 2.551 0 
" style="stroke: #000000; stroke-width: 0.8"/>
      </defs>
      <g>
       <use xlink:href="#mf96cceabbd" x="31.161149" y="159.998056" style="stroke: #000000; stroke-width: 0.8"/>
      </g>
     </g>
     <g id="text_11">
      <!-- $\mathdefault{0}$ -->
      <g transform="translate(21.808158 164.149146) scale(0.12 -0.12)">
       <use xlink:href="#CMR17-30" transform="scale(0.996264)"/>
      </g>
     </g>
    </g>
    <g id="ytick_2">
     <g id="line2d_54">
      <g>
       <use xlink:href="#mf96cceabbd" x="31.161149" y="108.363742" style="stroke: #000000; stroke-width: 0.8"/>
      </g>
     </g>
     <g id="text_12">
      <!-- $\mathdefault{20}$ -->
      <g transform="translate(15.955168 112.514832) scale(0.12 -0.12)">
       <use xlink:href="#CMR17-32" transform="scale(0.996264)"/>
       <use xlink:href="#CMR17-30" transform="translate(45.690477 0) scale(0.996264)"/>
      </g>
     </g>
    </g>
    <g id="ytick_3">
     <g id="line2d_55">
      <g>
       <use xlink:href="#mf96cceabbd" x="31.161149" y="56.729427" style="stroke: #000000; stroke-width: 0.8"/>
      </g>
     </g>
     <g id="text_13">
      <!-- $\mathdefault{40}$ -->
      <g transform="translate(15.955168 60.880517) scale(0.12 -0.12)">
       <defs>
        <path id="CMR17-34" d="M 2150 4122 
C 2150 4256 2144 4256 2029 4256 
L 128 1254 
L 128 1088 
L 1779 1088 
L 1779 457 
C 1779 224 1766 160 1318 160 
L 1197 160 
L 1197 0 
C 1402 0 1747 0 1965 0 
C 2182 0 2528 0 2733 0 
L 2733 160 
L 2611 160 
C 2163 160 2150 224 2150 457 
L 2150 1088 
L 2803 1088 
L 2803 1254 
L 2150 1254 
L 2150 4122 
z
M 1798 3703 
L 1798 1254 
L 256 1254 
L 1798 3703 
z
" transform="scale(0.015625)"/>
       </defs>
       <use xlink:href="#CMR17-34" transform="scale(0.996264)"/>
       <use xlink:href="#CMR17-30" transform="translate(45.690477 0) scale(0.996264)"/>
      </g>
     </g>
    </g>
    <g id="ytick_4">
     <g id="line2d_56">
      <g>
       <use xlink:href="#mf96cceabbd" x="31.161149" y="5.095113" style="stroke: #000000; stroke-width: 0.8"/>
      </g>
     </g>
     <g id="text_14">
      <!-- $\mathdefault{60}$ -->
      <g transform="translate(15.955168 9.246203) scale(0.12 -0.12)">
       <defs>
        <path id="CMR17-36" d="M 678 2176 
C 678 3690 1395 4032 1811 4032 
C 1946 4032 2272 4009 2400 3776 
C 2298 3776 2106 3776 2106 3553 
C 2106 3381 2246 3323 2336 3323 
C 2394 3323 2566 3348 2566 3560 
C 2566 3954 2246 4179 1805 4179 
C 1043 4179 243 3390 243 1984 
C 243 253 966 -128 1478 -128 
C 2099 -128 2688 427 2688 1283 
C 2688 2081 2170 2662 1517 2662 
C 1126 2662 838 2407 678 1960 
L 678 2176 
z
M 1478 25 
C 691 25 691 1200 691 1436 
C 691 1896 909 2560 1504 2560 
C 1613 2560 1926 2560 2138 2120 
C 2253 1870 2253 1609 2253 1289 
C 2253 944 2253 690 2118 434 
C 1978 171 1773 25 1478 25 
z
" transform="scale(0.015625)"/>
       </defs>
       <use xlink:href="#CMR17-36" transform="scale(0.996264)"/>
       <use xlink:href="#CMR17-30" transform="translate(45.690477 0) scale(0.996264)"/>
      </g>
     </g>
    </g>
    <g id="ytick_5">
     <g id="line2d_57">
      <defs>
       <path id="mbc4119f2e1" d="M 0 0 
L 1.417 0 
" style="stroke: #000000; stroke-width: 0.8"/>
      </defs>
      <g>
       <use xlink:href="#mbc4119f2e1" x="31.161149" y="147.089478" style="stroke: #000000; stroke-width: 0.8"/>
      </g>
     </g>
    </g>
    <g id="ytick_6">
     <g id="line2d_58">
      <g>
       <use xlink:href="#mbc4119f2e1" x="31.161149" y="134.180899" style="stroke: #000000; stroke-width: 0.8"/>
      </g>
     </g>
    </g>
    <g id="ytick_7">
     <g id="line2d_59">
      <g>
       <use xlink:href="#mbc4119f2e1" x="31.161149" y="121.27232" style="stroke: #000000; stroke-width: 0.8"/>
      </g>
     </g>
    </g>
    <g id="ytick_8">
     <g id="line2d_60">
      <g>
       <use xlink:href="#mbc4119f2e1" x="31.161149" y="95.455163" style="stroke: #000000; stroke-width: 0.8"/>
      </g>
     </g>
    </g>
    <g id="ytick_9">
     <g id="line2d_61">
      <g>
       <use xlink:href="#mbc4119f2e1" x="31.161149" y="82.546585" style="stroke: #000000; stroke-width: 0.8"/>
      </g>
     </g>
    </g>
    <g id="ytick_10">
     <g id="line2d_62">
      <g>
       <use xlink:href="#mbc4119f2e1" x="31.161149" y="69.638006" style="stroke: #000000; stroke-width: 0.8"/>
      </g>
     </g>
    </g>
    <g id="ytick_11">
     <g id="line2d_63">
      <g>
       <use xlink:href="#mbc4119f2e1" x="31.161149" y="43.820849" style="stroke: #000000; stroke-width: 0.8"/>
      </g>
     </g>
    </g>
    <g id="ytick_12">
     <g id="line2d_64">
      <g>
       <use xlink:href="#mbc4119f2e1" x="31.161149" y="30.91227" style="stroke: #000000; stroke-width: 0.8"/>
      </g>
     </g>
    </g>
    <g id="ytick_13">
     <g id="line2d_65">
      <g>
       <use xlink:href="#mbc4119f2e1" x="31.161149" y="18.003692" style="stroke: #000000; stroke-width: 0.8"/>
      </g>
     </g>
    </g>
    <g id="text_15">
     <!-- $\textrm{Infidelity (\%)}$ -->
     <g transform="translate(8.966376 114.301979) rotate(-90) scale(0.12 -0.12)">
      <defs>
       <path id="CMR17-49" d="M 1261 3905 
C 1261 4192 1338 4192 1798 4192 
L 1798 4352 
C 1594 4352 1267 4352 1050 4352 
C 832 4352 506 4352 301 4352 
L 301 4192 
C 762 4192 838 4192 838 3905 
L 838 447 
C 838 160 762 160 301 160 
L 301 0 
C 506 0 832 0 1050 0 
C 1267 0 1594 0 1798 0 
L 1798 160 
C 1338 160 1261 160 1261 447 
L 1261 3905 
z
" transform="scale(0.015625)"/>
       <path id="CMR17-c" d="M 2554 2764 
C 2400 2764 1926 2764 1805 2739 
C 1766 2725 1754 2725 1677 2725 
L 947 2725 
L 947 3469 
C 947 4073 1434 4352 1818 4352 
C 1939 4352 2214 4320 2355 4101 
C 2291 4101 2086 4101 2086 3878 
C 2086 3725 2189 3648 2317 3648 
C 2432 3648 2547 3712 2547 3885 
C 2547 4205 2240 4454 1843 4454 
C 1338 4454 634 4168 634 3469 
L 634 2725 
L 122 2725 
L 122 2560 
L 634 2560 
L 634 427 
C 634 184 608 153 198 153 
L 198 -13 
C 352 0 634 0 794 0 
C 960 0 1242 0 1395 -13 
L 1395 153 
C 986 153 960 178 960 427 
L 960 2560 
L 1901 2560 
C 2176 2560 2227 2502 2227 2222 
L 2227 427 
C 2227 184 2202 153 1792 153 
L 1792 -13 
C 1946 0 2227 0 2387 0 
C 2554 0 2835 0 2989 -13 
L 2989 153 
C 2579 153 2554 178 2554 427 
L 2554 2764 
z
" transform="scale(0.015625)"/>
       <path id="CMR17-64" d="M 1869 4326 
L 1869 4160 
C 2246 4160 2304 4122 2304 3820 
L 2304 2345 
C 2278 2377 2016 2790 1498 2790 
C 845 2790 211 2208 211 1364 
C 211 525 806 -64 1434 -64 
C 1978 -64 2259 337 2291 380 
L 2291 -63 
L 3066 -63 
L 3066 128 
C 2688 128 2630 166 2630 473 
L 2630 4396 
L 1869 4326 
z
M 2291 755 
C 2291 563 2176 390 2029 262 
C 1811 70 1594 38 1472 38 
C 1286 38 621 134 621 1356 
C 621 2612 1363 2688 1530 2688 
C 1824 2688 2061 2522 2208 2291 
C 2291 2157 2291 2138 2291 2023 
L 2291 755 
z
" transform="scale(0.015625)"/>
       <path id="CMR17-79" d="M 2496 2197 
C 2656 2586 2944 2586 3034 2586 
L 3034 2752 
C 2912 2752 2752 2752 2630 2752 
C 2496 2752 2285 2752 2157 2758 
L 2157 2592 
C 2400 2573 2406 2394 2406 2343 
C 2406 2280 2394 2248 2362 2171 
L 1664 449 
L 902 2306 
C 870 2382 870 2426 870 2433 
C 870 2573 1018 2586 1171 2586 
L 1171 2758 
C 1018 2752 742 2752 582 2752 
C 410 2752 205 2752 64 2758 
L 64 2586 
C 410 2586 448 2554 531 2350 
L 1485 15 
C 1197 -738 1030 -1178 627 -1178 
C 557 -1178 397 -1159 282 -1044 
C 429 -1031 493 -942 493 -833 
C 493 -725 416 -629 288 -629 
C 147 -629 77 -725 77 -840 
C 77 -1095 339 -1280 627 -1280 
C 998 -1280 1229 -922 1357 -604 
L 2496 2197 
z
" transform="scale(0.015625)"/>
       <path id="CMR17-25" d="M 4640 959 
C 4640 1698 4275 2240 3846 2240 
C 3411 2240 2970 1736 2970 959 
C 2970 183 3405 -320 3846 -320 
C 4275 -320 4640 215 4640 959 
z
M 3853 -218 
C 3686 -218 3270 -66 3270 959 
C 3270 1991 3686 2138 3853 2138 
C 4205 2138 4525 1634 4525 959 
C 4525 285 4205 -218 3853 -218 
z
M 4083 4577 
C 4128 4647 4134 4653 4134 4685 
C 4134 4761 4077 4800 4026 4800 
C 3962 4800 3936 4756 3891 4706 
C 3520 4190 3008 4134 2746 4134 
C 2106 4134 1715 4494 1594 4607 
C 1510 4682 1389 4800 1171 4800 
C 736 4800 294 4296 294 3519 
C 294 2743 730 2240 1171 2240 
C 1600 2240 1965 2778 1965 3527 
C 1965 3969 1830 4270 1811 4308 
C 2202 4064 2586 4032 2752 4032 
C 3162 4032 3456 4183 3616 4289 
L 3622 4283 
L 858 -84 
C 800 -174 800 -187 800 -206 
C 800 -276 858 -320 915 -320 
C 973 -320 992 -289 1037 -218 
L 4083 4577 
z
M 1178 2342 
C 1011 2342 595 2494 595 3519 
C 595 4551 1011 4698 1178 4698 
C 1530 4698 1850 4194 1850 3519 
C 1850 2845 1530 2342 1178 2342 
z
" transform="scale(0.015625)"/>
      </defs>
      <use xlink:href="#CMR17-49" transform="scale(0.996264)"/>
      <use xlink:href="#CMR17-6e" transform="translate(32.638409 0) scale(0.996264)"/>
      <use xlink:href="#CMR17-c" transform="translate(83.533779 0) scale(0.996264)"/>
      <use xlink:href="#CMR17-64" transform="translate(133.276002 0) scale(0.996264)"/>
      <use xlink:href="#CMR17-65" transform="translate(184.171372 0) scale(0.996264)"/>
      <use xlink:href="#CMR17-6c" transform="translate(224.657033 0) scale(0.996264)"/>
      <use xlink:href="#CMR17-69" transform="translate(249.528091 0) scale(0.996264)"/>
      <use xlink:href="#CMR17-74" transform="translate(274.39915 0) scale(0.996264)"/>
      <use xlink:href="#CMR17-79" transform="translate(307.077463 0) scale(0.996264)"/>
      <use xlink:href="#CMR17-28" transform="translate(385.446346 0) scale(0.996264)"/>
      <use xlink:href="#CMR17-25" transform="translate(420.727113 0) scale(0.996264)"/>
      <use xlink:href="#CMR17-29" transform="translate(497.646703 0) scale(0.996264)"/>
     </g>
    </g>
   </g>
   <g id="patch_3">
    <path d="M 31.161149 159.998056 
L 31.161149 0 
" style="fill: none; stroke: #000000; stroke-width: 0.8; stroke-linejoin: miter; stroke-linecap: square"/>
   </g>
   <g id="patch_4">
    <path d="M 419.1192 159.998056 
L 419.1192 0 
" style="fill: none; stroke: #000000; stroke-width: 0.8; stroke-linejoin: miter; stroke-linecap: square"/>
   </g>
   <g id="patch_5">
    <path d="M 31.161149 159.998056 
L 419.1192 159.998056 
" style="fill: none; stroke: #000000; stroke-width: 0.8; stroke-linejoin: miter; stroke-linecap: square"/>
   </g>
   <g id="patch_6">
    <path d="M 31.161149 0 
L 419.1192 0 
" style="fill: none; stroke: #000000; stroke-width: 0.8; stroke-linejoin: miter; stroke-linecap: square"/>
   </g>
  </g>
 </g>
 <defs>
  <clipPath id="pcc8bc4381b">
   <rect x="31.161149" y="0" width="387.958051" height="159.998056"/>
  </clipPath>
 </defs>
</svg>
