<?xml version="1.0" encoding="utf-8" standalone="no"?>
<!DOCTYPE svg PUBLIC "-//W3C//DTD SVG 1.1//EN"
  "http://www.w3.org/Graphics/SVG/1.1/DTD/svg11.dtd">
<svg xmlns:xlink="http://www.w3.org/1999/xlink" width="419.1192pt" height="190.08pt" viewBox="0 0 419.1192 190.08" xmlns="http://www.w3.org/2000/svg" version="1.1">
 <metadata>
  <rdf:RDF xmlns:dc="http://purl.org/dc/elements/1.1/" xmlns:cc="http://creativecommons.org/ns#" xmlns:rdf="http://www.w3.org/1999/02/22-rdf-syntax-ns#">
   <cc:Work>
    <dc:type rdf:resource="http://purl.org/dc/dcmitype/StillImage"/>
    <dc:date>2025-11-17T12:51:52.797854</dc:date>
    <dc:format>image/svg+xml</dc:format>
    <dc:creator>
     <cc:Agent>
      <dc:title>Matplotlib v3.10.6, https://matplotlib.org/</dc:title>
     </cc:Agent>
    </dc:creator>
   </cc:Work>
  </rdf:RDF>
 </metadata>
 <defs>
  <style type="text/css">*{stroke-linejoin: round; stroke-linecap: butt}</style>
 </defs>
 <g id="figure_1">
  <g id="patch_1">
   <path d="M 0 190.08 
L 419.1192 190.08 
L 419.1192 0 
L 0 0 
z
" style="fill: #ffffff"/>
  </g>
  <g id="axes_1">
   <g id="patch_2">
    <path d="M 31.161149 159.998056 
L 419.1192 159.998056 
L 419.1192 0 
L 31.161149 0 
z
" style="fill: #ffffff"/>
   </g>
   <g id="line2d_1">
    <path d="M 40.183429 159.998058 
L 41.987885 46.937831 
L 43.792341 71.428391 
L 45.596797 130.77463 
L 47.401253 43.665833 
L 49.205709 90.931283 
L 51.010165 109.268153 
L 52.814621 50.847946 
L 54.619077 100.316926 
L 56.423533 96.423596 
L 58.227989 63.044038 
L 60.032445 106.482095 
L 61.836902 82.755523 
L 63.641358 71.791173 
L 65.445814 103.088789 
L 67.25027 77.765633 
L 69.054726 78.873158 
L 70.859182 97.534685 
L 72.663638 75.456141 
L 74.468094 81.382236 
L 76.27255 91.432719 
L 78.077006 70.317525 
L 79.881462 79.784404 
L 81.685918 83.892082 
L 83.490374 70.581779 
L 85.29483 79.29904 
L 87.099286 76.930686 
L 88.903742 64.611638 
L 90.708198 77.007573 
L 92.512654 68.949776 
L 94.31711 66.108893 
L 96.121567 78.21128 
L 97.926023 66.846573 
L 99.730479 67.106052 
L 101.534935 72.268057 
L 103.339391 65.811153 
L 105.143847 69.657694 
L 106.948303 70.423398 
L 108.752759 65.653301 
L 110.557215 71.174868 
L 112.361671 68.014015 
L 114.166127 67.247532 
L 115.970583 70.992731 
L 117.775039 68.671517 
L 119.579495 69.79634 
L 121.383951 68.431795 
L 123.188407 68.57748 
L 124.992863 69.937417 
L 126.797319 67.147446 
L 128.601775 66.648936 
L 130.406232 66.65467 
L 132.210688 66.382719 
L 134.015144 65.525232 
L 135.8196 65.104174 
L 137.624056 64.49785 
L 139.428512 64.605428 
L 141.232968 66.422923 
L 143.037424 64.886266 
L 144.84188 65.61474 
L 146.646336 63.926827 
L 148.450792 61.273861 
L 150.255248 60.035203 
L 152.059704 62.531369 
L 153.86416 60.238374 
L 155.668616 62.137266 
L 157.473072 60.520006 
L 159.277528 58.23223 
L 161.081984 60.472437 
L 162.88644 57.242023 
L 164.690897 59.323881 
L 166.495353 58.429356 
L 168.299809 57.111622 
L 170.104265 59.897314 
L 171.908721 57.649521 
L 173.713177 58.078549 
L 175.517633 61.943749 
L 177.322089 59.486936 
L 179.126545 59.065011 
L 180.931001 62.79795 
L 182.735457 60.766162 
L 184.539913 56.34717 
L 186.344369 61.505824 
L 188.148825 56.554974 
L 189.953281 59.812983 
L 191.757737 62.397596 
L 193.562193 59.24224 
L 195.366649 59.822846 
L 197.171105 62.054077 
L 198.975562 60.306246 
L 200.780018 59.374792 
L 202.584474 61.557608 
L 204.38893 57.670746 
L 206.193386 58.183607 
L 207.997842 60.692482 
L 209.802298 57.544829 
L 211.606754 57.569907 
L 213.41121 59.190002 
L 215.215666 57.069676 
L 217.020122 58.152956 
L 218.824578 57.368949 
L 220.629034 56.205309 
L 222.43349 55.826683 
L 224.237946 57.113988 
L 226.042402 56.790171 
L 227.846858 54.219932 
L 229.651314 56.250629 
L 231.45577 56.087563 
L 233.260227 55.432267 
L 235.064683 57.088452 
L 236.869139 54.04057 
L 238.673595 57.065475 
L 240.478051 55.721116 
L 242.282507 57.534156 
L 244.086963 57.145562 
L 245.891419 60.11629 
L 247.695875 56.519662 
L 249.500331 57.568498 
L 251.304787 56.748794 
L 253.109243 54.703208 
L 254.913699 53.328446 
L 256.718155 54.590226 
L 258.522611 54.474821 
L 260.327067 57.360439 
L 262.131523 54.18919 
L 263.935979 54.763905 
L 265.740436 54.212037 
L 267.544892 53.213526 
L 269.349348 52.956695 
L 271.153804 53.92891 
L 272.95826 51.876336 
L 274.762716 53.951803 
L 276.567172 51.602891 
L 278.371628 51.153673 
L 280.176084 52.42654 
L 281.98054 49.779481 
L 283.784996 48.958083 
L 285.589452 50.584397 
L 287.393908 48.655277 
L 289.198364 49.448851 
L 291.00282 50.851315 
L 292.807276 51.560952 
L 294.611732 49.760222 
L 296.416188 51.89397 
L 298.220644 49.63597 
L 300.025101 49.854839 
L 301.829557 51.721486 
L 303.634013 49.430643 
L 305.438469 47.520437 
L 307.242925 51.184799 
L 309.047381 48.558356 
L 310.851837 45.197675 
L 312.656293 50.437784 
L 314.460749 46.628148 
L 316.265205 47.195187 
L 318.069661 48.700842 
L 319.874117 46.398584 
L 321.678573 46.340352 
L 323.483029 50.222631 
L 325.287485 44.833149 
L 327.091941 48.042215 
L 328.896397 46.607698 
L 330.700853 44.563706 
L 332.505309 48.25532 
L 334.309766 44.118413 
L 336.114222 43.598583 
L 337.918678 48.706824 
L 339.723134 44.114108 
L 341.52759 43.628939 
L 343.332046 45.641475 
L 345.136502 43.513469 
L 346.940958 44.673919 
L 348.745414 47.221771 
L 350.54987 44.798148 
L 352.354326 47.974542 
L 354.158782 48.993565 
L 355.963238 44.186525 
L 357.767694 47.778721 
L 359.57215 46.750555 
L 361.376606 44.440693 
L 363.181062 46.763631 
L 364.985518 47.239768 
L 366.789974 49.130653 
L 368.594431 48.15512 
L 370.398887 45.685629 
L 372.203343 46.198519 
L 374.007799 47.580992 
L 375.812255 44.893713 
L 377.616711 47.825332 
L 379.421167 46.619959 
L 381.225623 45.586873 
L 383.030079 47.678714 
L 384.834535 47.900979 
L 386.638991 45.77804 
L 388.443447 47.786358 
L 390.247903 45.344112 
L 393.856815 45.744528 
L 395.661271 45.685617 
L 397.465727 43.621811 
L 399.270183 46.212739 
L 401.074639 43.830407 
L 401.074639 43.830407 
" clip-path="url(#p14e5d17da4)" style="fill: none; stroke: #e60000; stroke-width: 0.8; stroke-linecap: square"/>
   </g>
   <g id="line2d_2">
    <path d="M 40.183429 159.998058 
L 43.792341 141.317672 
L 45.596797 135.019072 
L 47.401253 131.963857 
L 49.205709 129.206235 
L 51.010165 126.238503 
L 52.814621 125.130136 
L 54.619077 119.403202 
L 58.227989 110.066095 
L 60.032445 108.115061 
L 61.836902 105.910558 
L 63.641358 105.075086 
L 65.445814 103.793062 
L 67.25027 99.858654 
L 69.054726 100.939724 
L 70.859182 98.419817 
L 72.663638 94.780764 
L 74.468094 93.611989 
L 76.27255 93.047646 
L 78.077006 91.050285 
L 81.685918 90.721639 
L 83.490374 90.39589 
L 85.29483 87.5871 
L 87.099286 85.618272 
L 88.903742 85.056586 
L 92.512654 84.779609 
L 94.31711 83.077512 
L 96.121567 81.551013 
L 97.926023 81.939582 
L 99.730479 81.376979 
L 101.534935 82.115353 
L 103.339391 81.168755 
L 105.143847 80.986769 
L 106.948303 80.589014 
L 108.752759 80.000275 
L 110.557215 79.216092 
L 112.361671 78.889857 
L 114.166127 79.134635 
L 115.970583 77.826207 
L 117.775039 78.241234 
L 119.579495 77.595172 
L 121.383951 78.441461 
L 123.188407 76.967863 
L 124.992863 77.372903 
L 126.797319 77.405177 
L 128.601775 76.42397 
L 130.406232 76.54294 
L 132.210688 76.050008 
L 134.015144 77.02639 
L 135.8196 75.340945 
L 139.428512 76.116051 
L 141.232968 75.415354 
L 143.037424 76.0065 
L 144.84188 76.337103 
L 146.646336 77.688606 
L 148.450792 76.443402 
L 150.255248 77.657065 
L 153.86416 75.954138 
L 155.668616 76.719452 
L 157.473072 76.546018 
L 161.081984 76.932735 
L 162.88644 74.934395 
L 164.690897 74.709515 
L 166.495353 76.784441 
L 168.299809 76.777981 
L 170.104265 76.175613 
L 171.908721 75.928969 
L 173.713177 75.858334 
L 175.517633 75.042477 
L 177.322089 75.582202 
L 179.126545 75.383171 
L 180.931001 74.358732 
L 182.735457 74.971325 
L 184.539913 75.992285 
L 186.344369 76.723993 
L 188.148825 76.644099 
L 189.953281 76.946342 
L 191.757737 74.990069 
L 193.562193 76.817672 
L 195.366649 78.322053 
L 197.171105 77.849266 
L 198.975562 77.520806 
L 200.780018 78.343939 
L 206.193386 74.647528 
L 207.997842 75.031691 
L 211.606754 75.396823 
L 213.41121 74.595657 
L 215.215666 74.548884 
L 217.020122 75.311473 
L 220.629034 75.016134 
L 222.43349 75.503312 
L 224.237946 74.654662 
L 226.042402 74.444081 
L 227.846858 72.830978 
L 229.651314 75.113006 
L 231.45577 74.628227 
L 233.260227 75.807535 
L 235.064683 74.107621 
L 236.869139 74.011305 
L 238.673595 72.435109 
L 240.478051 72.948574 
L 242.282507 74.259602 
L 244.086963 73.698908 
L 245.891419 71.812921 
L 247.695875 74.437664 
L 249.500331 74.277959 
L 251.304787 73.679342 
L 253.109243 74.370955 
L 254.913699 74.488271 
L 256.718155 74.262091 
L 258.522611 73.847401 
L 260.327067 74.385493 
L 262.131523 73.696323 
L 263.935979 73.512281 
L 265.740436 73.538253 
L 267.544892 72.410298 
L 269.349348 70.436084 
L 271.153804 70.412147 
L 276.567172 69.601243 
L 280.176084 68.686392 
L 283.784996 70.303137 
L 285.589452 69.682427 
L 287.393908 69.304318 
L 289.198364 69.43206 
L 291.00282 70.092992 
L 292.807276 68.963999 
L 294.611732 69.268164 
L 296.416188 69.20977 
L 298.220644 67.34207 
L 300.025101 66.799233 
L 301.829557 66.940766 
L 303.634013 69.068445 
L 305.438469 68.685238 
L 307.242925 69.666651 
L 309.047381 68.60044 
L 312.656293 69.877176 
L 314.460749 70.192453 
L 316.265205 69.709604 
L 318.069661 69.409765 
L 319.874117 68.984977 
L 321.678573 67.282556 
L 323.483029 69.588829 
L 325.287485 68.783886 
L 327.091941 68.954701 
L 330.700853 66.876609 
L 332.505309 66.28006 
L 334.309766 65.372245 
L 336.114222 64.906267 
L 337.918678 65.786498 
L 339.723134 64.777208 
L 343.332046 65.493154 
L 345.136502 65.422534 
L 346.940958 64.333436 
L 348.745414 63.504569 
L 350.54987 64.851018 
L 352.354326 63.267221 
L 354.158782 62.846468 
L 355.963238 63.728646 
L 357.767694 63.223589 
L 359.57215 64.296387 
L 361.376606 63.120938 
L 363.181062 63.208443 
L 364.985518 66.181664 
L 366.789974 65.745407 
L 368.594431 66.550447 
L 372.203343 65.053521 
L 374.007799 64.23793 
L 375.812255 62.5928 
L 377.616711 61.946437 
L 379.421167 61.960109 
L 381.225623 61.594352 
L 384.834535 61.674125 
L 386.638991 61.319353 
L 388.443447 60.771709 
L 392.052359 61.830063 
L 393.856815 61.205835 
L 395.661271 60.271007 
L 397.465727 59.992968 
L 399.270183 59.18893 
L 401.074639 58.627313 
L 401.074639 58.627313 
" clip-path="url(#p14e5d17da4)" style="fill: none; stroke: #730000; stroke-width: 0.8; stroke-linecap: square"/>
   </g>
   <g id="line2d_3">
    <path d="M 40.183429 159.998058 
L 41.987885 148.964428 
L 43.792341 143.972045 
L 47.401253 126.931083 
L 51.010165 119.533807 
L 52.814621 114.812339 
L 54.619077 112.160803 
L 56.423533 112.49692 
L 58.227989 110.063446 
L 60.032445 108.765368 
L 61.836902 106.925236 
L 63.641358 104.342575 
L 65.445814 101.956726 
L 67.25027 98.875507 
L 69.054726 97.502688 
L 70.859182 95.373173 
L 72.663638 92.037039 
L 74.468094 89.72626 
L 76.27255 85.973272 
L 78.077006 82.939418 
L 79.881462 82.24985 
L 81.685918 81.112632 
L 83.490374 79.156796 
L 85.29483 74.920395 
L 87.099286 72.487 
L 88.903742 69.334909 
L 90.708198 68.955369 
L 92.512654 67.162191 
L 94.31711 67.906608 
L 96.121567 66.564775 
L 97.926023 66.627857 
L 99.730479 65.251743 
L 101.534935 64.993086 
L 103.339391 64.426767 
L 105.143847 63.535442 
L 106.948303 62.218049 
L 108.752759 61.903485 
L 110.557215 61.317098 
L 114.166127 62.430982 
L 115.970583 64.256202 
L 117.775039 65.013867 
L 119.579495 64.129121 
L 121.383951 63.413737 
L 123.188407 64.052314 
L 124.992863 63.898054 
L 126.797319 61.782314 
L 128.601775 60.246373 
L 130.406232 59.187428 
L 134.015144 58.943804 
L 135.8196 58.277613 
L 137.624056 58.108055 
L 139.428512 58.972129 
L 141.232968 60.164628 
L 143.037424 60.541542 
L 144.84188 59.252875 
L 146.646336 59.609322 
L 148.450792 58.299022 
L 150.255248 59.057801 
L 153.86416 58.026317 
L 155.668616 59.174934 
L 157.473072 59.241565 
L 159.277528 60.228824 
L 161.081984 61.515979 
L 162.88644 60.697295 
L 164.690897 58.901936 
L 166.495353 57.464301 
L 168.299809 57.445493 
L 170.104265 56.613519 
L 171.908721 57.881301 
L 175.517633 58.677806 
L 177.322089 58.957074 
L 179.126545 57.692302 
L 180.931001 58.868238 
L 182.735457 58.44323 
L 184.539913 58.810037 
L 186.344369 59.487702 
L 188.148825 59.043245 
L 189.953281 59.808997 
L 191.757737 60.310698 
L 193.562193 60.931725 
L 195.366649 61.234349 
L 197.171105 61.07108 
L 198.975562 60.717288 
L 200.780018 61.188709 
L 202.584474 60.910478 
L 204.38893 59.740943 
L 206.193386 59.080217 
L 207.997842 59.499671 
L 209.802298 57.127396 
L 211.606754 57.286079 
L 213.41121 57.010528 
L 215.215666 55.556291 
L 217.020122 54.608997 
L 218.824578 54.211064 
L 220.629034 53.183767 
L 222.43349 54.649533 
L 226.042402 53.677177 
L 227.846858 54.185825 
L 229.651314 54.871774 
L 231.45577 54.800252 
L 233.260227 55.02083 
L 235.064683 54.446195 
L 236.869139 54.259365 
L 238.673595 54.599691 
L 240.478051 54.038697 
L 242.282507 54.514468 
L 244.086963 54.310465 
L 245.891419 54.379378 
L 247.695875 53.960151 
L 249.500331 55.164816 
L 253.109243 55.017118 
L 254.913699 51.925375 
L 256.718155 53.353405 
L 258.522611 55.055112 
L 260.327067 54.022366 
L 262.131523 54.82755 
L 263.935979 54.137007 
L 265.740436 54.78302 
L 267.544892 53.203467 
L 269.349348 50.810581 
L 271.153804 50.884813 
L 272.95826 49.998327 
L 274.762716 49.324701 
L 276.567172 47.971776 
L 278.371628 48.383502 
L 280.176084 47.346552 
L 281.98054 45.936222 
L 283.784996 45.331157 
L 285.589452 44.337241 
L 291.00282 45.725321 
L 292.807276 44.844249 
L 294.611732 44.99101 
L 296.416188 44.540618 
L 298.220644 44.219394 
L 300.025101 44.720091 
L 301.829557 45.020693 
L 303.634013 43.907418 
L 307.242925 43.932561 
L 309.047381 43.162613 
L 310.851837 42.115492 
L 312.656293 41.47466 
L 316.265205 41.304109 
L 318.069661 41.847177 
L 319.874117 41.543282 
L 321.678573 41.929143 
L 323.483029 42.491539 
L 325.287485 44.184112 
L 327.091941 43.869529 
L 328.896397 44.079041 
L 330.700853 43.71618 
L 332.505309 42.759574 
L 334.309766 42.450224 
L 336.114222 43.093086 
L 339.723134 42.361034 
L 341.52759 41.556132 
L 345.136502 40.988627 
L 346.940958 41.765264 
L 348.745414 41.727918 
L 350.54987 42.117233 
L 352.354326 41.77963 
L 354.158782 42.01026 
L 355.963238 41.670846 
L 357.767694 41.690508 
L 359.57215 42.080611 
L 361.376606 40.810191 
L 363.181062 41.481554 
L 364.985518 44.151514 
L 368.594431 43.855426 
L 370.398887 42.916441 
L 372.203343 42.430731 
L 374.007799 42.402052 
L 375.812255 42.855546 
L 377.616711 42.117182 
L 379.421167 41.670838 
L 381.225623 43.034765 
L 383.030079 43.176214 
L 384.834535 42.832401 
L 386.638991 42.785908 
L 388.443447 42.103458 
L 390.247903 42.489685 
L 392.052359 43.351514 
L 393.856815 42.903137 
L 395.661271 42.293052 
L 397.465727 41.1675 
L 399.270183 41.104334 
L 401.074639 41.301591 
L 401.074639 41.301591 
" clip-path="url(#p14e5d17da4)" style="fill: none; stroke: #ac0000; stroke-width: 0.8; stroke-linecap: square"/>
   </g>
   <g id="line2d_4">
    <path d="M 40.183429 159.998058 
L 41.987885 150.265801 
L 45.596797 138.61844 
L 47.401253 133.185153 
L 49.205709 128.616056 
L 51.010165 126.488396 
L 52.814621 122.844331 
L 54.619077 120.965391 
L 56.423533 118.096591 
L 58.227989 116.647736 
L 60.032445 115.428378 
L 61.836902 113.326614 
L 63.641358 111.637051 
L 65.445814 107.452138 
L 67.25027 104.2026 
L 69.054726 103.326531 
L 70.859182 100.942651 
L 72.663638 99.85336 
L 74.468094 98.263819 
L 76.27255 96.226082 
L 78.077006 93.48249 
L 79.881462 91.774794 
L 81.685918 90.681613 
L 83.490374 89.867667 
L 85.29483 85.968855 
L 87.099286 84.742349 
L 88.903742 82.440441 
L 90.708198 82.565855 
L 94.31711 82.166425 
L 96.121567 82.432944 
L 97.926023 81.379055 
L 99.730479 81.140269 
L 103.339391 79.962322 
L 105.143847 79.004384 
L 108.752759 79.472358 
L 110.557215 78.753303 
L 112.361671 77.710427 
L 114.166127 77.494091 
L 115.970583 78.618624 
L 117.775039 79.356872 
L 119.579495 78.493797 
L 121.383951 77.2003 
L 123.188407 78.269769 
L 126.797319 77.60975 
L 128.601775 77.7599 
L 130.406232 76.796669 
L 132.210688 76.674957 
L 135.8196 74.543546 
L 137.624056 74.267565 
L 139.428512 74.506311 
L 141.232968 76.115919 
L 143.037424 75.663666 
L 144.84188 75.460834 
L 146.646336 74.652673 
L 148.450792 72.989885 
L 152.059704 72.593117 
L 153.86416 70.916392 
L 155.668616 72.604926 
L 157.473072 72.779239 
L 159.277528 72.673051 
L 164.690897 70.728173 
L 166.495353 69.551565 
L 168.299809 69.490944 
L 170.104265 67.90292 
L 171.908721 67.77002 
L 173.713177 68.144119 
L 175.517633 67.203051 
L 177.322089 67.860058 
L 179.126545 67.652537 
L 180.931001 68.696555 
L 182.735457 68.143979 
L 186.344369 67.798826 
L 188.148825 66.255948 
L 189.953281 67.535393 
L 191.757737 69.961113 
L 193.562193 70.367078 
L 195.366649 70.266025 
L 197.171105 69.474698 
L 198.975562 69.948432 
L 200.780018 69.10898 
L 202.584474 70.171915 
L 204.38893 69.391808 
L 206.193386 68.3645 
L 207.997842 68.581493 
L 209.802298 66.889081 
L 211.606754 66.923698 
L 213.41121 66.776537 
L 215.215666 67.841588 
L 217.020122 67.723961 
L 218.824578 67.745478 
L 220.629034 67.63201 
L 222.43349 67.842619 
L 224.237946 67.657998 
L 226.042402 67.327625 
L 227.846858 66.194085 
L 229.651314 67.584085 
L 231.45577 67.703193 
L 235.064683 67.224434 
L 236.869139 66.450107 
L 238.673595 66.146177 
L 240.478051 65.604988 
L 242.282507 66.6919 
L 244.086963 66.732292 
L 245.891419 66.292601 
L 247.695875 66.128453 
L 251.304787 66.654336 
L 253.109243 66.705166 
L 254.913699 64.513804 
L 256.718155 64.857545 
L 258.522611 64.612388 
L 260.327067 64.072986 
L 262.131523 64.7865 
L 263.935979 65.161773 
L 265.740436 66.843729 
L 267.544892 66.005723 
L 269.349348 65.852426 
L 271.153804 66.240205 
L 274.762716 66.103699 
L 276.567172 66.35979 
L 278.371628 65.352931 
L 280.176084 64.983161 
L 281.98054 63.893113 
L 285.589452 63.06302 
L 287.393908 63.410449 
L 289.198364 63.132043 
L 291.00282 62.022985 
L 292.807276 62.517668 
L 294.611732 61.689212 
L 296.416188 61.860056 
L 298.220644 61.132821 
L 300.025101 61.768808 
L 301.829557 61.953298 
L 305.438469 60.581503 
L 307.242925 61.352763 
L 309.047381 60.148021 
L 310.851837 61.056383 
L 312.656293 61.415608 
L 314.460749 61.216375 
L 316.265205 60.714988 
L 318.069661 58.516682 
L 319.874117 57.919745 
L 321.678573 58.287888 
L 325.287485 57.773693 
L 327.091941 57.089109 
L 328.896397 56.779085 
L 330.700853 54.034974 
L 334.309766 53.613718 
L 336.114222 53.25707 
L 337.918678 55.002386 
L 339.723134 54.716993 
L 341.52759 53.689166 
L 343.332046 53.854965 
L 345.136502 53.28754 
L 346.940958 52.30526 
L 348.745414 51.704776 
L 350.54987 53.906567 
L 352.354326 53.316465 
L 354.158782 53.262791 
L 357.767694 52.354389 
L 359.57215 53.895189 
L 361.376606 51.802984 
L 363.181062 51.153868 
L 364.985518 52.756881 
L 366.789974 52.350217 
L 368.594431 53.530505 
L 370.398887 53.5919 
L 372.203343 53.828858 
L 374.007799 54.506117 
L 375.812255 54.095221 
L 377.616711 53.858511 
L 379.421167 55.022414 
L 381.225623 54.636302 
L 383.030079 54.506935 
L 386.638991 54.752302 
L 388.443447 54.417554 
L 390.247903 54.363873 
L 392.052359 54.518279 
L 393.856815 52.597083 
L 395.661271 51.695479 
L 399.270183 50.268242 
L 401.074639 50.501377 
L 401.074639 50.501377 
" clip-path="url(#p14e5d17da4)" style="fill: none; stroke: #000000; stroke-width: 0.8; stroke-linecap: square"/>
   </g>
   <g id="line2d_5">
    <path d="M 40.183429 159.998058 
L 41.987885 155.578503 
L 43.792341 146.996197 
L 45.596797 141.751382 
L 47.401253 137.806917 
L 49.205709 132.759856 
L 51.010165 130.258288 
L 52.814621 126.773055 
L 54.619077 125.083624 
L 56.423533 122.005617 
L 60.032445 118.965452 
L 63.641358 116.748918 
L 65.445814 113.049194 
L 67.25027 109.72838 
L 69.054726 108.891923 
L 70.859182 107.327181 
L 72.663638 103.910527 
L 74.468094 102.690517 
L 76.27255 101.259873 
L 78.077006 99.497136 
L 79.881462 98.376533 
L 81.685918 98.489481 
L 83.490374 97.572662 
L 85.29483 94.222593 
L 87.099286 93.022535 
L 88.903742 92.005865 
L 90.708198 92.29388 
L 92.512654 92.177798 
L 94.31711 92.658087 
L 96.121567 91.754079 
L 97.926023 91.362767 
L 99.730479 90.842229 
L 103.339391 89.295599 
L 105.143847 87.983968 
L 108.752759 88.665227 
L 112.361671 87.870252 
L 114.166127 87.979858 
L 115.970583 88.685596 
L 117.775039 89.635969 
L 119.579495 89.033353 
L 123.188407 88.367258 
L 124.992863 89.153392 
L 126.797319 88.743441 
L 128.601775 88.627899 
L 130.406232 88.753423 
L 132.210688 90.11122 
L 134.015144 89.206504 
L 135.8196 88.47462 
L 137.624056 88.326106 
L 139.428512 88.496789 
L 143.037424 87.539885 
L 144.84188 87.338722 
L 146.646336 87.429665 
L 148.450792 86.358625 
L 150.255248 87.240911 
L 152.059704 86.356224 
L 153.86416 85.616599 
L 155.668616 86.682176 
L 157.473072 86.271975 
L 159.277528 86.604495 
L 161.081984 87.409084 
L 162.88644 86.851996 
L 164.690897 85.713147 
L 166.495353 86.211309 
L 168.299809 87.802973 
L 170.104265 87.451135 
L 171.908721 86.651728 
L 173.713177 87.181641 
L 175.517633 86.390541 
L 177.322089 86.323012 
L 180.931001 85.022529 
L 182.735457 85.004593 
L 184.539913 85.31995 
L 186.344369 85.764037 
L 188.148825 85.668365 
L 189.953281 86.431511 
L 191.757737 87.62174 
L 193.562193 88.330625 
L 195.366649 88.681284 
L 197.171105 88.155068 
L 198.975562 87.459676 
L 200.780018 87.718743 
L 202.584474 88.2661 
L 204.38893 87.960732 
L 207.997842 86.851232 
L 209.802298 85.192703 
L 211.606754 85.677911 
L 213.41121 84.689027 
L 215.215666 84.82776 
L 217.020122 85.589484 
L 220.629034 84.347259 
L 222.43349 84.567721 
L 224.237946 85.543642 
L 226.042402 86.156314 
L 227.846858 85.487004 
L 229.651314 85.854908 
L 233.260227 84.474682 
L 235.064683 85.011557 
L 236.869139 84.399764 
L 238.673595 83.199959 
L 240.478051 82.773487 
L 242.282507 82.621333 
L 244.086963 82.340748 
L 245.891419 83.498274 
L 247.695875 83.75922 
L 249.500331 84.708911 
L 251.304787 84.482631 
L 253.109243 85.010498 
L 254.913699 83.271188 
L 256.718155 84.768658 
L 260.327067 84.225086 
L 263.935979 84.780614 
L 265.740436 87.241507 
L 267.544892 86.330649 
L 269.349348 86.258707 
L 271.153804 85.755439 
L 274.762716 85.272657 
L 278.371628 83.000037 
L 280.176084 82.020965 
L 281.98054 82.406749 
L 283.784996 81.538784 
L 285.589452 80.45807 
L 287.393908 80.696914 
L 289.198364 80.730943 
L 291.00282 79.874422 
L 292.807276 79.920394 
L 296.416188 80.905806 
L 298.220644 79.864104 
L 300.025101 80.388097 
L 301.829557 79.450343 
L 303.634013 79.809999 
L 305.438469 79.070281 
L 307.242925 78.833883 
L 309.047381 77.057361 
L 310.851837 77.41789 
L 312.656293 77.066499 
L 319.874117 74.419584 
L 321.678573 73.546166 
L 323.483029 72.808917 
L 325.287485 74.446137 
L 327.091941 73.401792 
L 328.896397 73.733024 
L 330.700853 73.383072 
L 334.309766 71.667222 
L 336.114222 70.797829 
L 337.918678 72.461693 
L 339.723134 71.863785 
L 341.52759 72.117523 
L 345.136502 72.284891 
L 346.940958 71.281242 
L 348.745414 70.615309 
L 350.54987 73.379706 
L 352.354326 72.66065 
L 354.158782 72.628593 
L 355.963238 72.424275 
L 357.767694 72.062107 
L 359.57215 73.117002 
L 361.376606 72.388133 
L 363.181062 71.9092 
L 364.985518 75.081691 
L 366.789974 74.710009 
L 368.594431 75.089138 
L 370.398887 74.804245 
L 372.203343 75.635615 
L 374.007799 75.357692 
L 375.812255 76.895579 
L 377.616711 76.69127 
L 383.030079 77.123725 
L 384.834535 77.087765 
L 386.638991 76.65857 
L 388.443447 75.860498 
L 390.247903 76.142838 
L 392.052359 77.549594 
L 393.856815 77.902744 
L 395.661271 77.114504 
L 397.465727 76.45523 
L 399.270183 75.037716 
L 401.074639 76.293481 
L 401.074639 76.293481 
" clip-path="url(#p14e5d17da4)" style="fill: none; stroke: #390000; stroke-width: 0.8; stroke-linecap: square"/>
   </g>
   <g id="line2d_6">
    <path d="M 40.183429 159.998058 
L 41.987885 138.683036 
L 43.792341 120.192865 
L 45.596797 104.157452 
L 47.401253 90.256086 
L 49.205709 78.210682 
L 51.010165 67.779974 
L 52.814621 58.754514 
L 54.619077 50.952372 
L 56.423533 44.215425 
L 58.227989 38.406165 
L 60.032445 33.404941 
L 61.836902 29.107586 
L 63.641358 25.423361 
L 65.445814 22.273183 
L 67.25027 19.588096 
L 69.054726 17.307943 
L 70.859182 15.380221 
L 72.663638 13.759087 
L 74.468094 12.4045 
L 76.27255 11.281471 
L 78.077006 10.359421 
L 79.881462 9.611616 
L 81.685918 9.014678 
L 85.29483 8.194191 
L 88.903742 7.763283 
L 92.512654 7.618955 
L 96.121567 7.682498 
L 101.534935 8.040233 
L 108.752759 8.795694 
L 139.428512 12.35275 
L 150.255248 13.284476 
L 162.88644 14.124868 
L 175.517633 14.74361 
L 191.757737 15.292971 
L 211.606754 15.706915 
L 236.869139 15.989719 
L 274.762716 16.166225 
L 350.54987 16.244134 
L 401.074639 16.251384 
L 401.074639 16.251384 
" clip-path="url(#p14e5d17da4)" style="fill: none; stroke: #ffffff; stroke-width: 4; stroke-linecap: square"/>
    <path d="M 40.183429 159.998058 
L 41.987885 138.683036 
L 43.792341 120.192865 
L 45.596797 104.157452 
L 47.401253 90.256086 
L 49.205709 78.210682 
L 51.010165 67.779974 
L 52.814621 58.754514 
L 54.619077 50.952372 
L 56.423533 44.215425 
L 58.227989 38.406165 
L 60.032445 33.404941 
L 61.836902 29.107586 
L 63.641358 25.423361 
L 65.445814 22.273183 
L 67.25027 19.588096 
L 69.054726 17.307943 
L 70.859182 15.380221 
L 72.663638 13.759087 
L 74.468094 12.4045 
L 76.27255 11.281471 
L 78.077006 10.359421 
L 79.881462 9.611616 
L 81.685918 9.014678 
L 85.29483 8.194191 
L 88.903742 7.763283 
L 92.512654 7.618955 
L 96.121567 7.682498 
L 101.534935 8.040233 
L 108.752759 8.795694 
L 139.428512 12.35275 
L 150.255248 13.284476 
L 162.88644 14.124868 
L 175.517633 14.74361 
L 191.757737 15.292971 
L 211.606754 15.706915 
L 236.869139 15.989719 
L 274.762716 16.166225 
L 350.54987 16.244134 
L 401.074639 16.251384 
L 401.074639 16.251384 
" clip-path="url(#p14e5d17da4)" style="fill: none; stroke: #2ca02c; stroke-width: 0.8; stroke-linecap: square"/>
   </g>
   <g id="line2d_7">
    <path d="M 40.183429 159.998058 
L 41.987885 151.988372 
L 43.792341 141.87438 
L 45.596797 138.296316 
L 47.401253 129.355374 
L 49.205709 125.967711 
L 51.010165 120.900081 
L 52.814621 117.47767 
L 54.619077 113.599728 
L 56.423533 110.889433 
L 58.227989 109.043156 
L 60.032445 105.835851 
L 61.836902 103.919238 
L 63.641358 100.606289 
L 65.445814 98.903626 
L 67.25027 96.326393 
L 69.054726 94.823267 
L 70.859182 92.847195 
L 72.663638 91.59826 
L 74.468094 89.555722 
L 78.077006 87.97786 
L 79.881462 85.902898 
L 81.685918 85.035463 
L 83.490374 84.510829 
L 85.29483 84.407538 
L 87.099286 82.954057 
L 88.903742 82.072358 
L 90.708198 80.479515 
L 92.512654 79.36234 
L 94.31711 78.655291 
L 97.926023 76.819852 
L 101.534935 74.121014 
L 103.339391 73.86991 
L 105.143847 73.32955 
L 106.948303 71.973912 
L 110.557215 71.559278 
L 112.361671 70.654807 
L 114.166127 69.069566 
L 115.970583 70.168529 
L 117.775039 68.713508 
L 121.383951 66.159381 
L 123.188407 65.262438 
L 124.992863 65.114355 
L 128.601775 62.419162 
L 130.406232 62.112887 
L 134.015144 61.161035 
L 135.8196 61.192443 
L 137.624056 60.417137 
L 139.428512 60.261555 
L 141.232968 61.399082 
L 143.037424 60.590323 
L 144.84188 60.719416 
L 146.646336 60.022729 
L 150.255248 59.298432 
L 152.059704 60.149473 
L 155.668616 58.999834 
L 159.277528 55.30354 
L 161.081984 54.779894 
L 162.88644 54.997486 
L 164.690897 56.275022 
L 170.104265 54.929352 
L 171.908721 54.912571 
L 173.713177 54.359482 
L 175.517633 54.130134 
L 179.126545 53.290961 
L 180.931001 52.387432 
L 184.539913 51.13719 
L 186.344369 50.653568 
L 188.148825 51.102024 
L 189.953281 50.552652 
L 191.757737 49.739088 
L 193.562193 48.676938 
L 195.366649 48.721733 
L 197.171105 48.940971 
L 200.780018 47.801063 
L 202.584474 47.590305 
L 204.38893 48.201463 
L 206.193386 49.949749 
L 207.997842 50.53956 
L 209.802298 50.20406 
L 211.606754 49.688735 
L 213.41121 48.389986 
L 215.215666 48.547847 
L 217.020122 48.229505 
L 218.824578 48.956448 
L 220.629034 48.498607 
L 222.43349 48.257161 
L 226.042402 47.307436 
L 227.846858 46.998937 
L 229.651314 46.470164 
L 231.45577 46.648539 
L 233.260227 47.015478 
L 235.064683 46.539049 
L 236.869139 46.456274 
L 240.478051 45.447276 
L 242.282507 45.857511 
L 244.086963 45.491009 
L 245.891419 44.690708 
L 247.695875 45.898802 
L 249.500331 45.251969 
L 251.304787 45.663954 
L 253.109243 45.285834 
L 254.913699 45.37207 
L 256.718155 45.177888 
L 258.522611 45.87826 
L 260.327067 45.603781 
L 262.131523 46.436662 
L 265.740436 45.396918 
L 267.544892 45.075205 
L 271.153804 43.790653 
L 272.95826 45.331366 
L 274.762716 45.305527 
L 276.567172 46.363006 
L 278.371628 47.960736 
L 280.176084 47.705503 
L 281.98054 48.343747 
L 287.393908 47.314255 
L 289.198364 46.856747 
L 291.00282 46.843062 
L 292.807276 47.428597 
L 294.611732 47.156919 
L 298.220644 47.359484 
L 300.025101 47.481175 
L 301.829557 47.250515 
L 303.634013 46.842319 
L 305.438469 46.948481 
L 307.242925 46.565102 
L 310.851837 46.676367 
L 312.656293 46.279243 
L 314.460749 45.236639 
L 316.265205 44.811819 
L 318.069661 44.788083 
L 319.874117 44.235938 
L 321.678573 43.84277 
L 327.091941 43.02702 
L 328.896397 43.503518 
L 330.700853 42.757888 
L 332.505309 42.493616 
L 334.309766 43.402244 
L 336.114222 43.132434 
L 337.918678 43.750265 
L 339.723134 43.581153 
L 346.940958 41.964155 
L 348.745414 42.446851 
L 352.354326 41.529661 
L 354.158782 41.592008 
L 355.963238 41.118042 
L 357.767694 40.205115 
L 359.57215 39.1628 
L 363.181062 38.314135 
L 364.985518 37.699989 
L 366.789974 38.024538 
L 368.594431 37.738298 
L 370.398887 37.868469 
L 372.203343 38.361057 
L 374.007799 38.611082 
L 375.812255 38.324132 
L 377.616711 37.846244 
L 379.421167 38.95343 
L 381.225623 38.709048 
L 384.834535 39.799556 
L 386.638991 40.124217 
L 388.443447 39.759764 
L 390.247903 40.011735 
L 392.052359 41.636785 
L 397.465727 40.644347 
L 399.270183 40.587719 
L 401.074639 40.033019 
L 401.074639 40.033019 
" clip-path="url(#p14e5d17da4)" style="fill: none; stroke: #ffffff; stroke-width: 4; stroke-linecap: square"/>
    <path d="M 40.183429 159.998058 
L 41.987885 151.988372 
L 43.792341 141.87438 
L 45.596797 138.296316 
L 47.401253 129.355374 
L 49.205709 125.967711 
L 51.010165 120.900081 
L 52.814621 117.47767 
L 54.619077 113.599728 
L 56.423533 110.889433 
L 58.227989 109.043156 
L 60.032445 105.835851 
L 61.836902 103.919238 
L 63.641358 100.606289 
L 65.445814 98.903626 
L 67.25027 96.326393 
L 69.054726 94.823267 
L 70.859182 92.847195 
L 72.663638 91.59826 
L 74.468094 89.555722 
L 78.077006 87.97786 
L 79.881462 85.902898 
L 81.685918 85.035463 
L 83.490374 84.510829 
L 85.29483 84.407538 
L 87.099286 82.954057 
L 88.903742 82.072358 
L 90.708198 80.479515 
L 92.512654 79.36234 
L 94.31711 78.655291 
L 97.926023 76.819852 
L 101.534935 74.121014 
L 103.339391 73.86991 
L 105.143847 73.32955 
L 106.948303 71.973912 
L 110.557215 71.559278 
L 112.361671 70.654807 
L 114.166127 69.069566 
L 115.970583 70.168529 
L 117.775039 68.713508 
L 121.383951 66.159381 
L 123.188407 65.262438 
L 124.992863 65.114355 
L 128.601775 62.419162 
L 130.406232 62.112887 
L 134.015144 61.161035 
L 135.8196 61.192443 
L 137.624056 60.417137 
L 139.428512 60.261555 
L 141.232968 61.399082 
L 143.037424 60.590323 
L 144.84188 60.719416 
L 146.646336 60.022729 
L 150.255248 59.298432 
L 152.059704 60.149473 
L 155.668616 58.999834 
L 159.277528 55.30354 
L 161.081984 54.779894 
L 162.88644 54.997486 
L 164.690897 56.275022 
L 170.104265 54.929352 
L 171.908721 54.912571 
L 173.713177 54.359482 
L 175.517633 54.130134 
L 179.126545 53.290961 
L 180.931001 52.387432 
L 184.539913 51.13719 
L 186.344369 50.653568 
L 188.148825 51.102024 
L 189.953281 50.552652 
L 191.757737 49.739088 
L 193.562193 48.676938 
L 195.366649 48.721733 
L 197.171105 48.940971 
L 200.780018 47.801063 
L 202.584474 47.590305 
L 204.38893 48.201463 
L 206.193386 49.949749 
L 207.997842 50.53956 
L 209.802298 50.20406 
L 211.606754 49.688735 
L 213.41121 48.389986 
L 215.215666 48.547847 
L 217.020122 48.229505 
L 218.824578 48.956448 
L 220.629034 48.498607 
L 222.43349 48.257161 
L 226.042402 47.307436 
L 227.846858 46.998937 
L 229.651314 46.470164 
L 231.45577 46.648539 
L 233.260227 47.015478 
L 235.064683 46.539049 
L 236.869139 46.456274 
L 240.478051 45.447276 
L 242.282507 45.857511 
L 244.086963 45.491009 
L 245.891419 44.690708 
L 247.695875 45.898802 
L 249.500331 45.251969 
L 251.304787 45.663954 
L 253.109243 45.285834 
L 254.913699 45.37207 
L 256.718155 45.177888 
L 258.522611 45.87826 
L 260.327067 45.603781 
L 262.131523 46.436662 
L 265.740436 45.396918 
L 267.544892 45.075205 
L 271.153804 43.790653 
L 272.95826 45.331366 
L 274.762716 45.305527 
L 276.567172 46.363006 
L 278.371628 47.960736 
L 280.176084 47.705503 
L 281.98054 48.343747 
L 287.393908 47.314255 
L 289.198364 46.856747 
L 291.00282 46.843062 
L 292.807276 47.428597 
L 294.611732 47.156919 
L 298.220644 47.359484 
L 300.025101 47.481175 
L 301.829557 47.250515 
L 303.634013 46.842319 
L 305.438469 46.948481 
L 307.242925 46.565102 
L 310.851837 46.676367 
L 312.656293 46.279243 
L 314.460749 45.236639 
L 316.265205 44.811819 
L 318.069661 44.788083 
L 319.874117 44.235938 
L 321.678573 43.84277 
L 327.091941 43.02702 
L 328.896397 43.503518 
L 330.700853 42.757888 
L 332.505309 42.493616 
L 334.309766 43.402244 
L 336.114222 43.132434 
L 337.918678 43.750265 
L 339.723134 43.581153 
L 346.940958 41.964155 
L 348.745414 42.446851 
L 352.354326 41.529661 
L 354.158782 41.592008 
L 355.963238 41.118042 
L 357.767694 40.205115 
L 359.57215 39.1628 
L 363.181062 38.314135 
L 364.985518 37.699989 
L 366.789974 38.024538 
L 368.594431 37.738298 
L 370.398887 37.868469 
L 372.203343 38.361057 
L 374.007799 38.611082 
L 375.812255 38.324132 
L 377.616711 37.846244 
L 379.421167 38.95343 
L 381.225623 38.709048 
L 384.834535 39.799556 
L 386.638991 40.124217 
L 388.443447 39.759764 
L 390.247903 40.011735 
L 392.052359 41.636785 
L 397.465727 40.644347 
L 399.270183 40.587719 
L 401.074639 40.033019 
L 401.074639 40.033019 
" clip-path="url(#p14e5d17da4)" style="fill: none; stroke: #ff7f0e; stroke-width: 0.8; stroke-linecap: square"/>
   </g>
   <g id="matplotlib.axis_1">
    <g id="xtick_1">
     <g id="line2d_8">
      <defs>
       <path id="m61af4c62cd" d="M 0 0 
L 0 -2.551 
" style="stroke: #000000; stroke-width: 0.8"/>
      </defs>
      <g>
       <use xlink:href="#m61af4c62cd" x="40.183429" y="159.998056" style="stroke: #000000; stroke-width: 0.8"/>
      </g>
     </g>
     <g id="text_1">
      <!-- $\mathdefault{0}$ -->
      <g transform="translate(37.256934 171.800236) scale(0.12 -0.12)">
       <defs>
        <path id="CMR17-30" d="M 2688 2025 
C 2688 2416 2682 3080 2413 3591 
C 2176 4039 1798 4198 1466 4198 
C 1158 4198 768 4058 525 3597 
C 269 3118 243 2524 243 2025 
C 243 1661 250 1106 448 619 
C 723 -39 1216 -128 1466 -128 
C 1760 -128 2208 -7 2470 600 
C 2662 1042 2688 1559 2688 2025 
z
M 1466 -26 
C 1056 -26 813 325 723 812 
C 653 1188 653 1738 653 2096 
C 653 2588 653 2997 736 3387 
C 858 3929 1216 4096 1466 4096 
C 1728 4096 2067 3923 2189 3400 
C 2272 3036 2278 2607 2278 2096 
C 2278 1680 2278 1169 2202 792 
C 2067 95 1690 -26 1466 -26 
z
" transform="scale(0.015625)"/>
       </defs>
       <use xlink:href="#CMR17-30" transform="scale(0.996264)"/>
      </g>
     </g>
    </g>
    <g id="xtick_2">
     <g id="line2d_9">
      <g>
       <use xlink:href="#m61af4c62cd" x="85.29483" y="159.998056" style="stroke: #000000; stroke-width: 0.8"/>
      </g>
     </g>
     <g id="text_2">
      <!-- $\mathdefault{25}$ -->
      <g transform="translate(79.44184 171.800236) scale(0.12 -0.12)">
       <defs>
        <path id="CMR17-32" d="M 2669 989 
L 2554 989 
C 2490 536 2438 459 2413 420 
C 2381 369 1920 369 1830 369 
L 602 369 
C 832 619 1280 1072 1824 1597 
C 2214 1967 2669 2402 2669 3035 
C 2669 3790 2067 4224 1395 4224 
C 691 4224 262 3604 262 3030 
C 262 2780 448 2748 525 2748 
C 589 2748 781 2787 781 3010 
C 781 3207 614 3264 525 3264 
C 486 3264 448 3258 422 3245 
C 544 3790 915 4058 1306 4058 
C 1862 4058 2227 3617 2227 3035 
C 2227 2479 1901 2000 1536 1584 
L 262 146 
L 262 0 
L 2515 0 
L 2669 989 
z
" transform="scale(0.015625)"/>
        <path id="CMR17-35" d="M 730 3692 
C 794 3666 1056 3584 1325 3584 
C 1920 3584 2246 3911 2432 4100 
C 2432 4157 2432 4192 2394 4192 
C 2387 4192 2374 4192 2323 4163 
C 2099 4058 1837 3973 1517 3973 
C 1325 3973 1037 3999 723 4139 
C 653 4171 640 4171 634 4171 
C 602 4171 595 4164 595 4037 
L 595 2203 
C 595 2089 595 2057 659 2057 
C 691 2057 704 2070 736 2114 
C 941 2401 1222 2522 1542 2522 
C 1766 2522 2246 2382 2246 1289 
C 2246 1085 2246 715 2054 421 
C 1894 159 1645 25 1370 25 
C 947 25 518 320 403 814 
C 429 807 480 795 506 795 
C 589 795 749 840 749 1038 
C 749 1210 627 1280 506 1280 
C 358 1280 262 1190 262 1011 
C 262 454 704 -128 1382 -128 
C 2042 -128 2669 440 2669 1264 
C 2669 2030 2170 2624 1549 2624 
C 1222 2624 947 2503 730 2274 
L 730 3692 
z
" transform="scale(0.015625)"/>
       </defs>
       <use xlink:href="#CMR17-32" transform="scale(0.996264)"/>
       <use xlink:href="#CMR17-35" transform="translate(45.690477 0) scale(0.996264)"/>
      </g>
     </g>
    </g>
    <g id="xtick_3">
     <g id="line2d_10">
      <g>
       <use xlink:href="#m61af4c62cd" x="130.406232" y="159.998056" style="stroke: #000000; stroke-width: 0.8"/>
      </g>
     </g>
     <g id="text_3">
      <!-- $\mathdefault{50}$ -->
      <g transform="translate(124.553241 171.800236) scale(0.12 -0.12)">
       <use xlink:href="#CMR17-35" transform="scale(0.996264)"/>
       <use xlink:href="#CMR17-30" transform="translate(45.690477 0) scale(0.996264)"/>
      </g>
     </g>
    </g>
    <g id="xtick_4">
     <g id="line2d_11">
      <g>
       <use xlink:href="#m61af4c62cd" x="175.517633" y="159.998056" style="stroke: #000000; stroke-width: 0.8"/>
      </g>
     </g>
     <g id="text_4">
      <!-- $\mathdefault{75}$ -->
      <g transform="translate(169.664643 171.800236) scale(0.12 -0.12)">
       <defs>
        <path id="CMR17-37" d="M 2886 3941 
L 2886 4081 
L 1382 4081 
C 634 4081 621 4165 595 4288 
L 480 4288 
L 294 3094 
L 410 3094 
C 429 3215 474 3540 550 3661 
C 589 3712 1062 3712 1171 3712 
L 2579 3712 
L 1869 2661 
C 1395 1954 1069 999 1069 165 
C 1069 89 1069 -128 1299 -128 
C 1530 -128 1530 89 1530 171 
L 1530 465 
C 1530 1508 1709 2196 2003 2636 
L 2886 3941 
z
" transform="scale(0.015625)"/>
       </defs>
       <use xlink:href="#CMR17-37" transform="scale(0.996264)"/>
       <use xlink:href="#CMR17-35" transform="translate(45.690477 0) scale(0.996264)"/>
      </g>
     </g>
    </g>
    <g id="xtick_5">
     <g id="line2d_12">
      <g>
       <use xlink:href="#m61af4c62cd" x="220.629034" y="159.998056" style="stroke: #000000; stroke-width: 0.8"/>
      </g>
     </g>
     <g id="text_5">
      <!-- $\mathdefault{100}$ -->
      <g transform="translate(211.849549 171.800236) scale(0.12 -0.12)">
       <defs>
        <path id="CMR17-31" d="M 1702 4058 
C 1702 4192 1696 4192 1606 4192 
C 1357 3916 979 3827 621 3827 
C 602 3827 570 3827 563 3808 
C 557 3795 557 3782 557 3648 
C 755 3648 1088 3686 1344 3839 
L 1344 461 
C 1344 236 1331 160 781 160 
L 589 160 
L 589 0 
C 896 0 1216 0 1523 0 
C 1830 0 2150 0 2458 0 
L 2458 160 
L 2266 160 
C 1715 160 1702 230 1702 458 
L 1702 4058 
z
" transform="scale(0.015625)"/>
       </defs>
       <use xlink:href="#CMR17-31" transform="scale(0.996264)"/>
       <use xlink:href="#CMR17-30" transform="translate(45.690477 0) scale(0.996264)"/>
       <use xlink:href="#CMR17-30" transform="translate(91.380954 0) scale(0.996264)"/>
      </g>
     </g>
    </g>
    <g id="xtick_6">
     <g id="line2d_13">
      <g>
       <use xlink:href="#m61af4c62cd" x="265.740436" y="159.998056" style="stroke: #000000; stroke-width: 0.8"/>
      </g>
     </g>
     <g id="text_6">
      <!-- $\mathdefault{125}$ -->
      <g transform="translate(256.96095 171.800236) scale(0.12 -0.12)">
       <use xlink:href="#CMR17-31" transform="scale(0.996264)"/>
       <use xlink:href="#CMR17-32" transform="translate(45.690477 0) scale(0.996264)"/>
       <use xlink:href="#CMR17-35" transform="translate(91.380954 0) scale(0.996264)"/>
      </g>
     </g>
    </g>
    <g id="xtick_7">
     <g id="line2d_14">
      <g>
       <use xlink:href="#m61af4c62cd" x="310.851837" y="159.998056" style="stroke: #000000; stroke-width: 0.8"/>
      </g>
     </g>
     <g id="text_7">
      <!-- $\mathdefault{150}$ -->
      <g transform="translate(302.072351 171.800236) scale(0.12 -0.12)">
       <use xlink:href="#CMR17-31" transform="scale(0.996264)"/>
       <use xlink:href="#CMR17-35" transform="translate(45.690477 0) scale(0.996264)"/>
       <use xlink:href="#CMR17-30" transform="translate(91.380954 0) scale(0.996264)"/>
      </g>
     </g>
    </g>
    <g id="xtick_8">
     <g id="line2d_15">
      <g>
       <use xlink:href="#m61af4c62cd" x="355.963238" y="159.998056" style="stroke: #000000; stroke-width: 0.8"/>
      </g>
     </g>
     <g id="text_8">
      <!-- $\mathdefault{175}$ -->
      <g transform="translate(347.183753 171.800236) scale(0.12 -0.12)">
       <use xlink:href="#CMR17-31" transform="scale(0.996264)"/>
       <use xlink:href="#CMR17-37" transform="translate(45.690477 0) scale(0.996264)"/>
       <use xlink:href="#CMR17-35" transform="translate(91.380954 0) scale(0.996264)"/>
      </g>
     </g>
    </g>
    <g id="xtick_9">
     <g id="line2d_16">
      <g>
       <use xlink:href="#m61af4c62cd" x="401.074639" y="159.998056" style="stroke: #000000; stroke-width: 0.8"/>
      </g>
     </g>
     <g id="text_9">
      <!-- $\mathdefault{200}$ -->
      <g transform="translate(392.295154 171.800236) scale(0.12 -0.12)">
       <use xlink:href="#CMR17-32" transform="scale(0.996264)"/>
       <use xlink:href="#CMR17-30" transform="translate(45.690477 0) scale(0.996264)"/>
       <use xlink:href="#CMR17-30" transform="translate(91.380954 0) scale(0.996264)"/>
      </g>
     </g>
    </g>
    <g id="xtick_10">
     <g id="line2d_17">
      <defs>
       <path id="m22ab06bbd5" d="M 0 0 
L 0 -1.417 
" style="stroke: #000000; stroke-width: 0.8"/>
      </defs>
      <g>
       <use xlink:href="#m22ab06bbd5" x="31.161149" y="159.998056" style="stroke: #000000; stroke-width: 0.8"/>
      </g>
     </g>
    </g>
    <g id="xtick_11">
     <g id="line2d_18">
      <g>
       <use xlink:href="#m22ab06bbd5" x="49.205709" y="159.998056" style="stroke: #000000; stroke-width: 0.8"/>
      </g>
     </g>
    </g>
    <g id="xtick_12">
     <g id="line2d_19">
      <g>
       <use xlink:href="#m22ab06bbd5" x="58.227989" y="159.998056" style="stroke: #000000; stroke-width: 0.8"/>
      </g>
     </g>
    </g>
    <g id="xtick_13">
     <g id="line2d_20">
      <g>
       <use xlink:href="#m22ab06bbd5" x="67.25027" y="159.998056" style="stroke: #000000; stroke-width: 0.8"/>
      </g>
     </g>
    </g>
    <g id="xtick_14">
     <g id="line2d_21">
      <g>
       <use xlink:href="#m22ab06bbd5" x="76.27255" y="159.998056" style="stroke: #000000; stroke-width: 0.8"/>
      </g>
     </g>
    </g>
    <g id="xtick_15">
     <g id="line2d_22">
      <g>
       <use xlink:href="#m22ab06bbd5" x="94.31711" y="159.998056" style="stroke: #000000; stroke-width: 0.8"/>
      </g>
     </g>
    </g>
    <g id="xtick_16">
     <g id="line2d_23">
      <g>
       <use xlink:href="#m22ab06bbd5" x="103.339391" y="159.998056" style="stroke: #000000; stroke-width: 0.8"/>
      </g>
     </g>
    </g>
    <g id="xtick_17">
     <g id="line2d_24">
      <g>
       <use xlink:href="#m22ab06bbd5" x="112.361671" y="159.998056" style="stroke: #000000; stroke-width: 0.8"/>
      </g>
     </g>
    </g>
    <g id="xtick_18">
     <g id="line2d_25">
      <g>
       <use xlink:href="#m22ab06bbd5" x="121.383951" y="159.998056" style="stroke: #000000; stroke-width: 0.8"/>
      </g>
     </g>
    </g>
    <g id="xtick_19">
     <g id="line2d_26">
      <g>
       <use xlink:href="#m22ab06bbd5" x="139.428512" y="159.998056" style="stroke: #000000; stroke-width: 0.8"/>
      </g>
     </g>
    </g>
    <g id="xtick_20">
     <g id="line2d_27">
      <g>
       <use xlink:href="#m22ab06bbd5" x="148.450792" y="159.998056" style="stroke: #000000; stroke-width: 0.8"/>
      </g>
     </g>
    </g>
    <g id="xtick_21">
     <g id="line2d_28">
      <g>
       <use xlink:href="#m22ab06bbd5" x="157.473072" y="159.998056" style="stroke: #000000; stroke-width: 0.8"/>
      </g>
     </g>
    </g>
    <g id="xtick_22">
     <g id="line2d_29">
      <g>
       <use xlink:href="#m22ab06bbd5" x="166.495353" y="159.998056" style="stroke: #000000; stroke-width: 0.8"/>
      </g>
     </g>
    </g>
    <g id="xtick_23">
     <g id="line2d_30">
      <g>
       <use xlink:href="#m22ab06bbd5" x="184.539913" y="159.998056" style="stroke: #000000; stroke-width: 0.8"/>
      </g>
     </g>
    </g>
    <g id="xtick_24">
     <g id="line2d_31">
      <g>
       <use xlink:href="#m22ab06bbd5" x="193.562193" y="159.998056" style="stroke: #000000; stroke-width: 0.8"/>
      </g>
     </g>
    </g>
    <g id="xtick_25">
     <g id="line2d_32">
      <g>
       <use xlink:href="#m22ab06bbd5" x="202.584474" y="159.998056" style="stroke: #000000; stroke-width: 0.8"/>
      </g>
     </g>
    </g>
    <g id="xtick_26">
     <g id="line2d_33">
      <g>
       <use xlink:href="#m22ab06bbd5" x="211.606754" y="159.998056" style="stroke: #000000; stroke-width: 0.8"/>
      </g>
     </g>
    </g>
    <g id="xtick_27">
     <g id="line2d_34">
      <g>
       <use xlink:href="#m22ab06bbd5" x="229.651314" y="159.998056" style="stroke: #000000; stroke-width: 0.8"/>
      </g>
     </g>
    </g>
    <g id="xtick_28">
     <g id="line2d_35">
      <g>
       <use xlink:href="#m22ab06bbd5" x="238.673595" y="159.998056" style="stroke: #000000; stroke-width: 0.8"/>
      </g>
     </g>
    </g>
    <g id="xtick_29">
     <g id="line2d_36">
      <g>
       <use xlink:href="#m22ab06bbd5" x="247.695875" y="159.998056" style="stroke: #000000; stroke-width: 0.8"/>
      </g>
     </g>
    </g>
    <g id="xtick_30">
     <g id="line2d_37">
      <g>
       <use xlink:href="#m22ab06bbd5" x="256.718155" y="159.998056" style="stroke: #000000; stroke-width: 0.8"/>
      </g>
     </g>
    </g>
    <g id="xtick_31">
     <g id="line2d_38">
      <g>
       <use xlink:href="#m22ab06bbd5" x="274.762716" y="159.998056" style="stroke: #000000; stroke-width: 0.8"/>
      </g>
     </g>
    </g>
    <g id="xtick_32">
     <g id="line2d_39">
      <g>
       <use xlink:href="#m22ab06bbd5" x="283.784996" y="159.998056" style="stroke: #000000; stroke-width: 0.8"/>
      </g>
     </g>
    </g>
    <g id="xtick_33">
     <g id="line2d_40">
      <g>
       <use xlink:href="#m22ab06bbd5" x="292.807276" y="159.998056" style="stroke: #000000; stroke-width: 0.8"/>
      </g>
     </g>
    </g>
    <g id="xtick_34">
     <g id="line2d_41">
      <g>
       <use xlink:href="#m22ab06bbd5" x="301.829557" y="159.998056" style="stroke: #000000; stroke-width: 0.8"/>
      </g>
     </g>
    </g>
    <g id="xtick_35">
     <g id="line2d_42">
      <g>
       <use xlink:href="#m22ab06bbd5" x="319.874117" y="159.998056" style="stroke: #000000; stroke-width: 0.8"/>
      </g>
     </g>
    </g>
    <g id="xtick_36">
     <g id="line2d_43">
      <g>
       <use xlink:href="#m22ab06bbd5" x="328.896397" y="159.998056" style="stroke: #000000; stroke-width: 0.8"/>
      </g>
     </g>
    </g>
    <g id="xtick_37">
     <g id="line2d_44">
      <g>
       <use xlink:href="#m22ab06bbd5" x="337.918678" y="159.998056" style="stroke: #000000; stroke-width: 0.8"/>
      </g>
     </g>
    </g>
    <g id="xtick_38">
     <g id="line2d_45">
      <g>
       <use xlink:href="#m22ab06bbd5" x="346.940958" y="159.998056" style="stroke: #000000; stroke-width: 0.8"/>
      </g>
     </g>
    </g>
    <g id="xtick_39">
     <g id="line2d_46">
      <g>
       <use xlink:href="#m22ab06bbd5" x="364.985518" y="159.998056" style="stroke: #000000; stroke-width: 0.8"/>
      </g>
     </g>
    </g>
    <g id="xtick_40">
     <g id="line2d_47">
      <g>
       <use xlink:href="#m22ab06bbd5" x="374.007799" y="159.998056" style="stroke: #000000; stroke-width: 0.8"/>
      </g>
     </g>
    </g>
    <g id="xtick_41">
     <g id="line2d_48">
      <g>
       <use xlink:href="#m22ab06bbd5" x="383.030079" y="159.998056" style="stroke: #000000; stroke-width: 0.8"/>
      </g>
     </g>
    </g>
    <g id="xtick_42">
     <g id="line2d_49">
      <g>
       <use xlink:href="#m22ab06bbd5" x="392.052359" y="159.998056" style="stroke: #000000; stroke-width: 0.8"/>
      </g>
     </g>
    </g>
    <g id="xtick_43">
     <g id="line2d_50">
      <g>
       <use xlink:href="#m22ab06bbd5" x="410.09692" y="159.998056" style="stroke: #000000; stroke-width: 0.8"/>
      </g>
     </g>
    </g>
    <g id="xtick_44">
     <g id="line2d_51">
      <g>
       <use xlink:href="#m22ab06bbd5" x="419.1192" y="159.998056" style="stroke: #000000; stroke-width: 0.8"/>
      </g>
     </g>
    </g>
    <g id="text_10">
     <!-- $\textrm{evaluation timestep }t\textrm{ (arb.)}$ -->
     <g transform="translate(154.546609 187.091208) scale(0.12 -0.12)">
      <defs>
       <path id="CMR17-65" d="M 2438 1472 
C 2464 1498 2464 1511 2464 1576 
C 2464 2238 2118 2816 1389 2816 
C 710 2816 173 2169 173 1383 
C 173 551 781 -64 1459 -64 
C 2176 -64 2458 607 2458 740 
C 2458 784 2419 784 2406 784 
C 2362 784 2355 771 2330 696 
C 2189 265 1837 51 1504 51 
C 1229 51 954 203 781 480 
C 582 803 582 1176 582 1472 
L 2438 1472 
z
M 589 1568 
C 634 2505 1126 2714 1382 2714 
C 1818 2714 2112 2297 2118 1568 
L 589 1568 
z
" transform="scale(0.015625)"/>
       <path id="CMR17-76" d="M 2502 2163 
C 2560 2304 2662 2560 3034 2560 
L 3034 2726 
C 2912 2726 2752 2726 2630 2726 
C 2496 2726 2285 2726 2157 2732 
L 2157 2566 
C 2317 2553 2406 2477 2406 2311 
C 2406 2253 2406 2240 2368 2151 
L 1664 377 
L 902 2286 
C 864 2369 864 2381 864 2407 
C 864 2560 1075 2560 1171 2560 
L 1171 2732 
C 1018 2726 736 2726 576 2726 
C 403 2726 205 2726 64 2732 
L 64 2560 
C 307 2560 442 2560 518 2362 
L 1446 44 
C 1485 -51 1491 -64 1549 -64 
C 1606 -64 1613 -51 1651 44 
L 2502 2163 
z
" transform="scale(0.015625)"/>
       <path id="CMR17-61" d="M 2304 1653 
C 2304 2072 2304 2294 2035 2543 
C 1798 2752 1523 2816 1306 2816 
C 800 2816 435 2407 435 1971 
C 435 1728 627 1728 666 1728 
C 749 1728 896 1778 896 1954 
C 896 2112 774 2181 666 2181 
C 640 2181 608 2174 589 2168 
C 723 2592 1069 2714 1293 2714 
C 1613 2714 1965 2429 1965 1885 
L 1965 1600 
C 1587 1600 1133 1549 774 1357 
C 371 1133 256 813 256 570 
C 256 77 832 -64 1171 -64 
C 1523 -64 1850 139 1990 511 
C 2003 233 2182 -18 2464 -18 
C 2598 -18 2938 70 2938 567 
L 2938 920 
L 2822 920 
L 2822 562 
C 2822 178 2650 128 2566 128 
C 2304 128 2304 458 2304 738 
L 2304 1653 
z
M 1965 870 
C 1965 317 1568 38 1216 38 
C 896 38 646 275 646 570 
C 646 761 730 1100 1101 1305 
C 1408 1478 1760 1504 1965 1504 
L 1965 870 
z
" transform="scale(0.015625)"/>
       <path id="CMR17-6c" d="M 979 4396 
L 218 4326 
L 218 4160 
C 595 4160 653 4122 653 3817 
L 653 426 
C 653 184 627 153 218 153 
L 218 -13 
C 371 0 653 0 813 0 
C 979 0 1261 0 1414 -13 
L 1414 153 
C 1005 153 979 178 979 426 
L 979 4396 
z
" transform="scale(0.015625)"/>
       <path id="CMR17-75" d="M 1882 2693 
L 1882 2528 
C 2259 2528 2317 2489 2317 2186 
L 2317 1032 
C 2317 500 2029 38 1555 38 
C 1030 38 986 348 986 678 
L 986 2763 
L 211 2693 
L 211 2528 
C 467 2528 640 2528 646 2274 
L 646 1058 
C 646 633 646 361 813 183 
C 896 101 1056 -64 1517 -64 
C 2061 -64 2272 377 2323 506 
L 2330 506 
L 2330 -63 
L 3091 -63 
L 3091 128 
C 2714 128 2656 166 2656 473 
L 2656 2763 
L 1882 2693 
z
" transform="scale(0.015625)"/>
       <path id="CMR17-74" d="M 966 2560 
L 1862 2560 
L 1862 2725 
L 966 2725 
L 966 3904 
L 851 3904 
C 838 3245 614 2668 70 2668 
L 70 2560 
L 627 2560 
L 627 771 
C 627 650 627 -64 1370 -64 
C 1747 -64 1965 306 1965 777 
L 1965 1140 
L 1850 1140 
L 1850 783 
C 1850 344 1677 51 1408 51 
C 1222 51 966 178 966 758 
L 966 2560 
z
" transform="scale(0.015625)"/>
       <path id="CMR17-69" d="M 992 3909 
C 992 4049 877 4170 730 4170 
C 589 4170 467 4056 467 3909 
C 467 3769 582 3648 730 3648 
C 870 3648 992 3763 992 3909 
z
M 243 2706 
L 243 2541 
C 602 2541 653 2502 653 2197 
L 653 427 
C 653 184 627 153 218 153 
L 218 -13 
C 371 0 646 0 806 0 
C 960 0 1222 0 1370 -13 
L 1370 153 
C 992 153 979 191 979 420 
L 979 2776 
L 243 2706 
z
" transform="scale(0.015625)"/>
       <path id="CMR17-6f" d="M 2758 1356 
C 2758 2176 2163 2816 1466 2816 
C 768 2816 173 2176 173 1356 
C 173 551 768 -64 1466 -64 
C 2163 -64 2758 551 2758 1356 
z
M 1466 51 
C 1165 51 909 230 762 480 
C 602 767 582 1126 582 1408 
C 582 1677 595 2010 762 2298 
C 890 2509 1139 2714 1466 2714 
C 1754 2714 1997 2554 2150 2330 
C 2349 2029 2349 1607 2349 1408 
C 2349 1158 2336 775 2163 467 
C 1984 173 1709 51 1466 51 
z
" transform="scale(0.015625)"/>
       <path id="CMR17-6e" d="M 2656 1933 
C 2656 2259 2592 2790 1837 2790 
C 1331 2790 1069 2400 973 2144 
L 966 2144 
L 966 2790 
L 211 2720 
L 211 2554 
C 589 2554 646 2515 646 2208 
L 646 428 
C 646 184 621 153 211 153 
L 211 -13 
C 365 0 646 0 813 0 
C 979 0 1267 0 1421 -13 
L 1421 153 
C 1011 153 986 178 986 428 
L 986 1658 
C 986 2247 1344 2688 1792 2688 
C 2266 2688 2317 2266 2317 1958 
L 2317 428 
C 2317 184 2291 153 1882 153 
L 1882 -13 
C 2035 0 2317 0 2483 0 
C 2650 0 2938 0 3091 -13 
L 3091 153 
C 2682 153 2656 178 2656 428 
L 2656 1933 
z
" transform="scale(0.015625)"/>
       <path id="CMR17-6d" d="M 4326 1933 
C 4326 2252 4269 2790 3507 2790 
C 3072 2790 2771 2496 2656 2151 
L 2650 2151 
C 2573 2676 2195 2790 1837 2790 
C 1331 2790 1069 2400 973 2144 
L 966 2144 
L 966 2790 
L 211 2720 
L 211 2554 
C 589 2554 646 2515 646 2208 
L 646 428 
C 646 184 621 153 211 153 
L 211 -13 
C 365 0 646 0 813 0 
C 979 0 1267 0 1421 -13 
L 1421 153 
C 1011 153 986 178 986 428 
L 986 1658 
C 986 2247 1344 2688 1792 2688 
C 2266 2688 2317 2266 2317 1958 
L 2317 428 
C 2317 184 2291 153 1882 153 
L 1882 -13 
C 2035 0 2317 0 2483 0 
C 2650 0 2938 0 3091 -13 
L 3091 153 
C 2682 153 2656 178 2656 428 
L 2656 1658 
C 2656 2247 3014 2688 3462 2688 
C 3936 2688 3987 2266 3987 1958 
L 3987 428 
C 3987 184 3962 153 3552 153 
L 3552 -13 
C 3706 0 3987 0 4154 0 
C 4320 0 4608 0 4762 -13 
L 4762 153 
C 4352 153 4326 178 4326 428 
L 4326 1933 
z
" transform="scale(0.015625)"/>
       <path id="CMR17-73" d="M 1978 2697 
C 1978 2813 1971 2819 1933 2819 
C 1907 2819 1901 2813 1824 2717 
C 1805 2691 1747 2626 1728 2601 
C 1523 2819 1235 2819 1126 2819 
C 416 2819 160 2447 160 2076 
C 160 1498 813 1365 998 1325 
C 1402 1243 1542 1217 1677 1101 
C 1760 1025 1901 884 1901 654 
C 1901 384 1747 38 1158 38 
C 602 38 403 460 288 1021 
C 269 1110 269 1117 218 1117 
C 166 1117 160 1110 160 983 
L 160 63 
C 160 -51 166 -58 205 -58 
C 237 -58 243 -51 275 0 
C 314 57 410 211 448 276 
C 576 103 800 -64 1158 -64 
C 1792 -64 2131 283 2131 784 
C 2131 1112 1958 1285 1875 1362 
C 1683 1561 1459 1606 1190 1657 
C 838 1735 390 1825 390 2217 
C 390 2383 480 2737 1126 2737 
C 1811 2737 1850 2094 1862 1888 
C 1869 1856 1901 1849 1920 1849 
C 1978 1849 1978 1869 1978 1978 
L 1978 2697 
z
" transform="scale(0.015625)"/>
       <path id="CMR17-70" d="M 1408 -1063 
C 998 -1063 973 -1037 973 -789 
L 973 402 
C 1158 134 1427 -38 1766 -38 
C 2406 -38 3053 523 3053 1388 
C 3053 2191 2496 2802 1837 2802 
C 1453 2802 1139 2592 960 2338 
L 960 2802 
L 198 2732 
L 198 2567 
C 576 2567 634 2528 634 2223 
L 634 -789 
C 634 -1031 608 -1063 198 -1063 
L 198 -1228 
C 352 -1216 634 -1216 800 -1216 
C 966 -1216 1254 -1216 1408 -1228 
L 1408 -1063 
z
M 973 2012 
C 973 2102 973 2235 1222 2471 
C 1254 2497 1472 2688 1792 2688 
C 2259 2688 2643 2108 2643 1382 
C 2643 656 2234 64 1728 64 
C 1498 64 1248 172 1056 472 
C 973 612 973 650 973 752 
L 973 2012 
z
" transform="scale(0.015625)"/>
       <path id="CMMI12-74" d="M 1286 2566 
L 1875 2566 
C 1997 2566 2061 2566 2061 2681 
C 2061 2752 2022 2752 1894 2752 
L 1331 2752 
L 1568 3692 
C 1594 3781 1594 3794 1594 3840 
C 1594 3943 1510 4000 1427 4000 
C 1376 4000 1229 3981 1178 3775 
L 928 2752 
L 326 2752 
C 198 2752 141 2752 141 2630 
C 141 2566 186 2566 307 2566 
L 877 2566 
L 454 881 
C 403 658 384 594 384 511 
C 384 211 595 -64 954 -64 
C 1600 -64 1946 868 1946 912 
C 1946 951 1920 970 1882 970 
C 1869 970 1843 970 1830 944 
C 1824 938 1818 931 1773 829 
C 1638 511 1344 64 973 64 
C 781 64 768 224 768 364 
C 768 370 768 492 787 568 
L 1286 2566 
z
" transform="scale(0.015625)"/>
       <path id="CMR17-28" d="M 1958 -1561 
C 1958 -1555 1958 -1542 1939 -1523 
C 1645 -1224 858 -407 858 1581 
C 858 3569 1632 4379 1946 4697 
C 1946 4704 1958 4717 1958 4736 
C 1958 4755 1939 4768 1914 4768 
C 1843 4768 1299 4296 986 3594 
C 666 2887 576 2199 576 1588 
C 576 1128 621 351 1005 -471 
C 1312 -1135 1837 -1600 1914 -1600 
C 1946 -1600 1958 -1587 1958 -1561 
z
" transform="scale(0.015625)"/>
       <path id="CMR17-72" d="M 960 1497 
C 960 2112 1222 2688 1702 2688 
C 1747 2688 1792 2682 1837 2662 
C 1837 2662 1696 2617 1696 2452 
C 1696 2298 1818 2234 1914 2234 
C 1990 2234 2131 2279 2131 2458 
C 2131 2663 1926 2790 1709 2790 
C 1222 2790 1011 2317 947 2093 
L 941 2093 
L 941 2790 
L 198 2720 
L 198 2554 
C 576 2554 634 2515 634 2208 
L 634 428 
C 634 184 608 153 198 153 
L 198 -13 
C 352 0 646 0 813 0 
C 998 0 1325 0 1498 -13 
L 1498 153 
C 1037 153 960 153 960 440 
L 960 1497 
z
" transform="scale(0.015625)"/>
       <path id="CMR17-62" d="M 960 4396 
L 198 4326 
L 198 4160 
C 576 4160 634 4122 634 3817 
L 634 -13 
L 749 -13 
L 934 441 
C 1120 141 1395 -64 1766 -64 
C 2406 -64 3053 500 3053 1370 
C 3053 2188 2477 2790 1830 2790 
C 1434 2790 1152 2579 960 2330 
L 960 4396 
z
M 973 2004 
C 973 2118 973 2138 1062 2272 
C 1312 2657 1670 2688 1792 2688 
C 1984 2688 2643 2585 2643 1376 
C 2643 108 1888 38 1734 38 
C 1536 38 1248 114 1043 486 
C 973 608 973 621 973 735 
L 973 2004 
z
" transform="scale(0.015625)"/>
       <path id="CMR17-2e" d="M 1062 261 
C 1062 420 934 522 800 522 
C 672 522 538 420 538 261 
C 538 102 666 0 800 0 
C 928 0 1062 102 1062 261 
z
" transform="scale(0.015625)"/>
       <path id="CMR17-29" d="M 1683 1581 
C 1683 2040 1638 2817 1254 3639 
C 947 4303 422 4768 346 4768 
C 326 4768 301 4761 301 4729 
C 301 4717 307 4710 314 4697 
C 621 4378 1402 3568 1402 1584 
C 1402 -407 627 -1217 314 -1537 
C 307 -1549 301 -1556 301 -1568 
C 301 -1600 326 -1600 346 -1600 
C 416 -1600 960 -1128 1274 -426 
C 1594 281 1683 969 1683 1581 
z
" transform="scale(0.015625)"/>
      </defs>
      <use xlink:href="#CMR17-65" transform="scale(0.996264)"/>
      <use xlink:href="#CMR17-76" transform="translate(40.48566 0) scale(0.996264)"/>
      <use xlink:href="#CMR17-61" transform="translate(83.57376 0) scale(0.996264)"/>
      <use xlink:href="#CMR17-6c" transform="translate(129.264237 0) scale(0.996264)"/>
      <use xlink:href="#CMR17-75" transform="translate(154.135295 0) scale(0.996264)"/>
      <use xlink:href="#CMR17-61" transform="translate(205.030665 0) scale(0.996264)"/>
      <use xlink:href="#CMR17-74" transform="translate(250.721142 0) scale(0.996264)"/>
      <use xlink:href="#CMR17-69" transform="translate(286.00191 0) scale(0.996264)"/>
      <use xlink:href="#CMR17-6f" transform="translate(310.872968 0) scale(0.996264)"/>
      <use xlink:href="#CMR17-6e" transform="translate(356.563446 0) scale(0.996264)"/>
      <use xlink:href="#CMR17-74" transform="translate(437.534782 0) scale(0.996264)"/>
      <use xlink:href="#CMR17-69" transform="translate(472.815549 0) scale(0.996264)"/>
      <use xlink:href="#CMR17-6d" transform="translate(497.686608 0) scale(0.996264)"/>
      <use xlink:href="#CMR17-65" transform="translate(574.606198 0) scale(0.996264)"/>
      <use xlink:href="#CMR17-73" transform="translate(615.091858 0) scale(0.996264)"/>
      <use xlink:href="#CMR17-74" transform="translate(650.893196 0) scale(0.996264)"/>
      <use xlink:href="#CMR17-65" transform="translate(686.173964 0) scale(0.996264)"/>
      <use xlink:href="#CMR17-70" transform="translate(726.659624 0) scale(0.996264)"/>
      <use xlink:href="#CMMI12-74" transform="translate(807.63096 0) scale(0.996264)"/>
      <use xlink:href="#CMR17-28" transform="translate(872.933257 0) scale(0.996264)"/>
      <use xlink:href="#CMR17-61" transform="translate(908.214025 0) scale(0.996264)"/>
      <use xlink:href="#CMR17-72" transform="translate(953.904502 0) scale(0.996264)"/>
      <use xlink:href="#CMR17-62" transform="translate(989.18527 0) scale(0.996264)"/>
      <use xlink:href="#CMR17-2e" transform="translate(1040.080639 0) scale(0.996264)"/>
      <use xlink:href="#CMR17-29" transform="translate(1064.951698 0) scale(0.996264)"/>
     </g>
    </g>
   </g>
   <g id="matplotlib.axis_2">
    <g id="ytick_1">
     <g id="line2d_52">
      <defs>
       <path id="m99edaad03a" d="M 0 0 
L 2.551 0 
" style="stroke: #000000; stroke-width: 0.8"/>
      </defs>
      <g>
       <use xlink:href="#m99edaad03a" x="31.161149" y="159.998056" style="stroke: #000000; stroke-width: 0.8"/>
      </g>
     </g>
     <g id="text_11">
      <!-- $\mathdefault{0}$ -->
      <g transform="translate(21.808158 164.149146) scale(0.12 -0.12)">
       <use xlink:href="#CMR17-30" transform="scale(0.996264)"/>
      </g>
     </g>
    </g>
    <g id="ytick_2">
     <g id="line2d_53">
      <g>
       <use xlink:href="#m99edaad03a" x="31.161149" y="132.37388" style="stroke: #000000; stroke-width: 0.8"/>
      </g>
     </g>
     <g id="text_12">
      <!-- $\mathdefault{10}$ -->
      <g transform="translate(15.955168 136.52497) scale(0.12 -0.12)">
       <use xlink:href="#CMR17-31" transform="scale(0.996264)"/>
       <use xlink:href="#CMR17-30" transform="translate(45.690477 0) scale(0.996264)"/>
      </g>
     </g>
    </g>
    <g id="ytick_3">
     <g id="line2d_54">
      <g>
       <use xlink:href="#m99edaad03a" x="31.161149" y="104.749703" style="stroke: #000000; stroke-width: 0.8"/>
      </g>
     </g>
     <g id="text_13">
      <!-- $\mathdefault{20}$ -->
      <g transform="translate(15.955168 108.900793) scale(0.12 -0.12)">
       <use xlink:href="#CMR17-32" transform="scale(0.996264)"/>
       <use xlink:href="#CMR17-30" transform="translate(45.690477 0) scale(0.996264)"/>
      </g>
     </g>
    </g>
    <g id="ytick_4">
     <g id="line2d_55">
      <g>
       <use xlink:href="#m99edaad03a" x="31.161149" y="77.125527" style="stroke: #000000; stroke-width: 0.8"/>
      </g>
     </g>
     <g id="text_14">
      <!-- $\mathdefault{30}$ -->
      <g transform="translate(15.955168 81.276617) scale(0.12 -0.12)">
       <defs>
        <path id="CMR17-33" d="M 1414 2157 
C 1984 2157 2234 1662 2234 1090 
C 2234 320 1824 25 1453 25 
C 1114 25 563 194 390 693 
C 422 680 454 680 486 680 
C 640 680 755 782 755 948 
C 755 1133 614 1216 486 1216 
C 378 1216 211 1165 211 926 
C 211 335 787 -128 1466 -128 
C 2176 -128 2720 430 2720 1085 
C 2720 1707 2208 2157 1600 2227 
C 2086 2328 2554 2756 2554 3329 
C 2554 3820 2048 4179 1472 4179 
C 890 4179 378 3829 378 3329 
C 378 3110 544 3072 627 3072 
C 762 3072 877 3155 877 3321 
C 877 3486 762 3569 627 3569 
C 602 3569 570 3569 544 3557 
C 730 3959 1235 4032 1459 4032 
C 1683 4032 2106 3925 2106 3320 
C 2106 3143 2080 2828 1862 2550 
C 1670 2304 1453 2304 1242 2284 
C 1210 2284 1062 2269 1037 2269 
C 992 2263 966 2257 966 2208 
C 966 2163 973 2157 1101 2157 
L 1414 2157 
z
" transform="scale(0.015625)"/>
       </defs>
       <use xlink:href="#CMR17-33" transform="scale(0.996264)"/>
       <use xlink:href="#CMR17-30" transform="translate(45.690477 0) scale(0.996264)"/>
      </g>
     </g>
    </g>
    <g id="ytick_5">
     <g id="line2d_56">
      <g>
       <use xlink:href="#m99edaad03a" x="31.161149" y="49.501351" style="stroke: #000000; stroke-width: 0.8"/>
      </g>
     </g>
     <g id="text_15">
      <!-- $\mathdefault{40}$ -->
      <g transform="translate(15.955168 53.65244) scale(0.12 -0.12)">
       <defs>
        <path id="CMR17-34" d="M 2150 4122 
C 2150 4256 2144 4256 2029 4256 
L 128 1254 
L 128 1088 
L 1779 1088 
L 1779 457 
C 1779 224 1766 160 1318 160 
L 1197 160 
L 1197 0 
C 1402 0 1747 0 1965 0 
C 2182 0 2528 0 2733 0 
L 2733 160 
L 2611 160 
C 2163 160 2150 224 2150 457 
L 2150 1088 
L 2803 1088 
L 2803 1254 
L 2150 1254 
L 2150 4122 
z
M 1798 3703 
L 1798 1254 
L 256 1254 
L 1798 3703 
z
" transform="scale(0.015625)"/>
       </defs>
       <use xlink:href="#CMR17-34" transform="scale(0.996264)"/>
       <use xlink:href="#CMR17-30" transform="translate(45.690477 0) scale(0.996264)"/>
      </g>
     </g>
    </g>
    <g id="ytick_6">
     <g id="line2d_57">
      <g>
       <use xlink:href="#m99edaad03a" x="31.161149" y="21.877174" style="stroke: #000000; stroke-width: 0.8"/>
      </g>
     </g>
     <g id="text_16">
      <!-- $\mathdefault{50}$ -->
      <g transform="translate(15.955168 26.028264) scale(0.12 -0.12)">
       <use xlink:href="#CMR17-35" transform="scale(0.996264)"/>
       <use xlink:href="#CMR17-30" transform="translate(45.690477 0) scale(0.996264)"/>
      </g>
     </g>
    </g>
    <g id="ytick_7">
     <g id="line2d_58">
      <defs>
       <path id="mf2ada519ab" d="M 0 0 
L 1.417 0 
" style="stroke: #000000; stroke-width: 0.8"/>
      </defs>
      <g>
       <use xlink:href="#mf2ada519ab" x="31.161149" y="154.473221" style="stroke: #000000; stroke-width: 0.8"/>
      </g>
     </g>
    </g>
    <g id="ytick_8">
     <g id="line2d_59">
      <g>
       <use xlink:href="#mf2ada519ab" x="31.161149" y="148.948386" style="stroke: #000000; stroke-width: 0.8"/>
      </g>
     </g>
    </g>
    <g id="ytick_9">
     <g id="line2d_60">
      <g>
       <use xlink:href="#mf2ada519ab" x="31.161149" y="143.42355" style="stroke: #000000; stroke-width: 0.8"/>
      </g>
     </g>
    </g>
    <g id="ytick_10">
     <g id="line2d_61">
      <g>
       <use xlink:href="#mf2ada519ab" x="31.161149" y="137.898715" style="stroke: #000000; stroke-width: 0.8"/>
      </g>
     </g>
    </g>
    <g id="ytick_11">
     <g id="line2d_62">
      <g>
       <use xlink:href="#mf2ada519ab" x="31.161149" y="126.849045" style="stroke: #000000; stroke-width: 0.8"/>
      </g>
     </g>
    </g>
    <g id="ytick_12">
     <g id="line2d_63">
      <g>
       <use xlink:href="#mf2ada519ab" x="31.161149" y="121.324209" style="stroke: #000000; stroke-width: 0.8"/>
      </g>
     </g>
    </g>
    <g id="ytick_13">
     <g id="line2d_64">
      <g>
       <use xlink:href="#mf2ada519ab" x="31.161149" y="115.799374" style="stroke: #000000; stroke-width: 0.8"/>
      </g>
     </g>
    </g>
    <g id="ytick_14">
     <g id="line2d_65">
      <g>
       <use xlink:href="#mf2ada519ab" x="31.161149" y="110.274539" style="stroke: #000000; stroke-width: 0.8"/>
      </g>
     </g>
    </g>
    <g id="ytick_15">
     <g id="line2d_66">
      <g>
       <use xlink:href="#mf2ada519ab" x="31.161149" y="99.224868" style="stroke: #000000; stroke-width: 0.8"/>
      </g>
     </g>
    </g>
    <g id="ytick_16">
     <g id="line2d_67">
      <g>
       <use xlink:href="#mf2ada519ab" x="31.161149" y="93.700033" style="stroke: #000000; stroke-width: 0.8"/>
      </g>
     </g>
    </g>
    <g id="ytick_17">
     <g id="line2d_68">
      <g>
       <use xlink:href="#mf2ada519ab" x="31.161149" y="88.175198" style="stroke: #000000; stroke-width: 0.8"/>
      </g>
     </g>
    </g>
    <g id="ytick_18">
     <g id="line2d_69">
      <g>
       <use xlink:href="#mf2ada519ab" x="31.161149" y="82.650362" style="stroke: #000000; stroke-width: 0.8"/>
      </g>
     </g>
    </g>
    <g id="ytick_19">
     <g id="line2d_70">
      <g>
       <use xlink:href="#mf2ada519ab" x="31.161149" y="71.600692" style="stroke: #000000; stroke-width: 0.8"/>
      </g>
     </g>
    </g>
    <g id="ytick_20">
     <g id="line2d_71">
      <g>
       <use xlink:href="#mf2ada519ab" x="31.161149" y="66.075856" style="stroke: #000000; stroke-width: 0.8"/>
      </g>
     </g>
    </g>
    <g id="ytick_21">
     <g id="line2d_72">
      <g>
       <use xlink:href="#mf2ada519ab" x="31.161149" y="60.551021" style="stroke: #000000; stroke-width: 0.8"/>
      </g>
     </g>
    </g>
    <g id="ytick_22">
     <g id="line2d_73">
      <g>
       <use xlink:href="#mf2ada519ab" x="31.161149" y="55.026186" style="stroke: #000000; stroke-width: 0.8"/>
      </g>
     </g>
    </g>
    <g id="ytick_23">
     <g id="line2d_74">
      <g>
       <use xlink:href="#mf2ada519ab" x="31.161149" y="43.976515" style="stroke: #000000; stroke-width: 0.8"/>
      </g>
     </g>
    </g>
    <g id="ytick_24">
     <g id="line2d_75">
      <g>
       <use xlink:href="#mf2ada519ab" x="31.161149" y="38.45168" style="stroke: #000000; stroke-width: 0.8"/>
      </g>
     </g>
    </g>
    <g id="ytick_25">
     <g id="line2d_76">
      <g>
       <use xlink:href="#mf2ada519ab" x="31.161149" y="32.926845" style="stroke: #000000; stroke-width: 0.8"/>
      </g>
     </g>
    </g>
    <g id="ytick_26">
     <g id="line2d_77">
      <g>
       <use xlink:href="#mf2ada519ab" x="31.161149" y="27.402009" style="stroke: #000000; stroke-width: 0.8"/>
      </g>
     </g>
    </g>
    <g id="ytick_27">
     <g id="line2d_78">
      <g>
       <use xlink:href="#mf2ada519ab" x="31.161149" y="16.352339" style="stroke: #000000; stroke-width: 0.8"/>
      </g>
     </g>
    </g>
    <g id="ytick_28">
     <g id="line2d_79">
      <g>
       <use xlink:href="#mf2ada519ab" x="31.161149" y="10.827504" style="stroke: #000000; stroke-width: 0.8"/>
      </g>
     </g>
    </g>
    <g id="ytick_29">
     <g id="line2d_80">
      <g>
       <use xlink:href="#mf2ada519ab" x="31.161149" y="5.302668" style="stroke: #000000; stroke-width: 0.8"/>
      </g>
     </g>
    </g>
    <g id="text_17">
     <!-- $\textrm{Infidelity (\%)}$ -->
     <g transform="translate(8.966376 114.301979) rotate(-90) scale(0.12 -0.12)">
      <defs>
       <path id="CMR17-49" d="M 1261 3905 
C 1261 4192 1338 4192 1798 4192 
L 1798 4352 
C 1594 4352 1267 4352 1050 4352 
C 832 4352 506 4352 301 4352 
L 301 4192 
C 762 4192 838 4192 838 3905 
L 838 447 
C 838 160 762 160 301 160 
L 301 0 
C 506 0 832 0 1050 0 
C 1267 0 1594 0 1798 0 
L 1798 160 
C 1338 160 1261 160 1261 447 
L 1261 3905 
z
" transform="scale(0.015625)"/>
       <path id="CMR17-c" d="M 2554 2764 
C 2400 2764 1926 2764 1805 2739 
C 1766 2725 1754 2725 1677 2725 
L 947 2725 
L 947 3469 
C 947 4073 1434 4352 1818 4352 
C 1939 4352 2214 4320 2355 4101 
C 2291 4101 2086 4101 2086 3878 
C 2086 3725 2189 3648 2317 3648 
C 2432 3648 2547 3712 2547 3885 
C 2547 4205 2240 4454 1843 4454 
C 1338 4454 634 4168 634 3469 
L 634 2725 
L 122 2725 
L 122 2560 
L 634 2560 
L 634 427 
C 634 184 608 153 198 153 
L 198 -13 
C 352 0 634 0 794 0 
C 960 0 1242 0 1395 -13 
L 1395 153 
C 986 153 960 178 960 427 
L 960 2560 
L 1901 2560 
C 2176 2560 2227 2502 2227 2222 
L 2227 427 
C 2227 184 2202 153 1792 153 
L 1792 -13 
C 1946 0 2227 0 2387 0 
C 2554 0 2835 0 2989 -13 
L 2989 153 
C 2579 153 2554 178 2554 427 
L 2554 2764 
z
" transform="scale(0.015625)"/>
       <path id="CMR17-64" d="M 1869 4326 
L 1869 4160 
C 2246 4160 2304 4122 2304 3820 
L 2304 2345 
C 2278 2377 2016 2790 1498 2790 
C 845 2790 211 2208 211 1364 
C 211 525 806 -64 1434 -64 
C 1978 -64 2259 337 2291 380 
L 2291 -63 
L 3066 -63 
L 3066 128 
C 2688 128 2630 166 2630 473 
L 2630 4396 
L 1869 4326 
z
M 2291 755 
C 2291 563 2176 390 2029 262 
C 1811 70 1594 38 1472 38 
C 1286 38 621 134 621 1356 
C 621 2612 1363 2688 1530 2688 
C 1824 2688 2061 2522 2208 2291 
C 2291 2157 2291 2138 2291 2023 
L 2291 755 
z
" transform="scale(0.015625)"/>
       <path id="CMR17-79" d="M 2496 2197 
C 2656 2586 2944 2586 3034 2586 
L 3034 2752 
C 2912 2752 2752 2752 2630 2752 
C 2496 2752 2285 2752 2157 2758 
L 2157 2592 
C 2400 2573 2406 2394 2406 2343 
C 2406 2280 2394 2248 2362 2171 
L 1664 449 
L 902 2306 
C 870 2382 870 2426 870 2433 
C 870 2573 1018 2586 1171 2586 
L 1171 2758 
C 1018 2752 742 2752 582 2752 
C 410 2752 205 2752 64 2758 
L 64 2586 
C 410 2586 448 2554 531 2350 
L 1485 15 
C 1197 -738 1030 -1178 627 -1178 
C 557 -1178 397 -1159 282 -1044 
C 429 -1031 493 -942 493 -833 
C 493 -725 416 -629 288 -629 
C 147 -629 77 -725 77 -840 
C 77 -1095 339 -1280 627 -1280 
C 998 -1280 1229 -922 1357 -604 
L 2496 2197 
z
" transform="scale(0.015625)"/>
       <path id="CMR17-25" d="M 4640 959 
C 4640 1698 4275 2240 3846 2240 
C 3411 2240 2970 1736 2970 959 
C 2970 183 3405 -320 3846 -320 
C 4275 -320 4640 215 4640 959 
z
M 3853 -218 
C 3686 -218 3270 -66 3270 959 
C 3270 1991 3686 2138 3853 2138 
C 4205 2138 4525 1634 4525 959 
C 4525 285 4205 -218 3853 -218 
z
M 4083 4577 
C 4128 4647 4134 4653 4134 4685 
C 4134 4761 4077 4800 4026 4800 
C 3962 4800 3936 4756 3891 4706 
C 3520 4190 3008 4134 2746 4134 
C 2106 4134 1715 4494 1594 4607 
C 1510 4682 1389 4800 1171 4800 
C 736 4800 294 4296 294 3519 
C 294 2743 730 2240 1171 2240 
C 1600 2240 1965 2778 1965 3527 
C 1965 3969 1830 4270 1811 4308 
C 2202 4064 2586 4032 2752 4032 
C 3162 4032 3456 4183 3616 4289 
L 3622 4283 
L 858 -84 
C 800 -174 800 -187 800 -206 
C 800 -276 858 -320 915 -320 
C 973 -320 992 -289 1037 -218 
L 4083 4577 
z
M 1178 2342 
C 1011 2342 595 2494 595 3519 
C 595 4551 1011 4698 1178 4698 
C 1530 4698 1850 4194 1850 3519 
C 1850 2845 1530 2342 1178 2342 
z
" transform="scale(0.015625)"/>
      </defs>
      <use xlink:href="#CMR17-49" transform="scale(0.996264)"/>
      <use xlink:href="#CMR17-6e" transform="translate(32.638409 0) scale(0.996264)"/>
      <use xlink:href="#CMR17-c" transform="translate(83.533779 0) scale(0.996264)"/>
      <use xlink:href="#CMR17-64" transform="translate(133.276002 0) scale(0.996264)"/>
      <use xlink:href="#CMR17-65" transform="translate(184.171372 0) scale(0.996264)"/>
      <use xlink:href="#CMR17-6c" transform="translate(224.657033 0) scale(0.996264)"/>
      <use xlink:href="#CMR17-69" transform="translate(249.528091 0) scale(0.996264)"/>
      <use xlink:href="#CMR17-74" transform="translate(274.39915 0) scale(0.996264)"/>
      <use xlink:href="#CMR17-79" transform="translate(307.077463 0) scale(0.996264)"/>
      <use xlink:href="#CMR17-28" transform="translate(385.446346 0) scale(0.996264)"/>
      <use xlink:href="#CMR17-25" transform="translate(420.727113 0) scale(0.996264)"/>
      <use xlink:href="#CMR17-29" transform="translate(497.646703 0) scale(0.996264)"/>
     </g>
    </g>
   </g>
   <g id="patch_3">
    <path d="M 31.161149 159.998056 
L 31.161149 0 
" style="fill: none; stroke: #000000; stroke-width: 0.8; stroke-linejoin: miter; stroke-linecap: square"/>
   </g>
   <g id="patch_4">
    <path d="M 419.1192 159.998056 
L 419.1192 0 
" style="fill: none; stroke: #000000; stroke-width: 0.8; stroke-linejoin: miter; stroke-linecap: square"/>
   </g>
   <g id="patch_5">
    <path d="M 31.161149 159.998056 
L 419.1192 159.998056 
" style="fill: none; stroke: #000000; stroke-width: 0.8; stroke-linejoin: miter; stroke-linecap: square"/>
   </g>
   <g id="patch_6">
    <path d="M 31.161149 0 
L 419.1192 0 
" style="fill: none; stroke: #000000; stroke-width: 0.8; stroke-linejoin: miter; stroke-linecap: square"/>
   </g>
   <g id="legend_1">
    <g id="patch_7">
     <path d="M 130.879626 153.998056 
L 410.7192 153.998056 
Q 413.1192 153.998056 413.1192 151.598056 
L 413.1192 102.624269 
Q 413.1192 100.224269 410.7192 100.224269 
L 130.879626 100.224269 
Q 128.479626 100.224269 128.479626 102.624269 
L 128.479626 151.598056 
Q 128.479626 153.998056 130.879626 153.998056 
z
" style="fill: #ffffff; opacity: 0.8; stroke: #cccccc; stroke-linejoin: miter"/>
    </g>
    <g id="line2d_81">
     <path d="M 133.279626 109.224269 
L 139.279626 109.224269 
L 145.279626 109.224269 
" style="fill: none; stroke: #ffffff; stroke-width: 4; stroke-linecap: square"/>
     <path d="M 133.279626 109.224269 
L 139.279626 109.224269 
L 145.279626 109.224269 
" style="fill: none; stroke: #2ca02c; stroke-width: 0.8; stroke-linecap: square"/>
    </g>
    <g id="text_18">
     <!-- $\textrm{baseline}$ -->
     <g transform="translate(151.279626 113.424269) scale(0.12 -0.12)">
      <use xlink:href="#CMR17-62" transform="scale(0.996264)"/>
      <use xlink:href="#CMR17-61" transform="translate(50.89537 0) scale(0.996264)"/>
      <use xlink:href="#CMR17-73" transform="translate(96.585847 0) scale(0.996264)"/>
      <use xlink:href="#CMR17-65" transform="translate(132.387185 0) scale(0.996264)"/>
      <use xlink:href="#CMR17-6c" transform="translate(172.872845 0) scale(0.996264)"/>
      <use xlink:href="#CMR17-69" transform="translate(197.743903 0) scale(0.996264)"/>
      <use xlink:href="#CMR17-6e" transform="translate(222.614962 0) scale(0.996264)"/>
      <use xlink:href="#CMR17-65" transform="translate(273.510332 0) scale(0.996264)"/>
     </g>
    </g>
    <g id="line2d_82">
     <path d="M 133.279626 125.948865 
L 139.279626 125.948865 
L 145.279626 125.948865 
" style="fill: none; stroke: #ffffff; stroke-width: 4; stroke-linecap: square"/>
     <path d="M 133.279626 125.948865 
L 139.279626 125.948865 
L 145.279626 125.948865 
" style="fill: none; stroke: #ff7f0e; stroke-width: 0.8; stroke-linecap: square"/>
    </g>
    <g id="text_19">
     <!-- $\textrm{stabilizer code}$ -->
     <g transform="translate(151.279626 130.148865) scale(0.12 -0.12)">
      <defs>
       <path id="CMR17-7a" d="M 2310 2605 
C 2362 2670 2362 2682 2362 2695 
C 2362 2752 2336 2752 2221 2752 
L 275 2752 
L 211 1760 
L 326 1760 
C 371 2381 442 2650 1178 2650 
L 1958 2650 
L 128 96 
C 128 0 134 0 269 0 
L 2291 0 
L 2381 1152 
L 2266 1152 
C 2214 442 2131 115 1350 115 
L 531 115 
L 2310 2605 
z
" transform="scale(0.015625)"/>
       <path id="CMR17-63" d="M 2234 2240 
C 2112 2240 1933 2240 1933 2017 
C 1933 1838 2080 1787 2163 1787 
C 2208 1787 2394 1807 2394 2024 
C 2394 2467 1958 2803 1466 2803 
C 787 2803 211 2178 211 1363 
C 211 516 813 -64 1466 -64 
C 2259 -64 2458 677 2458 748 
C 2458 774 2451 793 2406 793 
C 2362 793 2355 787 2330 703 
C 2163 180 1798 51 1523 51 
C 1114 51 621 427 621 1369 
C 621 2338 1094 2688 1472 2688 
C 1722 2688 2093 2573 2234 2240 
z
" transform="scale(0.015625)"/>
      </defs>
      <use xlink:href="#CMR17-73" transform="scale(0.996264)"/>
      <use xlink:href="#CMR17-74" transform="translate(35.801338 0) scale(0.996264)"/>
      <use xlink:href="#CMR17-61" transform="translate(71.082105 0) scale(0.996264)"/>
      <use xlink:href="#CMR17-62" transform="translate(116.772583 0) scale(0.996264)"/>
      <use xlink:href="#CMR17-69" transform="translate(167.667952 0) scale(0.996264)"/>
      <use xlink:href="#CMR17-6c" transform="translate(192.539011 0) scale(0.996264)"/>
      <use xlink:href="#CMR17-69" transform="translate(217.410069 0) scale(0.996264)"/>
      <use xlink:href="#CMR17-7a" transform="translate(242.281128 0) scale(0.996264)"/>
      <use xlink:href="#CMR17-65" transform="translate(282.766788 0) scale(0.996264)"/>
      <use xlink:href="#CMR17-72" transform="translate(323.252449 0) scale(0.996264)"/>
      <use xlink:href="#CMR17-63" transform="translate(388.609183 0) scale(0.996264)"/>
      <use xlink:href="#CMR17-6f" transform="translate(429.094843 0) scale(0.996264)"/>
      <use xlink:href="#CMR17-64" transform="translate(477.387759 0) scale(0.996264)"/>
      <use xlink:href="#CMR17-65" transform="translate(528.283129 0) scale(0.996264)"/>
     </g>
    </g>
    <g id="line2d_83">
     <path d="M 133.279626 142.673461 
L 139.279626 142.673461 
L 145.279626 142.673461 
" style="fill: none; stroke: #e60000; stroke-width: 0.8; stroke-linecap: square"/>
    </g>
    <g id="text_20">
     <!-- $\textrm{model } s=4$ -->
     <g transform="translate(151.279626 146.873461) scale(0.12 -0.12)">
      <defs>
       <path id="CMMI12-73" d="M 1459 1280 
C 1568 1261 1741 1223 1779 1216 
C 1862 1192 2150 1090 2150 783 
C 2150 586 1971 70 1229 70 
C 1094 70 614 70 486 436 
C 742 404 870 603 870 745 
C 870 880 781 950 653 950 
C 512 950 326 841 326 552 
C 326 173 710 -64 1222 -64 
C 2195 -64 2483 651 2483 984 
C 2483 1079 2483 1258 2278 1462 
C 2118 1616 1965 1648 1619 1718 
C 1446 1756 1171 1814 1171 2101 
C 1171 2229 1286 2689 1894 2689 
C 2163 2689 2426 2589 2490 2368 
C 2208 2368 2195 2125 2195 2119 
C 2195 1984 2317 1946 2374 1946 
C 2464 1946 2643 2015 2643 2281 
C 2643 2545 2400 2816 1901 2816 
C 1062 2816 838 2160 838 1899 
C 838 1414 1312 1312 1459 1280 
z
" transform="scale(0.015625)"/>
       <path id="CMR17-3d" d="M 4115 2017 
C 4211 2017 4307 2017 4307 2125 
C 4307 2240 4198 2240 4090 2240 
L 512 2240 
C 403 2240 294 2240 294 2125 
C 294 2017 390 2017 486 2017 
L 4115 2017 
z
M 4090 896 
C 4198 896 4307 896 4307 1011 
C 4307 1119 4211 1119 4115 1119 
L 486 1119 
C 390 1119 294 1119 294 1011 
C 294 896 403 896 512 896 
L 4090 896 
z
" transform="scale(0.015625)"/>
      </defs>
      <use xlink:href="#CMR17-6d" transform="scale(0.996264)"/>
      <use xlink:href="#CMR17-6f" transform="translate(76.91959 0) scale(0.996264)"/>
      <use xlink:href="#CMR17-64" transform="translate(125.212506 0) scale(0.996264)"/>
      <use xlink:href="#CMR17-65" transform="translate(176.107875 0) scale(0.996264)"/>
      <use xlink:href="#CMR17-6c" transform="translate(216.593536 0) scale(0.996264)"/>
      <use xlink:href="#CMMI12-73" transform="translate(271.540561 0) scale(0.996264)"/>
      <use xlink:href="#CMR17-3d" transform="translate(345.164617 0) scale(0.996264)"/>
      <use xlink:href="#CMR17-34" transform="translate(444.553414 0) scale(0.996264)"/>
     </g>
    </g>
    <g id="line2d_84">
     <path d="M 236.507037 109.224269 
L 242.507037 109.224269 
L 248.507037 109.224269 
" style="fill: none; stroke: #730000; stroke-width: 0.8; stroke-linecap: square"/>
    </g>
    <g id="text_21">
     <!-- $\textrm{model } s=2$ -->
     <g transform="translate(254.507037 113.424269) scale(0.12 -0.12)">
      <use xlink:href="#CMR17-6d" transform="scale(0.996264)"/>
      <use xlink:href="#CMR17-6f" transform="translate(76.91959 0) scale(0.996264)"/>
      <use xlink:href="#CMR17-64" transform="translate(125.212506 0) scale(0.996264)"/>
      <use xlink:href="#CMR17-65" transform="translate(176.107875 0) scale(0.996264)"/>
      <use xlink:href="#CMR17-6c" transform="translate(216.593536 0) scale(0.996264)"/>
      <use xlink:href="#CMMI12-73" transform="translate(271.540561 0) scale(0.996264)"/>
      <use xlink:href="#CMR17-3d" transform="translate(345.164617 0) scale(0.996264)"/>
      <use xlink:href="#CMR17-32" transform="translate(444.553414 0) scale(0.996264)"/>
     </g>
    </g>
    <g id="line2d_85">
     <path d="M 236.507037 125.948865 
L 242.507037 125.948865 
L 248.507037 125.948865 
" style="fill: none; stroke: #ac0000; stroke-width: 0.8; stroke-linecap: square"/>
    </g>
    <g id="text_22">
     <!-- $\textrm{model } s=3$ -->
     <g transform="translate(254.507037 130.148865) scale(0.12 -0.12)">
      <use xlink:href="#CMR17-6d" transform="scale(0.996264)"/>
      <use xlink:href="#CMR17-6f" transform="translate(76.91959 0) scale(0.996264)"/>
      <use xlink:href="#CMR17-64" transform="translate(125.212506 0) scale(0.996264)"/>
      <use xlink:href="#CMR17-65" transform="translate(176.107875 0) scale(0.996264)"/>
      <use xlink:href="#CMR17-6c" transform="translate(216.593536 0) scale(0.996264)"/>
      <use xlink:href="#CMMI12-73" transform="translate(271.540561 0) scale(0.996264)"/>
      <use xlink:href="#CMR17-3d" transform="translate(345.164617 0) scale(0.996264)"/>
      <use xlink:href="#CMR17-33" transform="translate(444.553414 0) scale(0.996264)"/>
     </g>
    </g>
    <g id="line2d_86">
     <path d="M 328.413118 109.224269 
L 334.413118 109.224269 
L 340.413118 109.224269 
" style="fill: none; stroke: #000000; stroke-width: 0.8; stroke-linecap: square"/>
    </g>
    <g id="text_23">
     <!-- $\textrm{model } s=0$ -->
     <g transform="translate(346.413118 113.424269) scale(0.12 -0.12)">
      <use xlink:href="#CMR17-6d" transform="scale(0.996264)"/>
      <use xlink:href="#CMR17-6f" transform="translate(76.91959 0) scale(0.996264)"/>
      <use xlink:href="#CMR17-64" transform="translate(125.212506 0) scale(0.996264)"/>
      <use xlink:href="#CMR17-65" transform="translate(176.107875 0) scale(0.996264)"/>
      <use xlink:href="#CMR17-6c" transform="translate(216.593536 0) scale(0.996264)"/>
      <use xlink:href="#CMMI12-73" transform="translate(271.540561 0) scale(0.996264)"/>
      <use xlink:href="#CMR17-3d" transform="translate(345.164617 0) scale(0.996264)"/>
      <use xlink:href="#CMR17-30" transform="translate(444.553414 0) scale(0.996264)"/>
     </g>
    </g>
    <g id="line2d_87">
     <path d="M 328.413118 125.948865 
L 334.413118 125.948865 
L 340.413118 125.948865 
" style="fill: none; stroke: #390000; stroke-width: 0.8; stroke-linecap: square"/>
    </g>
    <g id="text_24">
     <!-- $\textrm{model } s=1$ -->
     <g transform="translate(346.413118 130.148865) scale(0.12 -0.12)">
      <use xlink:href="#CMR17-6d" transform="scale(0.996264)"/>
      <use xlink:href="#CMR17-6f" transform="translate(76.91959 0) scale(0.996264)"/>
      <use xlink:href="#CMR17-64" transform="translate(125.212506 0) scale(0.996264)"/>
      <use xlink:href="#CMR17-65" transform="translate(176.107875 0) scale(0.996264)"/>
      <use xlink:href="#CMR17-6c" transform="translate(216.593536 0) scale(0.996264)"/>
      <use xlink:href="#CMMI12-73" transform="translate(271.540561 0) scale(0.996264)"/>
      <use xlink:href="#CMR17-3d" transform="translate(345.164617 0) scale(0.996264)"/>
      <use xlink:href="#CMR17-31" transform="translate(444.553414 0) scale(0.996264)"/>
     </g>
    </g>
   </g>
  </g>
 </g>
 <defs>
  <clipPath id="p14e5d17da4">
   <rect x="31.161149" y="0" width="387.958051" height="159.998056"/>
  </clipPath>
 </defs>
</svg>
