<?xml version="1.0" encoding="utf-8" standalone="no"?>
<!DOCTYPE svg PUBLIC "-//W3C//DTD SVG 1.1//EN"
  "http://www.w3.org/Graphics/SVG/1.1/DTD/svg11.dtd">
<svg xmlns:xlink="http://www.w3.org/1999/xlink" width="419.1192pt" height="190.08pt" viewBox="0 0 419.1192 190.08" xmlns="http://www.w3.org/2000/svg" version="1.1">
 <metadata>
  <rdf:RDF xmlns:dc="http://purl.org/dc/elements/1.1/" xmlns:cc="http://creativecommons.org/ns#" xmlns:rdf="http://www.w3.org/1999/02/22-rdf-syntax-ns#">
   <cc:Work>
    <dc:type rdf:resource="http://purl.org/dc/dcmitype/StillImage"/>
    <dc:date>2025-11-17T10:10:50.795396</dc:date>
    <dc:format>image/svg+xml</dc:format>
    <dc:creator>
     <cc:Agent>
      <dc:title>Matplotlib v3.10.6, https://matplotlib.org/</dc:title>
     </cc:Agent>
    </dc:creator>
   </cc:Work>
  </rdf:RDF>
 </metadata>
 <defs>
  <style type="text/css">*{stroke-linejoin: round; stroke-linecap: butt}</style>
 </defs>
 <g id="figure_1">
  <g id="patch_1">
   <path d="M 0 190.08 
L 419.1192 190.08 
L 419.1192 0 
L 0 0 
z
" style="fill: #ffffff"/>
  </g>
  <g id="axes_1">
   <g id="patch_2">
    <path d="M 37.014139 159.998056 
L 379.987954 159.998056 
L 379.987954 0 
L 37.014139 0 
z
" style="fill: #ffffff"/>
   </g>
   <g id="matplotlib.axis_1">
    <g id="xtick_1">
     <g id="line2d_1">
      <defs>
       <path id="mb46ab4d34b" d="M 0 0 
L 0 -2.551 
" style="stroke: #000000; stroke-width: 0.8"/>
      </defs>
      <g>
       <use xlink:href="#mb46ab4d34b" x="52.603858" y="159.998056" style="stroke: #000000; stroke-width: 0.8"/>
      </g>
     </g>
     <g id="text_1">
      <!-- $\mathdefault{0}$ -->
      <g transform="translate(49.677363 171.800236) scale(0.12 -0.12)">
       <defs>
        <path id="CMR17-30" d="M 2688 2025 
C 2688 2416 2682 3080 2413 3591 
C 2176 4039 1798 4198 1466 4198 
C 1158 4198 768 4058 525 3597 
C 269 3118 243 2524 243 2025 
C 243 1661 250 1106 448 619 
C 723 -39 1216 -128 1466 -128 
C 1760 -128 2208 -7 2470 600 
C 2662 1042 2688 1559 2688 2025 
z
M 1466 -26 
C 1056 -26 813 325 723 812 
C 653 1188 653 1738 653 2096 
C 653 2588 653 2997 736 3387 
C 858 3929 1216 4096 1466 4096 
C 1728 4096 2067 3923 2189 3400 
C 2272 3036 2278 2607 2278 2096 
C 2278 1680 2278 1169 2202 792 
C 2067 95 1690 -26 1466 -26 
z
" transform="scale(0.015625)"/>
       </defs>
       <use xlink:href="#CMR17-30" transform="scale(0.996264)"/>
      </g>
     </g>
    </g>
    <g id="xtick_2">
     <g id="line2d_2">
      <g>
       <use xlink:href="#mb46ab4d34b" x="91.578155" y="159.998056" style="stroke: #000000; stroke-width: 0.8"/>
      </g>
     </g>
     <g id="text_2">
      <!-- $\mathdefault{25}$ -->
      <g transform="translate(85.725165 171.800236) scale(0.12 -0.12)">
       <defs>
        <path id="CMR17-32" d="M 2669 989 
L 2554 989 
C 2490 536 2438 459 2413 420 
C 2381 369 1920 369 1830 369 
L 602 369 
C 832 619 1280 1072 1824 1597 
C 2214 1967 2669 2402 2669 3035 
C 2669 3790 2067 4224 1395 4224 
C 691 4224 262 3604 262 3030 
C 262 2780 448 2748 525 2748 
C 589 2748 781 2787 781 3010 
C 781 3207 614 3264 525 3264 
C 486 3264 448 3258 422 3245 
C 544 3790 915 4058 1306 4058 
C 1862 4058 2227 3617 2227 3035 
C 2227 2479 1901 2000 1536 1584 
L 262 146 
L 262 0 
L 2515 0 
L 2669 989 
z
" transform="scale(0.015625)"/>
        <path id="CMR17-35" d="M 730 3692 
C 794 3666 1056 3584 1325 3584 
C 1920 3584 2246 3911 2432 4100 
C 2432 4157 2432 4192 2394 4192 
C 2387 4192 2374 4192 2323 4163 
C 2099 4058 1837 3973 1517 3973 
C 1325 3973 1037 3999 723 4139 
C 653 4171 640 4171 634 4171 
C 602 4171 595 4164 595 4037 
L 595 2203 
C 595 2089 595 2057 659 2057 
C 691 2057 704 2070 736 2114 
C 941 2401 1222 2522 1542 2522 
C 1766 2522 2246 2382 2246 1289 
C 2246 1085 2246 715 2054 421 
C 1894 159 1645 25 1370 25 
C 947 25 518 320 403 814 
C 429 807 480 795 506 795 
C 589 795 749 840 749 1038 
C 749 1210 627 1280 506 1280 
C 358 1280 262 1190 262 1011 
C 262 454 704 -128 1382 -128 
C 2042 -128 2669 440 2669 1264 
C 2669 2030 2170 2624 1549 2624 
C 1222 2624 947 2503 730 2274 
L 730 3692 
z
" transform="scale(0.015625)"/>
       </defs>
       <use xlink:href="#CMR17-32" transform="scale(0.996264)"/>
       <use xlink:href="#CMR17-35" transform="translate(45.690477 0) scale(0.996264)"/>
      </g>
     </g>
    </g>
    <g id="xtick_3">
     <g id="line2d_3">
      <g>
       <use xlink:href="#mb46ab4d34b" x="130.552452" y="159.998056" style="stroke: #000000; stroke-width: 0.8"/>
      </g>
     </g>
     <g id="text_3">
      <!-- $\mathdefault{50}$ -->
      <g transform="translate(124.699462 171.800236) scale(0.12 -0.12)">
       <use xlink:href="#CMR17-35" transform="scale(0.996264)"/>
       <use xlink:href="#CMR17-30" transform="translate(45.690477 0) scale(0.996264)"/>
      </g>
     </g>
    </g>
    <g id="xtick_4">
     <g id="line2d_4">
      <g>
       <use xlink:href="#mb46ab4d34b" x="169.526749" y="159.998056" style="stroke: #000000; stroke-width: 0.8"/>
      </g>
     </g>
     <g id="text_4">
      <!-- $\mathdefault{75}$ -->
      <g transform="translate(163.673759 171.800236) scale(0.12 -0.12)">
       <defs>
        <path id="CMR17-37" d="M 2886 3941 
L 2886 4081 
L 1382 4081 
C 634 4081 621 4165 595 4288 
L 480 4288 
L 294 3094 
L 410 3094 
C 429 3215 474 3540 550 3661 
C 589 3712 1062 3712 1171 3712 
L 2579 3712 
L 1869 2661 
C 1395 1954 1069 999 1069 165 
C 1069 89 1069 -128 1299 -128 
C 1530 -128 1530 89 1530 171 
L 1530 465 
C 1530 1508 1709 2196 2003 2636 
L 2886 3941 
z
" transform="scale(0.015625)"/>
       </defs>
       <use xlink:href="#CMR17-37" transform="scale(0.996264)"/>
       <use xlink:href="#CMR17-35" transform="translate(45.690477 0) scale(0.996264)"/>
      </g>
     </g>
    </g>
    <g id="xtick_5">
     <g id="line2d_5">
      <g>
       <use xlink:href="#mb46ab4d34b" x="208.501047" y="159.998056" style="stroke: #000000; stroke-width: 0.8"/>
      </g>
     </g>
     <g id="text_5">
      <!-- $\mathdefault{100}$ -->
      <g transform="translate(199.721561 171.800236) scale(0.12 -0.12)">
       <defs>
        <path id="CMR17-31" d="M 1702 4058 
C 1702 4192 1696 4192 1606 4192 
C 1357 3916 979 3827 621 3827 
C 602 3827 570 3827 563 3808 
C 557 3795 557 3782 557 3648 
C 755 3648 1088 3686 1344 3839 
L 1344 461 
C 1344 236 1331 160 781 160 
L 589 160 
L 589 0 
C 896 0 1216 0 1523 0 
C 1830 0 2150 0 2458 0 
L 2458 160 
L 2266 160 
C 1715 160 1702 230 1702 458 
L 1702 4058 
z
" transform="scale(0.015625)"/>
       </defs>
       <use xlink:href="#CMR17-31" transform="scale(0.996264)"/>
       <use xlink:href="#CMR17-30" transform="translate(45.690477 0) scale(0.996264)"/>
       <use xlink:href="#CMR17-30" transform="translate(91.380954 0) scale(0.996264)"/>
      </g>
     </g>
    </g>
    <g id="xtick_6">
     <g id="line2d_6">
      <g>
       <use xlink:href="#mb46ab4d34b" x="247.475344" y="159.998056" style="stroke: #000000; stroke-width: 0.8"/>
      </g>
     </g>
     <g id="text_6">
      <!-- $\mathdefault{125}$ -->
      <g transform="translate(238.695859 171.800236) scale(0.12 -0.12)">
       <use xlink:href="#CMR17-31" transform="scale(0.996264)"/>
       <use xlink:href="#CMR17-32" transform="translate(45.690477 0) scale(0.996264)"/>
       <use xlink:href="#CMR17-35" transform="translate(91.380954 0) scale(0.996264)"/>
      </g>
     </g>
    </g>
    <g id="xtick_7">
     <g id="line2d_7">
      <g>
       <use xlink:href="#mb46ab4d34b" x="286.449641" y="159.998056" style="stroke: #000000; stroke-width: 0.8"/>
      </g>
     </g>
     <g id="text_7">
      <!-- $\mathdefault{150}$ -->
      <g transform="translate(277.670156 171.800236) scale(0.12 -0.12)">
       <use xlink:href="#CMR17-31" transform="scale(0.996264)"/>
       <use xlink:href="#CMR17-35" transform="translate(45.690477 0) scale(0.996264)"/>
       <use xlink:href="#CMR17-30" transform="translate(91.380954 0) scale(0.996264)"/>
      </g>
     </g>
    </g>
    <g id="xtick_8">
     <g id="line2d_8">
      <g>
       <use xlink:href="#mb46ab4d34b" x="325.423938" y="159.998056" style="stroke: #000000; stroke-width: 0.8"/>
      </g>
     </g>
     <g id="text_8">
      <!-- $\mathdefault{175}$ -->
      <g transform="translate(316.644453 171.800236) scale(0.12 -0.12)">
       <use xlink:href="#CMR17-31" transform="scale(0.996264)"/>
       <use xlink:href="#CMR17-37" transform="translate(45.690477 0) scale(0.996264)"/>
       <use xlink:href="#CMR17-35" transform="translate(91.380954 0) scale(0.996264)"/>
      </g>
     </g>
    </g>
    <g id="xtick_9">
     <g id="line2d_9">
      <g>
       <use xlink:href="#mb46ab4d34b" x="364.398236" y="159.998056" style="stroke: #000000; stroke-width: 0.8"/>
      </g>
     </g>
     <g id="text_9">
      <!-- $\mathdefault{200}$ -->
      <g transform="translate(355.61875 171.800236) scale(0.12 -0.12)">
       <use xlink:href="#CMR17-32" transform="scale(0.996264)"/>
       <use xlink:href="#CMR17-30" transform="translate(45.690477 0) scale(0.996264)"/>
       <use xlink:href="#CMR17-30" transform="translate(91.380954 0) scale(0.996264)"/>
      </g>
     </g>
    </g>
    <g id="xtick_10">
     <g id="line2d_10">
      <defs>
       <path id="m652813728f" d="M 0 0 
L 0 -1.417 
" style="stroke: #000000; stroke-width: 0.8"/>
      </defs>
      <g>
       <use xlink:href="#m652813728f" x="37.014139" y="159.998056" style="stroke: #000000; stroke-width: 0.8"/>
      </g>
     </g>
    </g>
    <g id="xtick_11">
     <g id="line2d_11">
      <g>
       <use xlink:href="#m652813728f" x="44.808998" y="159.998056" style="stroke: #000000; stroke-width: 0.8"/>
      </g>
     </g>
    </g>
    <g id="xtick_12">
     <g id="line2d_12">
      <g>
       <use xlink:href="#m652813728f" x="60.398717" y="159.998056" style="stroke: #000000; stroke-width: 0.8"/>
      </g>
     </g>
    </g>
    <g id="xtick_13">
     <g id="line2d_13">
      <g>
       <use xlink:href="#m652813728f" x="68.193577" y="159.998056" style="stroke: #000000; stroke-width: 0.8"/>
      </g>
     </g>
    </g>
    <g id="xtick_14">
     <g id="line2d_14">
      <g>
       <use xlink:href="#m652813728f" x="75.988436" y="159.998056" style="stroke: #000000; stroke-width: 0.8"/>
      </g>
     </g>
    </g>
    <g id="xtick_15">
     <g id="line2d_15">
      <g>
       <use xlink:href="#m652813728f" x="83.783296" y="159.998056" style="stroke: #000000; stroke-width: 0.8"/>
      </g>
     </g>
    </g>
    <g id="xtick_16">
     <g id="line2d_16">
      <g>
       <use xlink:href="#m652813728f" x="99.373014" y="159.998056" style="stroke: #000000; stroke-width: 0.8"/>
      </g>
     </g>
    </g>
    <g id="xtick_17">
     <g id="line2d_17">
      <g>
       <use xlink:href="#m652813728f" x="107.167874" y="159.998056" style="stroke: #000000; stroke-width: 0.8"/>
      </g>
     </g>
    </g>
    <g id="xtick_18">
     <g id="line2d_18">
      <g>
       <use xlink:href="#m652813728f" x="114.962733" y="159.998056" style="stroke: #000000; stroke-width: 0.8"/>
      </g>
     </g>
    </g>
    <g id="xtick_19">
     <g id="line2d_19">
      <g>
       <use xlink:href="#m652813728f" x="122.757593" y="159.998056" style="stroke: #000000; stroke-width: 0.8"/>
      </g>
     </g>
    </g>
    <g id="xtick_20">
     <g id="line2d_20">
      <g>
       <use xlink:href="#m652813728f" x="138.347312" y="159.998056" style="stroke: #000000; stroke-width: 0.8"/>
      </g>
     </g>
    </g>
    <g id="xtick_21">
     <g id="line2d_21">
      <g>
       <use xlink:href="#m652813728f" x="146.142171" y="159.998056" style="stroke: #000000; stroke-width: 0.8"/>
      </g>
     </g>
    </g>
    <g id="xtick_22">
     <g id="line2d_22">
      <g>
       <use xlink:href="#m652813728f" x="153.937031" y="159.998056" style="stroke: #000000; stroke-width: 0.8"/>
      </g>
     </g>
    </g>
    <g id="xtick_23">
     <g id="line2d_23">
      <g>
       <use xlink:href="#m652813728f" x="161.73189" y="159.998056" style="stroke: #000000; stroke-width: 0.8"/>
      </g>
     </g>
    </g>
    <g id="xtick_24">
     <g id="line2d_24">
      <g>
       <use xlink:href="#m652813728f" x="177.321609" y="159.998056" style="stroke: #000000; stroke-width: 0.8"/>
      </g>
     </g>
    </g>
    <g id="xtick_25">
     <g id="line2d_25">
      <g>
       <use xlink:href="#m652813728f" x="185.116468" y="159.998056" style="stroke: #000000; stroke-width: 0.8"/>
      </g>
     </g>
    </g>
    <g id="xtick_26">
     <g id="line2d_26">
      <g>
       <use xlink:href="#m652813728f" x="192.911328" y="159.998056" style="stroke: #000000; stroke-width: 0.8"/>
      </g>
     </g>
    </g>
    <g id="xtick_27">
     <g id="line2d_27">
      <g>
       <use xlink:href="#m652813728f" x="200.706187" y="159.998056" style="stroke: #000000; stroke-width: 0.8"/>
      </g>
     </g>
    </g>
    <g id="xtick_28">
     <g id="line2d_28">
      <g>
       <use xlink:href="#m652813728f" x="216.295906" y="159.998056" style="stroke: #000000; stroke-width: 0.8"/>
      </g>
     </g>
    </g>
    <g id="xtick_29">
     <g id="line2d_29">
      <g>
       <use xlink:href="#m652813728f" x="224.090766" y="159.998056" style="stroke: #000000; stroke-width: 0.8"/>
      </g>
     </g>
    </g>
    <g id="xtick_30">
     <g id="line2d_30">
      <g>
       <use xlink:href="#m652813728f" x="231.885625" y="159.998056" style="stroke: #000000; stroke-width: 0.8"/>
      </g>
     </g>
    </g>
    <g id="xtick_31">
     <g id="line2d_31">
      <g>
       <use xlink:href="#m652813728f" x="239.680484" y="159.998056" style="stroke: #000000; stroke-width: 0.8"/>
      </g>
     </g>
    </g>
    <g id="xtick_32">
     <g id="line2d_32">
      <g>
       <use xlink:href="#m652813728f" x="255.270203" y="159.998056" style="stroke: #000000; stroke-width: 0.8"/>
      </g>
     </g>
    </g>
    <g id="xtick_33">
     <g id="line2d_33">
      <g>
       <use xlink:href="#m652813728f" x="263.065063" y="159.998056" style="stroke: #000000; stroke-width: 0.8"/>
      </g>
     </g>
    </g>
    <g id="xtick_34">
     <g id="line2d_34">
      <g>
       <use xlink:href="#m652813728f" x="270.859922" y="159.998056" style="stroke: #000000; stroke-width: 0.8"/>
      </g>
     </g>
    </g>
    <g id="xtick_35">
     <g id="line2d_35">
      <g>
       <use xlink:href="#m652813728f" x="278.654782" y="159.998056" style="stroke: #000000; stroke-width: 0.8"/>
      </g>
     </g>
    </g>
    <g id="xtick_36">
     <g id="line2d_36">
      <g>
       <use xlink:href="#m652813728f" x="294.244501" y="159.998056" style="stroke: #000000; stroke-width: 0.8"/>
      </g>
     </g>
    </g>
    <g id="xtick_37">
     <g id="line2d_37">
      <g>
       <use xlink:href="#m652813728f" x="302.03936" y="159.998056" style="stroke: #000000; stroke-width: 0.8"/>
      </g>
     </g>
    </g>
    <g id="xtick_38">
     <g id="line2d_38">
      <g>
       <use xlink:href="#m652813728f" x="309.834219" y="159.998056" style="stroke: #000000; stroke-width: 0.8"/>
      </g>
     </g>
    </g>
    <g id="xtick_39">
     <g id="line2d_39">
      <g>
       <use xlink:href="#m652813728f" x="317.629079" y="159.998056" style="stroke: #000000; stroke-width: 0.8"/>
      </g>
     </g>
    </g>
    <g id="xtick_40">
     <g id="line2d_40">
      <g>
       <use xlink:href="#m652813728f" x="333.218798" y="159.998056" style="stroke: #000000; stroke-width: 0.8"/>
      </g>
     </g>
    </g>
    <g id="xtick_41">
     <g id="line2d_41">
      <g>
       <use xlink:href="#m652813728f" x="341.013657" y="159.998056" style="stroke: #000000; stroke-width: 0.8"/>
      </g>
     </g>
    </g>
    <g id="xtick_42">
     <g id="line2d_42">
      <g>
       <use xlink:href="#m652813728f" x="348.808517" y="159.998056" style="stroke: #000000; stroke-width: 0.8"/>
      </g>
     </g>
    </g>
    <g id="xtick_43">
     <g id="line2d_43">
      <g>
       <use xlink:href="#m652813728f" x="356.603376" y="159.998056" style="stroke: #000000; stroke-width: 0.8"/>
      </g>
     </g>
    </g>
    <g id="xtick_44">
     <g id="line2d_44">
      <g>
       <use xlink:href="#m652813728f" x="372.193095" y="159.998056" style="stroke: #000000; stroke-width: 0.8"/>
      </g>
     </g>
    </g>
    <g id="xtick_45">
     <g id="line2d_45">
      <g>
       <use xlink:href="#m652813728f" x="379.987954" y="159.998056" style="stroke: #000000; stroke-width: 0.8"/>
      </g>
     </g>
    </g>
    <g id="text_10">
     <!-- $\textrm{evaluation time step }t\textrm{ (arb.)}$ -->
     <g transform="translate(135.956484 187.091208) scale(0.12 -0.12)">
      <defs>
       <path id="CMR17-65" d="M 2438 1472 
C 2464 1498 2464 1511 2464 1576 
C 2464 2238 2118 2816 1389 2816 
C 710 2816 173 2169 173 1383 
C 173 551 781 -64 1459 -64 
C 2176 -64 2458 607 2458 740 
C 2458 784 2419 784 2406 784 
C 2362 784 2355 771 2330 696 
C 2189 265 1837 51 1504 51 
C 1229 51 954 203 781 480 
C 582 803 582 1176 582 1472 
L 2438 1472 
z
M 589 1568 
C 634 2505 1126 2714 1382 2714 
C 1818 2714 2112 2297 2118 1568 
L 589 1568 
z
" transform="scale(0.015625)"/>
       <path id="CMR17-76" d="M 2502 2163 
C 2560 2304 2662 2560 3034 2560 
L 3034 2726 
C 2912 2726 2752 2726 2630 2726 
C 2496 2726 2285 2726 2157 2732 
L 2157 2566 
C 2317 2553 2406 2477 2406 2311 
C 2406 2253 2406 2240 2368 2151 
L 1664 377 
L 902 2286 
C 864 2369 864 2381 864 2407 
C 864 2560 1075 2560 1171 2560 
L 1171 2732 
C 1018 2726 736 2726 576 2726 
C 403 2726 205 2726 64 2732 
L 64 2560 
C 307 2560 442 2560 518 2362 
L 1446 44 
C 1485 -51 1491 -64 1549 -64 
C 1606 -64 1613 -51 1651 44 
L 2502 2163 
z
" transform="scale(0.015625)"/>
       <path id="CMR17-61" d="M 2304 1653 
C 2304 2072 2304 2294 2035 2543 
C 1798 2752 1523 2816 1306 2816 
C 800 2816 435 2407 435 1971 
C 435 1728 627 1728 666 1728 
C 749 1728 896 1778 896 1954 
C 896 2112 774 2181 666 2181 
C 640 2181 608 2174 589 2168 
C 723 2592 1069 2714 1293 2714 
C 1613 2714 1965 2429 1965 1885 
L 1965 1600 
C 1587 1600 1133 1549 774 1357 
C 371 1133 256 813 256 570 
C 256 77 832 -64 1171 -64 
C 1523 -64 1850 139 1990 511 
C 2003 233 2182 -18 2464 -18 
C 2598 -18 2938 70 2938 567 
L 2938 920 
L 2822 920 
L 2822 562 
C 2822 178 2650 128 2566 128 
C 2304 128 2304 458 2304 738 
L 2304 1653 
z
M 1965 870 
C 1965 317 1568 38 1216 38 
C 896 38 646 275 646 570 
C 646 761 730 1100 1101 1305 
C 1408 1478 1760 1504 1965 1504 
L 1965 870 
z
" transform="scale(0.015625)"/>
       <path id="CMR17-6c" d="M 979 4396 
L 218 4326 
L 218 4160 
C 595 4160 653 4122 653 3817 
L 653 426 
C 653 184 627 153 218 153 
L 218 -13 
C 371 0 653 0 813 0 
C 979 0 1261 0 1414 -13 
L 1414 153 
C 1005 153 979 178 979 426 
L 979 4396 
z
" transform="scale(0.015625)"/>
       <path id="CMR17-75" d="M 1882 2693 
L 1882 2528 
C 2259 2528 2317 2489 2317 2186 
L 2317 1032 
C 2317 500 2029 38 1555 38 
C 1030 38 986 348 986 678 
L 986 2763 
L 211 2693 
L 211 2528 
C 467 2528 640 2528 646 2274 
L 646 1058 
C 646 633 646 361 813 183 
C 896 101 1056 -64 1517 -64 
C 2061 -64 2272 377 2323 506 
L 2330 506 
L 2330 -63 
L 3091 -63 
L 3091 128 
C 2714 128 2656 166 2656 473 
L 2656 2763 
L 1882 2693 
z
" transform="scale(0.015625)"/>
       <path id="CMR17-74" d="M 966 2560 
L 1862 2560 
L 1862 2725 
L 966 2725 
L 966 3904 
L 851 3904 
C 838 3245 614 2668 70 2668 
L 70 2560 
L 627 2560 
L 627 771 
C 627 650 627 -64 1370 -64 
C 1747 -64 1965 306 1965 777 
L 1965 1140 
L 1850 1140 
L 1850 783 
C 1850 344 1677 51 1408 51 
C 1222 51 966 178 966 758 
L 966 2560 
z
" transform="scale(0.015625)"/>
       <path id="CMR17-69" d="M 992 3909 
C 992 4049 877 4170 730 4170 
C 589 4170 467 4056 467 3909 
C 467 3769 582 3648 730 3648 
C 870 3648 992 3763 992 3909 
z
M 243 2706 
L 243 2541 
C 602 2541 653 2502 653 2197 
L 653 427 
C 653 184 627 153 218 153 
L 218 -13 
C 371 0 646 0 806 0 
C 960 0 1222 0 1370 -13 
L 1370 153 
C 992 153 979 191 979 420 
L 979 2776 
L 243 2706 
z
" transform="scale(0.015625)"/>
       <path id="CMR17-6f" d="M 2758 1356 
C 2758 2176 2163 2816 1466 2816 
C 768 2816 173 2176 173 1356 
C 173 551 768 -64 1466 -64 
C 2163 -64 2758 551 2758 1356 
z
M 1466 51 
C 1165 51 909 230 762 480 
C 602 767 582 1126 582 1408 
C 582 1677 595 2010 762 2298 
C 890 2509 1139 2714 1466 2714 
C 1754 2714 1997 2554 2150 2330 
C 2349 2029 2349 1607 2349 1408 
C 2349 1158 2336 775 2163 467 
C 1984 173 1709 51 1466 51 
z
" transform="scale(0.015625)"/>
       <path id="CMR17-6e" d="M 2656 1933 
C 2656 2259 2592 2790 1837 2790 
C 1331 2790 1069 2400 973 2144 
L 966 2144 
L 966 2790 
L 211 2720 
L 211 2554 
C 589 2554 646 2515 646 2208 
L 646 428 
C 646 184 621 153 211 153 
L 211 -13 
C 365 0 646 0 813 0 
C 979 0 1267 0 1421 -13 
L 1421 153 
C 1011 153 986 178 986 428 
L 986 1658 
C 986 2247 1344 2688 1792 2688 
C 2266 2688 2317 2266 2317 1958 
L 2317 428 
C 2317 184 2291 153 1882 153 
L 1882 -13 
C 2035 0 2317 0 2483 0 
C 2650 0 2938 0 3091 -13 
L 3091 153 
C 2682 153 2656 178 2656 428 
L 2656 1933 
z
" transform="scale(0.015625)"/>
       <path id="CMR17-6d" d="M 4326 1933 
C 4326 2252 4269 2790 3507 2790 
C 3072 2790 2771 2496 2656 2151 
L 2650 2151 
C 2573 2676 2195 2790 1837 2790 
C 1331 2790 1069 2400 973 2144 
L 966 2144 
L 966 2790 
L 211 2720 
L 211 2554 
C 589 2554 646 2515 646 2208 
L 646 428 
C 646 184 621 153 211 153 
L 211 -13 
C 365 0 646 0 813 0 
C 979 0 1267 0 1421 -13 
L 1421 153 
C 1011 153 986 178 986 428 
L 986 1658 
C 986 2247 1344 2688 1792 2688 
C 2266 2688 2317 2266 2317 1958 
L 2317 428 
C 2317 184 2291 153 1882 153 
L 1882 -13 
C 2035 0 2317 0 2483 0 
C 2650 0 2938 0 3091 -13 
L 3091 153 
C 2682 153 2656 178 2656 428 
L 2656 1658 
C 2656 2247 3014 2688 3462 2688 
C 3936 2688 3987 2266 3987 1958 
L 3987 428 
C 3987 184 3962 153 3552 153 
L 3552 -13 
C 3706 0 3987 0 4154 0 
C 4320 0 4608 0 4762 -13 
L 4762 153 
C 4352 153 4326 178 4326 428 
L 4326 1933 
z
" transform="scale(0.015625)"/>
       <path id="CMR17-73" d="M 1978 2697 
C 1978 2813 1971 2819 1933 2819 
C 1907 2819 1901 2813 1824 2717 
C 1805 2691 1747 2626 1728 2601 
C 1523 2819 1235 2819 1126 2819 
C 416 2819 160 2447 160 2076 
C 160 1498 813 1365 998 1325 
C 1402 1243 1542 1217 1677 1101 
C 1760 1025 1901 884 1901 654 
C 1901 384 1747 38 1158 38 
C 602 38 403 460 288 1021 
C 269 1110 269 1117 218 1117 
C 166 1117 160 1110 160 983 
L 160 63 
C 160 -51 166 -58 205 -58 
C 237 -58 243 -51 275 0 
C 314 57 410 211 448 276 
C 576 103 800 -64 1158 -64 
C 1792 -64 2131 283 2131 784 
C 2131 1112 1958 1285 1875 1362 
C 1683 1561 1459 1606 1190 1657 
C 838 1735 390 1825 390 2217 
C 390 2383 480 2737 1126 2737 
C 1811 2737 1850 2094 1862 1888 
C 1869 1856 1901 1849 1920 1849 
C 1978 1849 1978 1869 1978 1978 
L 1978 2697 
z
" transform="scale(0.015625)"/>
       <path id="CMR17-70" d="M 1408 -1063 
C 998 -1063 973 -1037 973 -789 
L 973 402 
C 1158 134 1427 -38 1766 -38 
C 2406 -38 3053 523 3053 1388 
C 3053 2191 2496 2802 1837 2802 
C 1453 2802 1139 2592 960 2338 
L 960 2802 
L 198 2732 
L 198 2567 
C 576 2567 634 2528 634 2223 
L 634 -789 
C 634 -1031 608 -1063 198 -1063 
L 198 -1228 
C 352 -1216 634 -1216 800 -1216 
C 966 -1216 1254 -1216 1408 -1228 
L 1408 -1063 
z
M 973 2012 
C 973 2102 973 2235 1222 2471 
C 1254 2497 1472 2688 1792 2688 
C 2259 2688 2643 2108 2643 1382 
C 2643 656 2234 64 1728 64 
C 1498 64 1248 172 1056 472 
C 973 612 973 650 973 752 
L 973 2012 
z
" transform="scale(0.015625)"/>
       <path id="CMMI12-74" d="M 1286 2566 
L 1875 2566 
C 1997 2566 2061 2566 2061 2681 
C 2061 2752 2022 2752 1894 2752 
L 1331 2752 
L 1568 3692 
C 1594 3781 1594 3794 1594 3840 
C 1594 3943 1510 4000 1427 4000 
C 1376 4000 1229 3981 1178 3775 
L 928 2752 
L 326 2752 
C 198 2752 141 2752 141 2630 
C 141 2566 186 2566 307 2566 
L 877 2566 
L 454 881 
C 403 658 384 594 384 511 
C 384 211 595 -64 954 -64 
C 1600 -64 1946 868 1946 912 
C 1946 951 1920 970 1882 970 
C 1869 970 1843 970 1830 944 
C 1824 938 1818 931 1773 829 
C 1638 511 1344 64 973 64 
C 781 64 768 224 768 364 
C 768 370 768 492 787 568 
L 1286 2566 
z
" transform="scale(0.015625)"/>
       <path id="CMR17-28" d="M 1958 -1561 
C 1958 -1555 1958 -1542 1939 -1523 
C 1645 -1224 858 -407 858 1581 
C 858 3569 1632 4379 1946 4697 
C 1946 4704 1958 4717 1958 4736 
C 1958 4755 1939 4768 1914 4768 
C 1843 4768 1299 4296 986 3594 
C 666 2887 576 2199 576 1588 
C 576 1128 621 351 1005 -471 
C 1312 -1135 1837 -1600 1914 -1600 
C 1946 -1600 1958 -1587 1958 -1561 
z
" transform="scale(0.015625)"/>
       <path id="CMR17-72" d="M 960 1497 
C 960 2112 1222 2688 1702 2688 
C 1747 2688 1792 2682 1837 2662 
C 1837 2662 1696 2617 1696 2452 
C 1696 2298 1818 2234 1914 2234 
C 1990 2234 2131 2279 2131 2458 
C 2131 2663 1926 2790 1709 2790 
C 1222 2790 1011 2317 947 2093 
L 941 2093 
L 941 2790 
L 198 2720 
L 198 2554 
C 576 2554 634 2515 634 2208 
L 634 428 
C 634 184 608 153 198 153 
L 198 -13 
C 352 0 646 0 813 0 
C 998 0 1325 0 1498 -13 
L 1498 153 
C 1037 153 960 153 960 440 
L 960 1497 
z
" transform="scale(0.015625)"/>
       <path id="CMR17-62" d="M 960 4396 
L 198 4326 
L 198 4160 
C 576 4160 634 4122 634 3817 
L 634 -13 
L 749 -13 
L 934 441 
C 1120 141 1395 -64 1766 -64 
C 2406 -64 3053 500 3053 1370 
C 3053 2188 2477 2790 1830 2790 
C 1434 2790 1152 2579 960 2330 
L 960 4396 
z
M 973 2004 
C 973 2118 973 2138 1062 2272 
C 1312 2657 1670 2688 1792 2688 
C 1984 2688 2643 2585 2643 1376 
C 2643 108 1888 38 1734 38 
C 1536 38 1248 114 1043 486 
C 973 608 973 621 973 735 
L 973 2004 
z
" transform="scale(0.015625)"/>
       <path id="CMR17-2e" d="M 1062 261 
C 1062 420 934 522 800 522 
C 672 522 538 420 538 261 
C 538 102 666 0 800 0 
C 928 0 1062 102 1062 261 
z
" transform="scale(0.015625)"/>
       <path id="CMR17-29" d="M 1683 1581 
C 1683 2040 1638 2817 1254 3639 
C 947 4303 422 4768 346 4768 
C 326 4768 301 4761 301 4729 
C 301 4717 307 4710 314 4697 
C 621 4378 1402 3568 1402 1584 
C 1402 -407 627 -1217 314 -1537 
C 307 -1549 301 -1556 301 -1568 
C 301 -1600 326 -1600 346 -1600 
C 416 -1600 960 -1128 1274 -426 
C 1594 281 1683 969 1683 1581 
z
" transform="scale(0.015625)"/>
      </defs>
      <use xlink:href="#CMR17-65" transform="scale(0.996264)"/>
      <use xlink:href="#CMR17-76" transform="translate(40.48566 0) scale(0.996264)"/>
      <use xlink:href="#CMR17-61" transform="translate(83.57376 0) scale(0.996264)"/>
      <use xlink:href="#CMR17-6c" transform="translate(129.264237 0) scale(0.996264)"/>
      <use xlink:href="#CMR17-75" transform="translate(154.135295 0) scale(0.996264)"/>
      <use xlink:href="#CMR17-61" transform="translate(205.030665 0) scale(0.996264)"/>
      <use xlink:href="#CMR17-74" transform="translate(250.721142 0) scale(0.996264)"/>
      <use xlink:href="#CMR17-69" transform="translate(286.00191 0) scale(0.996264)"/>
      <use xlink:href="#CMR17-6f" transform="translate(310.872968 0) scale(0.996264)"/>
      <use xlink:href="#CMR17-6e" transform="translate(356.563446 0) scale(0.996264)"/>
      <use xlink:href="#CMR17-74" transform="translate(437.534782 0) scale(0.996264)"/>
      <use xlink:href="#CMR17-69" transform="translate(472.815549 0) scale(0.996264)"/>
      <use xlink:href="#CMR17-6d" transform="translate(497.686608 0) scale(0.996264)"/>
      <use xlink:href="#CMR17-65" transform="translate(574.606198 0) scale(0.996264)"/>
      <use xlink:href="#CMR17-73" transform="translate(645.167825 0) scale(0.996264)"/>
      <use xlink:href="#CMR17-74" transform="translate(680.969162 0) scale(0.996264)"/>
      <use xlink:href="#CMR17-65" transform="translate(716.24993 0) scale(0.996264)"/>
      <use xlink:href="#CMR17-70" transform="translate(756.735591 0) scale(0.996264)"/>
      <use xlink:href="#CMMI12-74" transform="translate(837.706927 0) scale(0.996264)"/>
      <use xlink:href="#CMR17-28" transform="translate(903.009223 0) scale(0.996264)"/>
      <use xlink:href="#CMR17-61" transform="translate(938.289991 0) scale(0.996264)"/>
      <use xlink:href="#CMR17-72" transform="translate(983.980468 0) scale(0.996264)"/>
      <use xlink:href="#CMR17-62" transform="translate(1019.261236 0) scale(0.996264)"/>
      <use xlink:href="#CMR17-2e" transform="translate(1070.156606 0) scale(0.996264)"/>
      <use xlink:href="#CMR17-29" transform="translate(1095.027664 0) scale(0.996264)"/>
     </g>
    </g>
   </g>
   <g id="matplotlib.axis_2">
    <g id="ytick_1">
     <g id="line2d_46">
      <defs>
       <path id="me9aeb6cf7b" d="M 0 0 
L 2.551 0 
" style="stroke: #000000; stroke-width: 0.8"/>
      </defs>
      <g>
       <use xlink:href="#me9aeb6cf7b" x="37.014139" y="159.998056" style="stroke: #000000; stroke-width: 0.8"/>
      </g>
     </g>
     <g id="text_11">
      <!-- $\mathdefault{0}$ -->
      <g transform="translate(27.661149 164.149146) scale(0.12 -0.12)">
       <use xlink:href="#CMR17-30" transform="scale(0.996264)"/>
      </g>
     </g>
    </g>
    <g id="ytick_2">
     <g id="line2d_47">
      <g>
       <use xlink:href="#me9aeb6cf7b" x="37.014139" y="129.522236" style="stroke: #000000; stroke-width: 0.8"/>
      </g>
     </g>
     <g id="text_12">
      <!-- $\mathdefault{20}$ -->
      <g transform="translate(21.808158 133.673326) scale(0.12 -0.12)">
       <use xlink:href="#CMR17-32" transform="scale(0.996264)"/>
       <use xlink:href="#CMR17-30" transform="translate(45.690477 0) scale(0.996264)"/>
      </g>
     </g>
    </g>
    <g id="ytick_3">
     <g id="line2d_48">
      <g>
       <use xlink:href="#me9aeb6cf7b" x="37.014139" y="99.046416" style="stroke: #000000; stroke-width: 0.8"/>
      </g>
     </g>
     <g id="text_13">
      <!-- $\mathdefault{40}$ -->
      <g transform="translate(21.808158 103.197506) scale(0.12 -0.12)">
       <defs>
        <path id="CMR17-34" d="M 2150 4122 
C 2150 4256 2144 4256 2029 4256 
L 128 1254 
L 128 1088 
L 1779 1088 
L 1779 457 
C 1779 224 1766 160 1318 160 
L 1197 160 
L 1197 0 
C 1402 0 1747 0 1965 0 
C 2182 0 2528 0 2733 0 
L 2733 160 
L 2611 160 
C 2163 160 2150 224 2150 457 
L 2150 1088 
L 2803 1088 
L 2803 1254 
L 2150 1254 
L 2150 4122 
z
M 1798 3703 
L 1798 1254 
L 256 1254 
L 1798 3703 
z
" transform="scale(0.015625)"/>
       </defs>
       <use xlink:href="#CMR17-34" transform="scale(0.996264)"/>
       <use xlink:href="#CMR17-30" transform="translate(45.690477 0) scale(0.996264)"/>
      </g>
     </g>
    </g>
    <g id="ytick_4">
     <g id="line2d_49">
      <g>
       <use xlink:href="#me9aeb6cf7b" x="37.014139" y="68.570596" style="stroke: #000000; stroke-width: 0.8"/>
      </g>
     </g>
     <g id="text_14">
      <!-- $\mathdefault{60}$ -->
      <g transform="translate(21.808158 72.721685) scale(0.12 -0.12)">
       <defs>
        <path id="CMR17-36" d="M 678 2176 
C 678 3690 1395 4032 1811 4032 
C 1946 4032 2272 4009 2400 3776 
C 2298 3776 2106 3776 2106 3553 
C 2106 3381 2246 3323 2336 3323 
C 2394 3323 2566 3348 2566 3560 
C 2566 3954 2246 4179 1805 4179 
C 1043 4179 243 3390 243 1984 
C 243 253 966 -128 1478 -128 
C 2099 -128 2688 427 2688 1283 
C 2688 2081 2170 2662 1517 2662 
C 1126 2662 838 2407 678 1960 
L 678 2176 
z
M 1478 25 
C 691 25 691 1200 691 1436 
C 691 1896 909 2560 1504 2560 
C 1613 2560 1926 2560 2138 2120 
C 2253 1870 2253 1609 2253 1289 
C 2253 944 2253 690 2118 434 
C 1978 171 1773 25 1478 25 
z
" transform="scale(0.015625)"/>
       </defs>
       <use xlink:href="#CMR17-36" transform="scale(0.996264)"/>
       <use xlink:href="#CMR17-30" transform="translate(45.690477 0) scale(0.996264)"/>
      </g>
     </g>
    </g>
    <g id="ytick_5">
     <g id="line2d_50">
      <g>
       <use xlink:href="#me9aeb6cf7b" x="37.014139" y="38.094775" style="stroke: #000000; stroke-width: 0.8"/>
      </g>
     </g>
     <g id="text_15">
      <!-- $\mathdefault{80}$ -->
      <g transform="translate(21.808158 42.245865) scale(0.12 -0.12)">
       <defs>
        <path id="CMR17-38" d="M 1741 2264 
C 2144 2467 2554 2773 2554 3263 
C 2554 3841 1990 4179 1472 4179 
C 890 4179 378 3759 378 3180 
C 378 3021 416 2747 666 2505 
C 730 2442 998 2251 1171 2130 
C 883 1983 211 1634 211 934 
C 211 279 838 -128 1459 -128 
C 2144 -128 2720 362 2720 1010 
C 2720 1590 2330 1857 2074 2029 
L 1741 2264 
z
M 902 2822 
C 851 2854 595 3051 595 3351 
C 595 3739 998 4032 1459 4032 
C 1965 4032 2336 3676 2336 3262 
C 2336 2669 1670 2331 1638 2331 
C 1632 2331 1626 2331 1574 2370 
L 902 2822 
z
M 2080 1519 
C 2176 1449 2483 1240 2483 851 
C 2483 381 2010 25 1472 25 
C 890 25 448 438 448 940 
C 448 1443 838 1862 1280 2060 
L 2080 1519 
z
" transform="scale(0.015625)"/>
       </defs>
       <use xlink:href="#CMR17-38" transform="scale(0.996264)"/>
       <use xlink:href="#CMR17-30" transform="translate(45.690477 0) scale(0.996264)"/>
      </g>
     </g>
    </g>
    <g id="ytick_6">
     <g id="line2d_51">
      <g>
       <use xlink:href="#me9aeb6cf7b" x="37.014139" y="7.618955" style="stroke: #000000; stroke-width: 0.8"/>
      </g>
     </g>
     <g id="text_16">
      <!-- $\mathdefault{100}$ -->
      <g transform="translate(15.955168 11.770045) scale(0.12 -0.12)">
       <use xlink:href="#CMR17-31" transform="scale(0.996264)"/>
       <use xlink:href="#CMR17-30" transform="translate(45.690477 0) scale(0.996264)"/>
       <use xlink:href="#CMR17-30" transform="translate(91.380954 0) scale(0.996264)"/>
      </g>
     </g>
    </g>
    <g id="ytick_7">
     <g id="line2d_52">
      <defs>
       <path id="m2771c6580f" d="M 0 0 
L 1.417 0 
" style="stroke: #000000; stroke-width: 0.8"/>
      </defs>
      <g>
       <use xlink:href="#m2771c6580f" x="37.014139" y="152.379101" style="stroke: #000000; stroke-width: 0.8"/>
      </g>
     </g>
    </g>
    <g id="ytick_8">
     <g id="line2d_53">
      <g>
       <use xlink:href="#m2771c6580f" x="37.014139" y="144.760146" style="stroke: #000000; stroke-width: 0.8"/>
      </g>
     </g>
    </g>
    <g id="ytick_9">
     <g id="line2d_54">
      <g>
       <use xlink:href="#m2771c6580f" x="37.014139" y="137.141191" style="stroke: #000000; stroke-width: 0.8"/>
      </g>
     </g>
    </g>
    <g id="ytick_10">
     <g id="line2d_55">
      <g>
       <use xlink:href="#m2771c6580f" x="37.014139" y="121.903281" style="stroke: #000000; stroke-width: 0.8"/>
      </g>
     </g>
    </g>
    <g id="ytick_11">
     <g id="line2d_56">
      <g>
       <use xlink:href="#m2771c6580f" x="37.014139" y="114.284326" style="stroke: #000000; stroke-width: 0.8"/>
      </g>
     </g>
    </g>
    <g id="ytick_12">
     <g id="line2d_57">
      <g>
       <use xlink:href="#m2771c6580f" x="37.014139" y="106.665371" style="stroke: #000000; stroke-width: 0.8"/>
      </g>
     </g>
    </g>
    <g id="ytick_13">
     <g id="line2d_58">
      <g>
       <use xlink:href="#m2771c6580f" x="37.014139" y="91.427461" style="stroke: #000000; stroke-width: 0.8"/>
      </g>
     </g>
    </g>
    <g id="ytick_14">
     <g id="line2d_59">
      <g>
       <use xlink:href="#m2771c6580f" x="37.014139" y="83.808506" style="stroke: #000000; stroke-width: 0.8"/>
      </g>
     </g>
    </g>
    <g id="ytick_15">
     <g id="line2d_60">
      <g>
       <use xlink:href="#m2771c6580f" x="37.014139" y="76.189551" style="stroke: #000000; stroke-width: 0.8"/>
      </g>
     </g>
    </g>
    <g id="ytick_16">
     <g id="line2d_61">
      <g>
       <use xlink:href="#m2771c6580f" x="37.014139" y="60.95164" style="stroke: #000000; stroke-width: 0.8"/>
      </g>
     </g>
    </g>
    <g id="ytick_17">
     <g id="line2d_62">
      <g>
       <use xlink:href="#m2771c6580f" x="37.014139" y="53.332685" style="stroke: #000000; stroke-width: 0.8"/>
      </g>
     </g>
    </g>
    <g id="ytick_18">
     <g id="line2d_63">
      <g>
       <use xlink:href="#m2771c6580f" x="37.014139" y="45.71373" style="stroke: #000000; stroke-width: 0.8"/>
      </g>
     </g>
    </g>
    <g id="ytick_19">
     <g id="line2d_64">
      <g>
       <use xlink:href="#m2771c6580f" x="37.014139" y="30.47582" style="stroke: #000000; stroke-width: 0.8"/>
      </g>
     </g>
    </g>
    <g id="ytick_20">
     <g id="line2d_65">
      <g>
       <use xlink:href="#m2771c6580f" x="37.014139" y="22.856865" style="stroke: #000000; stroke-width: 0.8"/>
      </g>
     </g>
    </g>
    <g id="ytick_21">
     <g id="line2d_66">
      <g>
       <use xlink:href="#m2771c6580f" x="37.014139" y="15.23791" style="stroke: #000000; stroke-width: 0.8"/>
      </g>
     </g>
    </g>
    <g id="ytick_22">
     <g id="line2d_67">
      <g>
       <use xlink:href="#m2771c6580f" x="37.014139" y="0" style="stroke: #000000; stroke-width: 0.8"/>
      </g>
     </g>
    </g>
    <g id="text_17">
     <!-- $\textrm{mean infidelity (\%)}$ -->
     <g transform="translate(8.966376 129.424279) rotate(-90) scale(0.12 -0.12)">
      <defs>
       <path id="CMR17-c" d="M 2554 2764 
C 2400 2764 1926 2764 1805 2739 
C 1766 2725 1754 2725 1677 2725 
L 947 2725 
L 947 3469 
C 947 4073 1434 4352 1818 4352 
C 1939 4352 2214 4320 2355 4101 
C 2291 4101 2086 4101 2086 3878 
C 2086 3725 2189 3648 2317 3648 
C 2432 3648 2547 3712 2547 3885 
C 2547 4205 2240 4454 1843 4454 
C 1338 4454 634 4168 634 3469 
L 634 2725 
L 122 2725 
L 122 2560 
L 634 2560 
L 634 427 
C 634 184 608 153 198 153 
L 198 -13 
C 352 0 634 0 794 0 
C 960 0 1242 0 1395 -13 
L 1395 153 
C 986 153 960 178 960 427 
L 960 2560 
L 1901 2560 
C 2176 2560 2227 2502 2227 2222 
L 2227 427 
C 2227 184 2202 153 1792 153 
L 1792 -13 
C 1946 0 2227 0 2387 0 
C 2554 0 2835 0 2989 -13 
L 2989 153 
C 2579 153 2554 178 2554 427 
L 2554 2764 
z
" transform="scale(0.015625)"/>
       <path id="CMR17-64" d="M 1869 4326 
L 1869 4160 
C 2246 4160 2304 4122 2304 3820 
L 2304 2345 
C 2278 2377 2016 2790 1498 2790 
C 845 2790 211 2208 211 1364 
C 211 525 806 -64 1434 -64 
C 1978 -64 2259 337 2291 380 
L 2291 -63 
L 3066 -63 
L 3066 128 
C 2688 128 2630 166 2630 473 
L 2630 4396 
L 1869 4326 
z
M 2291 755 
C 2291 563 2176 390 2029 262 
C 1811 70 1594 38 1472 38 
C 1286 38 621 134 621 1356 
C 621 2612 1363 2688 1530 2688 
C 1824 2688 2061 2522 2208 2291 
C 2291 2157 2291 2138 2291 2023 
L 2291 755 
z
" transform="scale(0.015625)"/>
       <path id="CMR17-79" d="M 2496 2197 
C 2656 2586 2944 2586 3034 2586 
L 3034 2752 
C 2912 2752 2752 2752 2630 2752 
C 2496 2752 2285 2752 2157 2758 
L 2157 2592 
C 2400 2573 2406 2394 2406 2343 
C 2406 2280 2394 2248 2362 2171 
L 1664 449 
L 902 2306 
C 870 2382 870 2426 870 2433 
C 870 2573 1018 2586 1171 2586 
L 1171 2758 
C 1018 2752 742 2752 582 2752 
C 410 2752 205 2752 64 2758 
L 64 2586 
C 410 2586 448 2554 531 2350 
L 1485 15 
C 1197 -738 1030 -1178 627 -1178 
C 557 -1178 397 -1159 282 -1044 
C 429 -1031 493 -942 493 -833 
C 493 -725 416 -629 288 -629 
C 147 -629 77 -725 77 -840 
C 77 -1095 339 -1280 627 -1280 
C 998 -1280 1229 -922 1357 -604 
L 2496 2197 
z
" transform="scale(0.015625)"/>
       <path id="CMR17-25" d="M 4640 959 
C 4640 1698 4275 2240 3846 2240 
C 3411 2240 2970 1736 2970 959 
C 2970 183 3405 -320 3846 -320 
C 4275 -320 4640 215 4640 959 
z
M 3853 -218 
C 3686 -218 3270 -66 3270 959 
C 3270 1991 3686 2138 3853 2138 
C 4205 2138 4525 1634 4525 959 
C 4525 285 4205 -218 3853 -218 
z
M 4083 4577 
C 4128 4647 4134 4653 4134 4685 
C 4134 4761 4077 4800 4026 4800 
C 3962 4800 3936 4756 3891 4706 
C 3520 4190 3008 4134 2746 4134 
C 2106 4134 1715 4494 1594 4607 
C 1510 4682 1389 4800 1171 4800 
C 736 4800 294 4296 294 3519 
C 294 2743 730 2240 1171 2240 
C 1600 2240 1965 2778 1965 3527 
C 1965 3969 1830 4270 1811 4308 
C 2202 4064 2586 4032 2752 4032 
C 3162 4032 3456 4183 3616 4289 
L 3622 4283 
L 858 -84 
C 800 -174 800 -187 800 -206 
C 800 -276 858 -320 915 -320 
C 973 -320 992 -289 1037 -218 
L 4083 4577 
z
M 1178 2342 
C 1011 2342 595 2494 595 3519 
C 595 4551 1011 4698 1178 4698 
C 1530 4698 1850 4194 1850 3519 
C 1850 2845 1530 2342 1178 2342 
z
" transform="scale(0.015625)"/>
      </defs>
      <use xlink:href="#CMR17-6d" transform="scale(0.996264)"/>
      <use xlink:href="#CMR17-65" transform="translate(76.91959 0) scale(0.996264)"/>
      <use xlink:href="#CMR17-61" transform="translate(117.40525 0) scale(0.996264)"/>
      <use xlink:href="#CMR17-6e" transform="translate(163.095727 0) scale(0.996264)"/>
      <use xlink:href="#CMR17-69" transform="translate(244.067064 0) scale(0.996264)"/>
      <use xlink:href="#CMR17-6e" transform="translate(268.938122 0) scale(0.996264)"/>
      <use xlink:href="#CMR17-c" transform="translate(319.833492 0) scale(0.996264)"/>
      <use xlink:href="#CMR17-64" transform="translate(369.575715 0) scale(0.996264)"/>
      <use xlink:href="#CMR17-65" transform="translate(420.471085 0) scale(0.996264)"/>
      <use xlink:href="#CMR17-6c" transform="translate(460.956745 0) scale(0.996264)"/>
      <use xlink:href="#CMR17-69" transform="translate(485.827804 0) scale(0.996264)"/>
      <use xlink:href="#CMR17-74" transform="translate(510.698862 0) scale(0.996264)"/>
      <use xlink:href="#CMR17-79" transform="translate(543.377176 0) scale(0.996264)"/>
      <use xlink:href="#CMR17-28" transform="translate(621.746058 0) scale(0.996264)"/>
      <use xlink:href="#CMR17-25" transform="translate(657.026826 0) scale(0.996264)"/>
      <use xlink:href="#CMR17-29" transform="translate(733.946416 0) scale(0.996264)"/>
     </g>
    </g>
   </g>
   <g id="line2d_68">
    <path d="M 52.603858 7.618955 
L 55.721802 13.834041 
L 58.839745 19.509782 
L 61.957689 24.696137 
L 65.075633 29.43825 
L 68.193577 33.776917 
L 71.31152 37.749022 
L 74.429464 41.387914 
L 77.547408 44.723763 
L 80.665352 47.783866 
L 83.783296 50.59293 
L 86.901239 53.173327 
L 90.019183 55.545321 
L 94.696099 58.752245 
L 99.373014 61.58607 
L 104.04993 64.094213 
L 108.726846 66.317675 
L 113.403761 68.291938 
L 118.080677 70.047742 
L 122.757593 71.61175 
L 128.99348 73.438317 
L 135.229368 75.011431 
L 141.465255 76.369928 
L 149.260115 77.81504 
L 157.054974 79.026789 
L 166.408806 80.230726 
L 175.762637 81.214706 
L 186.67544 82.142816 
L 199.147215 82.977896 
L 213.177962 83.699401 
L 230.326653 84.3517 
L 250.593288 84.893713 
L 275.536838 85.33473 
L 308.275248 85.681135 
L 355.044404 85.930006 
L 364.398236 85.959716 
L 364.398236 85.959716 
" clip-path="url(#p61203b56ff)" style="fill: none; stroke: #ffffff; stroke-width: 4; stroke-linecap: square"/>
    <path d="M 52.603858 7.618955 
L 55.721802 13.834041 
L 58.839745 19.509782 
L 61.957689 24.696137 
L 65.075633 29.43825 
L 68.193577 33.776917 
L 71.31152 37.749022 
L 74.429464 41.387914 
L 77.547408 44.723763 
L 80.665352 47.783866 
L 83.783296 50.59293 
L 86.901239 53.173327 
L 90.019183 55.545321 
L 94.696099 58.752245 
L 99.373014 61.58607 
L 104.04993 64.094213 
L 108.726846 66.317675 
L 113.403761 68.291938 
L 118.080677 70.047742 
L 122.757593 71.61175 
L 128.99348 73.438317 
L 135.229368 75.011431 
L 141.465255 76.369928 
L 149.260115 77.81504 
L 157.054974 79.026789 
L 166.408806 80.230726 
L 175.762637 81.214706 
L 186.67544 82.142816 
L 199.147215 82.977896 
L 213.177962 83.699401 
L 230.326653 84.3517 
L 250.593288 84.893713 
L 275.536838 85.33473 
L 308.275248 85.681135 
L 355.044404 85.930006 
L 364.398236 85.959716 
L 364.398236 85.959716 
" clip-path="url(#p61203b56ff)" style="fill: none; stroke: #1f77b4; stroke-width: 0.8; stroke-linecap: square"/>
   </g>
   <g id="patch_3">
    <path d="M 37.014139 159.998056 
L 37.014139 0 
" style="fill: none; stroke: #000000; stroke-width: 0.8; stroke-linejoin: miter; stroke-linecap: square"/>
   </g>
   <g id="patch_4">
    <path d="M 379.987954 159.998056 
L 379.987954 0 
" style="fill: none; stroke: #000000; stroke-width: 0.8; stroke-linejoin: miter; stroke-linecap: square"/>
   </g>
   <g id="patch_5">
    <path d="M 37.014139 159.998056 
L 379.987954 159.998056 
" style="fill: none; stroke: #000000; stroke-width: 0.8; stroke-linejoin: miter; stroke-linecap: square"/>
   </g>
   <g id="patch_6">
    <path d="M 37.014139 0 
L 379.987954 0 
" style="fill: none; stroke: #000000; stroke-width: 0.8; stroke-linejoin: miter; stroke-linecap: square"/>
   </g>
  </g>
  <g id="axes_2">
   <g id="FillBetweenPolyCollection_1">
    <defs>
     <path id="m2afded1632" d="M 52.603858 -121.509404 
L 52.603858 -121.509404 
L 54.16283 -63.178014 
L 55.721802 -73.186299 
L 57.280773 -69.581547 
L 58.839745 -73.71242 
L 60.398717 -57.316935 
L 61.957689 -61.252568 
L 63.516661 -69.553279 
L 65.075633 -70.078583 
L 66.634605 -73.402398 
L 68.193577 -66.644803 
L 69.752549 -75.274137 
L 71.31152 -71.113446 
L 72.870492 -70.82299 
L 74.429464 -73.725922 
L 75.988436 -67.259587 
L 77.547408 -80.482084 
L 79.10638 -71.983777 
L 80.665352 -79.942895 
L 82.224324 -69.519449 
L 83.783296 -71.512246 
L 85.342267 -72.026275 
L 86.901239 -80.033303 
L 88.460211 -82.06887 
L 90.019183 -73.530262 
L 91.578155 -67.012263 
L 93.137127 -82.563016 
L 94.696099 -73.685717 
L 96.255071 -80.609753 
L 97.814043 -81.33147 
L 99.373014 -74.724928 
L 100.931986 -81.010915 
L 102.490958 -85.913194 
L 104.04993 -80.492885 
L 105.608902 -85.68407 
L 107.167874 -85.971557 
L 108.726846 -75.638045 
L 110.285818 -86.710497 
L 111.84479 -78.743713 
L 113.403761 -79.685033 
L 114.962733 -75.65803 
L 116.521705 -77.878421 
L 118.080677 -83.117842 
L 119.639649 -82.124523 
L 121.198621 -74.513723 
L 122.757593 -74.263254 
L 124.316565 -74.570132 
L 125.875537 -77.201443 
L 127.434508 -82.796562 
L 128.99348 -77.79717 
L 130.552452 -96.852143 
L 132.111424 -86.485223 
L 133.670396 -85.140673 
L 135.229368 -89.283692 
L 136.78834 -92.566967 
L 138.347312 -82.944932 
L 139.906284 -81.784918 
L 141.465255 -86.621316 
L 143.024227 -88.348526 
L 144.583199 -77.275182 
L 146.142171 -81.443468 
L 147.701143 -86.466309 
L 149.260115 -89.09326 
L 150.819087 -99.523917 
L 152.378059 -82.026066 
L 153.937031 -86.170706 
L 155.496002 -78.538073 
L 157.054974 -82.384826 
L 158.613946 -75.94861 
L 160.172918 -86.662951 
L 161.73189 -82.308655 
L 163.290862 -88.033734 
L 164.849834 -84.642264 
L 166.408806 -77.880159 
L 167.967778 -88.775216 
L 169.526749 -83.689515 
L 171.085721 -83.105506 
L 172.644693 -85.053085 
L 174.203665 -91.760362 
L 175.762637 -83.510846 
L 177.321609 -89.802928 
L 178.880581 -91.673016 
L 180.439553 -83.647604 
L 181.998525 -93.081022 
L 183.557496 -85.628436 
L 185.116468 -89.71812 
L 186.67544 -88.566139 
L 188.234412 -85.19347 
L 189.793384 -94.839929 
L 191.352356 -89.546047 
L 192.911328 -83.230423 
L 194.4703 -88.79332 
L 196.029272 -81.134007 
L 197.588243 -77.261985 
L 199.147215 -86.324524 
L 200.706187 -85.737182 
L 202.265159 -92.172259 
L 203.824131 -84.696948 
L 205.383103 -91.053359 
L 206.942075 -86.834938 
L 208.501047 -87.681461 
L 210.060019 -83.568188 
L 211.61899 -88.137819 
L 213.177962 -93.28713 
L 214.736934 -85.983194 
L 216.295906 -86.913809 
L 217.854878 -90.376047 
L 219.41385 -84.21409 
L 220.972822 -95.923534 
L 222.531794 -89.154867 
L 224.090766 -85.533736 
L 225.649737 -101.179822 
L 227.208709 -90.598037 
L 228.767681 -89.9077 
L 230.326653 -84.677483 
L 231.885625 -91.064394 
L 233.444597 -93.722578 
L 235.003569 -81.531623 
L 236.562541 -86.801935 
L 238.121513 -89.750911 
L 239.680484 -83.86866 
L 241.239456 -91.8933 
L 242.798428 -99.749466 
L 244.3574 -94.294479 
L 245.916372 -88.694806 
L 247.475344 -94.658838 
L 249.034316 -91.007391 
L 250.593288 -87.396178 
L 252.15226 -93.997953 
L 253.711231 -92.545896 
L 255.270203 -87.743526 
L 256.829175 -93.484743 
L 258.388147 -90.889042 
L 259.947119 -95.339332 
L 261.506091 -93.21929 
L 263.065063 -83.22805 
L 264.624035 -96.5274 
L 266.183007 -91.516737 
L 267.741978 -88.692221 
L 269.30095 -94.909311 
L 270.859922 -85.05557 
L 272.418894 -94.589863 
L 273.977866 -89.756211 
L 275.536838 -98.262171 
L 277.09581 -94.140417 
L 278.654782 -91.08397 
L 280.213754 -95.249864 
L 281.772725 -87.255822 
L 283.331697 -88.51756 
L 284.890669 -89.42227 
L 286.449641 -87.528107 
L 288.008613 -96.299753 
L 289.567585 -90.512626 
L 291.126557 -85.591856 
L 292.685529 -96.974154 
L 294.244501 -95.687125 
L 295.803472 -88.495087 
L 297.362444 -93.361701 
L 298.921416 -94.407893 
L 300.480388 -95.339767 
L 302.03936 -79.600209 
L 303.598332 -88.894431 
L 305.157304 -91.436933 
L 306.716276 -89.23869 
L 308.275248 -95.717971 
L 309.834219 -94.699626 
L 311.393191 -93.734543 
L 312.952163 -93.978058 
L 314.511135 -85.543175 
L 316.070107 -96.089817 
L 317.629079 -94.138835 
L 319.188051 -90.341668 
L 320.747023 -94.02785 
L 322.305995 -83.942426 
L 323.864966 -98.323703 
L 325.423938 -89.219 
L 326.98291 -95.224597 
L 328.541882 -91.767271 
L 330.100854 -96.616613 
L 331.659826 -95.566559 
L 333.218798 -92.029537 
L 334.77777 -98.479269 
L 336.336742 -91.80453 
L 337.895713 -97.126156 
L 339.454685 -95.526237 
L 341.013657 -95.962938 
L 342.572629 -87.476036 
L 344.131601 -92.895797 
L 345.690573 -90.140629 
L 347.249545 -94.186614 
L 348.808517 -96.425106 
L 350.367489 -94.928338 
L 351.92646 -97.526524 
L 353.485432 -89.766019 
L 355.044404 -89.180819 
L 356.603376 -88.064556 
L 358.162348 -99.471776 
L 359.72132 -91.743753 
L 361.280292 -96.555884 
L 362.839264 -91.580896 
L 364.398236 -98.404438 
L 364.398236 -145.308607 
L 364.398236 -145.308607 
L 362.839264 -149.751343 
L 361.280292 -153.980407 
L 359.72132 -145.825997 
L 358.162348 -147.323088 
L 356.603376 -154.079823 
L 355.044404 -154.163125 
L 353.485432 -153.159167 
L 351.92646 -150.451574 
L 350.367489 -144.374328 
L 348.808517 -148.817203 
L 347.249545 -154.480268 
L 345.690573 -151.602287 
L 344.131601 -154.445413 
L 342.572629 -155.844237 
L 341.013657 -152.524841 
L 339.454685 -149.036459 
L 337.895713 -148.22454 
L 336.336742 -154.083567 
L 334.77777 -152.090315 
L 333.218798 -151.211168 
L 331.659826 -150.731362 
L 330.100854 -141.161265 
L 328.541882 -146.772484 
L 326.98291 -141.628544 
L 325.423938 -142.57106 
L 323.864966 -150.489788 
L 322.305995 -152.628856 
L 320.747023 -155.400218 
L 319.188051 -151.991093 
L 317.629079 -150.054617 
L 316.070107 -148.658159 
L 314.511135 -154.445301 
L 312.952163 -143.449264 
L 311.393191 -148.880958 
L 309.834219 -146.932614 
L 308.275248 -148.551774 
L 306.716276 -151.332582 
L 305.157304 -151.363006 
L 303.598332 -157.144276 
L 302.03936 -151.108516 
L 300.480388 -144.390586 
L 298.921416 -146.586363 
L 297.362444 -153.564436 
L 295.803472 -149.832538 
L 294.244501 -146.773187 
L 292.685529 -151.289761 
L 291.126557 -152.121006 
L 289.567585 -149.850895 
L 288.008613 -154.605166 
L 286.449641 -145.505969 
L 284.890669 -147.269003 
L 283.331697 -154.690148 
L 281.772725 -154.992511 
L 280.213754 -149.042083 
L 278.654782 -153.440859 
L 277.09581 -142.947622 
L 275.536838 -148.957481 
L 273.977866 -150.498528 
L 272.418894 -152.042354 
L 270.859922 -150.636643 
L 269.30095 -151.285908 
L 267.741978 -155.653217 
L 266.183007 -150.064744 
L 264.624035 -153.388697 
L 263.065063 -152.624952 
L 261.506091 -148.791186 
L 259.947119 -154.77856 
L 258.388147 -159.230821 
L 256.829175 -144.400075 
L 255.270203 -160.026513 
L 253.711231 -153.996631 
L 252.15226 -157.57515 
L 250.593288 -151.146596 
L 249.034316 -158.041692 
L 247.475344 -158.923453 
L 245.916372 -145.544352 
L 244.3574 -157.008965 
L 242.798428 -148.995903 
L 241.239456 -150.629026 
L 239.680484 -152.783837 
L 238.121513 -145.741161 
L 236.562541 -156.636231 
L 235.003569 -150.674824 
L 233.444597 -157.219925 
L 231.885625 -157.778512 
L 230.326653 -164.974945 
L 228.767681 -155.769802 
L 227.208709 -146.753713 
L 225.649737 -150.569496 
L 224.090766 -160.964681 
L 222.531794 -155.679114 
L 220.972822 -153.491804 
L 219.41385 -156.319564 
L 217.854878 -154.450245 
L 216.295906 -154.018779 
L 214.736934 -160.021735 
L 213.177962 -155.259601 
L 211.61899 -151.061909 
L 210.060019 -150.370832 
L 208.501047 -156.564636 
L 206.942075 -154.367708 
L 205.383103 -152.442125 
L 203.824131 -159.258571 
L 202.265159 -149.954921 
L 200.706187 -159.898855 
L 199.147215 -159.7107 
L 197.588243 -151.524244 
L 196.029272 -153.455472 
L 194.4703 -153.125083 
L 192.911328 -151.247827 
L 191.352356 -143.224731 
L 189.793384 -146.800648 
L 188.234412 -161.231754 
L 186.67544 -161.869358 
L 185.116468 -161.750511 
L 183.557496 -153.482743 
L 181.998525 -151.723021 
L 180.439553 -162.138731 
L 178.880581 -152.301846 
L 177.321609 -147.079924 
L 175.762637 -158.383774 
L 174.203665 -148.907734 
L 172.644693 -155.85373 
L 171.085721 -147.083958 
L 169.526749 -161.448955 
L 167.967778 -153.576371 
L 166.408806 -158.652642 
L 164.849834 -164.857681 
L 163.290862 -159.134179 
L 161.73189 -145.695261 
L 160.172918 -165.632091 
L 158.613946 -153.740237 
L 157.054974 -155.826674 
L 155.496002 -160.486042 
L 153.937031 -158.595924 
L 152.378059 -159.670329 
L 150.819087 -153.361817 
L 149.260115 -167.9026 
L 147.701143 -161.742215 
L 146.142171 -153.166176 
L 144.583199 -158.928176 
L 143.024227 -161.196697 
L 141.465255 -160.900192 
L 139.906284 -154.662907 
L 138.347312 -164.348264 
L 136.78834 -155.131795 
L 135.229368 -160.734852 
L 133.670396 -160.444168 
L 132.111424 -160.90105 
L 130.552452 -154.419055 
L 128.99348 -157.113657 
L 127.434508 -167.924092 
L 125.875537 -165.416582 
L 124.316565 -154.37375 
L 122.757593 -158.074028 
L 121.198621 -155.72581 
L 119.639649 -158.819129 
L 118.080677 -153.140212 
L 116.521705 -164.863915 
L 114.962733 -164.009593 
L 113.403761 -160.375143 
L 111.84479 -160.722506 
L 110.285818 -164.577946 
L 108.726846 -167.147017 
L 107.167874 -163.920537 
L 105.608902 -165.967263 
L 104.04993 -161.797843 
L 102.490958 -156.372346 
L 100.931986 -155.622547 
L 99.373014 -167.760848 
L 97.814043 -167.714576 
L 96.255071 -163.192638 
L 94.696099 -164.14528 
L 93.137127 -165.477068 
L 91.578155 -164.715432 
L 90.019183 -162.395914 
L 88.460211 -165.770963 
L 86.901239 -172.03703 
L 85.342267 -164.824534 
L 83.783296 -167.810168 
L 82.224324 -170.144486 
L 80.665352 -172.016442 
L 79.10638 -175.562199 
L 77.547408 -177.621809 
L 75.988436 -170.152091 
L 74.429464 -172.921104 
L 72.870492 -178.03466 
L 71.31152 -169.955803 
L 69.752549 -185.354665 
L 68.193577 -161.536 
L 66.634605 -171.151755 
L 65.075633 -164.193191 
L 63.516661 -170.066524 
L 61.957689 -177.130578 
L 60.398717 -167.750873 
L 58.839745 -163.303981 
L 57.280773 -179.001037 
L 55.721802 -183.109876 
L 54.16283 -189.398038 
L 52.603858 -121.509404 
z
"/>
    </defs>
    <g clip-path="url(#p61203b56ff)">
     <use xlink:href="#m2afded1632" x="0" y="190.08" style="fill-opacity: 0.3"/>
    </g>
   </g>
   <g id="matplotlib.axis_3">
    <g id="ytick_23">
     <g id="line2d_69">
      <defs>
       <path id="m29ac0072d9" d="M 0 0 
L -2.551 0 
" style="stroke: #000000; stroke-width: 0.8"/>
      </defs>
      <g>
       <use xlink:href="#m29ac0072d9" x="379.987954" y="159.998056" style="stroke: #000000; stroke-width: 0.8"/>
      </g>
     </g>
     <g id="text_18">
      <!-- $\mathdefault{10}$ -->
      <g transform="translate(383.487954 164.149146) scale(0.12 -0.12)">
       <defs>
        <path id="CMSY10-0" d="M 4218 1472 
C 4326 1472 4442 1472 4442 1600 
C 4442 1728 4326 1728 4218 1728 
L 755 1728 
C 646 1728 531 1728 531 1600 
C 531 1472 646 1472 755 1472 
L 4218 1472 
z
" transform="scale(0.015625)"/>
       </defs>
       <use xlink:href="#CMSY10-0" transform="scale(0.996264)"/>
       <use xlink:href="#CMR17-31" transform="translate(77.487468 0) scale(0.996264)"/>
       <use xlink:href="#CMR17-30" transform="translate(123.177945 0) scale(0.996264)"/>
      </g>
     </g>
    </g>
    <g id="ytick_24">
     <g id="line2d_70">
      <g>
       <use xlink:href="#m29ac0072d9" x="379.987954" y="114.284326" style="stroke: #000000; stroke-width: 0.8"/>
      </g>
     </g>
     <g id="text_19">
      <!-- $\mathdefault{5}$ -->
      <g transform="translate(383.487954 118.435416) scale(0.12 -0.12)">
       <use xlink:href="#CMSY10-0" transform="scale(0.996264)"/>
       <use xlink:href="#CMR17-35" transform="translate(77.487468 0) scale(0.996264)"/>
      </g>
     </g>
    </g>
    <g id="ytick_25">
     <g id="line2d_71">
      <g>
       <use xlink:href="#m29ac0072d9" x="379.987954" y="68.570596" style="stroke: #000000; stroke-width: 0.8"/>
      </g>
     </g>
     <g id="text_20">
      <!-- $\mathdefault{0}$ -->
      <g transform="translate(383.487954 72.721685) scale(0.12 -0.12)">
       <use xlink:href="#CMR17-30" transform="scale(0.996264)"/>
      </g>
     </g>
    </g>
    <g id="ytick_26">
     <g id="line2d_72">
      <g>
       <use xlink:href="#m29ac0072d9" x="379.987954" y="22.856865" style="stroke: #000000; stroke-width: 0.8"/>
      </g>
     </g>
     <g id="text_21">
      <!-- $\mathdefault{5}$ -->
      <g transform="translate(383.487954 27.007955) scale(0.12 -0.12)">
       <use xlink:href="#CMR17-35" transform="scale(0.996264)"/>
      </g>
     </g>
    </g>
    <g id="ytick_27">
     <g id="line2d_73">
      <defs>
       <path id="m2ddd8aad22" d="M 0 0 
L -1.417 0 
" style="stroke: #000000; stroke-width: 0.8"/>
      </defs>
      <g>
       <use xlink:href="#m2ddd8aad22" x="379.987954" y="150.85531" style="stroke: #000000; stroke-width: 0.8"/>
      </g>
     </g>
    </g>
    <g id="ytick_28">
     <g id="line2d_74">
      <g>
       <use xlink:href="#m2ddd8aad22" x="379.987954" y="141.712564" style="stroke: #000000; stroke-width: 0.8"/>
      </g>
     </g>
    </g>
    <g id="ytick_29">
     <g id="line2d_75">
      <g>
       <use xlink:href="#m2ddd8aad22" x="379.987954" y="132.569818" style="stroke: #000000; stroke-width: 0.8"/>
      </g>
     </g>
    </g>
    <g id="ytick_30">
     <g id="line2d_76">
      <g>
       <use xlink:href="#m2ddd8aad22" x="379.987954" y="123.427072" style="stroke: #000000; stroke-width: 0.8"/>
      </g>
     </g>
    </g>
    <g id="ytick_31">
     <g id="line2d_77">
      <g>
       <use xlink:href="#m2ddd8aad22" x="379.987954" y="105.14158" style="stroke: #000000; stroke-width: 0.8"/>
      </g>
     </g>
    </g>
    <g id="ytick_32">
     <g id="line2d_78">
      <g>
       <use xlink:href="#m2ddd8aad22" x="379.987954" y="95.998834" style="stroke: #000000; stroke-width: 0.8"/>
      </g>
     </g>
    </g>
    <g id="ytick_33">
     <g id="line2d_79">
      <g>
       <use xlink:href="#m2ddd8aad22" x="379.987954" y="86.856088" style="stroke: #000000; stroke-width: 0.8"/>
      </g>
     </g>
    </g>
    <g id="ytick_34">
     <g id="line2d_80">
      <g>
       <use xlink:href="#m2ddd8aad22" x="379.987954" y="77.713342" style="stroke: #000000; stroke-width: 0.8"/>
      </g>
     </g>
    </g>
    <g id="ytick_35">
     <g id="line2d_81">
      <g>
       <use xlink:href="#m2ddd8aad22" x="379.987954" y="59.427849" style="stroke: #000000; stroke-width: 0.8"/>
      </g>
     </g>
    </g>
    <g id="ytick_36">
     <g id="line2d_82">
      <g>
       <use xlink:href="#m2ddd8aad22" x="379.987954" y="50.285103" style="stroke: #000000; stroke-width: 0.8"/>
      </g>
     </g>
    </g>
    <g id="ytick_37">
     <g id="line2d_83">
      <g>
       <use xlink:href="#m2ddd8aad22" x="379.987954" y="41.142357" style="stroke: #000000; stroke-width: 0.8"/>
      </g>
     </g>
    </g>
    <g id="ytick_38">
     <g id="line2d_84">
      <g>
       <use xlink:href="#m2ddd8aad22" x="379.987954" y="31.999611" style="stroke: #000000; stroke-width: 0.8"/>
      </g>
     </g>
    </g>
    <g id="ytick_39">
     <g id="line2d_85">
      <g>
       <use xlink:href="#m2ddd8aad22" x="379.987954" y="13.714119" style="stroke: #000000; stroke-width: 0.8"/>
      </g>
     </g>
    </g>
    <g id="ytick_40">
     <g id="line2d_86">
      <g>
       <use xlink:href="#m2ddd8aad22" x="379.987954" y="4.571373" style="stroke: #000000; stroke-width: 0.8"/>
      </g>
     </g>
    </g>
    <g id="text_22">
     <!-- $\textrm{difference} \times 10^9$ -->
     <g transform="translate(416.794604 119.499894) rotate(-90) scale(0.12 -0.12)">
      <defs>
       <path id="CMR17-b" d="M 2554 2560 
L 3283 2560 
L 3283 2725 
L 2541 2725 
L 2541 3494 
C 2541 4022 2810 4352 3085 4352 
C 3168 4352 3264 4327 3328 4282 
C 3277 4269 3142 4225 3142 4067 
C 3142 3901 3270 3850 3360 3850 
C 3450 3850 3578 3901 3578 4067 
C 3578 4308 3347 4454 3091 4454 
C 2842 4454 2637 4333 2477 4181 
C 2330 4390 2086 4454 1837 4454 
C 1338 4454 634 4168 634 3469 
L 634 2725 
L 122 2725 
L 122 2560 
L 634 2560 
L 634 427 
C 634 184 608 153 198 153 
L 198 -13 
C 352 0 634 0 794 0 
C 960 0 1242 0 1395 -13 
L 1395 153 
C 986 153 960 178 960 427 
L 960 2560 
L 2227 2560 
L 2227 427 
C 2227 184 2202 153 1792 153 
L 1792 -13 
C 1946 0 2240 0 2406 0 
C 2592 0 2918 0 3091 -13 
L 3091 153 
C 2630 153 2554 153 2554 439 
L 2554 2560 
z
M 947 2725 
L 947 3469 
C 947 4047 1395 4352 1824 4352 
C 1920 4352 2170 4332 2323 4187 
C 2208 4187 2099 4136 2099 3977 
C 2099 3812 2246 3767 2259 3767 
C 2227 3652 2227 3526 2227 3481 
L 2227 2725 
L 947 2725 
z
" transform="scale(0.015625)"/>
       <path id="CMR17-63" d="M 2234 2240 
C 2112 2240 1933 2240 1933 2017 
C 1933 1838 2080 1787 2163 1787 
C 2208 1787 2394 1807 2394 2024 
C 2394 2467 1958 2803 1466 2803 
C 787 2803 211 2178 211 1363 
C 211 516 813 -64 1466 -64 
C 2259 -64 2458 677 2458 748 
C 2458 774 2451 793 2406 793 
C 2362 793 2355 787 2330 703 
C 2163 180 1798 51 1523 51 
C 1114 51 621 427 621 1369 
C 621 2338 1094 2688 1472 2688 
C 1722 2688 2093 2573 2234 2240 
z
" transform="scale(0.015625)"/>
       <path id="CMSY10-2" d="M 2490 1785 
L 1210 3059 
C 1133 3136 1120 3148 1069 3148 
C 1005 3148 941 3091 941 3020 
C 941 2976 954 2963 1024 2892 
L 2304 1606 
L 1024 320 
C 954 249 941 236 941 192 
C 941 121 1005 64 1069 64 
C 1120 64 1133 76 1210 153 
L 2483 1427 
L 3808 102 
C 3821 96 3866 64 3904 64 
C 3981 64 4032 121 4032 192 
C 4032 204 4032 230 4013 262 
C 4006 275 2989 1280 2669 1606 
L 3840 2777 
C 3872 2816 3968 2899 4000 2937 
C 4006 2950 4032 2976 4032 3020 
C 4032 3091 3981 3148 3904 3148 
C 3853 3148 3827 3123 3757 3052 
L 2490 1785 
z
" transform="scale(0.015625)"/>
       <path id="CMR17-39" d="M 2253 1864 
C 2253 464 1670 31 1190 31 
C 1043 31 685 31 538 294 
C 704 268 826 357 826 518 
C 826 692 685 749 595 749 
C 538 749 365 723 365 506 
C 365 71 742 -128 1203 -128 
C 1939 -128 2688 674 2688 2073 
C 2688 3817 1971 4179 1485 4179 
C 851 4179 243 3628 243 2778 
C 243 1991 762 1408 1414 1408 
C 1952 1408 2189 1903 2253 2112 
L 2253 1864 
z
M 1427 1510 
C 1254 1510 1011 1542 813 1922 
C 678 2169 678 2461 678 2771 
C 678 3146 678 3405 858 3684 
C 947 3817 1114 4032 1485 4032 
C 2240 4032 2240 2885 2240 2632 
C 2240 2182 2035 1510 1427 1510 
z
" transform="scale(0.015625)"/>
      </defs>
      <use xlink:href="#CMR17-64" transform="scale(0.996264)"/>
      <use xlink:href="#CMR17-69" transform="translate(50.89537 0) scale(0.996264)"/>
      <use xlink:href="#CMR17-b" transform="translate(75.766428 0) scale(0.996264)"/>
      <use xlink:href="#CMR17-65" transform="translate(128.111106 0) scale(0.996264)"/>
      <use xlink:href="#CMR17-72" transform="translate(168.596766 0) scale(0.996264)"/>
      <use xlink:href="#CMR17-65" transform="translate(203.877534 0) scale(0.996264)"/>
      <use xlink:href="#CMR17-6e" transform="translate(244.363194 0) scale(0.996264)"/>
      <use xlink:href="#CMR17-63" transform="translate(295.258564 0) scale(0.996264)"/>
      <use xlink:href="#CMR17-65" transform="translate(335.744225 0) scale(0.996264)"/>
      <use xlink:href="#CMSY10-2" transform="translate(398.369092 0) scale(0.996264)"/>
      <use xlink:href="#CMR17-31" transform="translate(497.995767 0) scale(0.996264)"/>
      <use xlink:href="#CMR17-30" transform="translate(543.686244 0) scale(0.996264)"/>
      <use xlink:href="#CMR17-39" transform="translate(589.376721 36.153639) scale(0.697382)"/>
     </g>
    </g>
   </g>
   <g id="line2d_87"/>
   <g id="line2d_88">
    <path d="M 52.603858 68.570596 
L 54.16283 63.791974 
L 55.721802 61.931913 
L 57.280773 65.788708 
L 60.398717 77.546096 
L 61.957689 70.888427 
L 63.516661 70.270099 
L 65.075633 72.944113 
L 66.634605 67.802923 
L 68.193577 75.989598 
L 69.752549 59.765599 
L 71.31152 69.545376 
L 72.870492 65.651175 
L 74.429464 66.756487 
L 75.988436 71.374161 
L 77.547408 61.028053 
L 79.10638 66.307012 
L 80.665352 64.100332 
L 82.224324 70.248032 
L 83.783296 70.418793 
L 85.342267 71.654596 
L 86.901239 64.044833 
L 88.460211 66.160083 
L 90.019183 72.116912 
L 91.578155 74.216153 
L 93.137127 66.059958 
L 94.696099 71.164501 
L 96.255071 68.178805 
L 97.814043 65.556977 
L 99.373014 68.837112 
L 100.931986 71.763269 
L 102.490958 68.93723 
L 104.04993 68.934636 
L 105.608902 64.254333 
L 107.167874 65.133953 
L 108.726846 68.687469 
L 110.285818 64.435779 
L 111.84479 70.34689 
L 113.403761 70.049912 
L 114.962733 70.246188 
L 116.521705 68.708832 
L 118.080677 71.950973 
L 119.639649 69.608174 
L 121.198621 74.960233 
L 122.757593 73.911359 
L 124.316565 75.608059 
L 125.875537 68.770987 
L 127.434508 64.719673 
L 128.99348 72.624587 
L 130.552452 64.444401 
L 132.111424 66.386864 
L 133.670396 67.28758 
L 135.229368 65.070728 
L 136.78834 66.230619 
L 138.347312 66.433402 
L 139.906284 71.856087 
L 141.465255 66.319246 
L 143.024227 65.307389 
L 144.583199 71.978321 
L 146.142171 72.775178 
L 147.701143 65.975738 
L 149.260115 61.58207 
L 150.819087 63.637133 
L 152.378059 69.231803 
L 153.937031 67.696685 
L 155.496002 70.567943 
L 157.054974 70.97425 
L 158.613946 75.235577 
L 160.172918 63.932479 
L 161.73189 76.078042 
L 163.290862 66.496044 
L 164.849834 65.330028 
L 166.408806 71.8136 
L 167.967778 68.904207 
L 169.526749 67.510765 
L 171.085721 74.985268 
L 172.644693 69.626593 
L 174.203665 69.745952 
L 175.762637 69.13269 
L 177.321609 71.638574 
L 178.880581 68.092569 
L 180.439553 67.186833 
L 181.998525 67.677978 
L 183.557496 70.524411 
L 185.116468 64.345685 
L 186.67544 64.862252 
L 188.234412 66.867388 
L 189.793384 69.259711 
L 191.352356 73.694611 
L 192.911328 72.840875 
L 194.4703 69.120799 
L 196.029272 72.785261 
L 197.588243 75.686886 
L 199.147215 67.062388 
L 200.706187 67.261981 
L 202.265159 69.01641 
L 203.824131 68.102241 
L 205.383103 68.332258 
L 206.942075 69.478677 
L 208.501047 67.956952 
L 210.060019 73.11049 
L 211.61899 70.480136 
L 213.177962 65.806635 
L 214.736934 67.077535 
L 216.295906 69.613706 
L 217.854878 67.666854 
L 219.41385 69.813173 
L 220.972822 65.372331 
L 222.531794 67.66301 
L 224.090766 66.830792 
L 225.649737 64.205341 
L 227.208709 71.404125 
L 228.767681 67.241249 
L 230.326653 65.253786 
L 231.885625 65.658547 
L 233.444597 64.608748 
L 235.003569 73.976776 
L 236.562541 68.360917 
L 238.121513 72.333964 
L 239.680484 71.753752 
L 242.798428 65.707315 
L 244.3574 64.428278 
L 245.916372 72.960421 
L 247.475344 63.288854 
L 249.034316 65.555459 
L 250.593288 70.808613 
L 252.15226 64.293448 
L 253.711231 66.808736 
L 255.270203 66.194981 
L 256.829175 71.137591 
L 258.388147 65.020069 
L 259.947119 65.021054 
L 261.506091 69.074762 
L 263.065063 72.153499 
L 264.624035 65.121951 
L 266.183007 69.289259 
L 267.741978 67.907281 
L 269.30095 66.98239 
L 270.859922 72.233893 
L 272.418894 66.763892 
L 273.977866 69.952631 
L 275.536838 66.470174 
L 277.09581 71.535981 
L 278.654782 67.817586 
L 280.213754 67.934026 
L 281.772725 68.955833 
L 283.331697 68.476146 
L 284.890669 71.734363 
L 286.449641 73.562962 
L 288.008613 64.627541 
L 289.567585 69.89824 
L 291.126557 71.223569 
L 292.685529 65.948043 
L 294.244501 68.849844 
L 295.803472 70.916188 
L 297.362444 66.616931 
L 298.921416 69.582872 
L 300.480388 70.214823 
L 302.03936 74.725638 
L 303.598332 67.060646 
L 305.157304 68.680031 
L 306.716276 69.794364 
L 308.275248 67.945127 
L 309.834219 69.26388 
L 311.393191 68.77225 
L 312.952163 71.366339 
L 314.511135 70.085762 
L 316.070107 67.706012 
L 317.629079 67.983274 
L 319.188051 68.913619 
L 320.747023 65.365966 
L 322.305995 71.794359 
L 323.864966 65.673254 
L 325.423938 74.18497 
L 326.98291 71.653429 
L 328.541882 70.810123 
L 330.100854 71.191061 
L 331.659826 66.931039 
L 333.218798 68.459648 
L 334.77777 64.795208 
L 336.336742 67.135951 
L 337.895713 67.404652 
L 339.454685 67.798652 
L 341.013657 65.83611 
L 342.572629 68.419863 
L 344.131601 66.409395 
L 345.690573 69.208542 
L 347.249545 65.746559 
L 348.808517 67.458845 
L 350.367489 70.428667 
L 351.92646 66.090951 
L 353.485432 68.617407 
L 355.044404 68.408028 
L 356.603376 69.00781 
L 358.162348 66.682568 
L 359.72132 71.295125 
L 361.280292 64.811855 
L 362.839264 69.413881 
L 364.398236 68.223477 
L 364.398236 68.223477 
" clip-path="url(#p61203b56ff)" style="fill: none; stroke: #000000; stroke-width: 0.8; stroke-linecap: square"/>
   </g>
   <g id="patch_7">
    <path d="M 37.014139 159.998056 
L 37.014139 0 
" style="fill: none; stroke: #000000; stroke-width: 0.8; stroke-linejoin: miter; stroke-linecap: square"/>
   </g>
   <g id="patch_8">
    <path d="M 379.987954 159.998056 
L 379.987954 0 
" style="fill: none; stroke: #000000; stroke-width: 0.8; stroke-linejoin: miter; stroke-linecap: square"/>
   </g>
   <g id="patch_9">
    <path d="M 37.014139 159.998056 
L 379.987954 159.998056 
" style="fill: none; stroke: #000000; stroke-width: 0.8; stroke-linejoin: miter; stroke-linecap: square"/>
   </g>
   <g id="patch_10">
    <path d="M 37.014139 0 
L 379.987954 0 
" style="fill: none; stroke: #000000; stroke-width: 0.8; stroke-linejoin: miter; stroke-linecap: square"/>
   </g>
   <g id="legend_1">
    <g id="patch_11">
     <path d="M 45.414139 153.998056 
L 357.086413 153.998056 
Q 359.486413 153.998056 359.486413 151.598056 
L 359.486413 136.073461 
Q 359.486413 133.673461 357.086413 133.673461 
L 45.414139 133.673461 
Q 43.014139 133.673461 43.014139 136.073461 
L 43.014139 151.598056 
Q 43.014139 153.998056 45.414139 153.998056 
z
" style="fill: #ffffff; opacity: 0.8; stroke: #cccccc; stroke-linejoin: miter"/>
    </g>
    <g id="line2d_89">
     <path d="M 47.814139 142.673461 
L 53.814139 142.673461 
L 59.814139 142.673461 
" style="fill: none; stroke: #1f77b4; stroke-width: 0.8; stroke-linecap: square"/>
    </g>
    <g id="text_23">
     <!-- mean infidelity -->
     <g transform="translate(65.814139 146.873461) scale(0.12 -0.12)">
      <defs>
       <path id="CMSS17-6d" d="M 4288 1877 
C 4288 2308 4179 2816 3462 2816 
C 2982 2816 2694 2516 2566 2331 
C 2451 2670 2182 2816 1798 2816 
C 1363 2816 1088 2568 941 2389 
L 941 2758 
L 474 2758 
L 474 0 
L 960 0 
L 960 1559 
C 960 1939 1101 2428 1555 2428 
C 2138 2428 2138 2016 2138 1829 
L 2138 0 
L 2624 0 
L 2624 1559 
C 2624 1939 2765 2428 3219 2428 
C 3802 2428 3802 2016 3802 1829 
L 3802 0 
L 4288 0 
L 4288 1877 
z
" transform="scale(0.015625)"/>
       <path id="CMSS17-65" d="M 2502 1377 
C 2502 1590 2490 2003 2285 2345 
C 2061 2713 1696 2816 1421 2816 
C 755 2816 192 2188 192 1375 
C 192 582 774 -64 1510 -64 
C 1798 -64 2150 19 2470 248 
C 2470 274 2458 414 2451 420 
C 2451 433 2432 630 2432 656 
C 2125 407 1773 325 1517 325 
C 1107 325 666 667 646 1377 
L 2502 1377 
z
M 698 1728 
C 781 2084 1062 2421 1421 2421 
C 1517 2421 1965 2421 2080 1728 
L 698 1728 
z
" transform="scale(0.015625)"/>
       <path id="CMSS17-61" d="M 2406 1791 
C 2406 2392 1978 2808 1402 2808 
C 1120 2808 813 2757 461 2553 
L 499 2135 
C 659 2248 934 2432 1395 2432 
C 1722 2432 1920 2180 1920 1782 
L 1920 1536 
C 896 1536 256 1238 256 726 
C 256 461 416 -64 947 -64 
C 1043 -64 1562 -64 1933 217 
L 1933 -19 
L 2406 -19 
L 2406 1791 
z
M 1920 816 
C 1920 701 1920 548 1728 434 
C 1562 325 1350 325 1261 325 
C 941 325 723 511 723 744 
C 723 1211 1722 1211 1920 1211 
L 1920 816 
z
" transform="scale(0.015625)"/>
       <path id="CMSS17-6e" d="M 2618 1877 
C 2618 2283 2522 2816 1798 2816 
C 1389 2816 1120 2606 941 2389 
L 941 2758 
L 474 2758 
L 474 0 
L 960 0 
L 960 1559 
C 960 1964 1114 2428 1549 2428 
C 2112 2428 2131 2048 2131 1829 
L 2131 0 
L 2618 0 
L 2618 1877 
z
" transform="scale(0.015625)"/>
       <path id="CMSS17-69" d="M 979 4183 
L 442 4183 
L 442 3648 
L 979 3648 
L 979 4183 
z
M 947 2739 
L 474 2739 
L 474 0 
L 947 0 
L 947 2739 
z
" transform="scale(0.015625)"/>
       <path id="CMSS17-c" d="M 2752 4416 
L 2240 4416 
L 2240 3906 
L 2752 3906 
L 2752 4416 
z
M 2733 2737 
L 2259 2737 
L 2259 0 
L 2733 0 
L 2733 2737 
z
M 1075 2368 
L 1773 2368 
L 1773 2737 
L 1062 2737 
L 1062 3578 
C 1062 3919 1216 4092 1421 4092 
C 1542 4092 1664 4056 1773 3992 
L 1773 4410 
C 1722 4428 1574 4480 1421 4480 
C 941 4480 602 3993 602 3372 
L 602 2737 
L 160 2737 
L 160 2368 
L 602 2368 
L 602 0 
L 1075 0 
L 1075 2368 
z
" transform="scale(0.015625)"/>
       <path id="CMSS17-64" d="M 2611 4416 
L 2138 4416 
L 2138 2438 
C 1939 2603 1613 2756 1254 2756 
C 672 2756 211 2131 211 1347 
C 211 562 666 -64 1235 -64 
C 1677 -64 1971 172 2125 306 
L 2125 -13 
L 2611 -13 
L 2611 4416 
z
M 2125 836 
C 2125 747 2125 653 1926 482 
C 1798 375 1645 325 1498 325 
C 1152 325 698 576 698 1340 
C 698 2134 1210 2368 1562 2368 
C 1798 2368 1990 2254 2125 2065 
L 2125 836 
z
" transform="scale(0.015625)"/>
       <path id="CMSS17-6c" d="M 947 4416 
L 474 4416 
L 474 0 
L 947 0 
L 947 4416 
z
" transform="scale(0.015625)"/>
       <path id="CMSS17-74" d="M 1069 2368 
L 1901 2368 
L 1901 2737 
L 1069 2737 
L 1069 3520 
L 614 3520 
L 614 2737 
L 109 2737 
L 109 2368 
L 602 2368 
L 602 749 
C 602 384 685 -64 1107 -64 
C 1427 -64 1722 25 2003 172 
L 1901 548 
C 1747 414 1562 337 1363 337 
C 1082 337 1069 696 1069 856 
L 1069 2368 
z
" transform="scale(0.015625)"/>
       <path id="CMSS17-79" d="M 2675 2752 
L 2176 2752 
C 1632 1294 1446 702 1434 383 
L 1427 383 
C 1408 696 1126 1460 902 2007 
L 602 2752 
L 83 2752 
L 1216 13 
C 1146 -178 1043 -465 1011 -529 
C 870 -885 774 -885 672 -885 
C 646 -885 442 -885 211 -809 
L 250 -1229 
C 410 -1261 570 -1280 685 -1280 
C 845 -1280 1165 -1280 1459 -497 
L 2675 2752 
z
" transform="scale(0.015625)"/>
      </defs>
      <use xlink:href="#CMSS17-6d" transform="scale(0.996264)"/>
      <use xlink:href="#CMSS17-65" transform="translate(74.229254 0) scale(0.996264)"/>
      <use xlink:href="#CMSS17-61" transform="translate(115.868077 0) scale(0.996264)"/>
      <use xlink:href="#CMSS17-6e" transform="translate(160.789997 0) scale(0.996264)"/>
      <use xlink:href="#CMSS17-69" transform="translate(240.224053 0) scale(0.996264)"/>
      <use xlink:href="#CMSS17-6e" transform="translate(262.404776 0) scale(0.996264)"/>
      <use xlink:href="#CMSS17-c" transform="translate(310.609719 0) scale(0.996264)"/>
      <use xlink:href="#CMSS17-64" transform="translate(360.736456 0) scale(0.996264)"/>
      <use xlink:href="#CMSS17-65" transform="translate(408.9414 0) scale(0.996264)"/>
      <use xlink:href="#CMSS17-6c" transform="translate(450.580222 0) scale(0.996264)"/>
      <use xlink:href="#CMSS17-69" transform="translate(472.760945 0) scale(0.996264)"/>
      <use xlink:href="#CMSS17-74" transform="translate(494.941668 0) scale(0.996264)"/>
      <use xlink:href="#CMSS17-79" transform="translate(526.17078 0) scale(0.996264)"/>
     </g>
    </g>
    <g id="line2d_90">
     <path d="M 148.76937 142.673461 
L 154.76937 142.673461 
L 160.76937 142.673461 
" style="fill: none; stroke: #000000; stroke-width: 0.8; stroke-linecap: square"/>
    </g>
    <g id="text_24">
     <!-- mean difference -->
     <g transform="translate(166.76937 146.873461) scale(0.12 -0.12)">
      <defs>
       <path id="CMSS17-b" d="M 1075 2368 
L 1734 2368 
L 1734 2737 
L 1062 2737 
L 1062 3559 
C 1062 4001 1395 4092 1613 4092 
C 1837 4092 2022 4034 2093 4009 
L 2093 4429 
C 2022 4442 1830 4480 1619 4480 
C 1030 4480 602 3999 602 3359 
L 602 2737 
L 160 2737 
L 160 2368 
L 602 2368 
L 602 0 
L 1075 0 
L 1075 2368 
z
M 2739 2368 
L 3398 2368 
L 3398 2737 
L 2726 2737 
L 2726 3559 
C 2726 4001 3059 4092 3277 4092 
C 3501 4092 3686 4034 3757 4009 
L 3757 4429 
C 3686 4442 3494 4480 3283 4480 
C 2694 4480 2266 4001 2266 3363 
L 2266 0 
L 2739 0 
L 2739 2368 
z
" transform="scale(0.015625)"/>
       <path id="CMSS17-72" d="M 954 1363 
C 954 1965 1395 2368 1958 2368 
L 1958 2789 
C 1549 2789 1165 2585 934 2253 
L 934 2758 
L 480 2758 
L 480 0 
L 954 0 
L 954 1363 
z
" transform="scale(0.015625)"/>
       <path id="CMSS17-63" d="M 2464 2541 
C 2464 2585 2170 2714 2093 2739 
C 1882 2816 1613 2816 1542 2816 
C 710 2816 211 2093 211 1363 
C 211 595 768 -64 1517 -64 
C 1946 -64 2253 76 2502 242 
L 2464 664 
C 2189 453 1869 337 1523 337 
C 1024 337 698 774 698 1369 
C 698 1831 909 2414 1549 2414 
C 1901 2414 2099 2343 2394 2145 
L 2464 2541 
z
" transform="scale(0.015625)"/>
      </defs>
      <use xlink:href="#CMSS17-6d" transform="scale(0.996264)"/>
      <use xlink:href="#CMSS17-65" transform="translate(74.229254 0) scale(0.996264)"/>
      <use xlink:href="#CMSS17-61" transform="translate(115.868077 0) scale(0.996264)"/>
      <use xlink:href="#CMSS17-6e" transform="translate(160.789997 0) scale(0.996264)"/>
      <use xlink:href="#CMSS17-64" transform="translate(240.224053 0) scale(0.996264)"/>
      <use xlink:href="#CMSS17-69" transform="translate(288.428996 0) scale(0.996264)"/>
      <use xlink:href="#CMSS17-b" transform="translate(310.609719 0) scale(0.996264)"/>
      <use xlink:href="#CMSS17-65" transform="translate(365.260689 0) scale(0.996264)"/>
      <use xlink:href="#CMSS17-72" transform="translate(406.899511 0) scale(0.996264)"/>
      <use xlink:href="#CMSS17-65" transform="translate(438.809284 0) scale(0.996264)"/>
      <use xlink:href="#CMSS17-6e" transform="translate(480.448106 0) scale(0.996264)"/>
      <use xlink:href="#CMSS17-63" transform="translate(528.653049 0) scale(0.996264)"/>
      <use xlink:href="#CMSS17-65" transform="translate(570.291871 0) scale(0.996264)"/>
     </g>
    </g>
    <g id="patch_12">
     <path d="M 255.121037 146.873461 
L 267.121037 146.873461 
L 267.121037 138.473461 
L 255.121037 138.473461 
z
" style="fill-opacity: 0.3"/>
    </g>
    <g id="text_25">
     <!-- stddev difference -->
     <g transform="translate(273.121037 146.873461) scale(0.12 -0.12)">
      <defs>
       <path id="CMSS17-73" d="M 2061 2627 
C 1683 2807 1389 2807 1197 2807 
C 742 2807 198 2648 198 2003 
C 198 1359 902 1218 1094 1179 
C 1389 1122 1715 1058 1715 740 
C 1715 337 1254 337 1171 337 
C 915 337 563 407 243 638 
L 166 210 
C 531 0 883 -64 1178 -64 
C 1965 -64 2163 416 2163 781 
C 2163 1094 1984 1305 1862 1401 
C 1651 1568 1574 1587 1050 1696 
C 960 1709 646 1779 646 2066 
C 646 2432 1050 2432 1139 2432 
C 1555 2432 1811 2303 1984 2208 
L 2061 2627 
z
" transform="scale(0.015625)"/>
       <path id="CMSS17-76" d="M 2675 2752 
L 2176 2752 
L 1747 1556 
C 1613 1165 1421 627 1389 352 
L 1382 352 
C 1370 468 1318 634 1286 749 
C 1248 890 1197 1056 1158 1172 
L 595 2752 
L 83 2752 
L 1094 0 
L 1664 0 
L 2675 2752 
z
" transform="scale(0.015625)"/>
      </defs>
      <use xlink:href="#CMSS17-73" transform="scale(0.996264)"/>
      <use xlink:href="#CMSS17-74" transform="translate(35.913542 0) scale(0.996264)"/>
      <use xlink:href="#CMSS17-64" transform="translate(69.745109 0) scale(0.996264)"/>
      <use xlink:href="#CMSS17-64" transform="translate(117.950052 0) scale(0.996264)"/>
      <use xlink:href="#CMSS17-65" transform="translate(166.154995 0) scale(0.996264)"/>
      <use xlink:href="#CMSS17-76" transform="translate(207.793817 0) scale(0.996264)"/>
      <use xlink:href="#CMSS17-64" transform="translate(282.023071 0) scale(0.996264)"/>
      <use xlink:href="#CMSS17-69" transform="translate(330.228015 0) scale(0.996264)"/>
      <use xlink:href="#CMSS17-b" transform="translate(352.408738 0) scale(0.996264)"/>
      <use xlink:href="#CMSS17-65" transform="translate(407.059708 0) scale(0.996264)"/>
      <use xlink:href="#CMSS17-72" transform="translate(448.69853 0) scale(0.996264)"/>
      <use xlink:href="#CMSS17-65" transform="translate(480.608302 0) scale(0.996264)"/>
      <use xlink:href="#CMSS17-6e" transform="translate(522.247124 0) scale(0.996264)"/>
      <use xlink:href="#CMSS17-63" transform="translate(570.452068 0) scale(0.996264)"/>
      <use xlink:href="#CMSS17-65" transform="translate(612.09089 0) scale(0.996264)"/>
     </g>
    </g>
   </g>
  </g>
 </g>
 <defs>
  <clipPath id="p61203b56ff">
   <rect x="37.014139" y="0" width="342.973816" height="159.998056"/>
  </clipPath>
 </defs>
</svg>
